<?xml version="1.0" encoding="UTF-8"?>
<svg width="24px" height="24px" viewBox="0 0 24 24" version="1.1" xmlns="http://www.w3.org/2000/svg" xmlns:xlink="http://www.w3.org/1999/xlink">
    <title>chat_left</title>
    <g id="小網Guideline" stroke="none" stroke-width="1" fill="none" fill-rule="evenodd">
        <g id="icon" transform="translate(-472.000000, -166.000000)" fill-rule="nonzero">
            <g id="chat_left" transform="translate(472.000000, 166.000000)">
                <rect id="Rectangle" fill="#000000" opacity="0" x="0" y="0" width="24" height="24"></rect>
                <path d="M14.25,6.78 C15.495,6.78 16.5,7.8 16.5,9.045 L16.5,15.84 C16.5,17.085 15.495,18.105 14.25,18.105 L7.005,18.105 L2.25,21.75 L2.25,9.045 C2.25,7.8 3.255,6.78 4.5,6.78 L14.25,6.78 Z M14.25,8.295 L4.5,8.295 C4.08,8.295 3.75,8.64 3.75,9.045 L3.75,18.705 L6.495,16.605 L14.25,16.605 C14.67,16.605 15,16.26 15,15.855 L15,9.045 C15,8.625 14.67,8.295 14.25,8.295 Z M19.5,2.25 C20.745,2.25 21.75,3.27 21.75,4.515 L21.75,16.86 L17.82,13.56 L18.78,12.405 L20.25,13.635 L20.25,4.515 C20.25,4.095 19.92,3.765 19.5,3.765 L9.75,3.765 C9.33,3.765 9,4.095 9,4.515 L9,5.265 L7.5,5.265 L7.5,4.515 C7.5,3.27 8.505,2.25 9.75,2.25 L19.5,2.25 Z M12.75,13.125 L12.75,14.64 L6,14.64 L6,13.125 L12.75,13.125 Z M12.75,10.11 L12.75,11.625 L6,11.625 L6,10.11 L12.75,10.11 Z" id="Shape" fill="#3E3E3E"></path>
            </g>
        </g>
    </g>
</svg>