<svg xmlns="http://www.w3.org/2000/svg" xmlns:xlink="http://www.w3.org/1999/xlink" width="30" height="30" viewBox="0 0 30 30">
    <defs>
        <path id="xxfrmiyi0a" d="M20.563 8.304V6.696c0-.147-.119-.267-.263-.267H7.7c-.144 0-.263.12-.263.267v1.608c0 .147.119.267.263.267h12.6c.144 0 .262-.12.262-.267zM7.7 10.714c-.144 0-.263.12-.263.268v1.607c0 .148.119.268.263.268h6.038c.144 0 .262-.12.262-.268v-1.607c0-.147-.118-.268-.262-.268H7.7zm3.566 16.739h-7.93V2.547h19.14v12.17c0 .156.124.283.274.283h1.914c.15 0 .273-.127.273-.283V1.132C24.938.506 24.45 0 23.845 0H1.969C1.364 0 .875.506.875 1.132v27.736c0 .626.489 1.132 1.094 1.132h9.297c.15 0 .273-.127.273-.283v-1.981c0-.156-.123-.283-.273-.283zm15.773.958l-3.468-3.332c.829-1.054 1.323-2.368 1.323-3.793 0-3.472-2.928-6.286-6.54-6.286-3.613 0-6.541 2.814-6.541 6.286 0 3.471 2.928 6.285 6.54 6.285 1.33 0 2.565-.382 3.598-1.035l3.52 3.382c.059.057.133.082.207.082.075 0 .153-.029.209-.082l1.152-1.107c.115-.111.115-.29 0-.4zm-8.664-2.697c-2.418 0-4.375-1.917-4.375-4.285 0-2.37 1.957-4.286 4.375-4.286s4.375 1.917 4.375 4.286c0 2.368-1.957 4.285-4.375 4.285z"/>
    </defs>
    <g fill="none" fill-rule="evenodd">
        <g>
            <g>
                <g>
                    <g transform="translate(-45 -197) translate(45 197) translate(.875) translate(.125)">
                        <mask id="3aye3x373b" fill="#fff">
                            <use xlink:href="#xxfrmiyi0a"/>
                        </mask>
                        <use fill="#FFF" stroke="#FFF" stroke-width=".94" xlink:href="#xxfrmiyi0a"/>
                        <path fill="#FFF" d="M-1 0H29V30H-1z" mask="url(#3aye3x373b)"/>
                    </g>
                </g>
            </g>
        </g>
    </g>
</svg>
