<svg xmlns="http://www.w3.org/2000/svg" xmlns:xlink="http://www.w3.org/1999/xlink" width="30" height="30" viewBox="0 0 30 30">
    <defs>
        <path id="e38h3o11pa" d="M14.187 28.125c-3.052 0-6.006-.967-8.494-2.81-3.036-2.25-5.01-5.54-5.546-9.257-.54-3.72.419-7.422 2.694-10.429C7.54-.581 16.466-1.846 22.739 2.801c2.63 1.949 4.505 4.759 5.286 7.91.133.54-.2 1.084-.746 1.215-.545.13-1.094-.197-1.228-.737-.666-2.7-2.275-5.111-4.53-6.781C16.144.424 8.49 1.51 4.464 6.83c-1.951 2.578-2.77 5.751-2.307 8.938.464 3.186 2.152 6.005 4.757 7.933 5.378 3.987 13.031 2.9 17.058-2.42 1.054-1.394 1.777-2.955 2.145-4.64.12-.544.663-.889 1.206-.77.549.117.898.653.777 1.193-.435 1.972-1.275 3.793-2.507 5.422-2.275 3.004-5.6 4.957-9.36 5.487-.682.104-1.368.151-2.047.151zm.632-10.547h-2.055v-.697c-.05-1.335.618-2.426 1.988-3.26 1.42-.925 2.105-1.85 2.055-2.775-.15-1.288-.97-1.986-2.44-2.077-1.786 0-2.905.925-3.356 2.775l-2.222-.485c.618-2.82 2.572-4.155 5.88-4.018 2.806.136 4.359 1.334 4.66 3.608.1 1.486-.835 2.775-2.823 3.882-1.17.697-1.737 1.531-1.687 2.501v.546zm-.17 3.516H12.89v-1.758h1.757v1.758z"/>
    </defs>
    <g fill="none" fill-rule="evenodd">
        <g>
            <g>
                <g transform="translate(-174 -289) translate(174 289) translate(1 1)">
                    <mask id="ngbz8554bb" fill="#fff">
                        <use xlink:href="#e38h3o11pa"/>
                    </mask>
                    <use fill="#005378" fill-rule="nonzero" stroke="#005378" stroke-width="1.198" xlink:href="#e38h3o11pa"/>
                    <path fill="#005378" d="M-1 -1H29V29H-1z" mask="url(#ngbz8554bb)"/>
                </g>
            </g>
        </g>
    </g>
</svg>
