<svg xmlns="http://www.w3.org/2000/svg" xmlns:xlink="http://www.w3.org/1999/xlink" width="30" height="30" viewBox="0 0 30 30">
    <defs>
        <path id="lghx5v9qxa" d="M29.332 14.263l-4.91-11.791C23.969 1.419 23.015.75 21.969.75h-2.195c-.377 0-.682.341-.682.762v1.523c0 .42.305.762.682.762h2.195l2.577 6.261c-2.892-.694-5.852.802-7.295 3.687-.663-.51-1.445-.791-2.25-.807-.816.008-1.61.295-2.277.822-1.44-2.875-4.382-4.374-7.268-3.702l2.577-6.261h2.195c.377 0 .682-.341.682-.762V1.512c0-.42-.305-.762-.682-.762H8.032C6.97.744 6.002 1.428 5.55 2.502L.64 14.293C.218 15.3-.001 16.397 0 17.508c0 4.207 3.053 7.617 6.818 7.617 3.766 0 6.818-3.41 6.818-7.617 0-.842.61-1.524 1.364-1.524.753 0 1.364.682 1.364 1.524 0 4.207 3.052 7.617 6.818 7.617 3.765 0 6.818-3.41 6.818-7.617-.003-1.124-.23-2.233-.668-3.245zM6.818 22.078c-2.26 0-4.09-2.046-4.09-4.57 0-2.524 1.83-4.57 4.09-4.57s4.091 2.046 4.091 4.57c0 2.524-1.831 4.57-4.09 4.57zm16.364 0c-2.26 0-4.091-2.046-4.091-4.57 0-2.524 1.831-4.57 4.09-4.57 2.26 0 4.092 2.046 4.092 4.57 0 2.524-1.832 4.57-4.091 4.57z"/>
    </defs>
    <g fill="none" fill-rule="evenodd">
        <g>
            <g>
                <g transform="translate(-45 -105) translate(45 105) translate(0 3)">
                    <mask id="eavrtkssqb" fill="#fff">
                        <use xlink:href="#lghx5v9qxa"/>
                    </mask>
                    <use fill="#005378" fill-rule="nonzero" xlink:href="#lghx5v9qxa"/>
                    <path fill="#FFF" d="M0 -3H30V27H0z" mask="url(#eavrtkssqb)"/>
                </g>
            </g>
        </g>
    </g>
</svg>
