<svg xmlns="http://www.w3.org/2000/svg" xmlns:xlink="http://www.w3.org/1999/xlink" width="30" height="30" viewBox="0 0 30 30">
    <defs>
        <path id="tk0odmqkma" d="M15 30C6.716 30 0 23.285 0 15 0 6.716 6.716 0 15 0c8.285 0 15 6.716 15 15 0 8.285-6.715 15-15 15zm0-3c6.627 0 12-5.373 12-12S21.627 3 15 3 3 8.373 3 15s5.373 12 12 12zm-5.25-9H18c.414 0 .75-.336.75-.75s-.336-.75-.75-.75h-6c-1.34 0-2.578-.715-3.248-1.875-.67-1.16-.67-2.59 0-3.75C9.422 9.715 10.66 9 12 9h1.5V6h3v3h3.75v3H12c-.414 0-.75.336-.75.75s.336.75.75.75h6c1.34 0 2.578.715 3.248 1.875.67 1.16.67 2.59 0 3.75C20.578 20.285 19.34 21 18 21h-1.5v3h-3v-3H9.75v-3z"/>
    </defs>
    <g fill="none" fill-rule="evenodd">
        <g>
            <g transform="translate(-45 -151) translate(45 151)">
                <mask id="h1mcig0jkb" fill="#fff">
                    <use xlink:href="#tk0odmqkma"/>
                </mask>
                <use fill="#005378" fill-rule="nonzero" xlink:href="#tk0odmqkma"/>
                <path fill="#FFF" d="M0 0H30V30H0z" mask="url(#h1mcig0jkb)"/>
            </g>
        </g>
    </g>
</svg>
