<svg xmlns="http://www.w3.org/2000/svg" xmlns:xlink="http://www.w3.org/1999/xlink" width="30" height="30" viewBox="0 0 30 30">
    <defs>
        <path id="w9e3227zca" d="M28.29 14.798c.26.26.64.358.992.254.351-.104.618-.393.696-.753.077-.36-.048-.734-.326-.974L15.652.27c-.384-.359-.978-.359-1.363 0L.292 13.323c-.38.383-.39.998-.025 1.394.366.396.978.43 1.386.078L14.971 2.376l13.32 12.422zm-11.32 5.29v7.032c0 .555.45 1.005 1 1.005h7.002c.551-.001.998-.45.998-1.005V15.067c-.025-.537-.465-.96-1-.96-.534 0-.974.423-1 .96v11.048h-4.998v-7.03c0-.555-.448-1.005-1.001-1.005h-6.084c-.552.001-.998.45-.998 1.005v7.03H5.97V15.067c-.025-.537-.465-.96-1-.96-.534 0-.975.423-1 .96V27.12c0 .555.448 1.005 1 1.005h6.916c.553 0 1.001-.45 1.001-1.005v-7.032h4.082zm8.002-16.07v3.014c.024.536.465.958 1 .958.534 0 .974-.422.999-.958V3.013c0-.555-.448-1.005-1-1.005h-5c-.553 0-1 .45-1 1.005 0 .555.447 1.005 1 1.005h4z"/>
    </defs>
    <g fill="none" fill-rule="evenodd">
        <g>
            <g>
                <g transform="translate(-45 -59) translate(45 59) translate(0 1)">
                    <mask id="vxarcy8qnb" fill="#fff">
                        <use xlink:href="#w9e3227zca"/>
                    </mask>
                    <use fill="#005378" stroke="#FFF" stroke-width=".938" xlink:href="#w9e3227zca"/>
                    <path fill="#FFF" d="M0 -1H30V29H0z" mask="url(#vxarcy8qnb)"/>
                </g>
            </g>
        </g>
    </g>
</svg>
