<svg xmlns="http://www.w3.org/2000/svg" width="24" height="24" viewBox="0 0 24 24">
    <g fill="none" fill-rule="evenodd">
        <g fill="#005378" stroke="#005378" stroke-width=".522">
            <g>
                <g>
                    <g>
                        <path d="M19.09 0C21.803 0 24 2.417 24 5.4h0v9.599c0 2.982-2.198 5.399-4.91 5.399h0-9.326l-3.219 3.144c-.48.473-1.17.591-1.76.3-.589-.29-.968-.934-.967-1.644h0v-1.932c-2.234-.56-3.82-2.747-3.818-5.267h0v-9.6C0 2.417 2.198 0 4.91 0h0zm0 1.8H4.91c-1.808 0-3.274 1.611-3.274 3.6h0v9.599c0 1.988 1.466 3.6 3.273 3.6h.546v3.599l3.681-3.6h9.955c1.807 0 3.273-1.611 3.273-3.6h0V5.4c0-1.988-1.466-3.6-3.273-3.6h0zM12.73 9.333c.628 0 1.138.561 1.138 1.253 0 .691-.51 1.252-1.138 1.252-.629 0-1.139-.561-1.139-1.252 0-.692.51-1.253 1.139-1.253zm6.209 0c.629 0 1.138.561 1.138 1.253 0 .691-.51 1.252-1.138 1.252-.629 0-1.139-.561-1.139-1.252 0-.692.51-1.253 1.139-1.253zm-12.344 0c.629 0 1.138.561 1.138 1.253 0 .691-.51 1.252-1.138 1.252-.629 0-1.138-.561-1.138-1.252 0-.692.51-1.253 1.138-1.253z" transform="translate(-1216 -21) translate(0 15) translate(120) translate(1096 6)"/>
                    </g>
                </g>
            </g>
        </g>
    </g>
</svg>
