<svg xmlns="http://www.w3.org/2000/svg" xmlns:xlink="http://www.w3.org/1999/xlink" width="24" height="24" viewBox="0 0 24 24">
    <defs>
        <path id="q06pzrp07a" d="M8.4 11.7c-.828 0-1.5.672-1.5 1.5s.672 1.5 1.5 1.5 1.5-.672 1.5-1.5-.672-1.5-1.5-1.5zm7.2 0c-.828 0-1.5.672-1.5 1.5s.672 1.5 1.5 1.5 1.5-.672 1.5-1.5-.672-1.5-1.5-1.5zM12 0C5.376 0 0 5.376 0 12s5.376 12 12 12 12-5.376 12-12S18.624 0 12 0zm0 21.6c-5.292 0-9.6-4.308-9.6-9.6 0-.348.024-.696.06-1.032 2.832-1.26 5.076-3.576 6.252-6.444C10.884 7.596 14.46 9.6 18.504 9.6c.936 0 1.836-.108 2.7-.312.252.852.396 1.764.396 2.712 0 5.292-4.308 9.6-9.6 9.6z"/>
    </defs>
    <g fill="none" fill-rule="evenodd">
        <g>
            <g>
                <g>
                    <g transform="translate(-1272 -21) translate(0 15) translate(120) translate(1152 6)">
                        <use fill="#005378" xlink:href="#q06pzrp07a"/>
                    </g>
                </g>
            </g>
        </g>
    </g>
</svg>
