<svg xmlns="http://www.w3.org/2000/svg" width="30" height="30" viewBox="0 0 30 30">
    <g fill="none" fill-rule="evenodd">
        <g>
            <g>
                <g>
                    <path fill="#FFF" d="M23.625 0h-21C1.182 0 0 1.181 0 2.625v22.75C0 26.818 1.181 28 2.625 28h21c1.443 0 2.625-1.181 2.625-2.625V2.625C26.25 1.182 25.069 0 23.625 0zm-.875 25.022H3.087V3.057h23.161v12.677H22.75v9.288zM7 19h12.25v3H7v-3zm0-4h12.25v3H7v-3zm4.375-9.75C12.825 5.25 14 6.425 14 7.875S12.825 10.5 11.375 10.5 8.75 9.325 8.75 7.875 9.925 5.25 11.375 5.25zm1.75 5.25h-3.5C8.181 10.5 7 11.287 7 12.25V14h8.75v-1.75c0-.963-1.181-1.75-2.626-1.75h.001z" transform="translate(-45 -59) translate(45 59) translate(2 1)"/>
                    <path d="M23.625 0h-21C1.182 0 0 1.181 0 2.625v22.75C0 26.818 1.181 28 2.625 28h21c1.443 0 2.625-1.181 2.625-2.625V2.625C26.25 1.182 25.069 0 23.625 0z" transform="translate(-45 -59) translate(45 59) translate(2 1)"/>
                    <path d="M22.75 25.022L3.087 25.022 3.087 3.057 22.75 3.057 26.248 3.057 26.248 15.734 22.75 15.734z" transform="translate(-45 -59) translate(45 59) translate(2 1)"/>
                    <path d="M7 19L19.25 19 19.25 22 7 22zM7 15L19.25 15 19.25 18 7 18zM11.375 5.25C12.825 5.25 14 6.425 14 7.875S12.825 10.5 11.375 10.5 8.75 9.325 8.75 7.875 9.925 5.25 11.375 5.25zM13.125 10.5h-3.5C8.181 10.5 7 11.287 7 12.25V14h8.75v-1.75c0-.963-1.181-1.75-2.626-1.75h.001z" transform="translate(-45 -59) translate(45 59) translate(2 1)"/>
                    <path fill="#FFF" d="M24.25 4.5v3.75H28v2.5h-3.751l.001 3.75h-2.5l-.001-3.75H18v-2.5h3.75V4.5h2.5z" transform="translate(-45 -59) translate(45 59) translate(2 1)"/>
                </g>
            </g>
        </g>
    </g>
</svg>
