<svg xmlns="http://www.w3.org/2000/svg" width="16" height="16" viewBox="0 0 16 16">
    <g fill="none" fill-rule="evenodd">
        <g fill="#005378" fill-rule="nonzero">
            <g>
                <g>
                    <g>
                        <g>
                            <path d="M6.214 12.549L13.1 5.627 9.028 1.533 2.14 8.455c-.096.096-.16.22-.182.355L.84 13.854l5.019-1.122c.134-.023.258-.087.354-.183zm-3.652-.424l.637-2.878 5.829-5.858 2.226 2.238-5.828 5.857-2.864.64zm11.437-7.4c.835-.84.835-2.207 0-3.047L12.956.631C12.551.224 12.013 0 11.441 0c-.573 0-1.111.224-1.516.63l-.69.695 4.073 4.094.69-.694zm-2.87-3.352c.099-.04.205-.06.312-.06.223 0 .434.087.592.246l1.042 1.048c.244.245.306.605.185.908L11.13 1.373zm4.148 13.174H.723c-.399 0-.723.326-.723.726 0 .401.324.727.723.727h14.554c.399 0 .723-.326.723-.727 0-.4-.324-.726-.723-.726z" transform="translate(-1324 -771) translate(0 685) translate(360 66) translate(944) translate(20 20)"/>
                        </g>
                    </g>
                </g>
            </g>
        </g>
    </g>
</svg>
