<svg xmlns="http://www.w3.org/2000/svg" width="30" height="30" viewBox="0 0 30 30">
    <g fill="none" fill-rule="evenodd">
        <g>
            <g>
                <path fill="#005378" stroke="#00547B" stroke-width=".5" d="M15.21 9.878c-2.908 0-5.274 2.365-5.274 5.273 0 2.908 2.366 5.273 5.273 5.273.486 0 .88-.393.88-.879 0-.485-.394-.878-.88-.878-1.938 0-3.515-1.578-3.515-3.516 0-1.939 1.577-3.516 3.515-3.516 1.939 0 3.516 1.577 3.516 3.516 0 .847-.305 1.664-.86 2.303-.317.366-.278.922.089 1.24.366.318.921.279 1.24-.088.83-.958 1.289-2.185 1.289-3.455 0-2.908-2.366-5.273-5.274-5.273zm12.77 2.858l-3.42-.534c-.059-.01-.108-.051-.126-.109-.152-.467-.339-.923-.56-1.362-.027-.054-.02-.119.016-.167l2.054-2.728c.096-.126.083-.304-.029-.416L22.94 4.445c-.06-.06-.14-.093-.225-.093-.065 0-.13.02-.187.061L19.792 6.41c-.027.02-.06.03-.093.03-.026 0-.051-.006-.074-.018-.473-.246-.965-.452-1.47-.617-.058-.019-.1-.068-.109-.127l-.533-3.409C17.49 2.114 17.356 2 17.2 2h-4.207c-.158 0-.293.117-.315.274L12.2 5.672c-.008.06-.05.11-.109.13-.491.159-.97.358-1.429.593-.023.012-.048.018-.073.018-.034 0-.066-.01-.094-.03L7.753 4.382c-.055-.04-.12-.061-.188-.061-.084 0-.165.033-.225.093L4.366 7.389c-.112.112-.125.29-.03.416l2.037 2.703c.037.049.042.114.014.168-.233.457-.43.932-.588 1.42-.018.057-.067.1-.126.109l-3.404.531c-.155.025-.269.158-.269.315v4.207c0 .158.117.293.274.315l3.306.465c.119.016.218.098.257.212.145.43.32.849.523 1.254.054.108.043.237-.03.334L4.3 22.53c-.095.127-.083.304.03.416l2.974 2.975c.06.06.14.093.225.093.066 0 .131-.02.188-.06l2.837-2.071c.027-.02.06-.03.093-.03.025 0 .05.005.072.017.441.222.899.41 1.368.562.058.02.1.07.11.13l.48 3.414c.021.157.156.274.314.274H17.2c.157 0 .29-.114.315-.27l.535-3.425c.01-.059.051-.108.108-.126.47-.154.927-.342 1.368-.565.022-.011.047-.017.072-.017.033 0 .066.01.094.03l2.802 2.045c.054.04.12.061.187.061.082 0 .164-.032.225-.093l2.975-2.975c.112-.112.125-.29.03-.416l-2.065-2.74c-.037-.05-.043-.115-.014-.17.236-.458.435-.936.596-1.427.019-.058.069-.1.129-.108l3.42-.481c.157-.022.274-.157.274-.315V13.05c0-.157-.114-.29-.27-.315zm-1.488 3.27l-2.181.307c-.358.05-.694.2-.97.433-.272.23-.474.531-.585.87-.132.402-.295.793-.489 1.17-.164.318-.235.676-.206 1.034.03.361.161.707.38.996l1.31 1.741-1.218 1.219-1.807-1.319c-.33-.24-.72-.368-1.129-.368-.3 0-.596.07-.865.206-.361.182-.736.337-1.12.463-.335.109-.632.307-.861.574-.232.27-.384.6-.44.952l-.344 2.208h-1.724l-.305-2.175c-.05-.358-.201-.695-.435-.97-.23-.273-.532-.476-.872-.586-.384-.125-.76-.28-1.12-.461-.268-.135-.564-.205-.863-.205-.409 0-.8.127-1.13.368l-1.842 1.344-1.218-1.219 1.275-1.693c.233-.308.375-.676.41-1.06.035-.386-.038-.774-.212-1.12-.167-.332-.31-.675-.43-1.027-.123-.365-.345-.689-.642-.934-.296-.246-.654-.404-1.035-.457l-2.066-.29v-1.724l2.186-.342c.352-.055.682-.207.953-.44.267-.23.466-.528.574-.863.13-.4.291-.789.482-1.163.163-.318.233-.676.203-1.032-.03-.36-.162-.704-.38-.993L6.494 7.747l1.219-1.219 1.746 1.275c.33.24.72.368 1.13.368.304 0 .603-.073.874-.211.377-.193.769-.356 1.171-.487.34-.11.642-.313.872-.585.234-.276.385-.613.435-.971l.304-2.16h1.723l.342 2.193c.055.352.207.681.44.951.228.267.526.466.86.575.415.136.818.305 1.206.506.273.141.576.216.884.216.409 0 .8-.127 1.13-.368l1.74-1.27 1.218 1.218-1.301 1.728c-.217.287-.348.629-.379.987-.03.354.037.71.197 1.026.18.36.333.734.458 1.117.108.335.307.633.574.863.27.232.6.385.953.44l2.203.344v1.723z" transform="translate(-174 -289) translate(174 289)"/>
            </g>
        </g>
    </g>
</svg>
