<svg xmlns="http://www.w3.org/2000/svg" width="30" height="30" viewBox="0 0 30 30">
    <g fill="none" fill-rule="evenodd">
        <g>
            <g>
                <path fill="#005378" d="M15 7.5h5V10h-5V7.5zm-5 0h2.5V10H10V7.5zm1.25 5h7.5V15h-7.5v-2.5z" transform="translate(-174 -197) translate(174 197)"/>
                <path fill="#005378" d="M27.134 10.366L25 8.233V3.75c0-.69-.56-1.25-1.25-1.25H6.25C5.56 2.5 5 3.06 5 3.75v4.483l-2.134 2.133.008.008c-.237.23-.372.546-.374.876v15c0 .69.56 1.25 1.25 1.25h22.5c.69 0 1.25-.56 1.25-1.25v-15c-.002-.33-.137-.646-.374-.876l.008-.008zM22.5 5v7.911L15 19.578 7.5 12.91V5h15zM25 25H5V14.034l9.17 8.151c.473.423 1.187.423 1.66 0L25 14.034V25z" transform="translate(-174 -197) translate(174 197)"/>
            </g>
        </g>
    </g>
</svg>
