<svg xmlns="http://www.w3.org/2000/svg" width="16" height="16" viewBox="0 0 16 16">
    <g fill="none" fill-rule="evenodd">
        <g fill="#FFF" fill-rule="nonzero" stroke="#FFF" stroke-width=".639">
            <g>
                <g>
                    <g>
                        <g>
                            <g>
                                <path d="M7.567 15c-1.628 0-3.204-.516-4.53-1.498-1.62-1.2-2.673-2.956-2.959-4.938-.287-1.984.224-3.958 1.437-5.562C4.021-.31 8.782-.984 12.127 1.494c1.403 1.04 2.403 2.538 2.82 4.219.07.288-.107.577-.398.648-.291.068-.584-.106-.655-.394-.355-1.44-1.213-2.725-2.416-3.616C8.61.226 4.529.805 2.38 3.643 1.341 5.018.904 6.711 1.151 8.41c.247 1.7 1.148 3.203 2.537 4.23 2.868 2.127 6.95 1.548 9.098-1.29.561-.743.947-1.575 1.144-2.475.064-.29.353-.473.643-.41.292.062.479.349.414.637-.232 1.051-.68 2.022-1.337 2.891-1.213 1.602-2.986 2.644-4.992 2.927-.364.055-.73.08-1.091.08zm.336-5.625H6.808v-.372c-.027-.712.33-1.294 1.06-1.739.757-.493 1.122-.986 1.095-1.48-.08-.687-.516-1.059-1.3-1.107-.953 0-1.55.493-1.79 1.48l-1.186-.26c.33-1.503 1.372-2.215 3.136-2.142 1.497.073 2.325.712 2.486 1.925.053.792-.446 1.48-1.506 2.07-.623.372-.926.816-.9 1.334v.291zm-.09 1.875h-.938v-.938h.938v.938z" transform="translate(-1452 -1234) translate(0 1148) translate(360 66) translate(1072) translate(20 20) translate(1 1)"/>
                            </g>
                        </g>
                    </g>
                </g>
            </g>
        </g>
    </g>
</svg>
