<svg xmlns="http://www.w3.org/2000/svg" width="30" height="30" viewBox="0 0 30 30">
    <g fill="none" fill-rule="evenodd">
        <g fill="#005378">
            <g>
                <g>
                    <path d="M20 7c0-3.866-3.134-7-7-7S6 3.134 6 7c.005 1.726.652 3.389 1.815 4.664C3.506 13.673.75 17.996.75 22.75c0 .625.334 1.203.875 1.516.541.312 1.209.312 1.75 0 .541-.313.875-.89.875-1.516C4.25 17.918 8.168 14 13 14c1.857 0 3.637-.737 4.95-2.05C19.263 10.637 20 8.857 20 7zm-7 3.5c-1.933 0-3.5-1.567-3.5-3.5s1.567-3.5 3.5-3.5 3.5 1.567 3.5 3.5-1.567 3.5-3.5 3.5zm5.25 14h7V21h-7v3.5zm-3.5-8.75v3.5h10.5v-3.5h-10.5z" transform="translate(-174 -381) translate(174 381) translate(2 3)"/>
                </g>
            </g>
        </g>
    </g>
</svg>
