<svg xmlns="http://www.w3.org/2000/svg" xmlns:xlink="http://www.w3.org/1999/xlink" width="30" height="30" viewBox="0 0 30 30">
    <defs>
        <path id="6quddujnva" d="M4.94 3.25c.91 0 1.647-.728 1.647-1.625S5.85 0 4.94 0H1.647C.737 0 0 .728 0 1.625v22.75C0 25.272.737 26 1.647 26H4.94c.91 0 1.647-.728 1.647-1.625S5.85 22.75 4.94 22.75H3.294V3.25H4.94zM27.7 12.057l-4.644-6.5c-.524-.729-1.547-.903-2.289-.39-.36.25-.604.63-.678 1.057-.074.427.028.866.283 1.218l2.832 3.933H9.881c-.91 0-1.647.728-1.647 1.625s.737 1.625 1.647 1.625h13.174l-2.964 3.9c-.546.718-.398 1.737.33 2.275.284.211.631.325.987.325.519 0 1.007-.24 1.318-.65l4.94-6.5c.433-.564.446-1.34.033-1.918z"/>
    </defs>
    <g fill="none" fill-rule="evenodd">
        <g>
            <g>
                <g transform="translate(-174 -427) translate(174 427) translate(1 2)">
                    <mask id="cc5dxi4n0b" fill="#fff">
                        <use xlink:href="#6quddujnva"/>
                    </mask>
                    <use fill="#000" fill-rule="nonzero" xlink:href="#6quddujnva"/>
                    <path fill="#005378" d="M-4 -5H32V31H-4z" mask="url(#cc5dxi4n0b)"/>
                </g>
            </g>
        </g>
    </g>
</svg>
