<svg xmlns="http://www.w3.org/2000/svg" width="30" height="30" viewBox="0 0 30 30">
    <g fill="none" fill-rule="evenodd">
        <g>
            <g>
                <path fill="#FFF" stroke="#FFF" stroke-width=".3" d="M11.268 19.98c-.513-.512-1.345-.512-1.855 0-.513.513-.513 1.345 0 1.855l.929.929c.512.512 1.345.512 1.854 0 .513-.513.513-1.345 0-1.855l-.928-.929z" transform="translate(-45 -243) translate(45 243)"/>
                <path fill="#FFF" stroke="#FFF" stroke-width=".3" d="M20.291 3.24c-1.966-.003-3.861.739-5.306 2.077l-.003-.003-.003.003c-1.44-1.336-3.336-2.08-5.302-2.077-4.319 0-7.817 3.498-7.817 7.817-.003 1.866.665 3.67 1.881 5.086.196.228 1.957 1.98 1.957 1.98.513.513 1.345.513 1.858 0 .512-.513.512-1.345 0-1.854L5.818 14.53c-.861-.952-1.339-2.191-1.336-3.477 0-2.866 2.324-5.192 5.192-5.192 1.052-.003 2.077.317 2.941.914.826.563 2.367 2.066 2.367 2.066s1.533-1.494 2.362-2.063c.867-.597 1.895-.92 2.947-.917 2.865 0 5.191 2.324 5.191 5.192.003 1.239-.442 2.44-1.25 3.378l-10.178 10.19c-.513.512-.513 1.344 0 1.854.512.512 1.344.512 1.854 0l9.671-9.671.024-.024c.076-.073.322-.31.644-.674 1.201-1.412 1.857-3.202 1.855-5.056.002-4.313-3.496-7.81-7.811-7.81z" transform="translate(-45 -243) translate(45 243)"/>
            </g>
        </g>
    </g>
</svg>
