<svg xmlns="http://www.w3.org/2000/svg" width="98" height="72" viewBox="0 0 98 72">
    <g fill="none" fill-rule="evenodd">
        <g>
            <g>
                <g transform="translate(-500 -883) translate(100 878) translate(400)">
                    <g transform="translate(8 5)">
                        <circle cx="49" cy="36" r="36" fill="#C8F3FA"/>
                        <g>
                            <path fill="#4A4A4A" d="M70.594 60.594h-2.25V29.609c0-.776-.63-1.406-1.406-1.406-.777 0-1.407.63-1.407 1.406v30.985H6.47V22.335c0-2.636 2.145-4.781 4.781-4.781h22.828c.777 0 1.406-.63 1.406-1.406 0-.777-.63-1.407-1.406-1.407H11.25c-4.187 0-7.594 3.407-7.594 7.594v38.259h-2.25C.63 60.594 0 61.224 0 62v1.828C0 67.783 3.217 71 7.172 71h57.656C68.783 71 72 67.783 72 63.828V62c0-.777-.63-1.406-1.406-1.406zm-1.406 3.234c0 2.404-1.956 4.36-4.36 4.36H7.172c-2.404 0-4.36-1.956-4.36-4.36v-.422h66.376v.422z" transform="translate(0 1)"/>
                            <path fill="#4A4A4A" d="M42.883 44.832h-26.33c-.776 0-1.406.63-1.406 1.406 0 .777.63 1.407 1.407 1.407h26.329c.776 0 1.406-.63 1.406-1.407 0-.776-.63-1.406-1.406-1.406zM12.112 45.245c-.262-.263-.624-.412-.994-.412-.371 0-.733.148-.996.412-.261.261-.41.623-.41.994 0 .37.149.732.41.994.263.261.624.412.996.412.37 0 .732-.15.994-.412.261-.263.412-.624.412-.994s-.15-.733-.412-.994zM60.883 44.832H50.047c-.777 0-1.406.63-1.406 1.406 0 .777.63 1.407 1.406 1.407h10.836c.776 0 1.406-.63 1.406-1.407 0-.776-.63-1.406-1.406-1.406zM42.883 51.594H11.117c-.776 0-1.406.63-1.406 1.406 0 .777.63 1.406 1.406 1.406h31.766c.776 0 1.406-.63 1.406-1.406 0-.777-.63-1.406-1.406-1.406zM60.883 51.594H50.047c-.777 0-1.406.63-1.406 1.406 0 .777.63 1.406 1.406 1.406h10.836c.776 0 1.406-.63 1.406-1.406 0-.777-.63-1.406-1.406-1.406z" transform="translate(0 1)"/>
                            <g>
                                <path stroke="#4A4A4A" stroke-linecap="round" stroke-linejoin="round" stroke-width="4.8" d="M17.08 0c9.418 0 17.08 7.662 17.08 17.08 0 7.866-5.324 14.682-12.947 16.576-.29.072-.551.232-.748.458L17.08 38l-3.386-3.886c-.196-.226-.458-.386-.748-.458C5.324 31.762 0 24.946 0 17.08 0 7.662 7.662 0 17.08 0z" transform="translate(0 1) rotate(5 11.596 413.364)"/>
                                <path fill="#00BADA" d="M17.08 0c9.418 0 17.08 7.662 17.08 17.08 0 7.866-5.324 14.682-12.947 16.576-.29.072-.551.232-.748.458L17.08 38l-3.386-3.886c-.196-.226-.458-.386-.748-.458C5.324 31.762 0 24.946 0 17.08 0 7.662 7.662 0 17.08 0z" transform="translate(0 1) rotate(5 11.596 413.364)"/>
                                <path fill="#FFF" d="M16.675 14.925c1.657 0 3.005 1.727 3.005 3.849v3.97c0 2.121-1.348 3.848-3.005 3.848-1.658 0-3.006-1.727-3.006-3.849v-3.97c0-2.121 1.348-3.848 3.006-3.848zm0-8.333c1.657 0 3.005 1.348 3.005 3.005 0 1.658-1.348 3.006-3.005 3.006-1.658 0-3.006-1.348-3.006-3.006 0-1.657 1.348-3.005 3.006-3.005z" transform="translate(0 1) rotate(5 11.596 413.364)"/>
                            </g>
                        </g>
                    </g>
                    <g transform="translate(8)">
                        <circle cx="49" cy="41" r="36" fill="#B8F6EC"/>
                        <g>
                            <path fill="#4A4A4A" d="M70.594 60.594h-2.25V29.609c0-.776-.63-1.406-1.406-1.406-.777 0-1.407.63-1.407 1.406v30.985H6.47V22.335c0-2.636 2.145-4.781 4.781-4.781h22.828c.777 0 1.406-.63 1.406-1.406 0-.777-.63-1.407-1.406-1.407H11.25c-4.187 0-7.594 3.407-7.594 7.594v38.259h-2.25C.63 60.594 0 61.224 0 62v1.828C0 67.783 3.217 71 7.172 71h57.656C68.783 71 72 67.783 72 63.828V62c0-.777-.63-1.406-1.406-1.406zm-1.406 3.234c0 2.404-1.956 4.36-4.36 4.36H7.172c-2.404 0-4.36-1.956-4.36-4.36v-.422h66.376v.422z" transform="translate(0 6)"/>
                            <path fill="#4A4A4A" d="M42.883 44.832h-26.33c-.776 0-1.406.63-1.406 1.406 0 .777.63 1.407 1.407 1.407h26.329c.776 0 1.406-.63 1.406-1.407 0-.776-.63-1.406-1.406-1.406zM12.112 45.245c-.262-.263-.624-.412-.994-.412-.371 0-.733.148-.996.412-.261.261-.41.623-.41.994 0 .37.149.732.41.994.263.261.624.412.996.412.37 0 .732-.15.994-.412.261-.263.412-.624.412-.994s-.15-.733-.412-.994zM60.883 44.832H50.047c-.777 0-1.406.63-1.406 1.406 0 .777.63 1.407 1.406 1.407h10.836c.776 0 1.406-.63 1.406-1.407 0-.776-.63-1.406-1.406-1.406zM42.883 51.594H11.117c-.776 0-1.406.63-1.406 1.406 0 .777.63 1.406 1.406 1.406h31.766c.776 0 1.406-.63 1.406-1.406 0-.777-.63-1.406-1.406-1.406zM60.883 51.594H50.047c-.777 0-1.406.63-1.406 1.406 0 .777.63 1.406 1.406 1.406h10.836c.776 0 1.406-.63 1.406-1.406 0-.777-.63-1.406-1.406-1.406z" transform="translate(0 6)"/>
                            <g>
                                <path stroke="#4A4A4A" stroke-linecap="round" stroke-linejoin="round" stroke-width="4.8" d="M19.08 0c9.418 0 17.08 7.662 17.08 17.08 0 7.866-5.324 14.682-12.947 16.576-.29.072-.551.232-.748.458L19.08 38l-3.386-3.886c-.196-.226-.458-.386-.748-.458C7.324 31.762 2 24.946 2 17.08 2 7.662 9.662 0 19.08 0z" transform="translate(0 6) rotate(5 12.596 390.46)"/>
                                <path fill="#00DBB6" d="M19.08 0c9.418 0 17.08 7.662 17.08 17.08 0 7.866-5.324 14.682-12.947 16.576-.29.072-.551.232-.748.458L19.08 38l-3.386-3.886c-.196-.226-.458-.386-.748-.458C7.324 31.762 2 24.946 2 17.08 2 7.662 9.662 0 19.08 0z" transform="translate(0 6) rotate(5 12.596 390.46)"/>
                                <g fill="#4A4A4A">
                                    <path d="M10.01 26L31 17 10.01 8 10 15 25 17 10 19z" transform="translate(0 6) rotate(5 12.596 390.46) translate(.263 .329)"/>
                                </g>
                            </g>
                        </g>
                    </g>
                    <circle cx="57" cy="41" r="36" fill="#E1F0F7"/>
                    <g>
                        <path fill="#4A4A4A" d="M70.594 60.594h-2.25V29.609c0-.776-.63-1.406-1.406-1.406-.777 0-1.407.63-1.407 1.406v30.985H6.47V22.335c0-2.636 2.145-4.781 4.781-4.781h22.828c.777 0 1.406-.63 1.406-1.406 0-.777-.63-1.407-1.406-1.407H11.25c-4.187 0-7.594 3.407-7.594 7.594v38.259h-2.25C.63 60.594 0 61.224 0 62v1.828C0 67.783 3.217 71 7.172 71h57.656C68.783 71 72 67.783 72 63.828V62c0-.777-.63-1.406-1.406-1.406zm-1.406 3.234c0 2.404-1.956 4.36-4.36 4.36H7.172c-2.404 0-4.36-1.956-4.36-4.36v-.422h66.376v.422z" transform="translate(8 6)"/>
                        <path fill="#4A4A4A" d="M42.883 44.832h-26.33c-.776 0-1.406.63-1.406 1.406 0 .777.63 1.407 1.407 1.407h26.329c.776 0 1.406-.63 1.406-1.407 0-.776-.63-1.406-1.406-1.406zM12.112 45.245c-.262-.263-.624-.412-.994-.412-.371 0-.733.148-.996.412-.261.261-.41.623-.41.994 0 .37.149.732.41.994.263.261.624.412.996.412.37 0 .732-.15.994-.412.261-.263.412-.624.412-.994s-.15-.733-.412-.994zM60.883 44.832H50.047c-.777 0-1.406.63-1.406 1.406 0 .777.63 1.407 1.406 1.407h10.836c.776 0 1.406-.63 1.406-1.407 0-.776-.63-1.406-1.406-1.406zM42.883 51.594H11.117c-.776 0-1.406.63-1.406 1.406 0 .777.63 1.406 1.406 1.406h31.766c.776 0 1.406-.63 1.406-1.406 0-.777-.63-1.406-1.406-1.406zM60.883 51.594H50.047c-.777 0-1.406.63-1.406 1.406 0 .777.63 1.406 1.406 1.406h10.836c.776 0 1.406-.63 1.406-1.406 0-.777-.63-1.406-1.406-1.406z" transform="translate(8 6)"/>
                        <g>
                            <path stroke="#4A4A4A" stroke-linecap="round" stroke-linejoin="round" stroke-width="4.8" d="M19.08 0c9.418 0 17.08 7.662 17.08 17.08 0 7.866-5.324 14.682-12.947 16.576-.29.072-.551.232-.748.458L19.08 38l-3.386-3.886c-.196-.226-.458-.386-.748-.458C7.324 31.762 2 24.946 2 17.08 2 7.662 9.662 0 19.08 0z" transform="translate(8 6) rotate(5 12.596 390.46)"/>
                            <path fill="#0080A9" d="M19.08 0c9.418 0 17.08 7.662 17.08 17.08 0 7.866-5.324 14.682-12.947 16.576-.29.072-.551.232-.748.458L19.08 38l-3.386-3.886c-.196-.226-.458-.386-.748-.458C7.324 31.762 2 24.946 2 17.08 2 7.662 9.662 0 19.08 0z" transform="translate(8 6) rotate(5 12.596 390.46)"/>
                            <g fill="#FFF">
                                <path d="M10.01 26L31 17 10.01 8 10 15 25 17 10 19z" transform="translate(8 6) rotate(5 12.596 390.46) translate(.263 .329)"/>
                            </g>
                        </g>
                    </g>
                </g>
            </g>
        </g>
    </g>
</svg>
