<svg xmlns="http://www.w3.org/2000/svg" width="98" height="72" viewBox="0 0 98 72">
    <g fill="none" fill-rule="evenodd">
        <g>
            <g>
                <g>
                    <g transform="translate(-168 -343) translate(120 169) translate(24 174) translate(24)">
                        <g transform="translate(8)">
                            <circle cx="49" cy="36" r="36" fill="#FFE4A6"/>
                            <g>
                                <path fill="#F5B524" d="M36.89 33.332c7.271 0 13.186-5.915 13.186-13.186 0-7.27-5.915-13.186-13.185-13.186-7.27 0-13.186 5.915-13.186 13.186 0 7.27 5.915 13.186 13.186 13.186z" transform="translate(0 3)"/>
                                <path fill="#4A4A4A" d="M36.89 33.332c7.271 0 13.186-5.915 13.186-13.186 0-7.27-5.915-13.186-13.185-13.186-7.27 0-13.186 5.915-13.186 13.186 0 7.27 5.915 13.186 13.186 13.186zm0-23.49c5.682 0 10.304 4.623 10.304 10.304 0 5.68-4.622 10.303-10.303 10.303-5.682 0-10.304-4.622-10.304-10.303 0-5.681 4.622-10.304 10.304-10.304z" transform="translate(0 3)"/>
                                <path fill="#4A4A4A" d="M73.782 28v-.01-.043l-.001-.016-.001-.037v-.018l-.001-.035v-.019l-.002-.034v-.019l-.002-.037v-.014l-.002-.037v-.017l-.003-.037v-.016c-.002-.012-.002-.024-.003-.037l-.001-.016-.003-.042-.001-.024-.003-.037-.003-.03v-.02l-.005-.04v-.009l-.004-.041v-.008c-.198-2.062-1.208-3.955-2.838-5.279l-.058-.044c-1.326-1.057-3.005-1.688-4.828-1.688h-8.227V5.564C57.796 2.496 55.097 0 51.778 0H22.004c-3.319 0-6.018 2.496-6.018 5.564v14.732H7.759c-1.823 0-3.5.631-4.826 1.687l-.06.045c-1.63 1.325-2.64 3.218-2.838 5.28v.005l-.004.045v.003l-.004.044-.002.02-.002.03-.003.038-.001.023-.003.042v.016c-.002.012-.002.025-.003.037l-.001.016-.002.037-.001.017-.002.037v.015l-.002.037v.019l-.002.033V27.876l-.001.018v.053C0 27.96 0 27.976 0 27.99v30.193c0 .852.138 1.672.393 2.44.044.13.09.26.14.386l.037.092.006.016c.027.065.054.129.083.192l.032.074c.721 1.586 1.962 2.889 3.503 3.69l.013.006.022.011.026.014c.082.042.165.082.248.12l.004.002.01.005c.097.045.195.087.295.129.001 0 .004 0 .005.002.908.373 1.901.579 2.942.579h58.264c1.04 0 2.034-.206 2.941-.58h.001l.05-.02.042-.018.042-.018.012-.005.162-.073h.002l.007-.004.04-.019c.077-.036.152-.072.228-.11l.008-.006c.003 0 .005-.003.008-.004 2.467-1.268 4.047-3.713 4.203-6.453.003-.044.005-.088.006-.133l.002-.026v-.03l.001-.036v-.023l.003-.056v-.021-.045-.017-30.192V28zm-70.9.05v-.055-.024l.001-.033.001-.028v-.03l.002-.03.002-.028v-.03l.003-.027.001-.03.003-.034.003-.049.003-.028.002-.03.003-.028.003-.028.003-.03.003-.027.004-.033.003-.022.006-.045.002-.01c.128-.909.506-1.737 1.063-2.413l12.658 7.635.031.02 19.465 11.74.028.016 9.651 5.822c.682.411 1.568.192 1.979-.49.411-.681.191-1.567-.49-1.978l-7.634-4.604L57.1 32.613l.034-.022 12.655-7.633c.558.676.936 1.504 1.064 2.412l.001.011.007.045.002.022.004.033.003.027.004.03.002.028.003.03.003.028.003.032.003.045.002.034.002.03.002.028.001.029.002.029v.029l.002.03v.028l.002.033v30.29l-.002.04v.021l-.002.041v.018l-.002.045-.001.012c-.055 1.076-.46 2.06-1.104 2.84l-11.942-7.202c-.681-.412-1.567-.192-1.978.49-.411.68-.192 1.566.49 1.978l10.639 6.417-.06.011-.05.01-.018.004-.047.007-.104.016-.05.008-.022.003c-.02.002-.04.003-.059.006l-.027.002-.068.008-.047.005-.044.004-.065.003-.08.005-.023.002c-.07.003-.14.004-.21.004H7.757c-.08 0-.158-.002-.236-.006H7.496c-.017-.003-.035-.004-.053-.005l-.153-.012c-.012 0-.023-.001-.035-.003h-.01c-.018-.003-.035-.006-.053-.007-.042-.005-.086-.01-.129-.017l-.04-.005L6.998 63l-.041-.007-.115-.02c-.013-.004-.027-.006-.04-.008l-.046-.01-.027-.005-.1-.023-.04-.01-.092-.023-.06-.018-.039-.01C5.11 62.491 4.04 61.6 3.431 60.43c-.01-.017-.018-.034-.026-.05l-.053-.109c-.301-.633-.47-1.34-.47-2.087v-30.13-.003zm63.141-4.872c.334 0 .66.034.975.098l-9.202 5.55v-5.648h8.227zM18.868 5.564c0-1.479 1.406-2.682 3.136-2.682h29.774c1.73 0 3.136 1.203 3.136 2.682v25L36.891 41.435l-18.023-10.87V5.563zm-2.882 17.614v5.648l-9.202-5.55c.315-.064.64-.098.975-.098h8.227z" transform="translate(0 3)"/>
                                <path fill="#4A4A4A" d="M51.977 53.657c.796 0 1.441-.645 1.441-1.441 0-.795-.645-1.441-1.44-1.441h-.004c-.795 0-1.44.646-1.44 1.441 0 .796.648 1.441 1.443 1.441z" transform="translate(0 3)"/>
                                <path fill="#FFF" d="M36.475 19.154c1.16 0 2.103 1.208 2.103 2.694v2.778c0 1.486-.943 2.694-2.103 2.694-1.16 0-2.104-1.208-2.104-2.694v-2.778c0-1.486.943-2.694 2.104-2.694zm0-5.834c1.16 0 2.103.944 2.103 2.104 0 1.16-.943 2.104-2.103 2.104-1.16 0-2.104-.944-2.104-2.104 0-1.16.943-2.104 2.104-2.104z" transform="translate(0 3)"/>
                            </g>
                        </g>
                        <g transform="translate(8)">
                            <circle cx="49" cy="36" r="36" fill="#B8F6EC"/>
                            <g>
                                <path fill="#00DBB6" d="M36.89 33.332c7.271 0 13.186-5.915 13.186-13.186 0-7.27-5.915-13.186-13.185-13.186-7.27 0-13.186 5.915-13.186 13.186 0 7.27 5.915 13.186 13.186 13.186z" transform="translate(0 3)"/>
                                <path fill="#4A4A4A" d="M36.89 33.332c7.271 0 13.186-5.915 13.186-13.186 0-7.27-5.915-13.186-13.185-13.186-7.27 0-13.186 5.915-13.186 13.186 0 7.27 5.915 13.186 13.186 13.186zm0-23.49c5.682 0 10.304 4.623 10.304 10.304 0 5.68-4.622 10.303-10.303 10.303-5.682 0-10.304-4.622-10.304-10.303 0-5.681 4.622-10.304 10.304-10.304z" transform="translate(0 3)"/>
                                <path fill="#4A4A4A" d="M73.782 28v-.01-.043l-.001-.016-.001-.037v-.018l-.001-.035v-.019l-.002-.034v-.019l-.002-.037v-.014l-.002-.037v-.017l-.003-.037v-.016c-.002-.012-.002-.024-.003-.037l-.001-.016-.003-.042-.001-.024-.003-.037-.003-.03v-.02l-.005-.04v-.009l-.004-.041v-.008c-.198-2.062-1.208-3.955-2.838-5.279l-.058-.044c-1.326-1.057-3.005-1.688-4.828-1.688h-8.227V5.564C57.796 2.496 55.097 0 51.778 0H22.004c-3.319 0-6.018 2.496-6.018 5.564v14.732H7.759c-1.823 0-3.5.631-4.826 1.687l-.06.045c-1.63 1.325-2.64 3.218-2.838 5.28v.005l-.004.045v.003l-.004.044-.002.02-.002.03-.003.038-.001.023-.003.042v.016c-.002.012-.002.025-.003.037l-.001.016-.002.037-.001.017-.002.037v.015l-.002.037v.019l-.002.033V27.876l-.001.018v.053C0 27.96 0 27.976 0 27.99v30.193c0 .852.138 1.672.393 2.44.044.13.09.26.14.386l.037.092.006.016c.027.065.054.129.083.192l.032.074c.721 1.586 1.962 2.889 3.503 3.69l.013.006.022.011.026.014c.082.042.165.082.248.12l.004.002.01.005c.097.045.195.087.295.129.001 0 .004 0 .005.002.908.373 1.901.579 2.942.579h58.264c1.04 0 2.034-.206 2.941-.58h.001l.05-.02.042-.018.042-.018.012-.005.162-.073h.002l.007-.004.04-.019c.077-.036.152-.072.228-.11l.008-.006c.003 0 .005-.003.008-.004 2.467-1.268 4.047-3.713 4.203-6.453.003-.044.005-.088.006-.133l.002-.026v-.03l.001-.036v-.023l.003-.056v-.021-.045-.017-30.192V28zm-70.9.05v-.055-.024l.001-.033.001-.028v-.03l.002-.03.002-.028v-.03l.003-.027.001-.03.003-.034.003-.049.003-.028.002-.03.003-.028.003-.028.003-.03.003-.027.004-.033.003-.022.006-.045.002-.01c.128-.909.506-1.737 1.063-2.413l12.658 7.635.031.02 19.465 11.74.028.016 9.651 5.822c.682.411 1.568.192 1.979-.49.411-.681.191-1.567-.49-1.978l-7.634-4.604L57.1 32.613l.034-.022 12.655-7.633c.558.676.936 1.504 1.064 2.412l.001.011.007.045.002.022.004.033.003.027.004.03.002.028.003.03.003.028.003.032.003.045.002.034.002.03.002.028.001.029.002.029v.029l.002.03v.028l.002.033v30.29l-.002.04v.021l-.002.041v.018l-.002.045-.001.012c-.055 1.076-.46 2.06-1.104 2.84l-11.942-7.202c-.681-.412-1.567-.192-1.978.49-.411.68-.192 1.566.49 1.978l10.639 6.417-.06.011-.05.01-.018.004-.047.007-.104.016-.05.008-.022.003c-.02.002-.04.003-.059.006l-.027.002-.068.008-.047.005-.044.004-.065.003-.08.005-.023.002c-.07.003-.14.004-.21.004H7.757c-.08 0-.158-.002-.236-.006H7.496c-.017-.003-.035-.004-.053-.005l-.153-.012c-.012 0-.023-.001-.035-.003h-.01c-.018-.003-.035-.006-.053-.007-.042-.005-.086-.01-.129-.017l-.04-.005L6.998 63l-.041-.007-.115-.02c-.013-.004-.027-.006-.04-.008l-.046-.01-.027-.005-.1-.023-.04-.01-.092-.023-.06-.018-.039-.01C5.11 62.491 4.04 61.6 3.431 60.43c-.01-.017-.018-.034-.026-.05l-.053-.109c-.301-.633-.47-1.34-.47-2.087v-30.13-.003zm63.141-4.872c.334 0 .66.034.975.098l-9.202 5.55v-5.648h8.227zM18.868 5.564c0-1.479 1.406-2.682 3.136-2.682h29.774c1.73 0 3.136 1.203 3.136 2.682v25L36.891 41.435l-18.023-10.87V5.563zm-2.882 17.614v5.648l-9.202-5.55c.315-.064.64-.098.975-.098h8.227z" transform="translate(0 3)"/>
                                <path fill="#4A4A4A" d="M51.977 53.657c.796 0 1.441-.645 1.441-1.441 0-.795-.645-1.441-1.44-1.441h-.004c-.795 0-1.44.646-1.44 1.441 0 .796.648 1.441 1.443 1.441zM36.475 19.154c1.16 0 2.103 1.208 2.103 2.694v2.778c0 1.486-.943 2.694-2.103 2.694-1.16 0-2.104-1.208-2.104-2.694v-2.778c0-1.486.943-2.694 2.104-2.694zm0-5.834c1.16 0 2.103.944 2.103 2.104 0 1.16-.943 2.104-2.103 2.104-1.16 0-2.104-.944-2.104-2.104 0-1.16.943-2.104 2.104-2.104z" transform="translate(0 3)"/>
                            </g>
                        </g>
                        <circle cx="57" cy="36" r="36" fill="#E1F0F7"/>
                        <g>
                            <path fill="#0080A9" d="M36.89 33.332c7.271 0 13.186-5.915 13.186-13.186 0-7.27-5.915-13.186-13.185-13.186-7.27 0-13.186 5.915-13.186 13.186 0 7.27 5.915 13.186 13.186 13.186z" transform="translate(8 3)"/>
                            <path fill="#4A4A4A" d="M36.89 33.332c7.271 0 13.186-5.915 13.186-13.186 0-7.27-5.915-13.186-13.185-13.186-7.27 0-13.186 5.915-13.186 13.186 0 7.27 5.915 13.186 13.186 13.186zm0-23.49c5.682 0 10.304 4.623 10.304 10.304 0 5.68-4.622 10.303-10.303 10.303-5.682 0-10.304-4.622-10.304-10.303 0-5.681 4.622-10.304 10.304-10.304z" transform="translate(8 3)"/>
                            <path fill="#4A4A4A" d="M73.782 28v-.01-.043l-.001-.016-.001-.037v-.018l-.001-.035v-.019l-.002-.034v-.019l-.002-.037v-.014l-.002-.037v-.017l-.003-.037v-.016c-.002-.012-.002-.024-.003-.037l-.001-.016-.003-.042-.001-.024-.003-.037-.003-.03v-.02l-.005-.04v-.009l-.004-.041v-.008c-.198-2.062-1.208-3.955-2.838-5.279l-.058-.044c-1.326-1.057-3.005-1.688-4.828-1.688h-8.227V5.564C57.796 2.496 55.097 0 51.778 0H22.004c-3.319 0-6.018 2.496-6.018 5.564v14.732H7.759c-1.823 0-3.5.631-4.826 1.687l-.06.045c-1.63 1.325-2.64 3.218-2.838 5.28v.005l-.004.045v.003l-.004.044-.002.02-.002.03-.003.038-.001.023-.003.042v.016c-.002.012-.002.025-.003.037l-.001.016-.002.037-.001.017-.002.037v.015l-.002.037v.019l-.002.033V27.876l-.001.018v.053C0 27.96 0 27.976 0 27.99v30.193c0 .852.138 1.672.393 2.44.044.13.09.26.14.386l.037.092.006.016c.027.065.054.129.083.192l.032.074c.721 1.586 1.962 2.889 3.503 3.69l.013.006.022.011.026.014c.082.042.165.082.248.12l.004.002.01.005c.097.045.195.087.295.129.001 0 .004 0 .005.002.908.373 1.901.579 2.942.579h58.264c1.04 0 2.034-.206 2.941-.58h.001l.05-.02.042-.018.042-.018.012-.005.162-.073h.002l.007-.004.04-.019c.077-.036.152-.072.228-.11l.008-.006c.003 0 .005-.003.008-.004 2.467-1.268 4.047-3.713 4.203-6.453.003-.044.005-.088.006-.133l.002-.026v-.03l.001-.036v-.023l.003-.056v-.021-.045-.017-30.192V28zm-70.9.05v-.055-.024l.001-.033.001-.028v-.03l.002-.03.002-.028v-.03l.003-.027.001-.03.003-.034.003-.049.003-.028.002-.03.003-.028.003-.028.003-.03.003-.027.004-.033.003-.022.006-.045.002-.01c.128-.909.506-1.737 1.063-2.413l12.658 7.635.031.02 19.465 11.74.028.016 9.651 5.822c.682.411 1.568.192 1.979-.49.411-.681.191-1.567-.49-1.978l-7.634-4.604L57.1 32.613l.034-.022 12.655-7.633c.558.676.936 1.504 1.064 2.412l.001.011.007.045.002.022.004.033.003.027.004.03.002.028.003.03.003.028.003.032.003.045.002.034.002.03.002.028.001.029.002.029v.029l.002.03v.028l.002.033v30.29l-.002.04v.021l-.002.041v.018l-.002.045-.001.012c-.055 1.076-.46 2.06-1.104 2.84l-11.942-7.202c-.681-.412-1.567-.192-1.978.49-.411.68-.192 1.566.49 1.978l10.639 6.417-.06.011-.05.01-.018.004-.047.007-.104.016-.05.008-.022.003c-.02.002-.04.003-.059.006l-.027.002-.068.008-.047.005-.044.004-.065.003-.08.005-.023.002c-.07.003-.14.004-.21.004H7.757c-.08 0-.158-.002-.236-.006H7.496c-.017-.003-.035-.004-.053-.005l-.153-.012c-.012 0-.023-.001-.035-.003h-.01c-.018-.003-.035-.006-.053-.007-.042-.005-.086-.01-.129-.017l-.04-.005L6.998 63l-.041-.007-.115-.02c-.013-.004-.027-.006-.04-.008l-.046-.01-.027-.005-.1-.023-.04-.01-.092-.023-.06-.018-.039-.01C5.11 62.491 4.04 61.6 3.431 60.43c-.01-.017-.018-.034-.026-.05l-.053-.109c-.301-.633-.47-1.34-.47-2.087v-30.13-.003zm63.141-4.872c.334 0 .66.034.975.098l-9.202 5.55v-5.648h8.227zM18.868 5.564c0-1.479 1.406-2.682 3.136-2.682h29.774c1.73 0 3.136 1.203 3.136 2.682v25L36.891 41.435l-18.023-10.87V5.563zm-2.882 17.614v5.648l-9.202-5.55c.315-.064.64-.098.975-.098h8.227z" transform="translate(8 3)"/>
                            <path fill="#4A4A4A" d="M51.977 53.657c.796 0 1.441-.645 1.441-1.441 0-.795-.645-1.441-1.44-1.441h-.004c-.795 0-1.44.646-1.44 1.441 0 .796.648 1.441 1.443 1.441z" transform="translate(8 3)"/>
                            <path fill="#FFF" d="M36.475 19.154c1.16 0 2.103 1.208 2.103 2.694v2.778c0 1.486-.943 2.694-2.103 2.694-1.16 0-2.104-1.208-2.104-2.694v-2.778c0-1.486.943-2.694 2.104-2.694zm0-5.834c1.16 0 2.103.944 2.103 2.104 0 1.16-.943 2.104-2.103 2.104-1.16 0-2.104-.944-2.104-2.104 0-1.16.943-2.104 2.104-2.104z" transform="translate(8 3)"/>
                        </g>
                    </g>
                </g>
            </g>
        </g>
    </g>
</svg>
