<svg width="323" height="105" fill="none" xmlns="http://www.w3.org/2000/svg">
    <g filter="url(#a)">
        <rect x="8.48" y="8.175" width="306.037" height="88.152" rx="13.306" fill="#fff"/>
    </g>
    <rect x="11.807" y="11.501" width="299.384" height="81.499" rx="9.979" fill="#fff" stroke="#BCD1FF" stroke-width="6.653"/>
    <path d="M124.442 35.469h-2.395v3.716a23.276 23.276 0 0 0 2.019-.784l.226 1.955c-.809.344-1.558.638-2.245.881v6.048c0 .509-.115.91-.344 1.203-.222.301-.487.498-.795.591-.301.1-.788.15-1.461.15-.379 0-.834-.01-1.364-.032l-.655-1.89 2.352-.022c.251 0 .376-.118.376-.354v-4.974c-1.11.344-1.948.587-2.513.73l-.548-1.869c1.296-.336 2.316-.637 3.061-.902v-4.447h-2.911v-1.87h2.911v-3.523h1.891V33.6h2.395v1.869zm11.946 2.513h-2.664c-1.175 0-1.762-.623-1.762-1.869v-3.92h-3.427c.086 2.936-.92 4.959-3.018 6.069l-1.408-1.407c.917-.487 1.562-1.042 1.934-1.665.372-.63.559-1.476.559-2.536v-2.266h7.283v5.435c0 .194.093.29.279.29h2.224v1.87zm.268 9.615-.902 1.665c-2.012-.545-3.817-1.364-5.414-2.46-1.59 1.038-3.549 1.865-5.876 2.481l-1.139-1.73c2.063-.372 3.857-1.041 5.382-2.008-1.167-.995-2.113-2.507-2.836-4.533h-.773v-1.827h9.968v1.655c-.873 1.926-1.944 3.48-3.212 4.662 1.046.73 2.647 1.429 4.802 2.095zm-3.835-6.585h-4.92c.652 1.633 1.458 2.757 2.417 3.373.939-.881 1.773-2.005 2.503-3.373zm25.33-5.876c-.186 1.31-.451 2.456-.795 3.437l-1.654-.419c.165-.45.297-.927.398-1.428h-3.083v1.03l2.352-.128.118 1.364-2.47.172v.548c0 .193.111.29.333.29h3.716v1.45h-4.511c-.33 0-.62-.147-.87-.44-.251-.301-.376-.609-.376-.924v-.806l-1.655.108c0 3.115-.533 5.593-1.6 7.433l-1.483-.988c.881-1.583 1.322-3.452 1.322-5.608v-5.091h3.34v-2.793c-1.317.15-2.725.24-4.221.268v5.92c0 3.1-.498 5.682-1.493 7.744l-1.633-1.17c.866-2.006 1.3-4.147 1.3-6.424V31c4.791-.115 8.561-.509 11.311-1.182l.902 1.676c-1.281.258-2.742.49-4.382.698v.688h4.361v1.429h-4.361v.827h5.134zm-6.842 2.728v-1.138h-1.655v1.256l1.655-.118zm-7.423-5.06-1.493 1.343c-.724-.966-1.655-1.897-2.793-2.792l1.407-1.343c.974.694 1.933 1.625 2.879 2.793zm14.792 14.546-.602 1.718c-1.325.029-2.893.043-4.705.043-3.208 0-5.26-.053-6.155-.16a8.765 8.765 0 0 1-2.589-.71c-.838-.372-1.554-.838-2.148-1.396-.717 1.088-1.454 2.005-2.213 2.75l-1.279-1.386c1.755-1.697 2.825-3.706 3.212-6.026h-2.793v-1.698c.759-1.03 1.544-2.341 2.353-3.931h-2.557v-1.88h4.866v1.568c-.537 1.189-1.299 2.56-2.288 4.114h2.331v1.784c-.236 1.246-.53 2.295-.881 3.147.638.652 1.35 1.128 2.138 1.429.795.3 1.579.494 2.353.58.773.086 2.725.129 5.854.129 1.74 0 3.441-.025 5.103-.075zm-.398-3.384c-.043.988-.232 1.654-.569 1.998-.329.337-.927.505-1.794.505-.745 0-1.257-.093-1.536-.28-.279-.193-.419-.547-.419-1.063v-2.9h1.654v2.33c0 .266.151.398.451.398.444 0 .666-.498.666-1.493l1.547.505zm-5.564-1.719c-.05 2.27-.741 3.853-2.073 4.748l-1.279-1.074c1.168-.738 1.726-1.962 1.676-3.674h1.676zm26.683-7.788h-14.942v5.983c0 3.545-.562 6.539-1.686 8.98l-1.612-1.17c.953-1.812 1.429-4.64 1.429-8.486v-9.314h16.811v4.007zm-1.933-1.45v-1.032h-13.009v1.032h13.009zm3.094 15.028-.806 1.407a27.296 27.296 0 0 1-4.802-1.654 24.415 24.415 0 0 1-5.801 1.633l-.601-1.429c1.948-.286 3.502-.662 4.662-1.128a14.438 14.438 0 0 1-1.73-1.257c-.73.494-1.443.92-2.137 1.279l-.903-1.257c.824-.387 1.454-.738 1.891-1.053a12.543 12.543 0 0 1-.634-.677l1.139-.924c.064.072.294.305.687.699a8.355 8.355 0 0 0 1.053-1.074h-2.309v-4.115l-.656.527-1.171-1.214c1.361-.981 2.417-2.013 3.169-3.094l1.622.462a3.208 3.208 0 0 1-.236.365h7.176v1.364h-8.304a7.47 7.47 0 0 1-.784.817h8.207v4.888h-4.909a8.7 8.7 0 0 1-.634.902h5.715v1.278c-.695.688-1.611 1.382-2.75 2.084 1.081.459 2.363.849 3.846 1.171zm-3.137-8.432v-.72h-5.328v.72h5.328zm0 1.847v-.741h-5.328v.741h5.328zm-.312 3.33h-4.307c.873.66 1.611 1.103 2.213 1.332.823-.408 1.521-.852 2.094-1.332zm-7.616-9.184a12.59 12.59 0 0 1-4.071 3.437l-.698-1.676c1.582-.888 2.71-1.772 3.383-2.653l1.386.892zm-.397 3.964c-.222.372-.616.902-1.182 1.59v8.174h-1.762v-6.553a15.14 15.14 0 0 1-.902.666l-.655-1.654c1.239-.88 2.338-2.009 3.298-3.384l1.203 1.16zm33.311-7.284h-16.124v8.25c0 3.796-.558 6.754-1.676 8.873l-1.557-1.342c.866-1.72 1.3-3.796 1.3-6.23v-11.29h18.057v1.74zm.333 8.433-1.085 1.558a20.327 20.327 0 0 0-2.589-2.858v3.545h-1.826v-3.459a11.503 11.503 0 0 1-2.438 2.879l-1.257-1.364c1.432-1.196 2.481-2.353 3.147-3.47h-2.03v-1.568h2.578v-1.075c-.723.086-1.457.13-2.202.13l-.655-1.558c2.349-.029 4.554-.294 6.617-.795l.838 1.45c-.96.28-1.884.473-2.772.58v1.268h3.083v1.568h-2.685a29.944 29.944 0 0 1 3.276 3.169zm-8.497-1.407-1.01 1.386c-.651-.61-1.185-1.042-1.6-1.3v3.609h-1.805v-3.416c-.415.924-1.085 1.884-2.009 2.879l-1.246-1.364c1.21-1.21 2.095-2.396 2.654-3.556h-2.289v-1.568h2.89V34.92c-1.01.072-1.78.107-2.309.107l-.624-1.514c2.285-.05 4.376-.294 6.274-.73l.773 1.385c-.802.243-1.572.405-2.309.483v1.322h2.213v1.568h-2.213c1.038.58 1.908 1.167 2.61 1.762zm8.229 9.678h-16.167V47.2h2.395v-3.502h1.912V47.2h3.105v-4.447h1.89v1.15h5.619v1.729h-5.619v1.568h6.865v1.783zm22.204-1.278-.838 1.762c-2.85-.566-5.006-1.243-6.467-2.03-1.289.644-3.423 1.3-6.402 1.965l-.817-1.718c2.134-.351 3.932-.828 5.393-1.43-.659-.515-1.343-1.177-2.052-1.986-.43.38-1.081.873-1.955 1.482l-1.235-1.364c.859-.566 1.55-1.075 2.073-1.526l-.795-1.224 1.472-.945c.15.257.365.55.644.88.416-.43.849-.988 1.3-1.675-1.461.028-2.6.057-3.416.085l-.397-1.761c1.403-.38 3.09-1.186 5.059-2.417-.852.057-2.163.114-3.932.172l-.333-1.558c1.769-.967 3.449-2.456 5.039-4.469l1.89.817c-1.232 1.504-2.624 2.67-4.179 3.502a93.28 93.28 0 0 0 4.029-.312 169.748 169.748 0 0 0 2.331-2.224l1.848.881c-2.657 2.657-5.49 4.58-8.498 5.769 1.497-.079 3.567-.294 6.209-.645a18.605 18.605 0 0 0-.923-1.117l1.6-.924c1.389 1.561 2.403 2.919 3.04 4.072l-1.676.87c-.2-.387-.494-.838-.88-1.354-1.583.172-3.137.315-4.663.43-.136.265-.458.802-.966 1.611h6.466v1.805c-1.024 1.303-2.159 2.374-3.405 3.212 1.934.709 3.746 1.164 5.436 1.364zm-4.383-4.576h-5.414c.659.83 1.482 1.572 2.471 2.224.687-.351 1.668-1.093 2.943-2.224zm-9.41-12.321c-1.425 2.076-3.004 3.756-4.738 5.038l-1.031-1.697c1.433-.96 2.775-2.36 4.029-4.2l1.74.859zm.805 4.468c-.508.874-1.21 1.945-2.105 3.212v10.818h-1.934v-8.637c-.759.76-1.296 1.25-1.611 1.472l-1.031-1.827c1.625-1.08 3.312-3.054 5.059-5.919l1.622.881zm-75.345 25.97h-6.8a14.892 14.892 0 0 1-1.536 1.826l-1.891-.784c1.375-1.404 2.424-2.85 3.148-4.34l1.847.462c-.172.408-.351.777-.537 1.107h5.769v1.73zm-9.905 0h-5.714c-.487.774-1.221 1.626-2.203 2.557l-1.557-1.193a15.605 15.605 0 0 0 3.555-4.619l1.923.44c-.121.266-.308.627-.558 1.086h4.554v1.73zm-1.912 2.073-1.976.44c-.222-.479-.573-1.073-1.053-1.782l2.02-.484c.322.48.658 1.089 1.009 1.826zm9.217 0-2.041.484a11.952 11.952 0 0 0-1.085-1.74l2.052-.484c.473.673.831 1.253 1.074 1.74zm2.643 8.906h-3.61v3.19c0 .566-.182 1.02-.548 1.364-.358.351-.78.537-1.267.559-.48.021-1.024.032-1.633.032-.587 0-1.11-.014-1.568-.043l-.677-1.869c.587.029 1.622.043 3.104.043.394 0 .591-.183.591-.548v-2.728h-13.578V70.58h13.578V69.26h-12.052v-1.676h7.036V66.24h-8.078v-1.686h8.078v-1.279h1.998v1.279h8.142v1.686h-8.142v1.343h7.068v1.676h-2.052v1.321h3.61v1.644zm-10.452 3.083-1.515 1.278c-.867-.924-1.987-1.819-3.362-2.686l1.536-1.278c1.167.71 2.281 1.604 3.341 2.686zm32.602-4.641-1.139 1.6c-2.298-1.919-4.851-3.684-7.659-5.295v10.312h-2.062V66.262c-2.321 2.406-4.838 4.393-7.552 5.962l-1.139-1.665c4.97-2.865 8.394-6.21 10.27-10.034h-9.894v-1.933h18.713v1.933h-6.553c-.436.931-1.031 1.973-1.783 3.126v1.075c4.175 2.406 7.108 4.386 8.798 5.94zm21.345 4.93c0 .473-.151.874-.451 1.204-.301.33-.652.508-1.053.537-.401.029-.942.043-1.622.043-.423 0-.988-.01-1.697-.032l-.57-1.977c.767.05 1.44.075 2.02.075.673 0 1.074-.025 1.203-.075a.304.304 0 0 0 .193-.3V58.13h1.977v17.467zm-6.574-9.27-1.612 1.02c-.494-.966-.802-1.539-.924-1.718-.773.129-1.579.254-2.417.376v2.9h3.954v1.912h-3.954v3.352c1.211-.143 2.675-.462 4.394-.956v1.88c-2.442.68-6.152 1.353-11.129 2.02l-.548-1.87a66.262 66.262 0 0 0 5.296-.687v-3.739h-4.393v-1.912h4.393v-2.578c-1.819.237-3.24.401-4.265.494l-.547-1.826c1.547-1.024 2.807-2.5 3.781-4.426h-3.932v-1.912h11.441v1.912h-5.178a17.1 17.1 0 0 1-3.233 4.115 66.643 66.643 0 0 0 5.263-.688c-.293-.508-.784-1.167-1.471-1.976l1.686-.946c1.604 1.877 2.736 3.628 3.395 5.253zm2.481 7.026h-1.934V59.666h1.934v13.686zm26.641-12.913h-8.379c-.237.616-.595 1.354-1.074 2.213h8.174v14.696h-1.933v-1.01h-12.74v.924h-1.913v-14.61h6.123c.444-.637.831-1.375 1.161-2.212h-8.626v-1.87h19.207v1.87zm-3.212 14.137V64.414h-2.331v10.162h2.331zm-4.243-7.981v-2.18h-4.287v2.18h4.287zm-6.209 7.981V64.414h-2.288v10.162h2.288zm6.209-3.974v-2.224h-4.287v2.224h4.287zm0 3.974V72.32h-4.287v2.256h4.287zm17.273-12.665h-7.111V60.15h2.685c-.114-.358-.358-.902-.73-1.632l1.987-.462c.337.644.637 1.343.902 2.094h2.267v1.762zm12.364 11.043c-.129 1.332-.383 2.414-.762 3.244-.373.831-.881 1.246-1.526 1.246-1.196 0-2.034-1.206-2.513-3.62-.48-2.413-.76-5.811-.838-10.194h-6.22v-1.826h6.134l-.022-3.674h1.869c0 1.747.022 2.972.065 3.674h3.502v1.826h-3.459c.157 4.24.397 7.247.719 9.023.33 1.776.573 2.664.731 2.664.057 0 .158-.232.301-.698.143-.472.265-1.3.365-2.481l1.654.816zm-.494-12.536-1.353.945c-.394-.616-.96-1.321-1.698-2.116l1.343-.902a12.117 12.117 0 0 1 1.708 2.073zm-12.267 4.813h-6.209v-1.74h6.209v1.74zm7.079 8.668c-2.235 1.032-4.308 1.83-6.22 2.396l-.269-1.87c.752-.178 1.465-.404 2.138-.676v-6.166h-1.944v-1.762h5.575v1.762h-1.74v5.436c.515-.201 1.285-.545 2.309-1.032l.151 1.912zm-7.079-5.543h-6.209v-1.74h6.209v1.74zm.043 8.648h-1.956v-1.042h-2.18v1.46h-1.988V69.85h6.124v7.154zm-1.956-2.772v-2.6h-2.18v2.6h2.18zm28.596-6.649-1.386.355c-.05-.509-.118-.9-.204-1.171-1.21.207-2.324.361-3.341.462l-.461-1.558c.451-.473 1.052-1.257 1.804-2.353-.666.058-1.199.086-1.6.086l-.355-1.407c.795-1.089 1.397-2.395 1.805-3.92l1.686.536c-.644 1.497-1.171 2.521-1.579 3.072.308.022.659-.007 1.053-.085.143-.237.387-.72.731-1.45l1.493.794c-.917 1.748-1.966 3.28-3.148 4.598a11.87 11.87 0 0 0 1.547-.183 3.354 3.354 0 0 0-.29-.923l1.321-.462c.502 1.496.81 2.7.924 3.609zm8.057 6.123c-.394 2.557-1.196 3.835-2.406 3.835-.846 0-1.812-.766-2.901-2.299-1.79 1.124-3.237 1.88-4.34 2.267l-1.074-1.654c1.998-.752 3.495-1.508 4.49-2.267-.415-.895-.759-2.002-1.031-3.32h-3.147l-.022.527c1.368.938 2.292 1.644 2.772 2.116l-1.193 1.536c-.386-.444-.988-.977-1.804-1.6-.466 1.933-1.293 3.516-2.482 4.748l-1.59-1.075c1.561-1.49 2.371-3.573 2.428-6.251h-1.869v-1.805h6.574c-.308-2.528-.512-5.99-.612-10.388h1.826c.043 3.982.247 7.444.612 10.388h1.3c-.043-.208-.161-.433-.354-.677l2.041-.419c.157.25.358.616.601 1.096h1.912v1.805h-5.124c.1.658.305 1.357.613 2.094a10.169 10.169 0 0 0 1.536-1.847l1.675.848c-.723 1.082-1.5 1.984-2.331 2.707.659.91 1.096 1.365 1.311 1.365.401 0 .677-.917.827-2.75l1.762 1.02zm-13.363-6.38-1.139 1.073c-.344-.773-.623-1.332-.838-1.675V77.4h-1.848v-9.71c-.422 1.675-.949 3.079-1.579 4.21l-.859-2.31c.888-1.704 1.583-3.677 2.084-5.918h-1.869v-1.848h2.223v-3.749h1.848v3.75h1.45v1.847h-1.45v.344c.924 1.289 1.583 2.392 1.977 3.308zm13.137.15-1.343.44-.214-1.235c-1.282.179-2.428.326-3.438.44l-.505-1.536c.444-.401 1.046-1.142 1.805-2.224-.559.086-1.11.158-1.654.215l-.28-1.579c.788-1.081 1.461-2.381 2.02-3.9l1.633.602c-.38.931-.989 2.009-1.827 3.234.43-.029.81-.08 1.139-.15.358-.602.638-1.104.838-1.505l1.558.602c-.745 1.46-1.791 2.986-3.137 4.576.308-.014.784-.068 1.429-.161a3.85 3.85 0 0 0-.269-.795l1.343-.43c.437 1.139.737 2.274.902 3.406zm22.355-5.522-.774 1.74a38.619 38.619 0 0 1-5.457-1.804v.816h-7.186v-.86a36.843 36.843 0 0 1-5.393 1.891l-.967-1.59c4.333-1.117 7.531-2.545 9.593-4.286l2.149.527a2.892 2.892 0 0 1-.398.419c2.041 1.289 4.852 2.338 8.433 3.147zm-7.767-.773a93.525 93.525 0 0 1-2.159-1.225c-.602.451-1.289.86-2.063 1.225h4.222zm5.758 8.1h-15.705v-5.683h15.705v5.682zm-1.934-1.537v-2.578h-4.973v2.578h4.973zm-.838-1.547c-.487.409-1.102.835-1.847 1.279l-1.364-.924c.859-.545 1.46-.942 1.804-1.193l1.407.838zm-6.069 1.547v-2.578h-4.952v2.578h4.952zm-.967-1.085-1.385.881a15.367 15.367 0 0 0-1.827-1.3l1.365-.924c.451.251 1.067.699 1.847 1.343zm8.863 10.624h-1.934V76.5h-9.851v.784h-2.008v-7.036h13.793v7.036zm-1.934-4.64v-.903h-9.851v.903h9.851zm0 2.33v-.966h-9.851v.967h9.851zm7.101-.01c0-.437.157-.799.472-1.085a1.62 1.62 0 0 1 1.128-.43c.43 0 .802.144 1.117.43.315.28.473.64.473 1.085 0 .415-.15.773-.451 1.074-.301.294-.688.44-1.16.44a1.58 1.58 0 0 1-1.117-.43 1.44 1.44 0 0 1-.462-1.084zm5.607 0c0-.437.158-.799.473-1.085a1.62 1.62 0 0 1 1.128-.43c.429 0 .802.144 1.117.43.315.28.472.64.472 1.085 0 .415-.15.773-.451 1.074-.301.294-.687.44-1.16.44a1.58 1.58 0 0 1-1.117-.43 1.44 1.44 0 0 1-.462-1.084zm5.607 0c0-.437.158-.799.473-1.085a1.62 1.62 0 0 1 1.128-.43c.43 0 .802.144 1.117.43.315.28.473.64.473 1.085 0 .415-.151.773-.451 1.074-.301.294-.688.44-1.16.44-.437 0-.81-.143-1.118-.43a1.44 1.44 0 0 1-.462-1.084z" fill="#292929"/>
    <path d="M8.48 21.48c0-7.348 5.958-13.305 13.306-13.305h75.262v88.152H21.786c-7.348 0-13.306-5.958-13.306-13.306V21.48z" fill="#BCD1FF"/>
    <path d="M55.05 36.45c-8.726 0-15.8 7.074-15.8 15.801s7.074 15.8 15.8 15.8c8.727 0 15.802-7.073 15.802-15.8s-7.075-15.8-15.801-15.8zm0 3.058c7.043 0 12.743 5.7 12.743 12.743 0 7.042-5.699 12.743-12.742 12.743-7.043 0-12.743-5.7-12.743-12.743 0-7.042 5.7-12.743 12.743-12.743zm8.934 8.3-1.436-1.447a.764.764 0 0 0-1.081-.005L52.46 55.29l-3.81-3.84a.764.764 0 0 0-1.081-.005l-1.448 1.436a.764.764 0 0 0-.004 1.081l5.784 5.83c.297.3.781.303 1.081.005L63.98 48.89a.765.765 0 0 0 .005-1.08z" fill="#000"/>
    <defs>
        <filter id="a" x=".48" y=".175" width="322.037" height="104.152" filterUnits="userSpaceOnUse" color-interpolation-filters="sRGB">
            <feFlood flood-opacity="0" result="BackgroundImageFix"/>
            <feColorMatrix in="SourceAlpha" values="0 0 0 0 0 0 0 0 0 0 0 0 0 0 0 0 0 0 127 0" result="hardAlpha"/>
            <feOffset/>
            <feGaussianBlur stdDeviation="4"/>
            <feComposite in2="hardAlpha" operator="out"/>
            <feColorMatrix values="0 0 0 0 0 0 0 0 0 0 0 0 0 0 0 0 0 0 0.2 0"/>
            <feBlend in2="BackgroundImageFix" result="effect1_dropShadow"/>
            <feBlend in="SourceGraphic" in2="effect1_dropShadow" result="shape"/>
        </filter>
    </defs>
</svg>
