<svg width="323" height="105" fill="none" xmlns="http://www.w3.org/2000/svg">
    <g filter="url(#a)">
        <rect x="8" y="8.441" width="306.037" height="88.152" rx="13.306" fill="#fff"/>
    </g>
    <rect x="11.326" y="11.768" width="299.384" height="81.499" rx="9.979" fill="#fff" stroke="#A0F1ED" stroke-width="6.653"/>
    <path d="M140.554 49.249h-19.078v-1.912h8.518V42.61h-6.735v-1.912h6.735v-4.651h-7.766v-1.912h8.078c-.28-.924-.763-2.002-1.451-3.234l1.977-.526a27.675 27.675 0 0 1 1.601 3.76h7.326v1.912h-7.745v4.651h6.757v1.912h-6.757v4.727h8.54v1.912zm22.043-15.748h-6.779a11.16 11.16 0 0 1-1.246 1.558l-1.783-.946c1.21-1.282 2.066-2.528 2.567-3.738l1.988.57c-.186.379-.348.68-.484.902h5.737V33.5zm-9.808 0h-5.811c-.666.766-1.479 1.522-2.439 2.267l-1.278-1.59c1.69-1.132 2.803-2.378 3.341-3.738l1.987.526c-.1.272-.247.566-.441.88h4.641v1.655zm-2.03 1.89-2.149.398c-.193-.415-.501-.93-.923-1.547l2.084-.43c.272.323.601.85.988 1.58zm8.894.13-2.116.332c-.172-.508-.451-1.08-.838-1.718l2.138-.237c.286.466.559 1.007.816 1.622zm2.396 4.511h-1.934v-2.116h-14.276v2.116h-1.944v-3.738h7.927c-.079-.208-.258-.537-.537-.988l2.245-.355c.201.294.437.741.709 1.343h7.81v3.738zm-1.998 8.863h-11.688v.88h-1.912V39.023h12.869v4.2h-10.957v1.17h11.688v4.502zm-2.686-7.101v-1.278h-9.002v1.278h9.002zm.72 5.607v-1.536h-9.722v1.536h9.722zm26.49-3.126h-19.121v-1.783h2.804v-2.965h-2.406v-1.783h2.406v-2.288c-.337.294-.838.713-1.504 1.257l-1.45-1.515c2.077-1.482 3.638-3.09 4.683-4.823l2.052.57a8.57 8.57 0 0 1-1.171 1.718h13.116v1.826h-14.759c-.194.222-.495.523-.903.903h1.891v2.352h2.041v-2.352h1.869v2.352h2.181v-2.352h1.847v2.352h2.181v-2.352h1.891v2.352h1.955v1.783h-1.955v2.965h2.352v1.783zm-4.243-1.783v-2.965h-2.181v2.965h2.181zm-4.028 0v-2.965h-2.181v2.965h2.181zm-4.05 0v-2.965h-2.041v2.965h2.041zm12.472 6.628-1.934.838a21.009 21.009 0 0 0-2.417-4.383l1.891-.86a22.05 22.05 0 0 1 2.46 4.405zm-15.039-3.48c-.702 1.711-1.54 3.194-2.514 4.447l-1.826-1.171c.795-.917 1.618-2.277 2.47-4.082l1.87.806zm9.85 3.523-1.891.752a21.546 21.546 0 0 0-1.783-4.179l1.891-.73c.823 1.611 1.418 2.997 1.783 4.157zm-5.231.172-1.945.58c-.257-1.34-.659-2.743-1.203-4.21l1.869-.656c.48 1.124.906 2.553 1.279 4.286zm18.519-15.62-1.386 1.505c-1.024-1.21-2.284-2.288-3.781-3.234l1.386-1.504c1.504 1.024 2.764 2.102 3.781 3.234zm13.933 15.201-1.805.956a26.742 26.742 0 0 0-.945-2.03c-3.717.888-7.194 1.475-10.431 1.761l-.73-1.869c1.797-1.468 3.419-3.77 4.866-6.907h-4.845v-1.912h5.941v-3.48h-5.017v-1.891h5.017v-2.922h2.008v2.922h4.727v1.89h-4.727v3.481h5.715v1.912h-6.488c-1.382 2.858-2.836 5.07-4.361 6.639a60.456 60.456 0 0 0 7.347-1.322c-.415-.766-1.074-1.79-1.976-3.072l1.869-.86c1.733 2.579 3.011 4.813 3.835 6.704zm-14.373-10.12-1.203 1.548c-1.024-.989-2.324-1.973-3.9-2.954l1.279-1.515a19.898 19.898 0 0 1 3.824 2.922zm.204 3.986c-.938 2.636-2.098 4.999-3.481 7.09l-1.718-1.192c1.196-1.612 2.349-3.9 3.459-6.865l1.74.967zm25.094.043-1.644.623a12.497 12.497 0 0 1-.268-.838c-2.213.552-4.125.946-5.737 1.182l-.505-1.687c1.175-.995 2.374-2.413 3.599-4.253-.731.129-1.733.261-3.008.397l-.44-1.558c1.353-1.46 2.521-3.588 3.502-6.38l1.869.483c-.809 2.141-1.851 4.01-3.126 5.607a25.748 25.748 0 0 0 2.309-.376c.273-.487.652-1.217 1.139-2.191l1.848.59c-1.683 3.245-3.363 5.68-5.038 7.306.866-.15 1.858-.38 2.975-.688a12.519 12.519 0 0 0-.526-1.01l1.6-.698c.702 1.303 1.186 2.467 1.451 3.491zm11.225-6.51-.967 1.698c-2.033-1.325-3.713-2.954-5.038-4.888-1.518 1.962-3.183 3.577-4.995 4.845l-1.053-1.633c2.571-1.855 4.433-3.842 5.586-5.962l1.827.526a.815.815 0 0 1-.247.484c1.009 1.754 2.639 3.398 4.887 4.93zm-2.75 2.815h-6.649v-1.848h6.649v1.848zm1.16 10.645h-1.998v-1.203h-5.038v1.203h-1.998V41h9.034v8.776zm-1.998-3.093v-3.835h-5.038v3.835h5.038zm-7.433.923-1.569.505a17.323 17.323 0 0 0-1.16-3.813l1.493-.462c.681 1.504 1.092 2.76 1.236 3.77zm-2.815 1.311-1.783.355a22.329 22.329 0 0 0-.419-4.727l1.558-.354c.329 1.274.544 2.85.644 4.726zm-2.793-4.265c-.236 1.877-.662 3.592-1.278 5.146l-1.719-.806c.48-1.038.928-2.578 1.343-4.619l1.654.28zm38.5 3.674-1.214 1.633c-4.089-2.535-6.95-5.97-8.583-10.302-.53 1.654-1.439 3.305-2.728 4.952 1.669 1.554 2.85 2.758 3.545 3.61l-1.515 1.364c-.866-1.132-1.944-2.306-3.233-3.523a25.646 25.646 0 0 1-4.673 3.813l-1.203-1.676c4.948-3.13 7.756-6.803 8.422-11.021h-7.917v-1.912h8.164c.129-1.268.193-2.815.193-4.64h1.998a138.883 138.883 0 0 1-.193 4.64h8.475v1.912h-8.282c.544 2.148 1.597 4.218 3.158 6.209a20.73 20.73 0 0 0 5.586 4.941zm21.753-6.553h-14.566v5.5c1.346-.286 2.879-.748 4.597-1.385l.14 1.976c-2.356.81-4.58 1.447-6.671 1.912l-.548-1.622c.323-.193.484-.458.484-.795v-5.585h-2.578v-1.827h3.061v-8.959h14.781v1.762h-12.761v1.278h11.601v1.698h-11.601v1.3h11.601v1.622h-11.601v1.3h14.061v1.825zm.172 6.295-.945 1.827c-2.636-.623-4.695-1.426-6.177-2.407-1.482-.98-2.868-2.41-4.157-4.286l1.719-.945a16.084 16.084 0 0 0 2.212 2.75c1.59-.881 2.904-1.812 3.943-2.793l1.493 1.278c-1.354 1.153-2.607 2.045-3.76 2.675 1.332.824 3.223 1.457 5.672 1.901zm-139.186 11.06c-.344.458-.82.913-1.429 1.364.358.315.687.638.988.967l-1.171 1.031a7.896 7.896 0 0 0-1.095-1.095 16.64 16.64 0 0 1-2.224 1.117l-.924-1.236a10.047 10.047 0 0 0 1.869-.88c-.2-.187-.605-.487-1.214-.903l1.064-1.074 1.472 1.053c.479-.351.859-.695 1.138-1.031l1.526.687zm6.681 12.139h-1.847v-2.503h-14.717v2.481h-1.955v-4.028h1.364l-.398-7.896a15.201 15.201 0 0 0 4.287-.838l.902 1.526a17.236 17.236 0 0 1-3.255.677l.065 1.17h2.868v1.43h-2.793l.043 1.245h2.75v1.418h-2.664l.064 1.268h12.117l.043-1.268h-2.965V64.53h3.04l.065-1.246h-3.105v-1.428h3.148l.064-1.171h-3.362v-1.537h5.274l-.354 8.068h1.321v4.05zm-6.574-5.21-1.171 1.01c-.551-.61-1.049-1.078-1.493-1.408-.766.487-1.515.899-2.245 1.236l-.903-1.214c.53-.23 1.161-.566 1.891-1.01-.372-.33-.856-.659-1.45-.988l1.063-1.085c.387.229.956.62 1.708 1.17.602-.508 1.014-.898 1.236-1.17l1.343.795c-.423.465-.878.898-1.365 1.3.494.43.956.884 1.386 1.364zm6.907 8.443h-8.443v1.364c0 .494-.115.885-.344 1.171-.222.287-.508.48-.859.58-.344.108-.996.161-1.955.161-.444 0-.949-.014-1.515-.043l-.634-1.783c.502.014 1.468.022 2.901.022.265 0 .397-.122.397-.365v-1.107h-8.712v-1.558h8.712v-.945a20.165 20.165 0 0 0 3.04-.86h-8.164V69.73h11.709v1.407c-1.196.566-2.721 1.124-4.576 1.675v.13h8.443v1.557zm21.291-9.045c0 .723-.139 1.257-.419 1.6-.279.344-.587.545-.924.602-.329.057-1.016.086-2.062.086l-.655-1.73c.515.03.992.044 1.428.044.151 0 .308-.065.473-.194.165-.129.247-.272.247-.43V60.75h-6.488v-1.74h8.4v6.445zm-9.657.355c0 .537-.129.96-.387 1.267-.258.308-.555.494-.891.559-.33.057-.935.086-1.816.086l-.644-1.73 1.149.022c.451 0 .677-.208.677-.623v-4.641h-6.553v-1.74h8.465v6.8zm-3.932-3.406-1.106 1.407c-.895-.486-1.934-.884-3.115-1.192l1.138-1.45a12.23 12.23 0 0 1 3.083 1.235zm9.153.172-1.236 1.364a11.76 11.76 0 0 0-2.621-1.364l1.171-1.343c.86.265 1.755.713 2.686 1.343zm-7.81 2.331c-2.084 1.175-3.931 2.106-5.543 2.793l-.773-1.622a50.383 50.383 0 0 0 5.747-2.836l.569 1.665zm9.657-.043a35.635 35.635 0 0 1-5.306 2.18l-.784-1.557a60.154 60.154 0 0 0 5.543-2.223l.547 1.6zm1.279 12.955h-1.945v-.87h-11.236v.87h-1.912V68.72h6.112c.28-.365.559-.86.838-1.483l2.084.333a6.531 6.531 0 0 1-.591 1.15h6.65v9.098zm-1.945-5.779v-1.547h-11.236v1.547h11.236zm0 3.212V73.64h-11.236v1.611h11.236zm25.749-12.74h-4.887v2.374h4.307v1.74h-10.473v-1.74h4.232V62.51h-4.802v-1.762h4.824v-2.16h1.89v2.16h4.909v1.762zm-12.718 13.707h-1.87v-1.01h-1.847v1.536h-1.912V59.847h5.629v16.37zm-1.87-9.378v-5.21l-1.847-.022v5.21l1.847.022zm0 6.585v-4.802h-1.847v4.802h1.847zm14.803-2.836h-2.116v5.167c0 .537-.107.956-.322 1.257a1.521 1.521 0 0 1-.817.612c-.329.1-.974.15-1.933.15-.494 0-.949-.014-1.365-.043l-.58-1.804a94.911 94.911 0 0 1 2.643-.043c.322 0 .483-.176.483-.527v-4.77h-8.046v-1.76h8.046V67.42h1.891v1.407h2.116v1.762zm-6.671 3.824-1.6 1.053c-.716-1.01-1.647-2.066-2.793-3.17l1.514-1.116c1.275 1.145 2.235 2.223 2.879 3.233zm28.037 1.45c0 .666-.179 1.15-.537 1.45a1.91 1.91 0 0 1-1.289.462c-.623 0-1.063-.007-1.321-.021l-.666-1.89c.465.02.834.031 1.106.031.344 0 .555-.021.634-.064.086-.05.129-.14.129-.269v-9.377h-6.198v-7.058h8.142v16.736zm-1.944-14.008v-1.02h-4.308v1.02h4.308zm0 2.632v-1.095h-4.308v1.095h4.308zm-7.713 1.698h-6.316v11.612h-1.934v-18.67h8.25v7.058zm-1.923-4.33v-1.02h-4.393v1.02h4.393zm0 2.632v-1.095h-4.393v1.095h4.393zm7.219 11.29h-9.066v-8.561h9.066v8.561zm-1.891-5.167v-1.675h-5.285v1.675h5.285zm0 3.47v-1.805h-5.285v1.805h5.285zm9.454 1.375c0-.437.157-.798.472-1.085a1.62 1.62 0 0 1 1.128-.43c.43 0 .802.144 1.117.43.315.28.473.641.473 1.085 0 .415-.15.773-.451 1.074-.301.294-.688.44-1.16.44-.437 0-.81-.142-1.117-.429a1.44 1.44 0 0 1-.462-1.085zm5.607 0c0-.437.158-.798.473-1.085a1.62 1.62 0 0 1 1.128-.43c.429 0 .802.144 1.117.43.315.28.472.641.472 1.085 0 .415-.15.773-.451 1.074-.3.294-.687.44-1.16.44a1.58 1.58 0 0 1-1.117-.429 1.44 1.44 0 0 1-.462-1.085zm5.607 0c0-.437.158-.798.473-1.085a1.62 1.62 0 0 1 1.128-.43c.43 0 .802.144 1.117.43.315.28.473.641.473 1.085 0 .415-.151.773-.451 1.074-.301.294-.688.44-1.16.44-.437 0-.81-.142-1.118-.429a1.44 1.44 0 0 1-.462-1.085z" fill="#292929"/>
    <path d="M8 21.747C8 14.4 13.957 8.441 21.306 8.441h75.262v88.152H21.306C13.957 96.593 8 90.636 8 83.287v-61.54z" fill="#A0F1ED"/>
    <path d="M54.57 36.717c-8.726 0-15.8 7.074-15.8 15.8 0 8.727 7.074 15.801 15.8 15.801 8.727 0 15.801-7.074 15.801-15.8 0-8.727-7.074-15.801-15.8-15.801zm0 3.058c7.043 0 12.743 5.7 12.743 12.743 0 7.042-5.7 12.742-12.743 12.742-7.042 0-12.742-5.699-12.742-12.742 0-7.043 5.699-12.743 12.742-12.743zm8.933 8.3-1.436-1.448a.764.764 0 0 0-1.08-.004l-9.007 8.934-3.81-3.84a.764.764 0 0 0-1.08-.005l-1.448 1.435a.765.765 0 0 0-.004 1.082l5.784 5.83c.297.3.781.302 1.08.005L63.5 49.156a.765.765 0 0 0 .004-1.081z" fill="#000"/>
    <defs>
        <filter id="a" x="0" y=".441" width="322.037" height="104.152" filterUnits="userSpaceOnUse" color-interpolation-filters="sRGB">
            <feFlood flood-opacity="0" result="BackgroundImageFix"/>
            <feColorMatrix in="SourceAlpha" values="0 0 0 0 0 0 0 0 0 0 0 0 0 0 0 0 0 0 127 0" result="hardAlpha"/>
            <feOffset/>
            <feGaussianBlur stdDeviation="4"/>
            <feComposite in2="hardAlpha" operator="out"/>
            <feColorMatrix values="0 0 0 0 0 0 0 0 0 0 0 0 0 0 0 0 0 0 0.2 0"/>
            <feBlend in2="BackgroundImageFix" result="effect1_dropShadow"/>
            <feBlend in="SourceGraphic" in2="effect1_dropShadow" result="shape"/>
        </filter>
    </defs>
</svg>
