<svg width="323" height="105" fill="none" xmlns="http://www.w3.org/2000/svg">
    <g filter="url(#a)">
        <rect x="8.852" y="8.505" width="306.037" height="88.152" rx="13.306" fill="#fff"/>
    </g>
    <rect x="12.178" y="11.831" width="299.384" height="81.499" rx="9.979" fill="#fff" stroke="#D5F8BA" stroke-width="6.653"/>
    <path d="M142.331 49.045h-19.207v-1.987h8.583V33.404h-7.638v-2.052h17.381v2.052h-7.638v13.654h8.519v1.987zm9.002-18.197a44.415 44.415 0 0 1-.913 2.395l-.935 2.18v14.32h-1.987V38.786c-.566.788-1.056 1.397-1.472 1.826l-.923-2.04c1.826-2.25 3.24-4.97 4.243-8.165l1.987.44zm12.998 4.34h-6.843v3.233h6.338v1.826h-6.338v3.19h6.36v1.794h-6.36v4.534h-1.976V35.187h-.752c-1.06 2.056-2.116 3.674-3.169 4.856l-1.429-1.364c1.898-2.278 3.337-5.028 4.318-8.25l1.956.419c-.108.444-.394 1.282-.86 2.513h8.755v1.827zm21.452.526h-11.666v-4.759h11.666v4.759zm-1.869-1.611v-1.537h-1.45v1.536h1.45zm-3.233 0v-1.537h-1.504v1.536h1.504zm-3.255 0v-1.537h-1.461v1.536h1.461zm-3.857 10.226c-1.675 1.16-3.663 2.32-5.962 3.48l-.569-1.761a39.267 39.267 0 0 0 2.417-1.3v-5.253h-1.869v-1.847h1.869v-4.244h-2.224V31.6h6.059v1.804h-2.009v4.243h1.783v1.848h-1.783v4.2c.616-.38 1.3-.841 2.052-1.385l.236 2.02zm12.805-6.07h-12.783v-1.6h12.783v1.6zm-.945 5.146h-5.962c-.308.459-.917 1.107-1.826 1.945v2.17c.909-.28 1.862-.61 2.857-.989l.247 1.74c-1.955.795-3.548 1.307-4.78 1.537l-.548-1.493a.9.9 0 0 0 .419-.795v-.828c-.688.437-1.576.906-2.664 1.408l-.967-1.676a14.682 14.682 0 0 0 4.866-3.019H174.3V39.27h11.129v4.136zm-1.912-1.557v-.967h-7.305v.967h7.305zm3.083 6.51-.999 1.59c-1.368-.416-2.571-1.15-3.61-2.203-1.038-1.06-1.704-2.213-1.998-3.459l1.676-.419c.243.73.523 1.282.838 1.655.716-.416 1.472-1.01 2.266-1.784l1.343 1.214c-.594.595-1.411 1.218-2.449 1.87.63.558 1.608 1.07 2.933 1.535zm21.581-11.505h-12.934V35.23h3.051a13.902 13.902 0 0 0-.763-1.59h-1.547v-1.718h4.641a7.852 7.852 0 0 0-.462-1.16l2.095-.376c.172.272.354.784.548 1.536h4.619v1.719h-1.536a11.298 11.298 0 0 1-.752 1.59h3.04v1.621zm-4.534-3.212h-3.899c.258.415.509.945.752 1.59h2.353a7.859 7.859 0 0 0 .794-1.59zm-8.378 12.085a62.42 62.42 0 0 1-5.683 2.717l-.548-1.869c.953-.38 1.651-.68 2.095-.902v-7.713h-1.805v-1.88h1.805v-5.521h1.912v5.521h1.579v1.88h-1.579v6.81a88.1 88.1 0 0 0 1.998-1.03l.226 1.987zm13.288.633c-.093 1.046-.24 1.801-.441 2.267-.2.466-.465.777-.795.934-.329.158-1.081.237-2.256.237-.88 0-1.525-.111-1.933-.333-.408-.215-.612-.605-.612-1.171V44.49h-2.106c-.093 1.547-.566 2.768-1.418 3.663-.845.888-2.267 1.522-4.265 1.902l-.945-1.74c1.654-.208 2.832-.606 3.534-1.193.702-.594 1.103-1.472 1.203-2.632h-2.513v-6.692h11.397v6.692h-2.986v3.008c0 .372.197.559.591.559.723 0 1.174-.104 1.353-.312.179-.215.301-.88.365-1.998l1.827.612zm-3.105-5.962v-.923h-7.455v.924h7.455zm0 2.418v-.967h-7.455v.967h7.455zm24.815-5.898h-1.633V47.81c0 .537-.129.948-.387 1.235a1.765 1.765 0 0 1-.892.58c-.343.1-.952.15-1.826.15-.508 0-1.07-.017-1.686-.053l-.634-1.848c.623.029 1.21.043 1.762.043.916 0 1.436-.032 1.557-.097.129-.064.194-.186.194-.365V36.917h-4.265v-1.87h4.265v-4.49h1.912v4.49h1.633v1.87zm-8.293 11.161c-3.194.587-6.714 1.085-10.56 1.493l-.354-1.697c2.592-.3 4.153-.49 4.683-.57v-2.159h-3.846v-1.622h3.846v-1.869h-4.329v-1.676h2.288c-.2-.78-.494-1.66-.881-2.642h-1.654v-1.719h3.083v-5.06h1.762v5.06h1.257v-5.06h1.751v5.06h2.685v1.719h-1.429c-.229.709-.565 1.59-1.009 2.642h2.223v1.676h-3.878v1.87h3.373v1.621h-3.373v1.87a59.217 59.217 0 0 0 4.319-.634l.043 1.697zm-3.76-10.742h-3.395a65.49 65.49 0 0 1 .817 2.642h1.557c.473-1.024.813-1.904 1.021-2.642zm3.996-5.672c-.186.988-.594 2.145-1.225 3.47l-1.504-.763c.623-1.368 1.007-2.467 1.15-3.298l1.579.591zm-8.486 2.836-1.59.655a12.952 12.952 0 0 0-1.01-3.448l1.568-.634c.466 1.089.81 2.231 1.032 3.427zm12.138 9.238-1.729.71c-.408-1.462-1.092-3.188-2.052-5.178l1.74-.72c1.017 2.077 1.698 3.806 2.041 5.188zm-84.562 27.7h-7.552v6.348h-2.019v-6.349h-7.52v-9.291h7.52V58.61h2.019v3.535h7.552v9.291zm-2.03-1.945V64.08h-5.522v5.414h5.522zm-7.541 0V64.08h-5.479v5.414h5.479zm32.409-7.67h-18.617V60.17h8.476c-.136-.394-.358-.849-.666-1.364l1.934-.355c.336.652.58 1.225.73 1.719h8.143v1.654zm-2.933 5.565h-12.869v-4.49h12.869v4.49zm-2.019-1.569v-1.364h-8.798v1.364h8.798zm4.135 10.28c0 .495-.2.903-.601 1.225-.401.323-1.382.49-2.944.505l-.698-1.89c.494.042.91.064 1.246.064.466 0 .759-.036.881-.108a.35.35 0 0 0 .183-.322v-5.435h-13.245v7.691h-1.913v-9.346h17.091V76.1zm-3.921-.461h-9.152v-4.405h9.152v4.405zm-1.933-1.526v-1.385h-5.296v1.385h5.296zm29.219-9.152-1.01 1.697c-.487-.372-1.024-.891-1.612-1.557v1.364h-4.995v-1.192c-.358.436-.777.884-1.257 1.342l-1.095-1.697c1.604-1.568 2.961-3.753 4.071-6.553l1.934.312a1.506 1.506 0 0 1-.194.548c.774 2.055 2.16 3.967 4.158 5.736zm-3.083-.365c-.953-1.268-1.633-2.37-2.041-3.309-.509 1.053-1.171 2.156-1.988 3.309h4.029zm-6.446-.355h-3.255c-.05.537-.125 1.085-.225 1.644.472.63.863 1.264 1.171 1.901l-.924.827a8.497 8.497 0 0 0-.57-1.181l-.375 1.138-1.171-.526c.1-.222.168-.398.204-.526a9.72 9.72 0 0 0-.666-.752c-.237.802-.484 1.403-.742 1.804l-.966-.74c.508-1.261.83-2.457.966-3.589h-3.373V62.5h1.3v-3.427h1.869V62.5h1.526v-3.964h1.869V59.6h3.094v1.708h-3.094V62.5h3.362v1.74zm-4.469 0h-.805c-.029.323-.09.702-.183 1.139.136.107.373.33.709.666.179-.953.272-1.554.279-1.805zm4.007 13.621-1.718.022v-.666h-7.284V65.143h1.719v10.43h5.565v-10.43h1.718V77.86zm9.024-7.863c0 .108-.323.666-.967 1.676a27.29 27.29 0 0 1-2.202 2.997c.895.788 1.622 1.497 2.18 2.127l-1.418 1.364c-1.353-1.525-3.176-3.05-5.467-4.576l1.16-1.472c.623.38 1.282.82 1.976 1.322.838-.853 1.669-1.999 2.493-3.438h-5.747V68.15h7.992v1.848zm-11.376.559h-4.34v-1.633h4.34v1.633zm.505 3.78-.967.946a14.336 14.336 0 0 0-.591-1.15 6.593 6.593 0 0 1-.559 1.193l-1.031-.634a.821.821 0 0 0 .151-.333c-.237-.3-.434-.512-.591-.633-.143.5-.34.97-.591 1.407l-.988-.73c.472-1.025.802-2.2.988-3.524l1.117.333a5.898 5.898 0 0 1-.193 1.096c.164.121.415.35.752.687.222-.601.383-1.307.483-2.116l1.117.354c-.05.53-.121.978-.215 1.343.409.509.781 1.096 1.118 1.762zm33.633-3.19-1.138 1.601c-2.299-1.92-4.852-3.684-7.659-5.296v10.313h-2.063V66.743c-2.32 2.406-4.837 4.394-7.552 5.962l-1.138-1.665c4.97-2.865 8.393-6.209 10.269-10.033h-9.893v-1.934h18.713v1.934h-6.553c-.437.93-1.031 1.973-1.783 3.126v1.074c4.175 2.406 7.107 4.386 8.797 5.94zm21.915 5.103-.946 1.719c-3.101-1.275-5.314-2.381-6.638-3.32-2.357 1.497-4.462 2.604-6.317 3.32l-1.235-1.676c2.27-.723 4.286-1.69 6.048-2.9-1.289-1.196-2.403-2.883-3.341-5.06-1.354 3.523-3.194 6.492-5.522 8.905l-1.654-1.385c3.094-3.66 5.303-8 6.628-13.02h-6.209v-1.934h6.402c.165-.651.283-1.453.355-2.406l1.976.022a35.875 35.875 0 0 1-.3 2.384h10.71v1.934h-11.022c-.258 1.346-.469 2.32-.634 2.922h9.131v1.955c-1.189 2.535-2.399 4.422-3.631 5.661 1.934 1.239 4 2.199 6.199 2.879zm-4.641-8.54h-6.069c1.045 2.156 2.026 3.667 2.943 4.533 1.267-1.267 2.309-2.778 3.126-4.533zm22.881-8.465c-1.139.602-2.188 1.07-3.148 1.407l-1.622-1.03a18.07 18.07 0 0 0 2.922-1.28l1.848.903zm-7.176.398-1.493 1.052c-.874-.415-1.916-.795-3.126-1.138l1.525-1.128c1.053.343 2.084.748 3.094 1.214zm10.914 11.526H233.21v-1.611h4.974c-.215-.316-.509-.68-.881-1.096l1.128-.59h-5.124V66.26h8.486V65.1h-7.455v-1.59h7.455v-1.096h-8.1v-1.59h18.112v1.59h-8.014v1.096h7.423v1.59h-7.423v1.16h8.519v1.611h-5.06l1.074.484c-.379.508-.702.909-.967 1.203h5.017v1.61zm-6.273-3.298h-6.704c.473.616.867 1.178 1.182 1.687h4.254c.308-.359.73-.92 1.268-1.687zm4.361 9.958h-1.934v-.763h-11.462v.763h-1.987v-5.543h15.383v5.543zm-1.934-2.352v-1.623h-11.462v1.623h11.462zm6.349-.033c0-.437.158-.798.473-1.085a1.62 1.62 0 0 1 1.128-.43c.429 0 .802.144 1.117.43.315.28.472.641.472 1.085 0 .416-.15.774-.451 1.075-.301.293-.687.44-1.16.44a1.58 1.58 0 0 1-1.117-.43 1.44 1.44 0 0 1-.462-1.085zm5.607 0c0-.437.158-.798.473-1.085a1.62 1.62 0 0 1 1.128-.43c.43 0 .802.144 1.117.43.315.28.473.641.473 1.085 0 .416-.151.774-.451 1.075-.301.293-.688.44-1.161.44-.436 0-.809-.143-1.117-.43a1.44 1.44 0 0 1-.462-1.085zm5.608 0c0-.437.157-.798.472-1.085.316-.286.692-.43 1.128-.43.43 0 .802.144 1.118.43.315.28.472.641.472 1.085 0 .416-.15.774-.451 1.075-.301.293-.687.44-1.16.44a1.58 1.58 0 0 1-1.117-.43 1.44 1.44 0 0 1-.462-1.085z" fill="#292929"/>
    <path d="M8.852 21.81c0-7.348 5.957-13.305 13.305-13.305H97.42v88.152H22.158c-7.35 0-13.306-5.958-13.306-13.306V21.81z" fill="#D5F8BA"/>
    <path d="M55.422 36.781c-8.727 0-15.8 7.075-15.8 15.801 0 8.727 7.073 15.8 15.8 15.8s15.8-7.073 15.8-15.8-7.073-15.8-15.8-15.8zm0 3.059c7.042 0 12.743 5.699 12.743 12.742 0 7.042-5.7 12.743-12.743 12.743-7.042 0-12.743-5.7-12.743-12.743 0-7.042 5.7-12.742 12.743-12.742zm8.933 8.3-1.436-1.448a.765.765 0 0 0-1.081-.005l-9.006 8.934-3.81-3.84a.765.765 0 0 0-1.081-.005l-1.448 1.436a.764.764 0 0 0-.004 1.081l5.784 5.831c.297.3.781.302 1.081.004L64.35 49.22a.765.765 0 0 0 .005-1.08z" fill="#000"/>
    <defs>
        <filter id="a" x=".852" y=".505" width="322.037" height="104.152" filterUnits="userSpaceOnUse" color-interpolation-filters="sRGB">
            <feFlood flood-opacity="0" result="BackgroundImageFix"/>
            <feColorMatrix in="SourceAlpha" values="0 0 0 0 0 0 0 0 0 0 0 0 0 0 0 0 0 0 127 0" result="hardAlpha"/>
            <feOffset/>
            <feGaussianBlur stdDeviation="4"/>
            <feComposite in2="hardAlpha" operator="out"/>
            <feColorMatrix values="0 0 0 0 0 0 0 0 0 0 0 0 0 0 0 0 0 0 0.2 0"/>
            <feBlend in2="BackgroundImageFix" result="effect1_dropShadow"/>
            <feBlend in="SourceGraphic" in2="effect1_dropShadow" result="shape"/>
        </filter>
    </defs>
</svg>
