<svg width="323" height="105" fill="none" xmlns="http://www.w3.org/2000/svg">
    <g filter="url(#a)">
        <rect x="8.902" y="8.162" width="306.037" height="88.152" rx="13.306" fill="#fff"/>
    </g>
    <rect x="12.229" y="11.489" width="299.384" height="81.499" rx="9.979" fill="#fff" stroke="#FFD6D3" stroke-width="6.653"/>
    <path d="M147.907 37.68h-3.255c-.895 0-1.342-.509-1.342-1.526V35.08h-1.741c-.057.76-.386 1.443-.988 2.052a3.868 3.868 0 0 1-2.159 1.117l-.86-1.429c1.368-.222 2.131-.802 2.289-1.74h-2.75v7.283c0 2.937-.666 5.343-1.998 7.219l-1.472-1.407c1.067-1.705 1.6-3.817 1.6-6.338v-6.145l-.419.269-.569-1.912c1.755-1.196 3.033-2.517 3.835-3.964l1.934.505c-.05.157-.161.358-.333.601h5.725v1.45l-.838.785h3.32v1.654h-2.836v.634c0 .136.054.258.161.365.107.1.229.15.365.15h2.331v1.45zm-5.081-5.038h-4.2c-.079.121-.322.383-.73.784h3.985l.945-.784zm-8.271 7.562c-.545.322-1.11.623-1.698.902v6.607c0 .594-.189 1.053-.569 1.375-.379.33-1.378.462-2.997.397l-.44-1.933c.544.021.963.032 1.256.032.401 0 .649-.029.742-.086.093-.064.139-.193.139-.387V42.01c-.866.372-1.461.616-1.783.73l-.591-1.847c1.06-.401 1.851-.749 2.374-1.042v-4.222h-2.202V33.78h2.202v-3.512h1.869v3.512h1.214v1.848h-1.214V39l1.429-.773.269 1.976zm13.352-.107h-10.14v-1.472h3.824c-.065-.294-.233-.698-.505-1.214l1.891-.333c.193.351.422.867.687 1.547h4.243v1.472zm-.655 2.04H138.1V40.87h9.152v1.268zm0 1.988H138.1v-1.257h9.152v1.257zm-.161 5.339h-1.826v-.849h-5.232v.849h-1.826v-4.598h8.884v4.598zm-1.826-2.31v-.848h-5.232v.848h5.232zm18.659-10.978-1.676 1.214c-1.139-2.106-2.65-4.122-4.533-6.048l1.386-1.214c1.783 1.683 3.391 3.699 4.823 6.048zm1.762 6.778c-.043 1.404-.122 2.535-.237 3.395-.107.859-.25 1.421-.429 1.686-.172.265-.434.52-.785.763-.343.243-.83.387-1.461.43-.63.05-1.303.075-2.019.075a24.62 24.62 0 0 1-2.245-.097c-.702-.057-1.171-.168-1.407-.333a1.716 1.716 0 0 1-.548-.677c-.136-.286-.204-.633-.204-1.042V34.973h1.965v11.655c0 .53.319.784.956.763.645-.022 1.719-.033 3.223-.033.236 0 .469-.075.698-.225.237-.158.394-.802.473-1.934.086-1.131.129-2.07.129-2.814l1.891.57zm-10.667-5.65c-.681 4.225-1.576 7.54-2.686 9.947l-1.783-1.063c1.239-2.83 2.073-5.923 2.503-9.282l1.966.398zm15.039 8.336-1.912.902c-.702-2.929-1.823-5.797-3.363-8.605l1.719-.923c1.712 3.258 2.897 6.133 3.556 8.626zm21.871 3.061h-19.207v-1.987h8.583V33.06h-7.638V31.01h17.381v2.051h-7.638v13.654h8.519V48.7zm9.002-18.197c-.315.895-.62 1.694-.913 2.395l-.935 2.181V49.4h-1.987V38.441c-.566.788-1.057 1.397-1.472 1.827l-.924-2.041c1.826-2.25 3.241-4.97 4.243-8.165l1.988.44zm12.998 4.34h-6.843v3.233h6.338v1.826h-6.338v3.19h6.359v1.795h-6.359v4.533h-1.977V34.844h-.752c-1.059 2.055-2.116 3.674-3.169 4.855l-1.428-1.364c1.898-2.277 3.337-5.027 4.318-8.25l1.955.419c-.107.444-.394 1.282-.859 2.514h8.755v1.826zm9.635 1.794-1.16 1.525a13.478 13.478 0 0 0-.924-1.364v12.719h-1.901l-.064-19.229.043-.021 1.89.021v4.06a18.06 18.06 0 0 1 2.116 2.289zm12.365 12.418h-12.601v-1.88h5.586v-4.62h-4.555V40.71h4.555v-4.04h-2.664c-.594 1.455-1.153 2.561-1.676 3.32l-1.762-.88c1.268-1.941 2.217-4.412 2.847-7.413l1.869.301c-.107.68-.322 1.604-.644 2.772h2.03V30.31h1.955v4.458h4.512v1.869h-4.512v4.071h4.028v1.848h-4.028v4.619h5.06v1.88zm-16.962-13.804c-.115 2.027-.358 3.853-.731 5.478l-1.622-.72c.344-1.697.555-3.397.634-5.102l1.719.344zm29.014-.3h-2.019v2.126h-1.891v-2.127h-2.073c-.415 1.44-1.178 2.525-2.288 3.255l-1.139-1.59a3.396 3.396 0 0 0 1.322-1.46c.3-.624.451-1.566.451-2.826 0-.372-.011-.827-.032-1.364 2.664-.1 4.812-.401 6.445-.902l1.01 1.493c-1.626.45-3.488.759-5.586.924.021.315.014.601-.022.859h5.822v1.611zm9.797 0h-3.018V37.1h-1.912V34.95h-2.224c-.365.867-.988 1.644-1.869 2.331l-1.364-1.321c1.346-.81 1.948-2.474 1.804-4.995 2.564-.043 4.845-.33 6.843-.86l1.053 1.494c-1.697.494-3.713.802-6.048.923 0 .316-.036.588-.107.817h6.842v1.611zm-2.395 11.257h-10.055l1.139.838c-1.834 1.11-4.046 1.97-6.639 2.578l-1.192-1.568a25.946 25.946 0 0 0 5.811-1.848h-3.126v-8.508h14.062v8.508zm-1.966-6.09v-.903h-10.184l-.021.902h10.205zm0 2.33v-.945h-10.205v.945h10.205zm0 2.31v-.967h-10.184v.967h10.184zm4.426 3.34-.903 1.59c-1.783-.68-3.903-1.178-6.359-1.493l.902-1.568c2.543.33 4.663.82 6.36 1.472zm11.859-5.779c-.594-.236-.891-.694-.891-1.375 0-.4.15-.73.451-.988.308-.258.644-.387 1.009-.387.416 0 .756.15 1.021.452.265.3.397.673.397 1.117 0 .823-.63 1.715-1.89 2.674l-.666-.515c.272-.394.462-.72.569-.978zM147.488 66.292h-9.592v-6.51h2.685v-1.568h1.611v1.568h.989v-1.568h1.686v1.568h2.621v6.51zm-1.697-3.942v-1.118h-.924v1.118h.924zm-2.61 0v-1.118h-.989v1.118h.989zm-2.6 0v-1.118h-1.053v1.118h1.053zm5.21 2.492V63.67h-.924v1.17h.924zm-2.61 0V63.67h-.989v1.17h.989zm-2.6 0V63.67h-1.053v1.17h1.053zm-3.448 2.223h-1.107v8.38c0 .88-.265 1.435-.795 1.664-.53.237-1.321.362-2.374.376l-.59-1.826c.329.014.598.022.805.022.552 0 .881-.033.989-.097.107-.072.161-.2.161-.387v-1.794a28.51 28.51 0 0 1-2.084 1.139l-.602-.967c-.243 1.547-.727 2.815-1.45 3.803l-1.515-1.053c.881-1.346 1.322-2.915 1.322-4.705v-4.555h-1.042v-3.233h.795v-5.414h6.821v5.414h.666v3.233zm-2.406-6.005v-.923h-3.363v3.695h.86V61.06h2.503zm0 2.772v-1.3h-1.053v1.3h1.053zm.644 2.9V65.52h-4.737v1.213h4.737zm-1.149 4.727v-3.03h-2.503v.924a27.61 27.61 0 0 1 2.105.57l-.505 1.579c-.644-.23-1.178-.39-1.6-.483 0 .744-.022 1.36-.065 1.847a35.776 35.776 0 0 0 2.568-1.407zm13.535-2.567h-10.28v-1.59h10.28v1.59zm.15 8.207H136.95v-1.59h2.836a28.847 28.847 0 0 0-.591-1.536h-.988v-4.18h8.884v4.18h-1.074c-.036.143-.226.655-.57 1.536h2.46v1.59zm-2.685-4.577V71.18h-5.146v1.342h5.146zm-1.257 1.45h-2.815c.237.53.437 1.043.602 1.537h1.644c.257-.595.447-1.107.569-1.536zm24.932-11.988c-.014 3.932-.103 7.094-.268 9.486-.165 2.392-.394 3.874-.688 4.447-.293.566-.684.967-1.17 1.203-.48.236-1.558.355-3.234.355-.501 0-.988-.011-1.461-.033l-.752-2.04c.724.042 1.941.064 3.653.064.279 0 .526-.075.741-.226.222-.15.376-.34.462-.57.086-.228.189-1.052.311-2.47.122-1.425.208-2.847.258-4.264l.118-4.061h-6.381c-.207 3.48-.949 6.227-2.223 8.24-1.268 2.005-3.298 3.795-6.091 5.37l-1.321-1.622c2.062-.995 3.792-2.345 5.188-4.05 1.404-1.704 2.227-4.35 2.471-7.938h-6.972v-1.89h7.079c.086-1.146.118-2.41.097-3.793h2.019c0 1.089-.043 2.353-.129 3.792h8.293zm23.053 9.937h-19.121v-1.783h2.804v-2.965h-2.406V65.39h2.406v-2.288c-.337.293-.838.712-1.504 1.256l-1.45-1.514c2.077-1.483 3.638-3.09 4.683-4.824l2.052.57a8.57 8.57 0 0 1-1.171 1.719h13.116v1.826H176.6c-.194.222-.495.523-.903.902h1.891v2.353h2.041v-2.353h1.869v2.353h2.181v-2.353h1.847v2.353h2.181v-2.353h1.891v2.353h1.955v1.783h-1.955v2.965h2.352v1.783zm-4.243-1.783v-2.965h-2.181v2.965h2.181zm-4.028 0v-2.965h-2.181v2.965h2.181zm-4.05 0v-2.965h-2.041v2.965h2.041zm12.472 6.628-1.934.837a21.009 21.009 0 0 0-2.417-4.382l1.891-.86a22.053 22.053 0 0 1 2.46 4.405zm-15.039-3.48c-.702 1.71-1.54 3.193-2.514 4.446l-1.826-1.17c.795-.917 1.618-2.278 2.47-4.082l1.87.805zm9.85 3.523-1.891.752a21.546 21.546 0 0 0-1.783-4.18l1.891-.73c.823 1.612 1.418 2.997 1.783 4.158zm-5.231.172-1.945.58c-.257-1.34-.659-2.743-1.203-4.211l1.869-.656c.48 1.125.906 2.553 1.279 4.287zM200.2 61.36l-1.386 1.504c-1.024-1.21-2.284-2.288-3.781-3.233l1.386-1.504c1.504 1.024 2.764 2.102 3.781 3.233zm13.933 15.2-1.805.957a26.742 26.742 0 0 0-.945-2.03c-3.717.887-7.194 1.475-10.431 1.761l-.73-1.87c1.797-1.467 3.419-3.77 4.866-6.906h-4.845V66.56h5.941v-3.48h-5.017v-1.892h5.017v-2.921h2.008v2.922h4.727v1.89h-4.727v3.48h5.715v1.913h-6.488c-1.382 2.857-2.836 5.07-4.361 6.638a60.437 60.437 0 0 0 7.347-1.321c-.415-.766-1.074-1.79-1.976-3.072l1.869-.86c1.733 2.578 3.011 4.813 3.835 6.703zM199.76 66.442l-1.203 1.547c-1.024-.988-2.324-1.973-3.9-2.954l1.279-1.514a19.898 19.898 0 0 1 3.824 2.921zm.204 3.986c-.938 2.635-2.098 4.998-3.481 7.09l-1.718-1.193c1.196-1.611 2.349-3.9 3.459-6.864l1.74.967zm33.612 3.018h-9.99l1.01 1.203c-1.454.953-3.674 1.93-6.66 2.933l-1.193-1.719c2.371-.701 4.394-1.507 6.069-2.417H219.3v-9.84c-.552.394-1.11.73-1.676 1.01l-1.096-1.579c2.442-1.232 4.67-2.89 6.682-4.974l2.138.527c-.165.25-.409.508-.731.773h6.821v1.676c-.494.537-.963.985-1.407 1.343h3.545v11.064zm-4.952-12.407h-5.715a25.689 25.689 0 0 1-1.74 1.343h5.833c.68-.494 1.221-.942 1.622-1.343zm3.04 4.458v-1.429h-10.431v1.43h10.431zm0 3.083v-1.472h-10.431v1.472h10.431zm0 3.148v-1.515h-10.431v1.515h10.431zm4.49 3.942-.902 1.75c-2.485-.816-4.87-1.392-7.154-1.729l.945-1.804c2.234.386 4.605.98 7.111 1.783zm21.753-13.911h-4.576v1.321h-2.041V61.76h-2.535v-1.87h2.535v-1.675h2.041v1.676h4.576v1.869zm-10.054 0h-2.482v1.321h-2.03V61.76h-4.598v-1.87h4.598v-1.675h2.03v1.676h2.482v1.869zm-3.631 2.009c-.315.895-.799 1.904-1.451 3.029v10.667h-1.912v-7.67a11.098 11.098 0 0 1-1.278 1.472l-1.096-1.72c1.447-1.546 2.765-3.652 3.953-6.316l1.784.538zm13.707 2.105h-1.622v9.507c0 .48-.129.884-.387 1.214a1.867 1.867 0 0 1-1.031.677c-.423.114-1.544.171-3.363.171l-.719-1.89c.436.014 1.382.021 2.836.021.451 0 .676-.254.676-.762v-8.938h-9.571v-1.87h13.181v1.87zm-5.543 8.1h-7.036v-6.65h7.036v6.65zm-1.891-1.826v-2.998h-3.298v2.998h3.298zm9.98 2.954c0-.437.157-.799.472-1.085a1.62 1.62 0 0 1 1.128-.43c.43 0 .802.143 1.117.43.315.279.473.64.473 1.085 0 .415-.15.773-.451 1.074-.301.293-.688.44-1.16.44-.437 0-.81-.143-1.117-.43a1.44 1.44 0 0 1-.462-1.084zm5.607 0c0-.437.158-.799.473-1.085a1.62 1.62 0 0 1 1.128-.43c.429 0 .802.143 1.117.43.315.279.472.64.472 1.085 0 .415-.15.773-.451 1.074-.3.293-.687.44-1.16.44a1.58 1.58 0 0 1-1.117-.43 1.44 1.44 0 0 1-.462-1.084zm5.607 0c0-.437.158-.799.473-1.085a1.62 1.62 0 0 1 1.128-.43c.43 0 .802.143 1.117.43.315.279.473.64.473 1.085 0 .415-.151.773-.451 1.074-.301.293-.688.44-1.16.44-.437 0-.81-.143-1.118-.43a1.44 1.44 0 0 1-.462-1.084z" fill="#292929"/>
    <path d="M8.902 21.468c0-7.349 5.958-13.306 13.306-13.306H97.47v88.152H22.208c-7.348 0-13.306-5.957-13.306-13.306v-61.54z" fill="#FFD6D3"/>
    <path d="M55.473 36.438c-8.727 0-15.801 7.074-15.801 15.8 0 8.727 7.074 15.801 15.8 15.801 8.727 0 15.801-7.074 15.801-15.8 0-8.727-7.074-15.801-15.8-15.801zm0 3.058c7.042 0 12.742 5.699 12.742 12.742 0 7.043-5.699 12.743-12.742 12.743-7.043 0-12.743-5.7-12.743-12.743 0-7.042 5.7-12.742 12.743-12.742zm8.933 8.3-1.436-1.448a.764.764 0 0 0-1.082-.004l-9.005 8.933-3.81-3.84a.764.764 0 0 0-1.081-.005l-1.448 1.436a.765.765 0 0 0-.004 1.081l5.784 5.831c.297.3.781.302 1.081.005l10.996-10.908a.765.765 0 0 0 .005-1.082z" fill="#000"/>
    <defs>
        <filter id="a" x=".902" y=".162" width="322.037" height="104.152" filterUnits="userSpaceOnUse" color-interpolation-filters="sRGB">
            <feFlood flood-opacity="0" result="BackgroundImageFix"/>
            <feColorMatrix in="SourceAlpha" values="0 0 0 0 0 0 0 0 0 0 0 0 0 0 0 0 0 0 127 0" result="hardAlpha"/>
            <feOffset/>
            <feGaussianBlur stdDeviation="4"/>
            <feComposite in2="hardAlpha" operator="out"/>
            <feColorMatrix values="0 0 0 0 0 0 0 0 0 0 0 0 0 0 0 0 0 0 0.2 0"/>
            <feBlend in2="BackgroundImageFix" result="effect1_dropShadow"/>
            <feBlend in="SourceGraphic" in2="effect1_dropShadow" result="shape"/>
        </filter>
    </defs>
</svg>
