<svg width="342" height="79" fill="none" xmlns="http://www.w3.org/2000/svg">
    <path d="M10.225 16.07a.839.839 0 0 1 .777-.915 52.854 52.854 0 0 0 7.548-1.464c.442 0 .69.107.766.333.076.226 0 .259 0 .399a1.077 1.077 0 0 1-.367.409c-.797.482-1.647.873-2.534 1.162a7.065 7.065 0 0 0-.873.226v.441a11.221 11.221 0 0 1-.443 2.336 2.04 2.04 0 0 0-.14.366 56.093 56.093 0 0 0 2.966-1.206 5.25 5.25 0 0 1 1.682-.549c.183.006.36.058.518.151a.797.797 0 0 1 .323.366 1.205 1.205 0 0 1-.323.764 8.042 8.042 0 0 1-1.909.947c.042.118.067.242.075.366 0 2.153.108 4.101.184 5.855.075 3.23.108 5.608.108 7.244a9.668 9.668 0 0 1-.442 3.52 1.356 1.356 0 0 1-1.316 1.076 1.631 1.631 0 0 1-.626-.108.754.754 0 0 1-.399-.775c0-.398.216-.624.734-.624a6.77 6.77 0 0 0 .582-3.229v-.807a20.421 20.421 0 0 1-2.75 1.464 27.725 27.725 0 0 1-5.165 1.861c-.192.073-.39.124-.594.151a.54.54 0 0 1-.506-.334.946.946 0 0 1-.184-.688c0-.29.216-.474.583-.592l2.534-.872c1.283-.441 2.858-1.076 4.766-1.937.507-.226.95-.41 1.284-.517 0-.947-.076-1.98-.108-3.035-.542.376-1.108.718-1.693 1.022-.944.523-1.938.952-2.966 1.281.015.405.062.808.14 1.205v.151c0 .366-.215.55-.507.55-.29 0-.366-.152-.517-.367a11.561 11.561 0 0 1-.841-5.015c0-.7 0-1.862.075-3.51v-.882a6.13 6.13 0 0 1-1.078.334c-.384.155-.794.24-1.208.248h-.183a.894.894 0 0 1-.475-.506c-.183.947-.41 1.83-.625 2.594a50.377 50.377 0 0 1-2.642 7.426 35.508 35.508 0 0 1-1.91 3.552 1.08 1.08 0 0 1-.55.258.657.657 0 0 1-.474-.183.56.56 0 0 1-.14-.409c.028-.269.141-.521.324-.721a56.28 56.28 0 0 0 3.59-10.106c.335-1.421.626-2.96.917-4.607.2-1.26.3-2.534.302-3.81a9.186 9.186 0 0 0-.485-3.11h-.981c-.518-.076-.734-.323-.734-.797v-.409a1.215 1.215 0 0 1 .842-.84c.182.02.367.02.55 0a50.244 50.244 0 0 0 9.457-.979c3.97-.684 7.898-1.589 11.766-2.712.593-.215 1.078-.398 1.542-.517.253.018.501.08.733.183.291.226.442.41.442.55-.01.195-.073.385-.183.548a1.617 1.617 0 0 1-.701.517 65.651 65.651 0 0 1-8.627 2.335 82.398 82.398 0 0 1-9.706 1.83c-.733.075-1.434.15-2.092.183.075.517.14 1.076.215 1.765a31.39 31.39 0 0 1-.442 5.672c-.064.366-.107.657-.183.947a.454.454 0 0 0 .151-.107c.323-.152.67-.25 1.024-.291a68.24 68.24 0 0 0 3.893-1.173 1.54 1.54 0 0 1 .14-.41 5.6 5.6 0 0 0 .702-2.625v-.41c-.88.212-1.774.36-2.675.442-.68.108-.938-.226-.938-.883zm5.619-11.345v.226a1.268 1.268 0 0 1-.26.625 17.258 17.258 0 0 1-2.49 1.496c-1.01.497-2.065.9-3.15 1.205 0 .549-.301.84-.733.84-.431 0-.733-.216-.733-.69 0-.473-.226-1.388-.442-2.378-.442-1.388-.841-2.53-1.143-3.444a.84.84 0 0 1 .302-.549.636.636 0 0 1 .55-.323h.431a.981.981 0 0 1 .55.55c.044.124.094.246.151.365a27.213 27.213 0 0 1 2.782-1.173 13.061 13.061 0 0 1 3.71-.581c.284-.003.564.071.809.215a.85.85 0 0 1 .323.656 4.773 4.773 0 0 1-.992 2.745c.124.05.237.123.335.215zM11.076 6.34c.658-.29 1.316-.55 1.941-.808a24.485 24.485 0 0 0 1.467-3.11c-1.798.33-3.548.883-5.209 1.647.076.29.151.592.216.882.15.732.302 1.313.366 1.755.399-.146.806-.269 1.219-.366zm1.165 16.725a8.455 8.455 0 0 0-.108 1.755l1.208-.41a21.123 21.123 0 0 0 2.793-1.205l.55-.29a9.854 9.854 0 0 1-.108-1.432 9.334 9.334 0 0 1-.076-1.076c-1.434.517-2.857.99-4.26 1.431v1.227zm-.108 5.522c.442-.151.84-.259 1.143-.334a27.707 27.707 0 0 0 2.858-1.238c.366-.258.625-.409.733-.473 0-.732-.075-1.507-.108-2.239-.442.29-.96.549-1.467.84-.927.547-1.93.956-2.976 1.216a.367.367 0 0 1-.183 0v2.228zm15.55-24.755a.723.723 0 0 1 .291-.065c.15.035.288.11.4.216v.29a1.279 1.279 0 0 1-.227.55c-.759.461-1.552.864-2.372 1.205-1.05.439-2.132.799-3.236 1.076-.064.549-.29.84-.733.84-.442 0-.658-.184-.658-.625-.1-.803-.258-1.598-.474-2.378l-1.133-3.37a.645.645 0 0 1 .292-.44.582.582 0 0 1 .506-.323h.443c.214.11.383.293.474.516.044.125.095.247.151.366.86-.425 1.742-.806 2.642-1.14A11.052 11.052 0 0 1 27.49 0c.263-.006.52.073.734.226a.83.83 0 0 1 .334.69 4.99 4.99 0 0 1-1.391 3.153c.177-.076.35-.162.517-.259v.022zm-.625 25.583a31.015 31.015 0 0 0 3.666 3.358 23.056 23.056 0 0 0 5.09 2.745.432.432 0 0 1 .335.441.55.55 0 0 1-.259.442.507.507 0 0 1-.442.183 6.982 6.982 0 0 1-1.715-.259 8.433 8.433 0 0 1-2.157-.947 20.155 20.155 0 0 1-4.184-3.078c-.433-.358-.837-.75-1.208-1.173a26.26 26.26 0 0 1-4.076 5.457 1.012 1.012 0 0 1-.723.624h-.366a.636.636 0 0 1-.485-.657.934.934 0 0 1 .118-.441 63.604 63.604 0 0 0 3.548-4.757l.841-1.389c-.798-.882-1.531-1.722-2.157-2.604a90.701 90.701 0 0 0-2.156-2.885 1.002 1.002 0 0 1-.4-.84c.027-.234.129-.453.292-.623a.917.917 0 0 1 .55-.291h.259c.156.043.303.116.431.215.162.25.346.483.55.7a25.813 25.813 0 0 0 1.693 2.303c.568.753 1.18 1.472 1.833 2.153a19.55 19.55 0 0 0 1.391-5.49v-1.076c-.009-.72-.07-1.44-.183-2.152l-.15-.765c-.433.272-.902.482-1.392.625a7 7 0 0 1-2.491.505 2.042 2.042 0 0 1-.442 0c-.766-.075-1.079-.591-1.079-1.463a1.85 1.85 0 0 1 .184-.775l.658-1.572c.15-.58.29-1.076.442-1.646.15-.57.248-.872.366-1.238a.775.775 0 0 1 .798-.549c.626 0 .96.29.992.732v.29a7.107 7.107 0 0 1-.442 1.464c-.248.732-.474 1.421-.69 2.088-.162.304-.3.621-.41.947a12.527 12.527 0 0 0 6.417-3.659c.149-.144.325-.258.518-.334a.853.853 0 0 1 .949.764.967.967 0 0 1-.184.593 7.007 7.007 0 0 1-.765.947c-.492.466-1.018.895-1.575 1.28.267 1.35.39 2.725.367 4.101a17.196 17.196 0 0 1-2.157 7.685v.021zm-3.3-24.152c.29-.067.572-.165.841-.29a16.23 16.23 0 0 0 2.017-3.444c-1.681.274-3.312.792-4.842 1.539.075.29.15.549.226.807.14.732.259 1.313.367 1.787l1.391-.399zM47.407 31.987a52.279 52.279 0 0 0 9.317 2.744c1.24.226 2.6.441 4.141.624 1.24.076 2.384.14 3.365.14a23.5 23.5 0 0 0 3.084-.215c.987-.16 1.957-.405 2.901-.732a8.809 8.809 0 0 1 1.682-.258c.4 0 .626.075.658.301-.01.177-.058.35-.14.506-.157.151-.33.285-.518.398a22.6 22.6 0 0 1-9.134 1.647c-5.305 0-11.398-1.388-18.214-4.165a28.053 28.053 0 0 1-3.235-1.615 11.862 11.862 0 0 1-1.585-1.076.763.763 0 0 1-.14-.506 1.14 1.14 0 0 1 .366-.84.831.831 0 0 1 .593-.312c.195.021.382.084.55.183.701.366 1.575.808 2.642 1.389a.281.281 0 0 1 .108.075 6.825 6.825 0 0 0 1.251-4.133 3.225 3.225 0 0 0-.625-1.614 2.741 2.741 0 0 1-.518-1.496 4.74 4.74 0 0 1 1.078-2.637c.214-.26.375-.56.475-.883a4.462 4.462 0 0 0-.658-1.539 12.42 12.42 0 0 0-1.208-1.604c0-.516.367-.807.992-.807.28.032.54.162.734.366a4.017 4.017 0 0 1 1.758 3.326 8.48 8.48 0 0 1-1.392 3.702 6.384 6.384 0 0 1 1.079 3.477 6.299 6.299 0 0 1-1.542 4.499c.668.398 1.434.732 2.135 1.055zm.367-19.137a1.576 1.576 0 0 1-1.251-.84 8.19 8.19 0 0 0-3.365-2.012 2.872 2.872 0 0 1-.593-.29 1.344 1.344 0 0 1-.076-.593 1.436 1.436 0 0 1 0-.366.937.937 0 0 1 .95-.613c.863.045 1.694.35 2.383.872a7.898 7.898 0 0 1 2.35 2.228c.086.223.133.46.14.7.012.623-.215.914-.538.914zm22.441 8.417c-1.25 1.205-4.367 2.637-9.393 4.305v.075c.003.237-.073.468-.216.657-.29.441-.765 1.076-1.434 1.862-1.208 1.646-2.307 3.11-3.235 4.434l-.442.323h-.442c-.184 0-.475-.215-.475-.581a.774.774 0 0 1 .184-.506c.183-.366.582-.99 1.207-1.948.475-.69 1.079-1.496 1.618-2.443.291-.442.507-.808.733-1.077l-5.543 1.647c-.537.17-1.09.288-1.65.355-.265.02-.532.02-.798 0-.442 0-.7-.29-.776-.882 0-.248.226-.474.658-.69.297-.133.603-.244.916-.333 2.157-.506 4.26-1.076 6.309-1.786a3.674 3.674 0 0 1-.075-.625 62.798 62.798 0 0 0-.324-3.336c-.658.226-1.25.366-1.8.516-.55.151-.95.216-1.176.259-.227.043-.658 0-.917 0-.507 0-.766-.323-.798-.947 0-.291.216-.517.658-.732a3.306 3.306 0 0 1 1.078-.334c.917-.215 1.834-.474 2.718-.689-.108-.624-.216-1.356-.367-2.152a1.16 1.16 0 0 1-.075-.442c0-.592.183-.914.625-1.076h.291c.475 0 .777.366.917 1.022.14.657.259 1.54.334 2.153a33.913 33.913 0 0 0 1.941-.581l3.15-.99a7.423 7.423 0 0 0-.26-1.862 1.246 1.246 0 0 1-.215-.592 1.074 1.074 0 0 1 .259-.764 1.75 1.75 0 0 1 .55-.216.875.875 0 0 1 .582.216c.16.19.299.4.41.624.228.647.352 1.326.366 2.012.798-.29 1.5-.591 2.082-.807a.746.746 0 0 1 .55.259c.005.096.005.193 0 .29a.883.883 0 0 1-.335.624 8.631 8.631 0 0 1-2.49 1.464 20.95 20.95 0 0 1-.626 2.562c-.288.75-.65 1.472-1.079 2.152a69.195 69.195 0 0 0 6.6-2.604.572.572 0 0 1 .475.258v.226a.816.816 0 0 1-.27.7zM56.832 8.975h-.075a.647.647 0 0 1-.335.151.54.54 0 0 1-.29.108c-.917.366-1.834.732-2.75 1.076.023.749.21 1.484.55 2.153a2.006 2.006 0 0 0 1.725.764 6.92 6.92 0 0 0 3.882-1.722.983.983 0 0 1 .442-.108.679.679 0 0 1 .518.474v.409a.946.946 0 0 1-.324.689 5.394 5.394 0 0 1-2.534 1.506 7.432 7.432 0 0 1-2.276.29 3.39 3.39 0 0 1-2.207-.708 3.378 3.378 0 0 1-1.233-1.96 14.887 14.887 0 0 1-.442-4.435 4.544 4.544 0 0 1 .14-1.388c.076-.258.184-.398.367-.441.183-.043.302 0 .41 0a1.079 1.079 0 0 1 .841 1.076c0 .667 0 1.324.075 1.937a23.841 23.841 0 0 0 2.966-1.076c.108-.075.227-.108.291-.15a8.619 8.619 0 0 0 1.079-1.314c.27-.307.459-.677.55-1.076 0-1.023-.4-1.572-1.208-1.572-1.77.062-3.513.46-5.133 1.174a.778.778 0 0 1-.874-.883.784.784 0 0 1 .507-.732c.746-.34 1.518-.62 2.308-.84 1.017-.19 2.05-.287 3.084-.29a3.824 3.824 0 0 1 1.909.474c.4.266.718.639.916 1.076.15.373.224.772.216 1.173a3.655 3.655 0 0 1-.69 1.68A11.319 11.319 0 0 1 57.51 8.35a1.505 1.505 0 0 1-.15.183 3.88 3.88 0 0 1-.529.441zm4.583 13.992a15.658 15.658 0 0 0 1.715-3.325l.226-.883c-.808.301-1.65.592-2.534.883-.884.29-1.499.473-2.157.624.108 1.173.184 2.152.26 2.884v1.077c.398-.108.808-.216 1.25-.366.248-.065.507-.183.723-.248.14-.226.334-.441.517-.667v.021zM66.43 8.061c-.95.366-1.941.731-2.901 1.076.026.46.179.903.442 1.28a1.812 1.812 0 0 0 1.51.657 12.53 12.53 0 0 0 4.907-1.313 2.16 2.16 0 0 1 .442-.075.55.55 0 0 1 .474.441v.409a.99.99 0 0 1-.334.657 8.549 8.549 0 0 1-3.009 1.173c-.926.213-1.875.31-2.825.29a2.948 2.948 0 0 1-2.998-2.152 10.61 10.61 0 0 1-.367-3.477c-.013-.43.023-.86.108-1.28a.57.57 0 0 1 .324-.41h.485c.399.108.615.431.69.98.075.549 0 .99 0 1.431a26.306 26.306 0 0 0 2.75-1.076c.434-.4.824-.843 1.165-1.324.25-.236.43-.538.517-.872 0-.882-.765-1.356-2.275-1.356a9.495 9.495 0 0 0-3.15.69c-.55 0-.808-.248-.808-.84a.848.848 0 0 1 .442-.732c.448-.246.927-.43 1.424-.55a12.479 12.479 0 0 1 1.984-.182 7.195 7.195 0 0 1 2.567.409c.502.247.932.617 1.25 1.076.206.345.307.74.292 1.141a2.849 2.849 0 0 1-.626 1.42 9.692 9.692 0 0 1-1.078 1.282.882.882 0 0 1-.259.548c-.353.27-.737.498-1.143.679zM63.97 26.13c.13.029.254.08.367.151a22.45 22.45 0 0 1 4.917 3.735c.444.354.786.818.993 1.345 0 .442-.227.7-.594.7a.938.938 0 0 1-.582-.334 22.644 22.644 0 0 1-1.876-1.388 55.11 55.11 0 0 0-4.098-2.82.527.527 0 0 1-.151-.43v-.183a.827.827 0 0 1 .29-.593.82.82 0 0 1 .443-.215c.075 0 .183.032.259.032h.032zM91.772 10.333a62.894 62.894 0 0 1-1.467 4.973 35.78 35.78 0 0 0 1.942 2.228 75.694 75.694 0 0 0 10.007 10.504c2.276 1.98 4.4 3.767 6.384 5.521a1.342 1.342 0 0 1 .626 1.077.658.658 0 0 1-.486.7h-.183a2.644 2.644 0 0 1-.949-.291 69.396 69.396 0 0 1-5.532-4.209 60.2 60.2 0 0 1-11.96-12.678 6.167 6.167 0 0 1-.582-.915c-.259.656-.517 1.28-.809 1.862-.805 1.765-1.758 3.839-2.857 6.22-.734 1.4-1.402 2.605-2.06 3.66a6.739 6.739 0 0 1-1.683 2.271c-.199.119-.426.182-.657.183a.592.592 0 0 1-.626-.624 1.204 1.204 0 0 1 .184-.732c.442-.689.873-1.464 1.39-2.26a131.225 131.225 0 0 0 2.966-5.457 94.996 94.996 0 0 0 2.384-5.564 44.268 44.268 0 0 0 2.016-6.835c.425-2.027.67-4.087.734-6.156 0-.323.226-.55.625-.614h.593c.431 0 .69.474.733 1.281-.053 1.97-.299 3.932-.733 5.855zM143.289 4.402c-1.208 1.17-4.084 2.486-8.627 3.95 0 2.41.107 4.79.183 7.168.075 3.154.216 6.329.367 9.59.151 3.509.334 6.662.55 9.59a2.374 2.374 0 0 1-.443 1.646 1.383 1.383 0 0 1-1.078.43c-1.866 0-3.516-1.162-4.982-3.433a2.231 2.231 0 0 1-.334-1.205c0-.441.258-.656.733-.656.226 0 .442.182.658.505 1.542 1.938 2.793 2.928 3.742 2.928-.216-3.003-.475-6.512-.69-10.612-.119-2.637-.227-5.49-.367-8.61l-.227.365c-4.216 6.07-7.656 10.354-10.374 12.84a17.697 17.697 0 0 1-3.235 2.271c-.12.035-.243.06-.367.076-.248 0-.399-.119-.399-.334a.561.561 0 0 1 .151-.441 70.967 70.967 0 0 0 14.332-18.297c-.075-1.141-.108-2.153-.151-3.154h-.183a574.72 574.72 0 0 1-9.048 2.562c-.615.177-1.242.31-1.876.398a7.383 7.383 0 0 1-.917 0c-.507 0-.766-.366-.841-1.076 0-.29.216-.538.701-.797.291-.107.615-.226 1.078-.366 3.523-.803 6.96-1.754 10.31-2.852l.69-.258c-.075-1.83-.108-3.627-.108-5.382 0-.592.334-.882.992-.914a.834.834 0 0 1 .906.54c.043.12.058.248.043.374.108 1.787.184 3.401.227 4.79a93.682 93.682 0 0 0 8.39-3.035.656.656 0 0 1 .55.215v.334a1.079 1.079 0 0 1-.356.85zM157.9 17.08a2.962 2.962 0 0 1 2.491.921 2.955 2.955 0 0 1 .744 2.545l.312 10.946c0 .388-.312.592-.927.625a7.106 7.106 0 0 1-2.545-.55c-.572.184-1.219.367-1.941.571-.496.076-.928.13-1.348.162a.722.722 0 0 1-.108.3.59.59 0 0 1-.431.238.452.452 0 0 1-.367-.15.713.713 0 0 1-.205-.518V23.55c0-1.453 0-3.024.076-4.735v-2.691a1.098 1.098 0 0 1 0-.334.511.511 0 0 1 0-.183c0 .054 0 .054-.087.054a4.884 4.884 0 0 1-.647 0c-.356 0-.539-.237-.571-.7 0-.183.161-.366.474-.516.243-.1.492-.186.744-.258.831-.216 1.661-.442 2.47-.732a20.95 20.95 0 0 0 2.696-.98.43.43 0 0 1 .356.183v.205a.72.72 0 0 1-.205.463 7.748 7.748 0 0 1-2.675 1.377c-.496.205-.959.355-1.369.485l.075.107c.083.25.127.512.13.775v1.733a9.789 9.789 0 0 1 2.858-.721zm2.156 13.767c0-2.379 0-4.5-.054-6.394-.28.13-.614.259-.981.388a55.856 55.856 0 0 1-4.173 1.302.39.39 0 0 1-.205 0v4.897c.334 0 .679-.075 1.078-.129a13.196 13.196 0 0 0 2.933-.829h.227a.433.433 0 0 1 .388.237c.022.078.05.154.086.226a.7.7 0 0 1-.129.42c.286-.073.579-.113.873-.118h-.043zm-.151-10.3c-.183-1.497-.959-2.271-2.329-2.271-.447.045-.886.15-1.305.312-.464.204-.949.44-1.423.667a3.401 3.401 0 0 0 0 .473c-.108 1.83-.162 3.23-.184 4.306v1.076a44.096 44.096 0 0 0 4.767-1.528l.571-.183c0-1.066-.032-1.992-.054-2.853h-.043zm13.168 1.194c0-2.152.075-4.757.183-7.943 0-.517-.054-.796-.129-.796-.916.234-1.811.543-2.675.925-1.143.42-2.275.775-3.418 1.077-.892.273-1.818.422-2.75.44h-.41a.91.91 0 0 1-.83-.408 1.073 1.073 0 0 1-.184-.7 21.248 21.248 0 0 0 1.995-5.123.852.852 0 0 1 .669-.29c.113.017.22.061.313.129a.66.66 0 0 1 .204.516 3.602 3.602 0 0 1-.409 1.303c-.723 1.808-1.143 2.862-1.24 3.153a17.126 17.126 0 0 0 5.133-1.076 48.368 48.368 0 0 0 3.418-1.26 2.88 2.88 0 0 1 .701-.129c.205 0 .432.28.647.797.15.476.22.975.205 1.474 0 .83 0 2.153-.075 3.832-.108 3.046-.162 5.64-.162 7.803 0 2.852 0 5.93.075 9.235a.88.88 0 0 1-.431.678l-.496.107a4.73 4.73 0 0 1-2.718-1.076 11.85 11.85 0 0 1-2.307-2.561 1.076 1.076 0 0 1-.108-.463c0-.259.108-.388.366-.388a.92.92 0 0 1 .54.237 26.104 26.104 0 0 0 4.044 2.992 210.818 210.818 0 0 1-.184-9.052c.043-.947.043-2.087.076-3.433h-.043zm-3.581 3.541a1.002 1.002 0 0 1-.463-.129c-.313-.15-.701-.334-1.143-.592a17.32 17.32 0 0 1-3.031-1.808l-.388-.388a.691.691 0 0 1-.075-.312.5.5 0 0 1 .15-.366.617.617 0 0 1 .313-.258h.313c.126.02.247.064.356.13.162.096.366.258.625.408a18.74 18.74 0 0 0 2.157 1.4c.442.258.852.537 1.273.796.165.18.264.412.28.656 0 .28-.097.43-.28.485l-.087-.022zM184.935 25.488a8.313 8.313 0 0 1-2.481.937.344.344 0 0 1-.183.075h-.129c-.313 1.7-.626 3.229-.938 4.628a40.916 40.916 0 0 1-.874 2.788.688.688 0 0 1-.625.42c-.259 0-.367-.183-.367-.463.009-.197.053-.39.129-.57.316-.891.575-1.8.777-2.724.259-1.076.517-2.378.787-3.95.324-2.696.479-5.41.464-8.126 0-1.99-.162-4.24-.421-6.78a.722.722 0 0 1 .572-.775.755.755 0 0 1 .776.645v.345a6.159 6.159 0 0 1 2.276-.915c.52-.18 1.059-.3 1.606-.355a1.472 1.472 0 0 1 1.164.33 1.473 1.473 0 0 1 .519 1.09c-.205 2.433-.281 5.199-.281 8.353 0 2.41.13 5.284.442 8.61.097 1.388.259 2.809.464 4.37 0 .538-.237.828-.668.85a3.465 3.465 0 0 1-1.661-.538 5.571 5.571 0 0 1-2.362-2.26 1.492 1.492 0 0 1-.151-.41c0-.204.097-.333.356-.387.55 0 1.585.646 3.138 1.97a75.913 75.913 0 0 1-.668-8.18c-.529.38-1.084.721-1.661 1.022zm-.96-6.07a5.78 5.78 0 0 1-1.078.463h-.151a54.117 54.117 0 0 1-.41 5.381 6.818 6.818 0 0 0 1.078-.333 35.253 35.253 0 0 0 2.286-.937c.235-.14.476-.27.723-.387a.598.598 0 0 1 .183-.054c0-.98-.075-2.013-.075-3.078V18.32c-.69.323-1.542.678-2.556 1.098zm-1.219-1.216v.538a20.516 20.516 0 0 1 3.236-1.313 4.09 4.09 0 0 1 .571-.162c0-1.603.13-3.228.291-4.886a.474.474 0 0 0-.496-.441 8.638 8.638 0 0 0-3.785 1.345c.108 1.712.183 3.369.183 4.919zm12.24 2.766a13.518 13.518 0 0 1 3.99-.775h.367a.894.894 0 0 1 .798.936 16.709 16.709 0 0 1-1.402 5.145 34.365 34.365 0 0 1-1.574 3.154 23.68 23.68 0 0 0 1.887 2.152 15.014 15.014 0 0 0 3.472 2.465.314.314 0 0 1 .205.334.444.444 0 0 1-.151.333.344.344 0 0 1-.334.15 3.383 3.383 0 0 1-1.165-.225 6.74 6.74 0 0 1-1.563-.883 15.272 15.272 0 0 1-2.826-2.766 3.339 3.339 0 0 0-.259-.28c-.044.09-.094.176-.151.259a13.539 13.539 0 0 1-2.933 3.282 1.24 1.24 0 0 1-.561.205c-.312 0-.496-.15-.496-.441a.47.47 0 0 1 .184-.41 19.09 19.09 0 0 0 2.588-3.131c.203-.263.387-.54.55-.83a22.928 22.928 0 0 1-2.049-3.056 51.202 51.202 0 0 1-1.176-2.034 28.634 28.634 0 0 1-1.757 9.278c0 .473-.259.7-.594.7-.334 0-.593-.227-.593-.7.486-1.938.928-3.692 1.294-5.382.331-1.887.493-3.8.486-5.715 0-2.023-.043-4.144-.13-6.36-.075-1.69-.151-3.23-.259-4.532a4.982 4.982 0 0 1-.151-.463.738.738 0 0 1 .594-.517h.129c.288 0 .514.205.679.614l.486-.226c1.078-.366 2.027-.7 3.008-1.012a12.804 12.804 0 0 1 2.772-.495c.314.01.611.142.83.366.189.326.279.7.259 1.076a30.81 30.81 0 0 1-.28 3.079c-.117.874-.29 1.74-.518 2.594a3.915 3.915 0 0 1-.733 1.603 1.75 1.75 0 0 1-1.079.388c-.302 0-.776-.313-1.337-.937a2.822 2.822 0 0 1-.55-.72.511.511 0 0 1-.151-.388.306.306 0 0 1 .179-.308.303.303 0 0 1 .123-.026c.367 0 .938.387 1.736 1.076.418-1.043.732-2.124.939-3.229.234-1.037.382-2.091.442-3.153 0-.183-.108-.29-.313-.312a10.47 10.47 0 0 0-2.157.646c-1.142.461-2.313.85-3.505 1.162 0 .958.13 2.077.184 3.369.054 2.066.075 4.133.075 6.253a23.676 23.676 0 0 1 2.491-1.313zm-1.79 2.615c.388.7.809 1.367 1.219 2.013.625.98 1.272 1.916 1.887 2.798.487-.892.912-1.816 1.272-2.766a30.372 30.372 0 0 0 1.381-4.305 18.894 18.894 0 0 0-5.91 1.991c.04.095.091.185.151.27zM213.384 20.632a28.178 28.178 0 0 0-.129 2.508c0 1.22-.079 4.065-.237 8.535a7.95 7.95 0 0 1-.518 2.841 1.14 1.14 0 0 1-1.078.625 2.733 2.733 0 0 1-2.513-1.658 1.69 1.69 0 0 1 0-.333c0-.259.108-.42.313-.442a.822.822 0 0 1 .388.183c.679.313 1.294.592 1.865.83.15-.709.229-1.43.238-2.153.075-1.378.129-3.337.183-5.93 0-.647 0-1.368.076-2.154a23.478 23.478 0 0 1-1.014 1.992 21.753 21.753 0 0 1-4.745 5.79 2.98 2.98 0 0 1-.281.205c-.123.05-.255.078-.388.086a.398.398 0 0 1-.334-.441.515.515 0 0 1 .226-.442 26.425 26.425 0 0 0 3.171-3.778 22.714 22.714 0 0 0 2.157-3.831c.428-1 .789-2.03 1.078-3.079a285.362 285.362 0 0 0-4.022 1.636 2.006 2.006 0 0 1-.723.183.54.54 0 0 1-.41-.215 1.28 1.28 0 0 1-.161-.56c0-.182.129-.344.388-.473a48.259 48.259 0 0 1 4.896-1.937c1.6-.63 3.274-1.058 4.982-1.27h.28c.245.003.486.066.701.183a.993.993 0 0 1 .313.753c0 .441-.41 1.012-1.219 1.733-.69.572-1.41 1.107-2.156 1.604a.745.745 0 0 1-.464.204h-.183c-.281 0-.41-.075-.41-.237a.477.477 0 0 1 0-.28 74.104 74.104 0 0 0 3.235-2.744c-1.181.14-2.338.437-3.44.882v.183c0 .054-.065.528-.065 1.001zm2.157-6.705s.151.075.259.183a.567.567 0 0 1 .075.237v.129a2.788 2.788 0 0 1-.959.613c-1.144.517-2.157.937-3.117 1.27a8.637 8.637 0 0 1-2.071.55.508.508 0 0 1-.334-.13.518.518 0 0 1-.183-.29.797.797 0 0 1-.076-.366.315.315 0 0 1 .205-.302c.335-.107.755-.236 1.219-.42.176-.05.349-.11.517-.182v-.076c2.157-1.345 3.236-2.217 3.236-2.637 0-.42-.626-.463-1.844-.592h-2.233c-.334 0-.485-.172-.485-.592a.503.503 0 0 1 .129-.387c.11-.118.253-.2.41-.237.68 0 1.402.054 2.157.108a8.386 8.386 0 0 1 1.963.333c.733.216 1.078.625 1.078 1.249 0 .624-.42 1.076-1.251 1.83.423-.13.856-.228 1.294-.29h.011zm.388 13.992a.935.935 0 0 1-.129-.57c0-.173.151-.334.464-.485.312-.15 1.013-.387 1.736-.624.906-.258 1.844-.57 2.771-.937.216-.045.425-.114.626-.204.205-.463.442-.958.679-1.475.302-.774.593-1.496.852-2.152.151-.355.334-.56.539-.56a.805.805 0 0 1 .442.172.757.757 0 0 1 .238.55 1.675 1.675 0 0 1-.205.645 35.11 35.11 0 0 1-.96 2.325l1.316-.355c.788-.21 1.599-.326 2.415-.345.352.015.689.143.96.366.262.351.399.78.388 1.216a16.668 16.668 0 0 1-.679 4.166 26.917 26.917 0 0 1-1.833 4.37c-.647 1.076-1.327 1.55-2.049 1.55-.723 0-1.424-.883-1.737-2.38a3.64 3.64 0 0 1-.075-.72.478.478 0 0 1 .3-.585.476.476 0 0 1 .239-.018.25.25 0 0 1 .15.052.25.25 0 0 1 .087.13c.132.634.35 1.246.647 1.82.151.258.313.387.464.387.334 0 .755-.495 1.219-1.453a28.94 28.94 0 0 0 1.456-4.165c.331-1.084.53-2.205.593-3.337 0-.107-.13-.15-.389-.15a9.048 9.048 0 0 0-2.512.538c-.626.204-1.197.42-1.769.57A60.763 60.763 0 0 1 218 33.43c-.486.7-.906 1.292-1.262 1.787a.787.787 0 0 1-.421.205c-.258 0-.388-.162-.388-.366a.655.655 0 0 1 .237-.463 57.88 57.88 0 0 0 4.4-7.685c-.409.162-.83.312-1.186.42-.755.258-1.477.516-2.211.721-.249.12-.521.182-.798.183a.477.477 0 0 1-.453-.258l.011-.054zm8.627-15.068c.03.109.048.22.054.333a6.35 6.35 0 0 1-.679 2.304 23.848 23.848 0 0 1-.776 1.754c.24.198.492.381.754.549a38.137 38.137 0 0 0 4.098 2.895c.599.366 1.231.676 1.888.926a.295.295 0 0 1 .129.258.48.48 0 0 1-.334.42.593.593 0 0 1-.205 0 3.364 3.364 0 0 1-.885-.108 14.716 14.716 0 0 1-3.159-1.603c-.442-.259-1.456-.98-3.009-2.153a.17.17 0 0 1-.054.075 14.565 14.565 0 0 1-2.221 2.896 13.45 13.45 0 0 1-2.394 1.99c-.18.197-.426.32-.691.345-.258 0-.366-.161-.366-.495 0-.108.108-.28.334-.517 1.5-1.22 2.824-2.639 3.936-4.219l.475-.742a157.66 157.66 0 0 1-2.513-1.82.47.47 0 0 1-.162-.354.58.58 0 0 1 .237-.473.649.649 0 0 1 .356-.076c.115-.01.231-.01.345 0 .838.401 1.642.87 2.405 1.399.238-.474.464-.958.701-1.475.108-.312.205-.646.313-1.012.047-.248.073-.5.075-.753a1.64 1.64 0 0 1-.463.075 7.566 7.566 0 0 1-1.661.184 1.229 1.229 0 0 1-1.014-.367.976.976 0 0 1-.259-.72 3.577 3.577 0 0 1 .346-1.583c.155-.473.388-.916.69-1.313a.668.668 0 0 1 .496-.237c.162.017.315.081.442.183.108.108.183.205.183.28.001.372-.08.74-.237 1.077a3.228 3.228 0 0 0-.539 1.345.075.075 0 0 0 .004.039.086.086 0 0 0 .02.033.09.09 0 0 0 .034.021.085.085 0 0 0 .039.004h.259a8.33 8.33 0 0 0 4.205-1.442.706.706 0 0 0 .281-.162h.183a.71.71 0 0 1 .572.441v.108a2.576 2.576 0 0 0-.076.312 4.507 4.507 0 0 1-2.113 1.453l-.044-.075zM8.541 58.454a9.008 9.008 0 0 1-2.664.753 7.6 7.6 0 0 1-.13.904c-.05.176-.11.349-.182.517a34.491 34.491 0 0 0 3.86-.958.367.367 0 0 1 .313.205v.161a.742.742 0 0 1-.205.463 12.87 12.87 0 0 1-4.173 1.474c-1.219.313-2.384.57-3.473.83a3.53 3.53 0 0 1-.7.128H.571c-.346 0-.518-.226-.572-.667 0-.205.151-.387.485-.549.162 0 .4-.129.701-.204 1.079-.183 2.211-.388 3.235-.646.068-.13.147-.252.238-.366.054-.43.097-.797.13-1.076-.777.161-1.478.29-2.158.387a2.99 2.99 0 0 1-.55.075c-.18.014-.36.014-.539 0-.313 0-.464-.204-.518-.602 0-.151.13-.28.443-.43l.614-.238a45.505 45.505 0 0 0 2.6-.387v-.075a1.461 1.461 0 0 1-.109-.474.58.58 0 0 1 .28-.484.864.864 0 0 1 .39-.108.583.583 0 0 1 .549.463v.527a48.005 48.005 0 0 0 2.545-.441.368.368 0 0 1 .313.15v.162a.688.688 0 0 1-.108.506zm-.906-4.833a23.3 23.3 0 0 1-2.33.614 3.589 3.589 0 0 1-.183 1.012 6.384 6.384 0 0 1-.204.44c.571 0 1.164-.15 1.811-.257.533-.072 1.07-.115 1.607-.13.152.03.295.093.42.183a.774.774 0 0 1 .152.388c0 .204-.13.366-.389.495l-5.78.98c-1.24.204-1.941.312-2.103.312h-.13a.464.464 0 0 1-.301-.237.613.613 0 0 1 .205-.883 62.74 62.74 0 0 1 3.397-.689c.087-.122.156-.256.205-.398.08-.277.131-.562.15-.85v-.14c-.811.174-1.632.303-2.458.387a.864.864 0 0 1-.259.087.474.474 0 0 1-.41-.259.86.86 0 0 1-.13-.57c0-.215.13-.345.357-.442a46.562 46.562 0 0 0 1.811-.236c.333-.025.664-.069.993-.13v-.183l-.184-.7a.744.744 0 0 1 .68-.462.822.822 0 0 1 .571.334c.08.272.14.549.184.828a8.96 8.96 0 0 0 .96-.129l.98-.183a.485.485 0 0 1 .206-.075.81.81 0 0 1 .42.205v.236a.958.958 0 0 1-.248.452zM5.618 64.557a.627.627 0 0 1-.496-.173.849.849 0 0 1-.204-.516.42.42 0 0 1 .334-.474 7.652 7.652 0 0 0 1.402-.355 9.707 9.707 0 0 0 2.62-1.475h.205a.496.496 0 0 1 .442.237c.042.091.078.185.108.28a.784.784 0 0 1-.259.57 8.954 8.954 0 0 1-2.717 1.583l.097.226c0 .215.054.441.108.7.302-.13.612-.241.927-.334a19.868 19.868 0 0 1 4.098-.41 5.402 5.402 0 0 1 2.254.356 1.983 1.983 0 0 1 1.143 1.937 5.009 5.009 0 0 1-.863 2.519 7.79 7.79 0 0 1-1.078 1.076.572.572 0 0 1-.335.13.41.41 0 0 1-.312-.184.376.376 0 0 1-.097-.258c-.534.189-1.082.336-1.64.441a.72.72 0 0 1 .108.312v1.367h.151c1.402-.237 2.729-.441 3.969-.624a23.6 23.6 0 0 1 2.103-.172h.517a1.21 1.21 0 0 1 1.166.94c.04.176.04.359 0 .534a6.88 6.88 0 0 1-.626 2.271 6.262 6.262 0 0 1-1.262 2.153c-.22.178-.493.277-.777.28a1.544 1.544 0 0 1-.7-.205 6.264 6.264 0 0 1-.777-.721 4.49 4.49 0 0 1-.604-1.012.773.773 0 0 1-.097-.312.409.409 0 0 1 .227-.366.334.334 0 0 1 .312-.15.54.54 0 0 1 .367.183c.41.462.722.796.873.979a.408.408 0 0 0 .292.161.54.54 0 0 0 .28-.183c.24-.33.433-.692.572-1.076.165-.382.305-.773.42-1.173.044-.184.07-.371.076-.56a.386.386 0 0 0-.291-.42c-1.11.029-2.216.133-3.311.313-1.014.15-1.995.333-2.987.538v2.152c-.011.79-.087 1.58-.227 2.358-.083.22-.18.437-.291.645a.625.625 0 0 1-.356.334c-.55 0-.809-.13-.809-.334a9.744 9.744 0 0 0 .42-3.444v-1.474l-2.156.312c-.83.183-1.64.333-2.47.495-.245.045-.494.07-.744.075.064.736.227 1.46.486 2.153a.44.44 0 0 1 .086.258.58.58 0 0 1-.345.592h-.227a.768.768 0 0 1-.593-.387 8.993 8.993 0 0 1-.345-.754 9.293 9.293 0 0 1-.464-2.82v-1.216c0-.42.28-.463.701-.57h.13c.334 0 .518.258.518.678v.538h1.002c.777-.108 1.769-.237 2.901-.42.572-.097 1.079-.172 1.564-.28 0-.516 0-1.076.075-1.657-.42.107-.851.183-1.294.258-.806.128-1.62.207-2.437.237a.551.551 0 0 1-.463-.183.69.69 0 0 1-.238-.484.44.44 0 0 1 .367-.496h.097a4.392 4.392 0 0 1 0-.624V67.99a16.405 16.405 0 0 0-.162-2.023c-.054-.28-.097-.57-.15-.85a1.45 1.45 0 0 1-.13-.571.541.541 0 0 1-.184.01zm8.736 2.227c-.108-.882-.755-1.345-1.974-1.345a9.392 9.392 0 0 0-1.704.205c-.657.055-1.31.16-1.952.312-.647.161-1.078.29-1.37.333v1.077c.362-.01.722-.042 1.08-.097.668 0 1.498-.13 2.48-.259l.862-.107h.313c.15 0 .259 0 .302.129.043.13 0 .172 0 .226a.904.904 0 0 1-.291.495c-.594.187-1.199.335-1.812.441-.981.151-1.866.259-2.642.334a1.34 1.34 0 0 1-.388.108v.387c0 .41-.054.721-.076.926.468-.019.934-.08 1.391-.183a23.766 23.766 0 0 0 4.907-1.077h.205c.358-.579.586-1.229.668-1.904zm4.788-13.4c.102.112.16.258.161.41a.484.484 0 0 1-.29.387l-2.46.495v.226l.205 2.67c.054.979.108 1.84.108 2.615.028.51-.08 1.019-.313 1.474a1.164 1.164 0 0 1-.905.614 2.504 2.504 0 0 1-1.737-.85c-.366-.313-.517-.57-.517-.775 0-.205.13-.42.442-.42.497.255 1.008.481 1.531.678.173 0 .28-.29.28-.883 0-.592-.053-1.474-.107-2.303-.076-1.076-.151-2.013-.205-2.82-1.531.29-3.235.603-5.08.915a.551.551 0 0 1-.593-.495v-.205c0-.107.076-.215.227-.344a44.135 44.135 0 0 1 4.777-1.076l.593-.076v-.732a.6.6 0 0 1 .356-.65.607.607 0 0 1 .26-.05c.42 0 .625.26.646.754v.495c1.197-.183 1.92-.29 2.232-.29a.497.497 0 0 1 .389.237zM11.14 57.69a.57.57 0 0 1 .075-.237c.076-.068.145-.144.205-.226a.4.4 0 0 1 .205-.075c.115-.01.23-.01.345 0 .663.4 1.304.834 1.92 1.302.082.09.152.191.205.301a.741.741 0 0 1 .097.313.235.235 0 0 1-.076.182l-.075.076c-.054.107-.108.129-.151.129a.712.712 0 0 1-.442-.15 9.381 9.381 0 0 1-2.157-1.422c-.097-.043-.151-.129-.151-.193zM44.711 59.67a13.825 13.825 0 0 1-4.206 2.153c.27.775.55 1.453.83 2.077.518 1.572 1.014 3.068 1.456 4.5.152-.291.313-.571.497-.883a34.49 34.49 0 0 0 1.348-2.799c.388-.904.614-1.442.851-2.012a.593.593 0 0 1 .594-.28c.068-.004.136-.004.204 0a.529.529 0 0 1 .367.495 7.758 7.758 0 0 1-.668 2.217c-.497 1.195-1.144 2.562-1.952 4.144-.227.355-.442.7-.647 1.076.25.96.564 1.901.938 2.82.316.83.713 1.627 1.186 2.379a126.51 126.51 0 0 0-.28-5.382c0-.366.075-.57.28-.592.205-.021.475.258.604.721.276 2.035.438 4.083.485 6.135 0 .367-.061.73-.183 1.076-.13.42-.28.625-.485.625a1.08 1.08 0 0 1-.81-.55 11.241 11.241 0 0 1-1.552-2.453 27.784 27.784 0 0 1-1.219-3.229.326.326 0 0 1-.054.075c-.614.797-1.186 1.529-1.757 2.153-.367.409-.647.775-.885 1.076a.702.702 0 0 1-.204.183h-.26a.389.389 0 0 1-.29-.366.613.613 0 0 1 .107-.387c.158-.342.358-.664.593-.958.292-.495.734-1.195 1.327-2.067.313-.473.593-.936.884-1.453-.162-.462-.291-.958-.42-1.442-.389-1.27-.852-2.69-1.424-4.305a24.995 24.995 0 0 1-.83-2.077c-.885.312-1.866.645-2.955.958l-3.235.904v4.531c1.402-1.076 2.75-1.991 4.076-2.874a1.24 1.24 0 0 1 .28-.108.432.432 0 0 1 .26.108c.088.1.135.232.129.366a2.15 2.15 0 0 1-.097.28c-.794.885-1.663 1.7-2.6 2.432l-2.102 1.669v5.64c0 .57-.184.85-.529.85a4.887 4.887 0 0 1-2.383-1.346l-1.499-1.162c-.442-.334-.647-.624-.647-.85a2.84 2.84 0 0 1 .723-1.249 18.322 18.322 0 0 1 3.084-2.788v-5.177c-.928.259-1.79.496-2.62.7-.831.205-1.165.258-1.478.312-.313.054-.464 0-.669 0-.366 0-.55-.258-.571-.753 0-.172.162-.355.463-.517.253-.104.512-.19.777-.258 1.402-.334 2.782-.7 4.13-1.076v-.302a6.15 6.15 0 0 0-.13-1.194c0-.334.281-.517.723-.517.442 0 .701.258.701.775v.883c.928-.259 1.834-.517 2.718-.83.884-.311 2.027-.591 2.933-.903v-.054a11.264 11.264 0 0 1-.572-2.325.667.667 0 0 1 .702-.678c.29 0 .496.205.647.57.183.721.388 1.4.603 2.013 1.834-.613 3.365-1.184 4.584-1.733a.594.594 0 0 1 .463.237v.204a.85.85 0 0 1-.334.592zM29.365 73.748a27.59 27.59 0 0 0 2.362 1.809c-.054-1.292-.075-2.594-.108-3.886a19.594 19.594 0 0 0-2.254 2.077zm1.327-18.114a1 1 0 0 1-.367-.85.937.937 0 0 1 .442-.495h.356a16.854 16.854 0 0 1 5.522.883.712.712 0 0 1 .345.44.677.677 0 0 1-.496.722 316.642 316.642 0 0 0-5.802-.7zm12.542-2.088c.522.317 1.016.677 1.477 1.077.47.384.887.83 1.24 1.324.117.194.173.419.162.645a.592.592 0 0 1-.313.517h-.13c-.107 0-.258-.108-.495-.312a56.975 56.975 0 0 0-2.157-1.582c-.528-.366-1.143-.775-1.66-1.141-.26-.097-.367-.334-.367-.743s.29-.495.733-.517c.558.11 1.078.363 1.51.732zM58.88 55.3a10.24 10.24 0 0 1-.678 1.583c-.518.871-1.165 1.99-1.942 3.228-.107.151-.183.28-.258.41a9.069 9.069 0 0 1 .722 3.627 51.728 51.728 0 0 1-.669 8.46 43.441 43.441 0 0 1-.571 3.056c-.108.355-.291.56-.572.56-.28 0-.571-.227-.571-.646.087-1.62.314-3.23.68-4.811.218-1.595.33-3.202.334-4.811v-1.808a11.172 11.172 0 0 0-.205-2.153c-.421.624-.81 1.27-1.219 1.894-.41.624-1.078 1.647-1.66 2.691a.592.592 0 0 1-.465.28c-.312 0-.474-.13-.474-.41a.731.731 0 0 1 .183-.473c.26-.516.626-1.162 1.079-1.959.55-1.011 1.272-2.303 2.157-3.885.7-1.292 1.455-2.659 2.253-4.058.238-.495.475-1.011.701-1.528.09-.16.17-.325.238-.495.218-.059.442-.091.668-.097a.561.561 0 0 1 .496.57 1.57 1.57 0 0 1-.226.775zm.486 20.515c-.259 0-.388-.205-.388-.592.305-1.78.496-3.578.572-5.382l.15-9.02c0-1.345 0-2.82.108-4.423a.591.591 0 0 1 .669-.678.529.529 0 0 1 .528.42c.151-.054.28-.13.41-.183a7.02 7.02 0 0 1 2.513-.441 3.047 3.047 0 0 1 1.553.312 1.746 1.746 0 0 1 .809 1.603 12.895 12.895 0 0 1-1.144 4.5c.082.017.161.042.238.075a.614.614 0 0 1 .226.312.86.86 0 0 1-.226.549c-.37.516-.806.982-1.294 1.388a39.095 39.095 0 0 1-3.236 2.433c-.054.053-.075.053-.108.053-.043.983-.075 1.812-.096 2.487a26.538 26.538 0 0 1-.734 5.952c.043.43-.216.635-.507.635h-.043zm3.58-12.001a28.399 28.399 0 0 0 1.629-3.907c-.755.441-1.66.98-2.75 1.604-.464.28-.798.462-.95.538v3.412a17.577 17.577 0 0 0 2.115-1.647h-.044zm1.24-4.66c.212-.082.428-.15.648-.205.108-.46.169-.928.183-1.4a.902.902 0 0 0-1.014-.925 5.009 5.009 0 0 0-1.078.172 3.683 3.683 0 0 0-1.143.345c-.41.15-.669.258-.82.301a57.933 57.933 0 0 0-.086 2.616v.882a27.706 27.706 0 0 1 3.397-1.786h-.086zm7.625 17.543a.74.74 0 0 1-.108-.366c0-.204.108-.333.259-.333.55 0 1.24.591 2.103 1.603-.054-.829-.162-1.916-.259-3.315-.13-1.808-.237-4.402-.291-7.76 0-1.496 0-3.003.086-4.445a15.298 15.298 0 0 1-2.75 1.518 5.152 5.152 0 0 1-1.607.398.799.799 0 0 1-.55-.237.774.774 0 0 1-.205-.495.58.58 0 0 1 .13-.409.634.634 0 0 1-.054-.312v-1.658c0-.98.054-1.625.054-1.937V56.85a14.869 14.869 0 0 0-.28-2.25.667.667 0 0 1 .258-.537 1.08 1.08 0 0 1 .41-.086.595.595 0 0 1 .42.215.57.57 0 0 1 .152.334c.201-.102.41-.189.625-.259a8.996 8.996 0 0 1 1.963-.237h1.078c.28.005.558.037.83.097a1.08 1.08 0 0 1 .928.937v1.313c-.054.936-.162 2.637-.27 5.123 0 1.399-.075 3.057-.075 4.94 0 1.711.054 3.595.162 5.672.183 2.734.356 4.574.517 5.554 0 .678-.29 1.076-.862 1.076-1.068.022-1.952-.678-2.653-2.045h-.011zm.226-18.91c.555-.17 1.12-.3 1.694-.388 0-.678 0-1.377.097-2.045 0-.161-.356-.237-1.079-.237h-.668a4.946 4.946 0 0 0-2.416.678c.054.334.075.668.13.98v1.97c.73-.39 1.495-.711 2.285-.958h-.043zM70.56 62.36a11.364 11.364 0 0 0 3.063-1.55c0-.85 0-1.711.075-2.54a22.914 22.914 0 0 0-3.839 1.528v1.84a5.765 5.765 0 0 0-.075.905c.28-.022.539-.108.82-.183h-.044zM93.625 57.786a.69.69 0 0 1 .259.57c-.02.232-.098.454-.227.646-.65.98-1.371 1.912-2.157 2.788-.474.57-.96 1.076-1.456 1.604.054.075.076.129.108.161.12.242.182.506.184.775a12.248 12.248 0 0 1 4.658-.958h.755c.184.054.335.355.464.883.13.527.13 1.184.183 2.152 0 .775 0 1.701.054 2.842.054 2.228.097 4.736.151 7.534a1.075 1.075 0 0 1-.226.624.95.95 0 0 1-.626.312c-.334 0-.496-.161-.496-.462v-1.012a32.916 32.916 0 0 1-4.432 1.399c-.788.145-1.584.246-2.383.301a.786.786 0 0 1-.572-.258.71.71 0 0 1-.259-.517c0-.333.13-.516.442-.56l.777-.085a.18.18 0 0 1 0-.076c-.054-1.237-.076-2.927-.076-5.048v-2.787c0-.85.054-1.733.108-2.745v-1.367a65.376 65.376 0 0 1-4.928 4.306c-.798.613-1.499 1.076-2.157 1.57a.734.734 0 0 1-.485.238c-.291 0-.442-.13-.442-.388a.84.84 0 0 1 .258-.602 58.721 58.721 0 0 0 10.03-9.687 70.477 70.477 0 0 0 1.456-1.862c.15-.388.334-.592.56-.592a.755.755 0 0 1 .475.301zm-9.641.463c-.023.423-.023.847 0 1.27-.018.18-.018.36 0 .538 0 .366-.162.55-.464.55a.486.486 0 0 1-.55-.388 6.607 6.607 0 0 1-.183-1.97v-1.291a1.42 1.42 0 0 1 .075-.517.625.625 0 0 1 .626-.366.714.714 0 0 1 .517.334c.088.123.14.268.151.42-.097.516-.118.979-.172 1.42zm4.615 1.076c-.053-.775-.107-1.603-.205-2.507-.053-.614-.183-1.647-.366-3.122a.923.923 0 0 1 0-.344c0-.409.13-.646.442-.743h.237c.335 0 .54.259.647.721.097.754.184 1.421.238 2.045.097 1.4.15 2.487.172 3.23v1.345c0 .462-.205.7-.55.7-.345 0-.41-.162-.485-.442-.1-.29-.145-.597-.13-.904v.021zm1.327 12.216v1.012a30.613 30.613 0 0 1 4.314-1.507 8.403 8.403 0 0 1 1.013-.204v-2.766c-.906.312-2.232.753-3.936 1.27l-1.326.387a19.24 19.24 0 0 0-.065 1.787v.021zm0 4.94.593-.075a23.843 23.843 0 0 0 4.691-1.324V71.95c-.981.42-2.275.904-3.882 1.475-.734.258-1.219.42-1.424.473.022.85.043 1.712.043 2.562l-.021.022zm5.252-11.257a1.848 1.848 0 0 0-.076-.646 13.37 13.37 0 0 0-4.896 1.184c0 .258-.054.495-.075.731-.054.722-.108 1.346-.13 1.863a37.815 37.815 0 0 1 4.087-1.195 5.405 5.405 0 0 1 1.079-.15c.043-.819.01-1.421.01-1.787zM91.942 55.03c0-.312.205-.517.594-.592l6.837 1.216c.258 0 .42.183.42.355-.054.42-.517.625-1.348.625a29.42 29.42 0 0 1-6.147-.883c-.28-.064-.377-.301-.377-.71l.021-.011zM126.82 54.322c-1.143.517-4.191 1.112-9.144 1.787l-.734.096c.287 1.565.46 3.147.518 4.736 0 .668.086 1.346.108 1.991a.468.468 0 0 1 .075-.107.924.924 0 0 1 .291-.097c.149.004.297.022.442.054a35.781 35.781 0 0 1 5.748 3.616c.088.116.167.239.238.366.04.09.072.184.097.28a.317.317 0 0 1-.076.237l-.075.075c-.076.108-.13.13-.184.13a1.08 1.08 0 0 1-.496-.152 34.128 34.128 0 0 1-6.006-3.444c0 1.442.097 2.895.097 4.305a41.404 41.404 0 0 1-.874 9.149c0 .42-.259.646-.571.646-.313 0-.594-.226-.594-.646.259-1.571.464-3.024.615-4.37.151-1.345.205-2.895.205-4.65 0-2.227-.097-4.606-.259-7.114a112.317 112.317 0 0 0-.561-4.864c-1.973.258-3.871.516-5.629.72-.722.076-1.24.13-1.553.13-.24.015-.482.015-.722 0-.345 0-.55-.259-.604-.732 0-.205.162-.41.496-.56.267-.122.545-.22.83-.29 2.977-.259 5.878-.57 8.681-.926 4.066-.474 7.226-.915 9.458-1.27a.518.518 0 0 1 .388.183c.005.068.005.136 0 .204a.657.657 0 0 1-.205.517zM139.234 71.93a15.993 15.993 0 0 1-.518 4.165c-.237.624-.593.958-1.078.958-.982 0-1.704-.753-2.157-2.153a2.483 2.483 0 0 1 0-.365c0-.259.129-.41.367-.41.133.017.26.07.366.151.572.538 1.079.98 1.521 1.346.15-1.07.229-2.149.237-3.23.076-2.066.129-5.069.183-8.976 0-.72 0-1.474.054-2.303a27.629 27.629 0 0 1-1.078 2.895 22.8 22.8 0 0 1-1.909 3.552 17.988 17.988 0 0 1-2.103 2.766c-.099.07-.204.13-.313.183a1.233 1.233 0 0 1-.366.076c-.227 0-.356-.13-.356-.388a.657.657 0 0 1 .259-.517 25.897 25.897 0 0 0 2.61-4.09 23.208 23.208 0 0 0 1.768-4.186c.334-.937.626-1.916.884-2.928l-2.782 1.141c-.232.1-.474.176-.722.226a6.014 6.014 0 0 1-.723 0c-.367 0-.571-.258-.625-.753 0-.205.161-.388.517-.57.356-.184.475-.184.831-.28a39.779 39.779 0 0 0 4.173-1.604h.076v-2.691a.598.598 0 0 1 .593-.517.698.698 0 0 1 .575.2.7.7 0 0 1 .201.575v1.841a37.002 37.002 0 0 0 3.138-1.604.471.471 0 0 1 .388.205v.215a.759.759 0 0 1-.204.463 9.19 9.19 0 0 1-3.376 2.217v3.81s0 .054.076.054a22.431 22.431 0 0 1 3.062 4.886c.327.555.54 1.17.626 1.808 0 .312-.13.463-.388.463a.592.592 0 0 1-.475-.28 32.701 32.701 0 0 1-1.165-1.99 32.953 32.953 0 0 0-1.79-2.875c-.269 2.207-.323 5.038-.377 8.514zm6.093-5.844V62.21c0-1.184.054-2.508.129-3.907v-2.153a1.338 1.338 0 0 1-.054-.387.553.553 0 0 1 0-.312.741.741 0 0 1 .238-.334.817.817 0 0 1 .539-.204.681.681 0 0 1 .593.387c.113.261.169.544.162.829a9.286 9.286 0 0 1 4.313-1.13h.744c.421.075.788.484 1.079 1.26.208.984.363 1.979.463 2.98 0 1.077.097 2.379.151 3.907.079 3.1.166 6.59.259 10.473-.01.222-.081.438-.205.624-.17.183-.399.3-.647.334-.366 0-.517-.183-.517-.496v-.387c-1.482.44-2.987.8-4.508 1.076a47.39 47.39 0 0 1-2.362.237.794.794 0 0 1-.593-.237 1.077 1.077 0 0 1-.259-.624.48.48 0 0 1 .107-.363.48.48 0 0 1 .335-.175h.151c-.097-1.83-.118-4.37-.118-7.523zm2.825-1.141c-.513.224-1.043.408-1.585.549v3.648a30.133 30.133 0 0 1 4.529-1.808 4.883 4.883 0 0 1 1.294-.237h.076V63.32l-4.314 1.625zm-1.38-5.866c-.076 1.474-.13 2.637-.173 3.466v1.603a27.13 27.13 0 0 1 4.508-1.625 5.403 5.403 0 0 1 1.219-.204.259.259 0 0 1 .129 0 36.93 36.93 0 0 0-.388-5.253c-.13-.57-.367-.882-.734-.882-1.568.099-3.093.56-4.453 1.345-.054.517-.076 1.001-.108 1.55zm-.173 14.455c.361-.015.721-.048 1.079-.097a26.672 26.672 0 0 0 4.766-.937v-4.369c-1.078.462-2.588 1.076-4.551 1.915l-1.348.538.054 2.95zM163.486 63.072a11.409 11.409 0 0 1-.593 1.83 2.924 2.924 0 0 1-.442.882.73.73 0 0 1-.572.237c-.258 0-.356-.161-.356-.441.026-.333.114-.658.259-.958.233-.706.424-1.425.572-2.153a9.86 9.86 0 0 0 .183-1.625 5.876 5.876 0 0 0-.496-2.562 1.592 1.592 0 0 1-.313-.731.795.795 0 0 1 .205-.592.606.606 0 0 1 .388-.183.81.81 0 0 1 .475.183c.131.14.243.295.334.462.266.476.448.992.539 1.529l.885-.312c1.326-.334 3.03-.721 5.101-1.163.051-.089.095-.183.129-.28 0-.462.054-.882.054-1.194a10.414 10.414 0 0 0-.313-2.25c-.097-.333-.205-.645-.302-.958a1.458 1.458 0 0 1-.129-.57.526.526 0 0 1 .28-.484c.143-.078.302-.122.464-.13.259 0 .442.183.604.517.217.609.362 1.241.431 1.884 0 .42.054.731.054.99.68-.388 1.273-.754 1.844-1.077a4.485 4.485 0 0 0 1.682-1.99.973.973 0 0 1 .648-.205c.312 0 .496.226.517.592a3.553 3.553 0 0 1-1.553 2.152 9.352 9.352 0 0 1-2.825 1.4.765.765 0 0 1-.313.129 6.24 6.24 0 0 1-.054.796l-.097.474c1.316-.259 2.772-.55 4.314-.829a24.839 24.839 0 0 1 4.583-.7h.367c.258.162.42.345.42.55 0 .979-1.013 2.302-3.009 3.95a9.202 9.202 0 0 1-.722.57.778.778 0 0 1-.421.183.271.271 0 0 1-.28-.183.226.226 0 0 1-.108-.226.5.5 0 0 1 .205-.388 24.648 24.648 0 0 0 2.513-3.315c-1.812.259-6.341 1.27-13.631 3.025-.4.135-.819.204-1.24.204v.388a12.16 12.16 0 0 1-.281 2.572zm2.103 9.331c.022.246.058.49.108.732 1.078-.441 2.825-.958 5.047-1.56v-.668a6.896 6.896 0 0 0-.442-1.883c-1.294.441-2.308.807-3.085 1.076a1.076 1.076 0 0 1-.539.205.434.434 0 0 1-.388-.237.601.601 0 0 1-.129-.463.748.748 0 0 1 .463-.646 31.13 31.13 0 0 1 3.839-1.291 56.54 56.54 0 0 1 4.476-1.174 14.39 14.39 0 0 1 2.566-.193c.885.075 1.348.516 1.348 1.291 0 .41 0 1.077-.075 1.809a41.466 41.466 0 0 1-.593 4.37 8.604 8.604 0 0 1-.96 2.82 2.061 2.061 0 0 1-1.844.957 3.146 3.146 0 0 1-.906-.183 2.158 2.158 0 0 1-1.078-.592h-.496c-.691 0-1.316.097-1.834.15-.776.108-1.714.28-2.825.539a8.457 8.457 0 0 1-1.478.183.367.367 0 0 1-.237-.097.81.81 0 0 1-.593.205c-.237 0-.442-.237-.647-.646a24.65 24.65 0 0 1-1.078-4.305 22.806 22.806 0 0 1-.335-3.595c0-.57.205-.883.647-.904.443-.022.669.204.669.624.151 1.195.248 2.357.356 3.52l.043-.044zm.496-17.016a5.169 5.169 0 0 1-1.51-.775.416.416 0 0 1-.226-.42.956.956 0 0 1 .075-.409.612.612 0 0 1 .593-.312c.96.388 2.157.83 3.419 1.292a.623.623 0 0 1 .367.57c0 .366-.184.57-.496.57a6.166 6.166 0 0 1-2.265-.473l.043-.043zm4.616 19.169v-1.808c-.798.226-1.629.463-2.513.689-1.132.312-1.92.527-2.383.624.16.888.387 1.762.679 2.615v.076a.343.343 0 0 1 .183-.151 19.238 19.238 0 0 1 2.017-.474 16.23 16.23 0 0 1 1.92-.28c.021-.322.021-.753.054-1.248l.043-.043zm.28-13.863a13.96 13.96 0 0 1 3.548-.495c.198 0 .393.045.572.13a.729.729 0 0 1 .237.548 4.527 4.527 0 0 1-1.079 2.637 2.39 2.39 0 0 1-.334.388c.076.03.145.074.205.129v.183c-.034.163-.096.32-.183.463-.724.357-1.478.648-2.254.871-.997.354-2.021.624-3.063.808h-.108a.446.446 0 0 1-.41.236c-.312 0-.496-.129-.496-.44 0-.313-.129-1.077-.226-1.755-.259-.99-.496-1.84-.679-2.508a.466.466 0 0 1 .215-.366.42.42 0 0 1 .356-.237h.291a.937.937 0 0 1 .356.355v.13c.985-.396 1.989-.74 3.009-1.034l.043-.043zM169.903 65a41.54 41.54 0 0 0 2.512-.668 19.073 19.073 0 0 0 1.553-3.003c-1.956.28-3.871.793-5.705 1.529 0 .28.108.57.162.828.097.668.205 1.217.259 1.572l1.219-.258zm1.682 4.219c.075.462.183 1.076.313 1.71v.388l1.757-.473a13.976 13.976 0 0 1 2.157-.259l.259.13a.8.8 0 0 1 .108.29c0 .097-.108.205-.259.312l-3.968 1.13v2.842c-.032.145-.05.293-.054.441.38-.025.762-.025 1.143 0h1.909a.56.56 0 0 1 .42.538h.108c.259 0 .518-.258.798-.775.255-.54.464-1.103.625-1.679.55-2.108.818-4.28.798-6.457-1.693.16-3.367.473-5.003.936l-1.219.388c.048.175.059.358.032.538h.076zM206.189 59.335c-1.079.754-3.969 1.625-8.627 2.659a3.524 3.524 0 0 1-.496.107v.108c.239.272.439.576.593.904.571.926 1.218 1.991 1.919 3.153.701 1.163 1.456 2.508 2.157 3.65a27.827 27.827 0 0 0 5.629 6.36c.335.237.669.495 1.014.775s.518.312.518.517c0 .204-.184.29-.442.387h-.648a5.163 5.163 0 0 1-1.477-.592 13.686 13.686 0 0 1-3.235-3.024 28.928 28.928 0 0 1-3.71-5.382c-.884-1.42-1.79-3.078-2.75-4.94-.361 1.67-.889 3.3-1.574 4.865a19.379 19.379 0 0 1-3.537 5.812 17.516 17.516 0 0 1-2.988 2.874.874.874 0 0 1-.496.161c-.226 0-.334-.183-.334-.441s0-.205.205-.366a22.518 22.518 0 0 0 3.117-3.466 29.415 29.415 0 0 0 3.051-5.07 21.693 21.693 0 0 0 1.769-6.026c-1.898.42-3.677.807-5.392 1.076a33.17 33.17 0 0 1-1.477.215c-.313.032-.464 0-.647 0-.367 0-.572-.258-.626-.721 0-.205.151-.387.518-.57l.755-.205a136.22 136.22 0 0 0 6.998-1.4c.076-.882.13-1.764.13-2.69a21.307 21.307 0 0 0-.496-4.111.785.785 0 0 1 .722-.829c.367 0 .604.237.701.7.25 1.276.38 2.573.388 3.874 0 .958 0 1.895-.129 2.766 3.731-.818 6.611-1.55 8.627-2.152a.543.543 0 0 1 .442.204v.226a.815.815 0 0 1-.172.592zM217.634 60.133a2.96 2.96 0 0 1 2.491.92 2.94 2.94 0 0 1 .744 2.546l.313 10.946c0 .388-.313.592-.938.624a7.06 7.06 0 0 1-2.535-.549c-.571.183-1.218.366-1.941.57-.496.076-.938.13-1.348.162a.877.877 0 0 1-.108.302.596.596 0 0 1-.442.236.442.442 0 0 1-.356-.15.731.731 0 0 1-.215-.517V66.602c0-1.453 0-3.024.075-4.736v-2.69a1.166 1.166 0 0 1 0-.334.377.377 0 0 1 0-.183c0 .054 0 .054-.075.054a4.884 4.884 0 0 1-.647 0c-.367 0-.54-.237-.572-.7 0-.183.162-.366.464-.517.246-.1.498-.187.755-.258.83-.215 1.66-.441 2.458-.732.92-.264 1.821-.592 2.696-.98a.442.442 0 0 1 .367.184v.204a.72.72 0 0 1-.205.463 7.547 7.547 0 0 1-2.663 1.378c-.496.204-.96.355-1.381.484a.46.46 0 0 1 .086.108c.084.25.127.511.13.775v1.733a9.72 9.72 0 0 1 2.847-.721zm2.157 13.766v-6.393c-.281.13-.615.258-.982.388a55.71 55.71 0 0 1-4.173 1.302.39.39 0 0 1-.205 0v4.897c.334 0 .669-.075 1.078-.13a13.111 13.111 0 0 0 2.923-.828h.237a.442.442 0 0 1 .388.237l.076.226c.008.15-.038.3-.13.42.272-.069.551-.108.831-.119h-.043zm-.151-10.3c-.184-1.496-.96-2.27-2.34-2.27a5 5 0 0 0-1.295.311c-.463.205-.959.441-1.423.667a3.403 3.403 0 0 0 0 .474c-.108 1.83-.162 3.229-.183 4.305v1.077c1.616-.42 3.207-.931 4.766-1.529l.572-.183a195.026 195.026 0 0 0-.054-2.852h-.043zm13.156 1.195c0-2.153.086-4.757.184-7.943 0-.517-.054-.797-.13-.797-.912.235-1.803.545-2.664.926a38.1 38.1 0 0 1-3.429 1.076c-.888.274-1.81.422-2.739.442h-.421a.916.916 0 0 1-.83-.41 1.075 1.075 0 0 1-.172-.7 21.705 21.705 0 0 0 2.038-5.08.835.835 0 0 1 .668-.29c.113.02.22.063.313.13a.65.65 0 0 1 .205.516 3.584 3.584 0 0 1-.41 1.302 155.807 155.807 0 0 0-1.251 3.154 17.052 17.052 0 0 0 5.133-1.076 48.387 48.387 0 0 0 3.419-1.26c.228-.07.463-.114.701-.129.216 0 .442.28.647.797.154.476.227.974.216 1.474 0 .829 0 2.153-.087 3.832-.097 3.046-.151 5.64-.151 7.803 0 2.87.026 5.948.076 9.234a.868.868 0 0 1-.442.678l-.486.108c-1-.064-1.954-.44-2.728-1.076a12.42 12.42 0 0 1-2.265-2.594 1.086 1.086 0 0 1-.097-.463c0-.258.097-.387.367-.387.201.017.39.1.539.236a25.076 25.076 0 0 0 4.044 2.993c-.108-2.271-.183-5.274-.183-9.052-.043-.958-.043-2.099-.022-3.444h-.043zm-3.526 3.54a.973.973 0 0 1-.464-.128c-.313-.151-.701-.334-1.143-.592a17.349 17.349 0 0 1-3.03-1.809l-.388-.387a.712.712 0 0 1-.087-.312.508.508 0 0 1 .162-.366.613.613 0 0 1 .313-.258h.302a.97.97 0 0 1 .366.129c.162.097.367.258.626.409.686.515 1.406.983 2.157 1.399.442.258.852.538 1.261.796.17.18.273.411.292.657 0 .28-.108.43-.292.484l-.075-.021zM245.035 69.53a20.19 20.19 0 0 1-3.235.904 10.14 10.14 0 0 1-1.747.172.647.647 0 0 1-.518-.205.736.736 0 0 1-.226-.516.448.448 0 0 1 .205-.441.278.278 0 0 1 0-.108c.631-1.665.995-3.42 1.078-5.199 0-.98.076-1.99.076-3.024 0-1.033 0-2.013-.076-3.078a.566.566 0 0 1 .363-.553.57.57 0 0 1 .23-.04h.13c.334 0 .539.205.647.593v.29c.28-.086.571-.161.852-.258a3.235 3.235 0 0 1 1.013-.237c1.079 0 1.887.85 2.384 2.508a16.55 16.55 0 0 1 .549 3.928c0 1.453 0 2.594-.129 3.37a7.911 7.911 0 0 1-.237 1.474 2.952 2.952 0 0 1-.852 1.528c-.162.302-.345.43-.55.43a.474.474 0 0 1-.464-.225.532.532 0 0 1-.129-.42c.241-.276.454-.575.636-.893zm-3.548-.313a16.075 16.075 0 0 0 3.44-.904h.237c.111.006.219.04.313.097.194-1.264.281-2.542.259-3.82 0-.313 0-.593-.086-.862-.227.108-.518.237-.852.366-.906.334-1.844.646-2.793.904a.629.629 0 0 1-.291.054c0 .259 0 .495-.076.7a24.082 24.082 0 0 1-.852 3.573 3.64 3.64 0 0 0 .701-.086v-.022zm3.473-6.382c.181-.077.369-.138.56-.183a8.89 8.89 0 0 0-.949-3.057 1.186 1.186 0 0 0-.992-.44 3.31 3.31 0 0 0-.852.268l-.647.205v1.528c0 .872-.108 1.754-.183 2.583a20.708 20.708 0 0 0 3.063-.882v-.022zm13.242 1.4c0 .516-.054 1.076-.054 1.624 1.316-.634 2.513-1.173 3.473-1.71a.423.423 0 0 1 .313.182v.162a.585.585 0 0 1-.216.409 9.936 9.936 0 0 1-3.57 2.324c0 .754 0 1.561.054 2.433 0 1.399.097 2.594.097 3.627s0 1.937-.097 2.508a3.856 3.856 0 0 1-.291 1.237 1.08 1.08 0 0 1-.647.55h-.28a4.08 4.08 0 0 1-2.513-1.475c-.237-.259-.345-.441-.345-.55 0-.107.183-.204.572-.204a3.597 3.597 0 0 1 2.34.926v-3.121c0-.485-.076-1.97-.162-3.94 0-.56-.076-1.076-.076-1.366-.485.204-1.002.44-1.552.645a80.108 80.108 0 0 1-3.527 1.324c.03.989.205 1.968.518 2.906a.358.358 0 0 1 0 .172.514.514 0 0 1-.313.55.606.606 0 0 1-.722-.367 5.073 5.073 0 0 1-.313-.796 9.51 9.51 0 0 1-.41-2.045 5.24 5.24 0 0 1-.679.237c-.54.15-.906.226-1.079.28-.172.053-.442 0-.593 0-.151 0-.496-.205-.528-.592 0-.151.14-.334.442-.496.302-.16.388-.129.679-.204.572-.183 1.143-.387 1.715-.592a7.732 7.732 0 0 1 0-1.076.839.839 0 0 1 .615-.55h.161c.313 0 .486.238.486.625v.614a57.478 57.478 0 0 0 3.235-1.26 44.306 44.306 0 0 0 1.919-.775v-.731a4.692 4.692 0 0 1 .238-1.68.73.73 0 0 1 .625-.495.615.615 0 0 1 .485.71v-.02zm-3.051-7.868a2.112 2.112 0 0 1-.346.096v.442a17.593 17.593 0 0 1-.258 2.69 8.535 8.535 0 0 1-.518 1.916.122.122 0 0 1 0 .054 25.847 25.847 0 0 0 3.16-1.56c.161-.13.334-.227.496-.334.182.014.359.069.517.161.205.13.335.258.335.355a1.084 1.084 0 0 1-.151.442 1.265 1.265 0 0 1-.518.387 17.62 17.62 0 0 1-2.782 1.4 19.33 19.33 0 0 1-3.128 1.14 6.382 6.382 0 0 1-1.294.15h-.442a.522.522 0 0 1-.358-.184.52.52 0 0 1-.116-.386v-.28a.786.786 0 0 1 .517-.548c.147.018.296.018.442 0a6.71 6.71 0 0 0 2.103-.345c.029-.272.091-.539.184-.796.213-.738.375-1.49.485-2.25.085-.566.128-1.138.129-1.711v-.355c-.742.258-1.503.463-2.275.613a6.403 6.403 0 0 1-1.575.226h-.517a.495.495 0 0 1-.442-.56v-.29c0-.204.183-.355.496-.517.136.019.274.019.41 0a11.702 11.702 0 0 0 3.58-.645.606.606 0 0 0 .226-.086 8.8 8.8 0 0 0-.409-1.755 2.496 2.496 0 0 1-.313-.99.822.822 0 0 1 .205-.538.645.645 0 0 1 .388-.15c.16 0 .315.053.442.15.127.142.239.297.334.463.288.803.48 1.638.572 2.486a30.132 30.132 0 0 0 3.009-1.292c.176-.134.368-.246.571-.333.179.01.355.054.518.129.183.15.28.28.28.409a.752.752 0 0 1-.129.366c-.117.154-.269.28-.442.366a27.654 27.654 0 0 1-3.386 1.464zM267.327 76.223c-.313 0-.442-.226-.442-.668a31.86 31.86 0 0 0 .862-5.876l.259-4.607v-5.22c0-1.496 0-3.1.076-4.865 0-.462.237-.72.755-.72.517 0 .647.28.647.796l.625-.302a9.458 9.458 0 0 1 3.084-.495 3.857 3.857 0 0 1 1.866.366 1.883 1.883 0 0 1 .927 1.83 10.162 10.162 0 0 1-.949 3.831c-.037.091-.084.178-.14.259a.71.71 0 0 1 .216.312.966.966 0 0 1-.259.592 7.004 7.004 0 0 1-1.477 1.55 32.115 32.115 0 0 1-3.688 2.712 1.009 1.009 0 0 1-.486.27c0 1.162-.108 2.152-.183 2.991a21.675 21.675 0 0 1-1.078 6.576c-.044.43-.27.668-.615.668zm1.973-11.71a24.25 24.25 0 0 0 4.098-3.294 28.515 28.515 0 0 0 1.079-3.1c-.982.592-2.233 1.346-3.732 2.228-.754.463-1.24.743-1.455.85l-.076 3.337.086-.021zm4.508-7.018c.283-.135.579-.24.884-.312v-.646c-.086-.72-.571-1.076-1.477-1.076a3.928 3.928 0 0 0-1.219.27 3.527 3.527 0 0 0-1.455.386l-1.165.41v3.476a25.405 25.405 0 0 1 4.432-2.508zm7.775 15.391c.02.085.02.174 0 .258a1.41 1.41 0 0 1-.291.603 25.88 25.88 0 0 1-2.48 1.076c-1.058.365-2.139.66-3.235.883a.583.583 0 0 1-.54.57c-.366 0-.55-.182-.55-.516a31.852 31.852 0 0 0-.496-3.423c-.517-1.959-.905-3.594-1.218-4.886a.598.598 0 0 1 .216-.41.427.427 0 0 1 .388-.236h.356a.873.873 0 0 1 .42.388c0 .086.054.161.076.269a11.57 11.57 0 0 1 1.941-.808c.962-.269 1.956-.406 2.955-.408a3.001 3.001 0 0 1 1.79.538c.445.25.779.656.938 1.14.144.423.213.867.205 1.314a8.551 8.551 0 0 1-.334 2.077c-.156.473-.339.937-.55 1.388.145.04.283.101.409.183zm-.776-3.82c0-1.142-.518-1.733-1.499-1.733-1.655.069-3.274.499-4.745 1.259.129.646.28 1.399.464 2.282.884-.366 2.307-.83 4.313-1.4a7.559 7.559 0 0 1 1.133-.129c.12.029.235.072.345.13-.033-.151-.011-.313-.011-.41zm-4.012 4.961c1.079-.312 2.157-.624 3.074-.936h.054c.321-.875.566-1.775.733-2.691v-.205a.288.288 0 0 0-.108.076c-.927.312-2.297.775-4.119 1.345-.615.205-1.079.302-1.241.355.151.99.281 1.766.335 2.379.517-.14.927-.248 1.272-.323zm6.471 3.229a1.456 1.456 0 0 1-.108-.517.332.332 0 0 1 .081-.261.322.322 0 0 1 .253-.105 6.564 6.564 0 0 1 2.75 1.077c-.075-.775-.151-1.895-.259-3.283-.108-1.819-.205-4.38-.259-7.717 0-1.862 0-3.692.108-5.457a22.129 22.129 0 0 1-4.152 1.765c-.812.233-1.647.381-2.491.442a.694.694 0 0 1-.539-.237.75.75 0 0 1-.237-.538.42.42 0 0 1 .345-.474.258.258 0 0 1 0-.15v-5.102a8.588 8.588 0 0 0-.593-2.562.58.58 0 0 1 .28-.538.973.973 0 0 1 .367-.075c.164.009.32.073.442.183.105.16.164.346.173.538a7.794 7.794 0 0 1 1.455-.538 14.44 14.44 0 0 1 2.901-.313h1.424c.363.007.724.05 1.078.13.777.161 1.187.516 1.24 1.076v1.378a398 398 0 0 0-.366 5.273c-.076 1.475-.097 3.23-.097 5.091 0 1.712 0 3.595.129 5.662.151 2.69.313 4.563.464 5.564 0 .754-.335 1.141-.982 1.163a4.322 4.322 0 0 1-3.375-1.497l-.032.022zm.075-20.073c.878-.193 1.768-.33 2.664-.409l.162-1.862c0-.161-.496-.258-1.478-.258h-.938a9.061 9.061 0 0 0-4.012.925c.097.366.184.7.259 1.077.076.376 0 .98 0 1.474a28.159 28.159 0 0 1 3.376-.968l-.033.021zm-1.919 4.22a17.538 17.538 0 0 0 4.453-1.766c0-.592 0-1.184.087-1.808-1.997.385-3.97.885-5.91 1.496v1.786c-.051.198-.084.4-.097.603a9.824 9.824 0 0 0 1.499-.333l-.032.021zM306.029 59.304c.334 1.076.626 2.077.884 2.906a457.356 457.356 0 0 1 1.607 5.382c.518-1.077.96-2.067 1.37-3.079.41-1.011.679-1.679.938-2.303a.588.588 0 0 1 .572-.312h.204a.507.507 0 0 1 .389.463 8.597 8.597 0 0 1-.777 2.637c-.496 1.345-1.197 2.895-2.07 4.682a16.452 16.452 0 0 0 1.779 4.014 10.238 10.238 0 0 0 2.308 2.153 80.86 80.86 0 0 0 .809-2.411.475.475 0 0 1 .388-.258c.28.086.442.312.442.731a9.115 9.115 0 0 1-.421 1.96c-.258 1.011-.614 1.528-1.078 1.528-.83 0-1.941-.775-3.321-2.325a18.33 18.33 0 0 1-1.92-3.444c-.25.447-.528.878-.83 1.291a95.647 95.647 0 0 1-1.909 2.562c-.288.417-.601.816-.938 1.195a.655.655 0 0 1-.205.236h-.259c-.183 0-.28-.15-.313-.387a.597.597 0 0 1 .108-.366c.185-.376.402-.736.647-1.076.334-.625.83-1.421 1.445-2.433.615-1.012 1.079-1.862 1.531-2.874a21.636 21.636 0 0 1-.366-1.076 267.632 267.632 0 0 1-1.704-5.661c-.259-1.077-.572-2.153-.884-3.23l-.41.13a46.348 46.348 0 0 1-6.115 1.625 9.95 9.95 0 0 1-1.251.162c.285.93.427 1.9.421 2.874 0 .667 0 1.345-.086 1.958.312-.097.701-.258 1.197-.409a9.916 9.916 0 0 1 2.361-.29 7.474 7.474 0 0 1 1.888.215c.344.065.66.234.905.484a.679.679 0 0 1 .238.495 4.99 4.99 0 0 1-.831 2.25 12.62 12.62 0 0 1-2.955 3.358 1.076 1.076 0 0 1-.593.183c-.291 0-.442-.15-.442-.484a.57.57 0 0 1 .151-.399 15.802 15.802 0 0 0 2.47-2.992 3.825 3.825 0 0 0 .776-1.636c0-.15-.517-.258-1.531-.258a9.877 9.877 0 0 0-3.764.904c-.129.958-.28 1.84-.463 2.615a10.443 10.443 0 0 1-1.942 4.306.5.5 0 0 1-.442.215.626.626 0 0 1-.539-.474c.026-.144.077-.282.151-.409a19.075 19.075 0 0 0 2.157-8.718 11.99 11.99 0 0 0-.55-3.67h-.69a.563.563 0 0 1-.525-.385.552.552 0 0 1-.025-.228v-.312a1.073 1.073 0 0 1 .593-.657c.157.018.317.018.474 0a23.474 23.474 0 0 0 5.856-.807 26.39 26.39 0 0 0 3.138-.85c-.183-.496-.345-.98-.496-1.453a11.84 11.84 0 0 1-.701-2.993.664.664 0 0 1 .755-.646.784.784 0 0 1 .615.517c.215.7.517 1.55.906 2.562.161.516.345 1.076.528 1.496.82-.28 1.682-.592 2.556-.958.318-.173.65-.321.992-.441.165.017.328.054.485.107.162.151.259.259.259.355a1.084 1.084 0 0 1-.097.388.94.94 0 0 1-.442.344 26.585 26.585 0 0 1-3.408 1.421zm3.677-5.715c.475.237.993.495 1.51.786.458.266.875.596 1.24.98a.941.941 0 0 1 .162.57.54.54 0 0 1-.313.462h-.075a1.253 1.253 0 0 1-.518-.204c-.916-.441-1.66-.775-2.232-1.077-.572-.3-1.165-.473-1.715-.731-.259-.097-.388-.334-.388-.743a.732.732 0 0 1 .723-.603 4.238 4.238 0 0 1 1.606.56zM330.637 62.618v3.541c0 1.055 0 2.282.075 3.724a41.873 41.873 0 0 0 4.508-1.291.41.41 0 0 1 .334.183v.204a.612.612 0 0 1-.205.442 13.028 13.028 0 0 1-4.615 1.862c.075 2.594.129 4.552.129 5.952 0 .409-.205.624-.55.667a2.008 2.008 0 0 1-.981-.302 8.382 8.382 0 0 1-2.567-2.152 3.2 3.2 0 0 1-.28-.344c0-.151.183-.205.572-.205a4.93 4.93 0 0 1 2.426 1.507c.042-.173.061-.35.054-.528 0-1.183 0-2.583-.076-4.305-1.164.312-2.254.57-3.235.829a4.108 4.108 0 0 1-.852.162h-.701c-.366 0-.539-.259-.593-.754 0-.15.151-.334.485-.517.262-.108.533-.194.809-.258a50.37 50.37 0 0 0 4.098-.925 162.874 162.874 0 0 1-.162-7.373v-1.97c-.039.11-.09.214-.151.312a55.727 55.727 0 0 1-6.847 9.16 10.335 10.335 0 0 1-2.157 1.603.881.881 0 0 1-.291.076c-.227 0-.356-.076-.356-.259a.39.39 0 0 1 .129-.333 51.305 51.305 0 0 0 9.22-12.808c-1.552.387-3.03.721-4.399 1.076-.518.108-.906.183-1.165.215-.259.033-.475 0-.647 0-.367 0-.55-.258-.604-.753 0-.183.162-.355.496-.538l.755-.258a71.208 71.208 0 0 0 6.082-1.249v-2.82a7.506 7.506 0 0 0-.097-.872.763.763 0 0 1 .518-.495h.237a.884.884 0 0 1 .561.958v2.95c2.473-.59 4.418-1.106 5.834-1.55a.552.552 0 0 1 .367.182.99.99 0 0 1 0 .172.705.705 0 0 1-.227.474c-.809.614-2.804 1.313-5.996 2.153v.904c.522.35.994.77 1.402 1.248.748.887 1.57 1.708 2.459 2.454a29.576 29.576 0 0 0 2.933 2.153c.313.237.938.678 1.866 1.291.594.445 1.156.93 1.682 1.453.052.213.088.428.108.646 0 .258-.13.42-.334.463a.688.688 0 0 1-.55-.258c-.777-.517-1.575-1.077-2.362-1.604a46.3 46.3 0 0 1-3.052-2.153 20.252 20.252 0 0 1-4.152-3.853l.065 1.712z" fill="#000"/>
</svg>
