<svg width="295" height="136" fill="none" xmlns="http://www.w3.org/2000/svg">
    <path d="M205.051 17.189c-1.578.168-3.099 1.562-5.04.108a14.241 14.241 0 0 1 1.755-1.138 19.57 19.57 0 0 1 3.156-1.204c1.293-.328 1.689-.986 1.298-2.238a6.656 6.656 0 0 1-.138-1.29c.702-.156.702-.156 1.904 2.356l6.347-2.793.346.58a45.296 45.296 0 0 0-3.616 2.736c-1.124 1.023-3.157.848-3.648 2.931l3.068.208-1.361 1.837 3.506-.4c-.249.59-.308 1.198-.626 1.388-1.904 1.24-1.04 3.012-1.026 4.643.025 3.38.015 6.76.026 10.147-.018 1.028.048 2.058.023 3.086-.027 1.532-.497 2.007-2.011 1.742-2.351-.412-4.931-.555-6.567-2.599-2.644-3.285-2.701-5.645 1.443-7.294a17.468 17.468 0 0 1 3.838-1.01c1.214-.182 1.913-.59 1.804-1.942-.075-.925.033-1.868-.077-2.8-.07-.806-.445-.981-1.188-.483a99.19 99.19 0 0 1-5.242 3.267c-.813.462-1.728.362-2.089-.624-.321-.845.218-1.263 1.029-1.634 2.117-.984 4.236-2.109 6.312-3.192.748-.386 1.229-1.035.66-1.76-.219-.283-1.08-.228-1.593-.097-1.097.282-2.114.824-3.237 1.035-.471.09-1.043-.382-1.564-.6.232-.506.54-.973.913-1.385.591-.408 1.22-.758 1.879-1.044l-.284-.537zm4.935 20.757c-.091-2.45-.146-4.9-.327-7.34.004-.23-.94-.666-1.278-.553a45.359 45.359 0 0 0-4.892 2.013c-1.595.777-1.887 2.277-1.047 3.859 1.2 2.239 3.294 2.947 5.538 3.476 1.24.309 1.919-.12 2.006-1.455zM246.192 26.007l-.207.357.325.253-.395.705.279.26-.193.381.324.254-.467.709.339.262-.187.366 6.609 4.358c.062-.06.106-.128.166-.148a.368.368 0 0 1 .251-.025c.054.024.121.157.099.198-.135.264.06.35.222.458l3.336 2.235c.111.076.223.148.351.232l-.184.36.286.272-.224.34-7.349-4.847-.277.337-2.545-1.68-.271.347-.358-.2-.239.327.324.295-.45.682.313.264c0 .333-.618.59-.078.98l-.193.369.306.267-.199.355.319.245c-.059.116-.118.233-.187.374l.294.261-.432.723.295.256c-.121.226-.247.457-.384.714l.312.27-.452.685.331.287c-.063.115-.128.229-.197.356l.315.246-.183.368.319.258-.211.362c.534.371-.024.635-.086.987l.304.242c-.063.112-.122.217-.194.35l.315.262-.716 1.087-.332-.167-.27.286-.721-.475c.333-.54-.267-.572-.47-.865.05-.099.109-.212.18-.348l-.325-.25.201-.347-.319-.27.194-.354-.323-.255.426-.724-.308-.243.188-.376-.312-.249.392-.705-.295-.28.177-.34-.295-.272.21-.364-.314-.241.193-.38c-.549-.368.032-.642.095-.993l-.294-.236.414-.72-.317-.26.202-.364-.305-.247.181-.356a1.206 1.206 0 0 1-.192-.188.24.24 0 0 1-.036-.093.24.24 0 0 1 .008-.1.356.356 0 0 1 .188-.147 3.21 3.21 0 0 1 .401-.086l-.204-.442c.133-.172.148-.386-.156-.534l.215-.381-.317-.247.186-.373-.681-.502-.295.317-.345-.173-.417.633-.546.076.168.465-.154.286.312.266-.199.368 1.023.673c.036.369-.629.636-.062 1.009l-.21.4.303.248-.684 1.04c-.327.025-.581-.645-.965-.081l-.356-.235.173-.35-.655-.493.174-.367-.312-.258c.06-.11.118-.215.187-.345l-.361-.239-.241.286-.345-.181-.272.302-.344-.17-.958 1.454-.37-.192-1.191 1.806.306.258-.457.695-.383-.192-.243.295-.348-.183-.254.295-.359-.148-.251.33-.693-.46.217-.327.34.148.208-.286-.295-.283.202-.358-.312-.248c.054-.114.112-.23.197-.406-.246-.162-.492-.342-.755-.492-.262-.15-.294-.311-.081-.566l-1.829-1.206.183-.377-1.081-.714c-.081.108-.147.202-.24.314l-.384-.19-1.205 1.83c-.316-.267-.471-.076-.624.159-.633.965-1.269 1.928-1.925 2.92-.345-.276-.512-.044-.673.198l-.439.644c-.566-.354-.59.265-.885.453l-1.048-.692 1.202-1.82.336.175.246-.304.428.196c.244-.37.493-.746.737-1.123.106-.162.206-.295.442-.192.034.015.159-.172.243-.267-.39-.334.034-.54.129-.799a.706.706 0 0 1 .106-.147c.323.224.491 0 .653-.237.137-.204.27-.409.418-.633l-.322-.277.188-.355a29.317 29.317 0 0 1-.309-.248l.704-1.069.347.186.27-.332.346.188.708-1.072-.303-.235.186-.362-.709-.47-.245.316-.349-.19-.267.317-.376-.193-.467.71-.382-.222-.711 1.076-.367-.206-.274.331c-.211-.106-.454-.237-.566.17l-1.098-.724-.295.271-.316-.209.938-1.421-.355-.279.212-.371-.312-.252.644-1.08-.308-.246.398-.723-.286-.257.404-.72-.283-.26.191-.364a18.86 18.86 0 0 0-.305-.27l.413-.707-.313-.278.699-1.06-.329-.286.202-.363-.308-.26.935-1.419-.339-.295.395-.707-.295-.251.17-.375-.655-.495.196-.363-.678-.49.189-.359-.322-.249.179-.386-2.157-1.423.208-.354.367.186.264-.327.712.469.284-.329 1.063.702-.175.345 1.428.942.257-.295.358.19c.243-.368.475-.728.715-1.08.158-.232.218-.443-.103-.6l2.446-3.714c.547.34.557-.274.862-.45l1.794 1.18-.178.355.674.492-.188.353.314.258-.181.365.307.258-.393.699.295.273-.197.36.309.247-.181.366.302.256-.413.712.295.25-.184.367.31.265-.196.352.325.258-.461.715.349.271-.206.365.312.244-.185.367 1.44.951-.719 1.091-.35-.163-.702 1.063.319.259-.472.716.339.267-.464.707.345.27-.195.363.712.47.258-.296.338.171.265-.321.364.186.241-.313.362.182.264-.311.357.196.494-.677.348.186.27-.307.353.175.245-.312.366.177.262-.31.354.195.464-.705-.312-.262.191-.357-.7-.461-.265.316-.369-.193-.457.695-.377-.207-.266.313-.356-.173-.251.307-1.076-.71.469-.71.343.186.267-.311.373.181.454-.688.389.203.238-.308.376.189.465-.705.372.196.461-.7-.321-.25.466-.704-.329-.267.47-.713.351.195.236-.295c.336-.01.607.66.986.075l.373.215.247-.316.371.185.252-.311.348.188.268-.31.356.187.244-.314.369.17.224-.294-.321-.282.414-.709-.295-.258.397-.737-.295-.25.417-.725-.308-.274.186-.348-.295-.218c-.092.114-.168.205-.254.31l-.376-.198-.253.31-.359-.195-.465.705-.394-.208-.242.317-.377-.195-.463.702-.37-.2-.267.308-.37-.186-.453.686-.395-.19-.25.322-.35-.196-.274.302-1.053-.694.463-.703.345.194.25-.315.37.178.488-.656.365.173.245-.317.361.181.264-.311.364.196.46-.696.386.192.466-.706-.308-.244c.056-.113.114-.23.184-.375l-2.555-1.685.173-.382c-.199-.148-.398-.306-.607-.443-.878-.59-1.762-1.166-2.633-1.769-.114-.078-.163-.252-.242-.381l.52-.083.176-.224c.05.016.1.036.147.06 1.271.84 2.545 1.675 3.809 2.523.22.147.549.284.235.653l1.474.974.252-.323.351.192.706-1.072-.32-.265c.223-.338.451-.681.677-1.032.174-.267.336-.543.517-.805.164-.237.195-.442-.132-.612l.704-1.069-.318-.286.717-1.086-.337-.265.46-.698c.426.28.857.553 1.268.85.056.04.062.223.021.305-.156.303-.342.59-.525.899l.314.268-1.179 1.788.336.264-.224.34-.341-.185-.231.311.324.285-.963 1.46c.248.166.354.357.117.612l.737.482.28-.331.357.194.497-.666.343.183.27-.332.373.186.457-.694.383.209.245-.314.367.174.255-.307.345.227-.712 1.08-.349-.198-.266.321-.355-.193-.466.705-.404-.221-.47.713-.363-.205-.224.34c.1.077.193.147.317.251l-.469.711.348.27-.427.722.321.258-.198.36 1.077.71.234-.306.373.183.248-.32.349.193.267-.313.371.19.462-.698 1.474.968-.193.34.326.28-.95 1.438.344.273-.709 1.075.34.264-.193.377 1.441.95-.487.737-.369-.197-.936 1.419-.377-.195-.267.322-.389-.179c-.376.57-.75 1.143-1.131 1.713-.115.173-.255.33-.36.51-.134.229-.294.279-.524.096l-.239.317.309.289zm-17.396-.885-.371-.207-.249.308-.369-.176-.194.295c.109.091.207.176.306.257l-.178.387.295.171.274-.306.34.181.204-.308-.311-.246c.025-.059.055-.115.088-.17.049-.07.106-.133.159-.199l.366.24.249-.294.369.168.239-.283.415.156-.312.343.32.295-.167.34.363.24.259-.295.333.162.227-.345-.312-.268.193-.34-.335-.22-.28.327-.295-.244.705-1.068c.41.147.494.09.786-.532l-.295-.24.174-.366-.684-.452-.264.31-.377-.2-.702 1.064-.37-.196-.711 1.079.308.262-.196.37zm4.709 7.313.234-.356-.327-.27.42-.704.404.22.468-.708.384.205.466-.706.382.216c.148-.222.285-.442.429-.647.162-.237.33-.47.671-.194l.482-.73.373.21.466-.707.371.196.942-1.428-.306-.267c.066-.139.122-.255.177-.366l-.306-.24.188-.386-.322-.192-.267.304-.355-.186-.242.315-.361-.188-.27.308-.35-.192-.251.325-.364-.174-.264.312-.345-.147c-.093.106-.17.196-.246.286l-.367-.171-.266.31-1.079-.713-.267.311-.34-.188-.472.713.329.264-.703 1.067.345.295-.452.684.337.295-.459.694.335.283-.705 1.068.332.26-.188.363.738.485c.147-.294.339-.294.561-.119l-.249.379c.342.147.308.363.148.607l.726.48-.165.402 1.417.934.252-.294.366.178 1.455-2.211.37.16 1.4-2.124-.295-.271.17-.366-.304-.17-.262.294-.379-.181-.688 1.043-.393-.184-.496.644-.376-.177-.465.705-.377-.177c-.174.22-.33.42-.498.636l-.77-.443c-.119.38-.329.273-.545.127l-.002-.001zm-1.465-14.696-.316-.262.179-.366-.334-.265.462-.699-.345-.275.461-.7-.32-.28.189-.347-.312-.252.181-.372-.319-.244.179-.335c-.195-.295-.804-.34-.442-.885l-.365-.24v.11l-.672.135-3.06 4.65.32.28-.478.725.329.258-.195.352.323.27-.181.333.331.22.247-.31.342.177c.294-.196.339-.797.874-.452l.259-.33.714.422.264-.303.368.181.246-.311.354.192.27-.32.336.189.223-.338-.307-.248.195-.36zm10.34 5.196.507-.658.351.176.257-.34.353.195.469-.71c-.116-.1-.215-.183-.309-.266l.191-.35-.312-.248.178-.363-.346-.229-.244.303-.358-.177-.27.295-.336-.177-.262.32-.353-.174-.952 1.443.314.246-.193.351.712.469c.097-.12.18-.218.26-.317l.343.21zm1.364.395-.249.333-.36-.202-.504.655-.35-.176-.256.347-.361-.19-.714 1.078.295.253-.177.334.721.476.252-.316.392.203.699-1.061.363.197.72-1.092-.309-.25.183-.362-.345-.227zm3.292-5.776-.96 1.455.317.25-.192.354.319.27-.195.34.339.225.267-.316.346.198 1.198-1.815-.312-.258.179-.366-.702-.463-.253.326-.351-.2zm-18.016 2.428-.94 1.434.309.277-.182.344.306.202.272-.304.35.183.519-.693c.26.224.425.108.568-.122.143-.23.318-.487.481-.73l-.313-.264.178-.358-.331-.218-.254.314-.364-.182-.261.317-.338-.2zM284.63 32.786l-.221.392 1.079.713-.213.381 1.446.956-.22.42c.367.242.737.497 1.119.737.236.147.308.305.086.559l.749.494-.214.39 1.069.706-.21.384 1.06.7c-.066.147-.121.26-.19.404l.714.47-.179.384 1.015.737-.188.358.706.466-.199.405 1.065.702-.192.382.668.495-.237.361c-.214-.12-.443-.241-.547.137l-1.508-.995.188-.36-1.06-.7c.08-.147.148-.26.221-.41l-1.054-.695.202-.395c-.231-.148-.471-.295-.697-.463-.226-.169-.478-.303-.13-.615l-1.098-.737.2-.41c-.243-.16-.489-.333-.746-.488-.256-.155-.321-.32-.101-.59l-1.068-.705c.064-.147.111-.249.179-.398l-.723-.474.214-.38-1.097-.723c.26-.317.067-.495-.168-.652-.457-.306-.918-.607-1.391-.92l.19-.393-1.078-.71.214-.393-1.066-.705.198-.404-1.072-.707.205-.367-.35-.223-.244.271-.366-.165-.243.295-.364-.166-2.911 4.405-.402-.174-.911 1.383-.429-.19-.469.71-.36-.205-.268.318-.336-.184c-.453.518-.473.641-.148.95l-.193.358.295.248-.184.366.318.269-.945 1.433-1.832-1.208.187-.342-.657-.5.177-.346-.317-.265c.054-.112.112-.229.181-.367l-.295-.242.218-.332.341.184.265-.303.358.174.456-.69-.311-.27.193-.348-.307-.267.179-.343c-.221-.28-.221-.28.109-1.016l-.295-.227.187-.369-.691-.455-.271.311-.384-.203c-.315.48-.615.956-.939 1.416-.237.338-.25.329-.637.189l-.47.71-.383-.18-1.18 1.792-.402-.196-.929 1.41-.422-.21-.709 1.075-.389-.217-.69 1.045-.38-.178-.267.33-1.436-.948.215-.326.367.196.692-1.048.401.165 1.44-2.183.386.19.503-.681.369.174.688-1.045.392.216.463-.701.397.193.504-.639.364.182.47-.714.382.204.724-1.097.366.184 1.436-2.177-.286-.232.417-.724-.323-.247.19-.353-.309-.267.185-.356-.33-.218-.261.303-.364-.183-.248.32-.354-.191-.962 1.458.317.267-.696 1.054.332.262-.701 1.062-.737-.415-.247.295-.664-.442.161-.355-.721-.477-.239.307-.364-.178-.264.308-.345-.188-.259.316-1.442-.952.224-.34.355.19.453-.685.402.196.49-.653.348.168.236-.356-.322-.251.463-.702-.345-.26.178-.366-.314-.258.207-.362-.324-.253.452-.687-.333-.295.186-.364-.335-.252c.055-.114.106-.22.17-.348l-.659-.516 1.441-2.186-.349-.27.696-1.053-.327-.275.188-.363-.32-.276.462-.7-.341-.27.468-.71-.353-.276.703-1.068-.339-.294.938-1.421-.332-.295.189-.359-.703-.464-.246.317-.365-.196-.465.707-.396-.215-.458.696-.404-.196-.463.702-.38-.207-.466.708-.404-.203-.457.693-.394-.21-.457.693-.401-.196-.442.681-.398-.186-.256.322-.345-.195-.264.31-.37-.185-.453.686-.397-.192-.265.302-1.055-.695.464-.705.343.195.27-.32.367.2.453-.681.376.206c.085-.107.159-.203.247-.316l.368.18.262-.322.349.178.5-.669.364.208.468-.708.383.207.466-.705.399.206.454-.688.41.197.463-.701.38.213.472-.716.384.205.462-.702.398.22.462-.699.398.198.469-.711.374.181.51-.669.364.187 1.19-1.804.718.473.279-.318.691.457-.442.68-.352-.166-1.448 2.194.32.26-.945 1.434.352.274-.955 1.45.342.272-.465.704.37.295-.697 1.057.333.275-.474.72.346.269-.463.703.327.283-.194.355.317.24-.18.37.339.223.243-.31.367.18.258-.314.344.192.265-.308.364.183.247-.319.353.194.472-.714-.318-.248.426-.718-.307-.256.41-.728-.295-.25.423-.719-.305-.28.456-.69-.337-.295.463-.702-.328-.26.194-.387-.295-.253.687-1.043 1.438.948-.202.358.295.256-.401.718.322.253-.196.348.313.268c-.128.226-.261.456-.405.708l.294.267-.197.354.329.272-.462.7.333.257-.188.375.315.253-.19.347.308.267-.183.36.323.253-.705 1.07.338.267-.177.37.702.463.233-.308.373.185.249-.315.351.19.272-.317.627.372.066.558.469-.147 2.472 1.63-.179.357 1.08.714.258-.308.354.191 1.445-2.192-.32-.262 1.675-2.54-.339-.279 1.192-1.809-.351-.286.183-.364-.311-.264.193-.354-.702-.463-.265.311-.365-.194-.459.696-.401-.2-.464.704-.39-.202-.46.696-.392-.218-.466.706-.395-.217-.726 1.103c-.273-.219-.453-.121-.605.123-.152.245-.306.47-.475.724l-.396-.215-.95 1.439-.358-.236.184-.343-.309-.266.71-1.076.354.2.481-.73c.34.27.511.046.672-.195.218-.326.432-.655.661-1.001l.399.193.463-.702.391.205.685-1.04.407.182.248-.326.371.202.46-.699.375.197.265-.312.364.185.251-.325.345.2.281-.33.704.463c.097-.125.169-.22.258-.331l1.076.71c-.067.121-.126.224-.193.347l.331.271-.479.727c.35.174.272.398.112.634-.237.357-.471.715-.719 1.092.327.167.283.372.124.608-.397.59-.785 1.179-1.18 1.794l.313.312-1.685 2.557c.352.184.281.404.122.642-.395.59-.783 1.18-1.179 1.787l.342.273-.184.392 1.419.936-.212.392 1.064.704-.202.392 1.077.71-.205.398 1.071.715zm-15.678-6.665.674.491.281-.337.345.196.709-1.075-.306-.262c.069-.139.126-.255.184-.369l-.307-.248.419-.722-.313-.25.183-.37-.315-.242c.069-.129.131-.242.194-.356l-.315-.273.193-.338-.332-.219-.268.305-.344-.185-.281.339-.705-.466-.252.318-.36-.184-.266.314-.341-.178-1.179 1.78.294.26-.203.369.336.28-.458.695.322.263-.201.377.265.226c-.033.352-.581.65-.102.936.012.214.021.363.028.51l.498-.17c.481.303.506-.333.802-.495l.329.16.792-1.08zm3.796 7.837c-.195.426-.134.524.501.827l.238-.305.384.2.484-.736c.261.215.426.135.572-.115.146-.251.338-.512.507-.767.952-1.43 1.903-2.863 2.853-4.296.159-.24.365-.507-.077-.72.251-.272.13-.442-.106-.604-.236-.162-.442-.331-.671-.501.065-.136.118-.24.162-.332l-1.813-1.194-.259.308-.353-.231.205-.366-.314-.258.177-.36-.693-.458-.267.316-.346-.197-.469.711.286.268-.181.359.71.468c.336-.315.547-.283.982.161l-2.645 4.01.339.295-.452.688.323.266-.192.374.307.242-.423.725.294.238c-.042.342-.616.61-.063.984zM179.07 45.285l1.405-.332c3.516-.96 3.923-1.828 3.439-5.398-.433-3.262-.427-11.995-.692-15.274-.345-4.289-.725-8.564-1.07-12.845-.126-1.584-1.06-1.824-2.184-1.158-2.736 1.618-5.46 3.284-8.066 5.107a33.059 33.059 0 0 0-3.614 3.394c-1.224 1.161-1.202 2.666-1.27 4.177-.201 4.313-.472 8.626-.751 12.939a2.297 2.297 0 0 1-.455 1.237 1.327 1.327 0 0 1-1.037.5 1.143 1.143 0 0 1-.628-.927c.024-1.4.203-2.796.346-4.193.509-5.092.751-10.168-.497-15.2-.04-.148.054-.328.161-.844l2.405.937c1.167-1.085 2.282-2.45 3.691-3.385 2.74-1.82 5.657-3.4 8.485-5.051a3.928 3.928 0 0 1 1.604-.455c2.747-.239 3.983.713 4.201 3.467.256 3.336.303 6.688.524 10.03.286 3.672.596 12.767.952 16.433.125 1.283.326 2.553.367 3.834.083 2.444-.373 2.94-3.381 3.293-1.109.148-2.279-.145-3.935-.286zM199.257 28.353c-.125.781-.286 1.555-.348 2.345-.114 1.3-.404 1.483-1.489.709-.602-.43-1.018-.613-1.651-.03-.462.42-1.494.976-1.645.833-.688-.712-1.527-1.538-1.644-2.422-.211-1.585.056-3.225.084-4.848.022-1.217-.034-2.443.008-3.66-.011-.387.12-.766.369-1.064.71-.589 1.626-.965 2.274-1.604 1.423-1.375 3.176-1.17 3.886.683.324.878.483 1.809.469 2.745-.036 2.098-.185 4.195-.291 6.292l-.022.02zm-4.303-4.428a22.209 22.209 0 0 0 2.566-.655 1.245 1.245 0 0 0 .716-.932 11.98 11.98 0 0 0-.464-2.723c-.046-.155-.967-.304-1.096-.145-.98 1.235-2.155 2.39-1.722 4.455zm.808 4.213c2.164-.893 3.487-2.136 2.014-4.296a12.95 12.95 0 0 1-1.746 1.789c-1.162.819-1.008 1.598-.268 2.52v-.013z" fill="#292929"/>
    <path d="M180.941 27.293c-2.207 2.18-4.366 4.402-6.635 6.51-.932.866-1.952.407-2.224-.843-.416-1.869-.408-3.933-2.432-5.046-.11-.058.018-.98.215-1.074a67.354 67.354 0 0 1 7.662-3.155c1.013-.311 2.281.41 2.33 1.993-.007.427.412.847.636 1.264l.448.35zm-3.723-1.99-2.978 1.432c-.352.175-.978.312-1.002.528a11.907 11.907 0 0 0-.049 2.798c-.003.168.748.454 1.057.369 2.152-.62 3.232-2.386 2.972-5.127zM168.267 23.369c2.497-1.53 4.825-3.009 7.2-4.402a11.14 11.14 0 0 1 2.48-.95.933.933 0 0 1 .813.343.948.948 0 0 1-.099.859c-.345.436-.75.82-1.203 1.14a335.216 335.216 0 0 1-5.807 3.944c-1.203.776-1.816.647-3.384-.934zM27.181 43.642a25.957 25.957 0 0 0-2.11-2.577 23.095 23.095 0 0 0-3.575-2.861c-1.384-.871-1.893-.551-2.618.899a29.55 29.55 0 0 1-2.23 3.872 6.948 6.948 0 0 1-1.78 1.369l-.268-.334 3.506-6.411-.46-.484c-.707.386-1.455.751-2.155 1.166-1.994 1.176-3.933 2.457-5.988 3.527-.707.386-1.727.299-2.604.43l-.308-.824 10.144-6.232-.284-.572-3.403 1.732c-.269.142-.518.432-.77.427-.252-.004-.44-.441-.443-.707.002-2.911.053-5.828.083-8.739.032-1.868.009-3.736.01-5.822l-2.03.497c-.356-1.273.527-2.944 1.624-2.883a1.987 1.987 0 0 0 1.966-1.162c.72-1.121 1.34-2.265 2.011-3.4l-.252-.355c-.486.145-.972.319-1.47.43-2.192.5-4.377 1.014-6.575 1.438a3.984 3.984 0 0 1-1.395-.29l.008-.448c.963-.25 1.947-.456 2.89-.768 2.04-.665 4.082-1.329 6.096-2.098 1.409-.528 2.57-1.355 2.615-3.097.005-.272.248-.534.502-1.054l1.191 1.882 3.404-1.788.245.389a20.235 20.235 0 0 0-2.453 1.874 41.787 41.787 0 0 0-3.4 3.895c-.995 1.312-1.714 2.825-2.744 4.101-.915 1.139-.996 2.152.303 3.89.156-.489.374-.955.647-1.389.787-.959 1.656-1.84 2.49-2.755.835-.916 1.837-1.368 2.735-.701a3.93 3.93 0 0 1 1.486 2.629c.046 3.408-.21 6.819-.346 10.224l-.023 1.336 2.261-.093a4.2 4.2 0 0 0-2.008 4.037c.016 1.05.282 1.489 1.115 1.867a9.564 9.564 0 0 1 4.383 4.226c.207.433.389.878.544 1.332l-.567.375zm-8.28-17.086.494.513c-1.8 1.704-2.704 4.193-5.159 5.34a4.07 4.07 0 0 0-.856.552c-.05.04.173.507.2.5a5.069 5.069 0 0 0 1.064-.387c1.775-1.026 3.535-2.038 5.275-3.148a1.743 1.743 0 0 0 .721-1.205c.096-2.273.178-4.552.084-6.821-.046-.96-.26-2.377-.89-2.738-1.247-.721-1.61.903-2.197 1.6a37.77 37.77 0 0 0-2.565 3.831l.358.356 3.302-.76.119.428c-1.524 1.121-3.07 2.228-4.567 3.42-.574.451-1.283.978-.446 1.937.878-.608 1.7-1.195 2.543-1.754.842-.56 1.67-1.119 2.52-1.664zm1.476 4.848-3.323 2.74c2.215.2 3.596-1.14 3.323-2.74zM108.973 24.083c-.623-2.439-1.312-5.054-1.828-7.148.842-.93 1.491-1.619 2.14-2.328.343-.386.616-.836.966-1.215 2.546-2.754 4.501-1.706 5.672.995a18.03 18.03 0 0 1 1.232 5.535c.525 6.055.881 12.122 1.299 18.217.015.153.012.308-.008.461-.136.992-.279 1.976-.416 2.96a16.899 16.899 0 0 1-3.322-.898 28.13 28.13 0 0 1-3.458-2.306l-2.526 1.586c.496-1.538.941-2.586 1.17-3.681.206-1.098.244-2.22.114-3.329-1.413.78-2.713 1.471-1.899 3.333.133.34.144.716.031 1.064a3.516 3.516 0 0 1-.653.898c-.29-.215-.77-.391-.842-.672a1.462 1.462 0 0 0-1.586-1.309c-.581-.01-1.128-.719-1.689-1.079a6.48 6.48 0 0 1 1.045-1.31c1.006-.746 1.03-2.124-.035-3.234-.103-.107-.284-.145-.387-.245a4.057 4.057 0 0 1-.45-.708l7.176-3.807.349.433-1.466 1.808 1.377 1.325 2.49-1.538.345.28c-.281.463-.59.913-.836 1.384a6.052 6.052 0 0 0-.931 2.034c-.164 1.76-.111 3.546-.135 5.316-.025 1.441 2.48 3.41 3.826 2.9a1.631 1.631 0 0 0 .722-1.31c-.241-5.405-.559-10.82-.885-16.228.006-.357-.325-1.006-.444-.994-.547.03-1.076.21-1.528.519a6.32 6.32 0 0 0-1.224 1.567c-.828 1.329-1.87 1.696-3.406.724zm1.007-1.165 5.149-3.556c.146-1.544-.157-1.808-1.864-1.047-.649.29-1.19.826-1.846 1.101-1.896.828-2.018.98-1.439 3.502zm-.472-5.473.344.349c1.346-.558 2.727-1.058 4.032-1.693 1.01-.493.429-1.322.032-1.791-.275-.306-1.244-.498-1.451-.291-1.075 1.08-1.957 2.296-2.957 3.426zm-.456 11.307c-.733.372-1.42.83-2.046 1.364-.235.255-.016.944-.025 1.44.383.052.773.03 1.149-.063 1.079-.52 1.374-1.39.922-2.72v-.021zM82.25 23.266c-.472.6-.903 1.237-1.43 1.802-1.107 1.212-2.254 2.381-3.373 3.565 1.794 1.823 2.901 1.759 4.12.072.304-.369.63-.718.977-1.046l.492.267a5.022 5.022 0 0 1-.557 1.481c-.973 1.222-.608 1.956.515 2.927 3.86 3.335 7.579 6.815 11.375 10.233l-.408.504c-.74-.545-1.493-1.055-2.197-1.634-3.242-2.646-6.461-5.3-9.657-7.964-.876-.715-1.286-.484-1.709.474-.729 1.68-1.597 3.324-2.445 4.96a6.337 6.337 0 0 1-.843 1.015c-.365-.322-.962-.591-1.067-.985-.34-1.236-.57-2.5-.69-3.776-.32-3.379-.582-6.77-.823-10.161a1.917 1.917 0 0 1 1.114-2.122c1.024-.549 1.784-1.564 2.747-2.254 1.361-.991 2.689-2.465 4.533-.677.291-2.283-2.091-3.696-4.505-2.878a20.367 20.367 0 0 1-4.158.873c.611-2.166 2.468-2.288 4.09-2.61 1.622-.32 4.37.994 5.014 2.188.826 1.567.281 4.336-1.166 5.857.224-.773.447-1.552.749-2.786l-1.22.945-.291-1.79c-1.93 1.863-3.559 3.437-5.176 5.053-.12.117-.01.63.14.786a.845.845 0 0 0 .803.112 14.99 14.99 0 0 0 1.61-1.588c.57-.648 1.037-1.29 2.03-.49.214.186.92-.207 1.406-.353zm-4.985 10.591.607.5a10.43 10.43 0 0 0 1.07-1.618c.161-.375.223-1.088.023-1.28a6.55 6.55 0 0 0-1.714-.793c-.077.463-.125.93-.144 1.397-.003.602.098 1.206.157 1.815v-.02zM35.2 27.12a2204.94 2204.94 0 0 0-5.312 3.287c-1.11.68-1.924.415-2.576-.744l10.625-7.337c.867.414 1.215.952.39 2.036-.458.608-.509 1.537-.858 2.7.705-.317.994-.41 1.241-.545 1.746-1.012 2.918-.81 3.402 1.137a32.18 32.18 0 0 1 .583 6.7 24.003 24.003 0 0 1-.38 3.359c-.152 1.453-.626 1.745-2.02 1.42a2.309 2.309 0 0 0-1.53.232c-1.272.748-2.869.433-3.18-1.02a24.149 24.149 0 0 1-.33-5.479c.031-1.826.294-3.654.452-5.478l-.506-.268zm2.47 5.25c1.296-.46 2.577-.886 3.845-1.375a.741.741 0 0 0 .34-.624 19.366 19.366 0 0 0-.816-2.603.979.979 0 0 0-.898-.26c-1.041.352-2.665 3.57-2.47 4.862zm-.547 4.462c2.474-.622 4.6-2.88 4.142-4.323-2.426.679-4.307 2.563-4.142 4.322zM44.29 17.118c.646-.17 1.648-.272 2.082.953.247 1 .423 2.015.528 3.04a6.396 6.396 0 0 0 1.124-.68c2.525-2.35 5.923-.184 6.184 2.906a27.17 27.17 0 0 1-.357 7.628c-.491 2.49-1.413 5.175-.208 7.918.39.875-.222 2.291-.633 3.362-.125.34-1.194.679-1.639.482-3.21-1.273-4.751-3.987-5.473-7.142a3.323 3.323 0 0 1 .983-2.572c1.423-1.375 3.085-2.395 4.563-3.664a2.799 2.799 0 0 0 1.067-1.78 45.023 45.023 0 0 0-.644-5.609c-.164-1.01-.932-1.115-1.593-.518-1.245 1.14-2.345 2.43-3.562 3.577-.498.467-1.3 1.09-1.794.97-.85-.219-.863-1.052-.748-2.022.184-2.173.076-4.358.12-6.849zm8.185 14.09-.637-.376c-1.195 1.134-2.439 2.225-3.559 3.437-1.782 1.851-1.79 3.118-.166 5.112.275.436.623.82 1.03 1.138a3.45 3.45 0 0 0 1.927.642c.322-.036.716-.953.789-1.511.26-1.675.43-3.366.564-5.064.07-1.14.033-2.26.052-3.379z" fill="#292929"/>
    <path d="m104.311 24.212 1.399.024c-1.937 2.346-2.645 5.216-5.02 6.952a9.096 9.096 0 0 1-1.79.767l-1.006 5.874-.7.05c-.139-.484-.507-1.05-.38-1.454 1.33-4.134.535-8.269.026-12.385-.11-.863-.726-1.665-1.144-2.582 1.066-.52 1.833.032 2.278.978.445.945.938.807 1.622.497.889-.411 1.757-.844 2.659-1.22.705-.303 1.188-.68.726-1.492-.436-.707-.717-1.81-1.911-1.167a25.164 25.164 0 0 0-2.536 1.768c-.318-1.405.266-2.402 1.728-3.203a1.99 1.99 0 0 1 2.732.671 11.264 11.264 0 0 1 1.338 3.487c.093.81.085 1.627-.021 2.435zm-1.222-1.351c-3.525 1.499-4.642 3.369-3.492 5.985 1.889-1.549 4.275-2.738 3.492-5.985zM71.485 26.914c-.036 2.099-.183 4.517-.12 6.919.063 2.4.413 4.765.645 7.155-1.511-.026-2.156-.814-2.283-2.72-.15-2.213-.224-4.426-.34-6.64.01-.51-.1-1.023-.147-1.534-.114-1.108-.638-1.173-1.602-.819a18.379 18.379 0 0 1-3.993 1.015 2.043 2.043 0 0 1-1.579-.951c-.366-.664-.144-1.346.826-1.616.816-.23 1.38-.886 2.46-.237.52.303 1.807-.472 2.627-.962 1.16-.686 2.178-1.305 3.506.39zM147.138 34.526c.929-1.936 1.755-3.559 2.498-5.218.874-1.972 1.769-3.937 2.476-5.968.655-1.85-.233-3.069-2.148-2.794-1.796.338-3.552.86-5.241 1.56a23.977 23.977 0 0 0-3.072 1.646c.367.98.736 1.937 1.104 2.902l-.339.155a8.055 8.055 0 0 0-.823-1.336c-.584-.654-1.302-1.206-1.878-1.873a6.18 6.18 0 0 1-.676-1.342c.518-.033 1.313-.292 1.512-.057.768.895 1.472.634 2.319.243 1.728-.789 3.457-1.605 5.245-2.239 1.789-.633 3.604-.804 5.158.755 1.555 1.56 1.124 3.365.505 5.18-1.121 3.27-3.541 5.613-5.74 8.136-.058.111-.338.1-.9.25zM128.145 37.078c-1.522-.188-2.084-.869-2.003-1.924.162-2.873.367-5.753.641-8.624.006-.392.627-1.074.843-1.035.512.172.964.488 1.3.911.172.178.144.598.117.898-.287 3.207-.587 6.414-.898 9.774z" fill="#292929"/>
    <path d="M130.967 26.916c.812.312 1.589.71 2.316 1.188 1.414 1.193 2.649 2.607 4.134 3.739.828.644 2.012 1.344 2.945 1.24 1.479-.17 2.21-1.535 2.473-3.007.116-.607.155-1.222.334-1.841.08 1.465.038 2.934-.126 4.392-.347 1.848-1.507 2.52-3.251 1.832a18.097 18.097 0 0 1-4.608-2.585 40.165 40.165 0 0 1-3.994-4.1c-.111-.065-.094-.247-.223-.858zM71.07 21.149a44.671 44.671 0 0 1-4.018 2.449 2.862 2.862 0 0 1-2.19-.039c-.5-.246-.68-1.103-1.034-1.683a8.108 8.108 0 0 1 1.341-.677 27.178 27.178 0 0 1 3.395-.87 13.242 13.242 0 0 1 2.358.04l.147.78zM113.329 76.78l2.82-1.217.242.207c-.264.434-.549.855-.855 1.26a5.9 5.9 0 0 1-2.951 1.907c-.619.178-.974 1.236-1.433 1.9l.225.332c.526-.096 1.053-.191 1.58-.301.934-.194 1.861-.402 2.809-.588a.547.547 0 0 1 .412.05c1.101 1.047 1.95.124 2.923-.286a3.115 3.115 0 0 1 3.459.257l-.226-6.302c-.558.32-1.143.592-1.749.81a2.919 2.919 0 0 1-1.082-.188c.118-.334.141-.816.374-.973a4.492 4.492 0 0 1 1.977-.973 2.03 2.03 0 0 1 1.615.86c.381.757.559 1.6.517 2.445-.156 2.915-.465 5.82-.649 8.736.022.692.113 1.38.272 2.055-.003.175.105.414.026.511-1.086 1.283-.582 2.887-.922 4.308-.083.349-.316.877-.541.915a1.54 1.54 0 0 1-1.084-.432c-.606-.535-1.051-1.495-1.713-1.66-.662-.166-1.409.549-2.115.88-.127.06-.233.15-.347.217.121.702.236 1.32.371 2.05 4.31.817 7.521 3.679 10.826 6.36.317.251.434.757.638 1.138-.304.156-.66.486-.91.418-.363-.097-.65-.473-.953-.716-.097-.086-.136-.254-.24-.333-2.68-1.971-5.044-4.448-8.365-5.436-1.204-.364-1.816-.186-2.416.895a20.417 20.417 0 0 1-5.247 5.969 1.69 1.69 0 0 1-1.114.477c-.369-.083-.655-.557-.978-.864.249-.247.491-.509.754-.742a17.417 17.417 0 0 0 4.29-5.209c.376-.634.794-1.244 1.249-1.825.244-.41.464-.834.659-1.27-.457.112-.702.136-.892.216-3.466 1.29-6.904 2.644-10.403 3.856-1.49.46-3.015.802-4.56 1.02-.308.05-.693-.349-1.032-.544.263-.268.473-.691.79-.784 4.654-1.66 9.335-3.245 13.99-4.92 1.57-.567 3.074-1.346 4.598-2.019.874-.397 1.709-.886 2.59-1.256a1.968 1.968 0 0 0 1.434-1.997c.013-.763.111-1.53.2-2.656l-2.677 2.263c-.135.116-.202.318-.343.406-.432.266-.594 1.152-1.335.677-.318-.201-.77-.762-.683-.929a3.772 3.772 0 0 1 1.172-1.414c1.197-.811 2.641-1.353 3.136-2.884.055-.264.08-.533.077-.803a3.219 3.219 0 0 0-.776-.014c-1.292.257-2.046.965-2.926 2.048-1.56 1.974-2.441 4.352-4.138 6.191-.243.262-.41.637-.714.806-.517.313-1.317.859-1.6.672-.478-.31-.681-1.103-.978-1.752 1.876-.395 5.094-4.76 5.324-7.115-1.006.311-1.928.59-2.815.882-.703.218-1.331.515-2.019.664a1.403 1.403 0 0 1-1.09-.117c-.607-.486-1.017-.242-1.493.156-.504.338-.979.719-1.42 1.137a3.344 3.344 0 0 0-.89 1.692c-.095 1.447.04 2.911.064 4.374-.03.256-.086.509-.167.753-.258-.088-.698-.103-.751-.265a12.586 12.586 0 0 1-.71-2.259c-.308-1.6-.468-3.234-.832-4.814-.28-1.202-.304-2.245.649-3.152a1.72 1.72 0 0 0 .518-.782c.106-.562.17-1.132.191-1.704.157-1.802.301-3.612.469-5.674-.924.446-1.652.853-2.427 1.148-.416.144-.865.17-1.296.075a.916.916 0 0 1-.555-.668c.004-.21.324-.512.571-.633 1.411-.675 2.823-1.35 4.268-1.97.478-.144.99-.135 1.462.026.104.037.057.75-.02 1.134-.183 1.27-.422 2.532-.619 3.796-.158 1.053-.281 2.094-.45 3.364.664-.359 1.208-.678 1.794-.962.705-.302 1.358-.844 2.209-.304.083.057.558-.298.675-.548.371-.798.603-1.676 1.015-2.453.159-.29.672-.394 1.025-.584.266.407.454.858.558 1.333-.008.405-.337.827-.519 1.243l.203.403zm-2.933.86a35.171 35.171 0 0 0-3.128 2.38 5.772 5.772 0 0 0-1.118 1.96c-.044.112.422.638.563.605 1.826-.409 3.629-2.638 3.683-4.946zm11.219 11.51-.324-.25c-.384.322-.941.585-1.088.995-.096.278.406.756.637 1.145l.33-.057.445-1.833z" fill="#292929"/>
    <g clip-path="url(#a)" fill="#292929">
        <path d="M159.219 90.374a11.333 11.333 0 0 1-.776 1.48c-.299.383-.652.72-1.048 1-.514.38-.997.727-1.044 1.456 0 .24-.221.63-.407.669-.66.164-.862.688-1.133 1.183-.414.77-1.083 1.127-2.165 1.297.183-.432.23-.742.41-.947a15.959 15.959 0 0 0 3.471-5.276c.262-.694.673-1.332.947-2.02a.868.868 0 0 0-.098-.76c-.87-.96-1.795-1.87-2.77-2.724-.471-.394-1.177-.498-1.758-.776a3.653 3.653 0 0 1-.631-.498c.158-.193.29-.518.479-.559a3.746 3.746 0 0 1 1.578-.095 6.82 6.82 0 0 1 3.251 1.758c.074.074.155.143.24.205.946.713 1.18.682 1.618-.41.862-2.143 1.657-4.31 2.506-6.46.29-.735.672-1.436.988-2.161a1.047 1.047 0 0 0-.035-.808c-1.291 1.006-2.562 2.041-3.882 3.013-.481.34-1.014.6-1.577.774-.847.254-1.707.465-2.575.63-.606.127-1.218.133-1.654-.432-.568-.741-.527-1.578-.23-2.385.445-1.24.946-2.459 1.366-3.708a5.338 5.338 0 0 0 .167-1.546c0-.53.224-.752.761-.758 1.262-.019 1.893.716 1.546 1.931a271.796 271.796 0 0 0-1.013 3.677c-.01.14.004.28.041.416.166-.016.328-.059.48-.126 1.262-.883 2.777-1.338 3.834-2.588.612-.722 1.559-1.17 2.376-1.707a60.061 60.061 0 0 1 2.638-1.634c.341-.2 1.973.201 2.036.549.082.47.006.954-.218 1.375-1.369 2.21-2.121 4.706-3.253 7.022-.553 1.136-.875 2.38-1.367 3.547-.246.58-.666 1.086-.947 1.65-.37.656-.687 1.341-.946 2.048a1.334 1.334 0 0 0 .158 1.07c.476.631 1.088 1.168 1.615 1.77.802.912 1.54 1.894 2.364 2.771 1.776 1.916 3.522 3.863 5.409 5.661a55.462 55.462 0 0 0 4.676 3.819 27.489 27.489 0 0 0 2.781 1.767c.523.316 1.101.521 1.795.843a2.367 2.367 0 0 1-2.641.404 24.193 24.193 0 0 1-4.014-2.257 43.53 43.53 0 0 1-4.131-3.297 79.054 79.054 0 0 1-4.459-4.299c-1.262-1.319-2.433-2.742-3.632-4.13-.344-.385-.657-.82-1.127-1.424zm1.54-5.711-.385-.145c-.225.595-.448 1.191-.669 1.789l.268.1.786-1.744zM139.412 84.982c.262-.347.521-.701.786-1.048 1.023-1.332 2.086-2.638 3.061-4.001.694-.97 1.263-2.02 1.894-3.033.439-.624.839-1.276 1.196-1.95.161-.363.047-.852.047-1.282 0-.287-.133-.63 0-.848.176-.352.47-.631.83-.79.237-.069.704.2.871.449.245.368.384.798.401 1.24.11 4.197.227 8.394.252 12.594.019 2.695-.091 5.393-.18 8.088-.063 1.85.073 3.734-.631 5.504-.12.315-.413.697-.675.738-.262.041-.676-.221-.909-.46-2.165-2.21-2.143-5.028-2.026-7.846 0-.189.183-.372.385-.757.199.436.382.666.407.918.085.808.073 1.629.171 2.433.094.805.287 1.594.574 2.352a1.17 1.17 0 0 0 .167-.37c.114-1.17.265-2.344.297-3.522.139-4.733.24-9.448.347-14.172 0-.46-.047-.924-.073-1.388l-.29-.205a2.537 2.537 0 0 1-.139.441c-.871 1.698-1.695 3.421-2.648 5.072a39.045 39.045 0 0 1-2.363 3.455 20.452 20.452 0 0 1-2.146 2.635 10.225 10.225 0 0 1-2.259 1.5c-.48.258-1.54-.342-1.6-.948a3.8 3.8 0 0 1 .211-1.808c.947-2.209 1.669-4.48 1.316-6.923-.069-.477-.59-.874-.846-1.338a6.1 6.1 0 0 1-.344-1.02c.327-.06.659-.096.991-.107a3.433 3.433 0 0 1 2.351 1.057c.843.811.912 1.78.742 2.84-.127.764-.3 1.518-.452 2.279l.284.22z"/>
    </g>
    <path d="M34.928 98.841a12.122 12.122 0 0 1-5.695 5.555 3.086 3.086 0 0 1-1.2.189l4.96-6.75a1.49 1.49 0 0 0-.002-1.91 120.753 120.753 0 0 1-9.42-18.778c-.368-.958-.571-1.732-2.084-.855-5.614 3.31-11.745 5.393-17.957 7.306a2.756 2.756 0 0 1-1.855-.375c-.388-.203-.567-.793-.84-1.211a6.29 6.29 0 0 1 1.09-.68c5.302-1.888 10.617-3.72 15.906-5.643a19.37 19.37 0 0 0 3.235-1.714c.328-.274.612-.597.842-.958l-.334-.489-2.417 1.323-.262-.222a8.47 8.47 0 0 1 1.47-1.556c.707-.456 1.03-.961.673-1.71-.952-1.99-1.918-3.98-2.983-5.915-.353-.636-1.115-1.048-1.49-1.678-.203-.34-.117-1.268.024-1.336a2.87 2.87 0 0 1 1.807-.101 2.38 2.38 0 0 1 1.177 1.154c1.353 2.662 2.706 5.33 3.96 8.067.484 1.086.754 1.301 1.768.507 1.419-1.102 2.988-1.998 4.496-2.98l.404.462c-.65.724-1.292 1.461-1.955 2.177a33.187 33.187 0 0 0-2.954 3.273 2.933 2.933 0 0 0-.173 2.306 100.193 100.193 0 0 0 4.027 9.81c.453.912 1.645 1.59 2.094 2.704.49 1.233.887 2.513 1.482 3.692a9.908 9.908 0 0 0 1.495 1.776l.506-.153c.612-1.794 1.19-3.603 1.878-5.369.205-.514.849-1.315 1.107-1.247a1.4 1.4 0 0 1 .972 1.997c-.67 1.906-1.326 3.812-2.093 5.674-1.052 2.55-.885 3.385.878 5.424a27.196 27.196 0 0 1 2.345 3.54c.388.636.677 1.327 1.015 1.991l.488.099 3.39-9.737.396.09c-.183 1.285-.373 2.57-.543 3.861-.402 3.002-.846 6.003-1.158 9.021-.109 1.019-.367 1.393-1.244.741a7.425 7.425 0 0 1-1.78-1.872c-1.725-2.99-3.442-6.043-5.446-9.5zM58.471 73.416c-.853.315-1.743.52-2.648.612a3.45 3.45 0 0 1-2.134-.856c-.764-.713-.327-1.664.773-1.736 5.344-.334 10.025-2.666 14.778-4.801a4.2 4.2 0 0 1 1.443-.094c-.182.417-.242 1.024-.56 1.222-1.896 1.17-3.893 2.164-5.762 3.398a55.123 55.123 0 0 0-4.468 3.386c-.326.267-.454.782-.874 1.552 2.371-1.134 4.306-2.122 6.294-2.97a8.612 8.612 0 0 1 3.163-.812c.819.015 1.648.582 2.475.911a7.694 7.694 0 0 1-.862 1.693c-.957 1.123-2.018 2.155-2.936 3.447l3.52-1.247.21.375a3.24 3.24 0 0 1-.482.796 8.397 8.397 0 0 1-1.239.839c-1.902 1.093-3 2.306-2.633 4.915.367 2.61-.224 5.23-.5 7.85-.135 1.264-.04 2.21 1.35 2.752.861.441 1.677.964 2.436 1.562-1.418 1.094-2.423-.267-3.837-.235-.148 2.061-.303 4.123-.45 6.185-.13 1.831-.226 3.662-.398 5.486-.095 1.062-.528 1.39-1.58.735a19.958 19.958 0 0 1-6.093-5.705l5.188 3.443c.278-1.514.555-2.552.65-3.614.191-2.096.327-4.255.364-6.389a1.966 1.966 0 0 0-.773-1.413c-1.604-1.085-2.782-.937-4.308.275a59.134 59.134 0 0 1-5.133 3.815c-1.138.68-2.557.956-3.845 1.409l-.105-.38c2.306-1.87 4.648-3.704 6.9-5.645.54-.46.791-1.267 1.368-2.244 3.954-1.218 7.705-4.413 6.541-9.92-1.084.276-2.14.653-3.154 1.128-1.492.883-2.535.116-3.634-.659a3.051 3.051 0 0 1-1.219-3.156c.248-1.794.615-3.537 1.947-4.899.12-.156.208-.336.254-.527.05-.063.01-.168-.026-.484zm10.42.819-.293-.502c-2.117 1.02-4.275 1.969-6.35 3.066a22.17 22.17 0 0 0-3.542 2.401c-.312.254-.213 1.011-.306 1.541.447.031.896-.008 1.331-.116a24.577 24.577 0 0 0 3.332-1.65c2.136-1.327 4.411-2.56 5.849-4.74h-.021zm-4.875 18.69c-.074-.96-.131-1.71-.215-2.901l-2.01 2.49 2.225.41z" fill="#292929"/>
    <path d="M73.781 88.659c-1.497.793-2.713.652-3.71-1.135 1.12-.38 2.114-.81 3.203-1.078 1.532-.38 2.414-1.19 2.555-2.845a19.99 19.99 0 0 1 .714-3.669 1.546 1.546 0 0 1 .954-.893c.21-.052.782.483.84.813.08.823.106 1.651.075 2.478-.01.532.065 1.065.105 1.59a5.326 5.326 0 0 0 1.489-.288c1.016-.522 1.952-1.191 2.962-1.733.413-.163.845-.27 1.286-.32-.008.447.128 1.107-.107 1.306-1.556 1.372-3.072 2.815-4.852 3.771a5.24 5.24 0 0 0-2.875 4.365 1.287 1.287 0 0 0 .415 1.092c1.505.726 1.873 2.132 2.156 3.537.163.978.38 1.946.65 2.9.715 2.267 2.412 2.884 4.435 1.667 3.86-2.326 5.836-5.622 5.658-10.25-.153-3.712-.53-7.323-2.263-10.684a8.697 8.697 0 0 1-.477-1.554l-.615.339-1.655 1.86a6.586 6.586 0 0 1-.181-1.263 9.638 9.638 0 0 1 .348-1.904c.835-2.553-.635-3.748-3.21-4.506-1.288-.38-2.703-.684-3.391-2.159 3.12-.806 8.055 1.54 9.16 4.359.26.58.278 1.24.052 1.834-.604.92-.308 1.604.184 2.32a25.51 25.51 0 0 1 4.146 13.01c.24 3.93-.833 7.613-4.257 10.156-3.595 2.695-7.283 1.923-9.32-2.08a23.222 23.222 0 0 1-1.323-4.368c-.237-.837-.383-1.707-.564-2.557l-.48-.128c-.357.792-.728 1.576-1.064 2.382-1.245 3.211-2.768 6.25-5.604 8.39-.326.253-.933.138-1.403.193.089-.388.23-.762.418-1.113a31.223 31.223 0 0 0 4.63-9.428c.422-1.393.888-2.784 1.331-4.14l-.415-.267zM15.778 90.683c2.848.42 3.637 1.316 4.13 3.892.318 2.139.08 4.323-.691 6.342-.207.64-.804 1.568-1.295 1.615-.7.072-1.523-.523-2.211-.794.712-.688 1.572-1.093 1.652-1.623.31-2.014.453-4.05.428-6.087.01-.595-.84-1.184-1.292-1.772-.515.627-1.266 1.167-1.51 1.884-.892 2.65-1.528 5.39-2.442 8.032a26.585 26.585 0 0 1-2.176 4.392c-.238.415-.878.607-1.33.9-.408-.707-1.304-1.513-1.135-1.986 1.275-3.665 2.814-7.235 4.15-10.879a33.72 33.72 0 0 0 1.497-5.516c.448-2.448.639-4.936.996-7.4.056-.39.433-.74.664-1.108.287.245.547.52.776.819 1 1.612.69 3.356.43 5.08-.18 1.418-.406 2.757-.641 4.209zM217.69 102.422c.006-.385-.959-1.598-1.365-1.976-.998-.962-2.024-1.918-3.023-2.852-1.728-1.59-3.505-3.238-5.126-4.988-2.583-2.753-5.029-5.72-7.4-8.59l-.953-1.156a117.83 117.83 0 0 1-2.656-3.37c-1.122-1.455-2.278-2.958-3.506-4.372a48.537 48.537 0 0 0-5.278-5.138 3.664 3.664 0 0 0-4.063-.532l-.564.242 1.216.896c.415.294.739.53 1.057.788a62.21 62.21 0 0 0 1.526 1.14 24.162 24.162 0 0 1 3.332 2.78c1.305 1.387 2.51 2.92 3.68 4.402.788.987 1.596 2.015 2.432 2.989l.974 1.15c3.463 4.063 7.042 8.268 10.695 12.293a64.028 64.028 0 0 0 6.349 5.89c.098.086.19.178.275.278a1.95 1.95 0 0 0 1.301.799 1.334 1.334 0 0 0 .959-.431l.108-.124.03-.118zM197.97 87.566a2.056 2.056 0 0 0-1.463.793l-.135.13c-.712.688-1.423 1.375-2.136 2.104-.84.84-1.702 1.706-2.591 2.523a229.28 229.28 0 0 1-4.976 4.455l-2.133 1.9-1.187 1.065 1.52-.47c3.588-1.092 6.528-3.161 8.933-5.044 1.142-.89 2.223-1.892 3.269-2.854a92.441 92.441 0 0 1 1.735-1.586 1.49 1.49 0 0 0 .257-2.29 1.582 1.582 0 0 0-1.093-.726zM35.997 69.693a32.75 32.75 0 0 0 .472-3.372 30.55 30.55 0 0 0-.074-4.598c-.146-1.276-1.092-1.986-2.295-2.434-.625-.31-1.22-.676-1.78-1.094 1.31-.79 3.288-.314 4.667.9a5.814 5.814 0 0 1 .968 7.483c-.648 1.025-1.157 2.135-1.736 3.203l-.222-.088zM107.598 87.47c.072-.384.191-.758.355-1.113a16.673 16.673 0 0 1 1.627-2.239c.2-.22.737-.127 1.123-.176-.007.385.187.92-.02 1.133-.828.944-1.759 1.796-2.657 2.683l-.428-.288zM65.587 66.592a3.14 3.14 0 0 1-1.065.436c-.874-.015-2.033-1.358-1.838-2.13a1.4 1.4 0 0 1 .712-.688c.823.574 1.595 1.21 2.39 1.826l-.2.556z" fill="#292929"/>
    <path d="M6.129 130.062c58.67-4.293 117.232-11.105 176.023-13.415.485-.019 32.859-2.582 33.335-.678.294 1.177-9.926 2.956-10.57 3.117" stroke="#000" stroke-width="2" stroke-linecap="round"/>
    <defs>
        <clipPath id="a">
            <path fill="#fff" transform="translate(135.133 71.45)" d="M0 0h44.094v34.58H0z"/>
        </clipPath>
    </defs>
</svg>
