<svg width="10" height="41" fill="none" xmlns="http://www.w3.org/2000/svg">
    <path d="M5.7 1a.7.7 0 1 0-1.4 0h1.4zM5 41l4.041-7H.96L5 41zM4.3 1.417a.7.7 0 1 0 1.4 0H4.3zm1.4 4.166a.7.7 0 1 0-1.4 0h1.4zm-1.4.834a.7.7 0 1 0 1.4 0H4.3zm1.4 4.166a.7.7 0 0 0-1.4 0h1.4zm-1.4.834a.7.7 0 1 0 1.4 0H4.3zm1.4 4.166a.7.7 0 1 0-1.4 0h1.4zm-1.4.834a.7.7 0 1 0 1.4 0H4.3zm1.4 4.166a.7.7 0 1 0-1.4 0h1.4zm-1.4.834a.7.7 0 1 0 1.4 0H4.3zm1.4 4.166a.7.7 0 1 0-1.4 0h1.4zm-1.4.834a.7.7 0 1 0 1.4 0H4.3zm1.4 4.166a.7.7 0 1 0-1.4 0h1.4zm-1.4.834a.7.7 0 1 0 1.4 0H4.3zm1.4 4.166a.7.7 0 1 0-1.4 0h1.4zm-1.4.834a.7.7 0 1 0 1.4 0H4.3zm1.4 4.166a.7.7 0 1 0-1.4 0h1.4zM4.3 1v.417h1.4V1H4.3zm0 4.583v.834h1.4v-.834H4.3zm0 5v.834h1.4v-.834H4.3zm0 5v.834h1.4v-.834H4.3zm0 5v.834h1.4v-.834H4.3zm0 5v.834h1.4v-.834H4.3zm0 5v.834h1.4v-.834H4.3zm0 5v.834h1.4v-.834H4.3z" fill="#FF7800"/>
</svg>
