<svg width="25" height="10" fill="none" xmlns="http://www.w3.org/2000/svg">
    <path d="M1 4.3a.7.7 0 1 0 0 1.4V4.3zM25 5 18 .959V9.04L25 5zm-23.6.7a.7.7 0 1 0 0-1.4v1.4zm4-1.4a.7.7 0 1 0 0 1.4V4.3zm.8 1.4a.7.7 0 1 0 0-1.4v1.4zm4-1.4a.7.7 0 1 0 0 1.4V4.3zm.8 1.4a.7.7 0 1 0 0-1.4v1.4zm4-1.4a.7.7 0 1 0 0 1.4V4.3zm.8 1.4a.7.7 0 1 0 0-1.4v1.4zm4-1.4a.7.7 0 1 0 0 1.4V4.3zm.8 1.4a.7.7 0 1 0 0-1.4v1.4zm4-1.4a.7.7 0 1 0 0 1.4V4.3zM1 5.7h.4V4.3H1v1.4zm4.4 0h.8V4.3h-.8v1.4zm4.8 0h.8V4.3h-.8v1.4zm4.8 0h.8V4.3H15v1.4zm4.8 0h.8V4.3h-.8v1.4z" fill="#FF7800"/>
</svg>
