<svg width="31" height="30" fill="none" xmlns="http://www.w3.org/2000/svg">
    <path fill-rule="evenodd" clip-rule="evenodd" d="M2.829 15c0 6.778 5.495 12.273 12.273 12.273S27.374 21.778 27.374 15 21.88 2.727 15.102 2.727C8.324 2.727 2.829 8.222 2.829 15zm12.273 15c-8.285 0-15-6.716-15-15 0-8.284 6.715-15 15-15 8.284 0 15 6.716 15 15 0 8.284-6.716 15-15 15z" fill="#fff"/>
    <path fill-rule="evenodd" clip-rule="evenodd" d="M14.137 21.419a1.364 1.364 0 0 1 0-1.929l4.49-4.49-4.49-4.49a1.364 1.364 0 0 1 1.929-1.929l5.454 5.455a1.363 1.363 0 0 1 0 1.928l-5.454 5.455a1.364 1.364 0 0 1-1.929 0z" fill="#fff"/>
    <path fill-rule="evenodd" clip-rule="evenodd" d="M8.283 15c0-.753.61-1.364 1.364-1.364h10.91a1.364 1.364 0 1 1 0 2.728H9.646c-.753 0-1.364-.61-1.364-1.364z" fill="#fff"/>
</svg>
