<svg width="22" height="23" fill="none" xmlns="http://www.w3.org/2000/svg">
    <path fill-rule="evenodd" clip-rule="evenodd" d="M2.217 11.557a8.859 8.859 0 1 0 17.718 0 8.859 8.859 0 0 0-17.718 0zm8.859 10.828c-5.98 0-10.828-4.848-10.828-10.828C.248 5.577 5.096.73 11.076.73c5.98 0 10.827 4.848 10.827 10.828 0 5.98-4.847 10.828-10.827 10.828z" fill="#FF7800"/>
    <path fill-rule="evenodd" clip-rule="evenodd" d="M10.38 16.19a.984.984 0 0 1 0-1.392l3.241-3.24-3.241-3.242a.984.984 0 1 1 1.392-1.392l3.937 3.937a.984.984 0 0 1 0 1.392l-3.937 3.938a.984.984 0 0 1-1.392 0z" fill="#FF7800"/>
    <path fill-rule="evenodd" clip-rule="evenodd" d="M6.154 11.557c0-.543.44-.984.984-.984h7.875a.984.984 0 0 1 0 1.968H7.138a.984.984 0 0 1-.984-.984z" fill="#FF7800"/>
</svg>
