<svg width="306" height="44" fill="none" xmlns="http://www.w3.org/2000/svg">
    <path d="M136 44V0" stroke="#868047"/>
    <path d="m151.398 7.914-.539.594c-.671-.735-1.479-1.456-2.421-2.164l.593-.594c1.047.818 1.836 1.54 2.367 2.164zm10.672 9.242h-1.039v1.328c0 .438-.12.766-.359.985-.24.218-.542.328-.906.328h-1.547l-.352-.735h1.742a.652.652 0 0 0 .43-.156c.13-.11.195-.226.195-.351v-1.399h-6.656v2.672h-.82v-2.672h-1.469v-.734h1.469v-3.836h3.711v-1.188h-4.938v-.734h3.008V9.477h-2.336v-.72h2.336v-1.07h-2.594v-.703h2.594V5.852h.781v1.132h3.118V5.852h.789v1.132h2.601v.72h-2.601v1.054h2.289v.719h-2.289v1.187h2.828v.734h-4.797v1.188h3.773v3.836h1.039v.734zm-3.632-8.398V7.703h-3.118v1.055h3.118zm0 1.906V9.477h-3.118v1.187h3.118zm1.796 3.86v-1.235h-2.976v1.234h2.976zm-3.765 0v-1.235h-2.891v1.234h2.891zm3.765 1.898v-1.195h-2.976v1.195h2.976zm-3.765 0v-1.195h-2.891v1.195h2.891zm-5.258-4.43-.547.656c-.672-.661-1.552-1.359-2.641-2.093l.579-.61c.849.547 1.718 1.23 2.609 2.047zm.141 2.75c-.818 2.042-1.688 3.737-2.61 5.086l-.609-.555c.922-1.364 1.745-2.997 2.469-4.898l.75.367zm16.14-6.476-.586.578c-.437-.667-1.221-1.464-2.351-2.39l.586-.602c1.145.974 1.929 1.778 2.351 2.414zm9.953 8.445c0 .651-.497.977-1.492.977-.161 0-.388-.006-.68-.016l-.242-.813 1.219.016a.39.39 0 0 0 .258-.11c.083-.078.125-.158.125-.242v-1.585h-2.852v2.703h-.843v-2.703h-2.836v2.843h-.844V9.492h3.547c-.677-.474-1.524-.974-2.539-1.5l.554-.578c.506.224 1.222.625 2.149 1.203 1.37-.698 2.307-1.242 2.812-1.633h-6.937v-.78h8.312v.78a21.95 21.95 0 0 1-3.453 2.11c.188.192.331.325.43.398h3.312v7.219zm-.812-4.945V10.25h-2.852v1.516h2.852zm-3.695 0V10.25h-2.836v1.516h2.836zm3.695 2.421V12.54h-2.852v1.649h2.852zm-3.695 0V12.54h-2.836v1.649h2.836zm5.312 4.524-.258.781-6.367.04c-2.109 0-3.799-.595-5.07-1.782a11.573 11.573 0 0 1-1.844 2.164l-.656-.562c1.401-1.172 2.448-2.889 3.14-5.149h-2.687v-.742a51.424 51.424 0 0 0 2.461-3.328h-2.821V9.32h3.875v.813l-2.429 3.281h2.476v.79a12.892 12.892 0 0 1-1.132 2.843c.473.495 1.01.86 1.609 1.094.604.234 1.216.39 1.836.468.62.078 2.531.118 5.734.118.875 0 1.586-.006 2.133-.016zm6.992-10.414h-5.109v-.805h2.289c-.13-.38-.349-.875-.656-1.484l.757-.29c.287.542.547 1.134.782 1.774h1.937v.805zm8.719 3.82-.516.64c-1.052-.9-2.341-1.757-3.867-2.57-.542 1.037-1.818 1.878-3.828 2.524l-.492-.703c1.276-.333 2.193-.742 2.75-1.227.557-.49.901-.982 1.031-1.476.135-.495.203-1.664.203-3.508h.813c.015.766-.016 1.68-.094 2.742a14.328 14.328 0 0 0 2.719-1.797l.609.531c-1.167.922-2.32 1.651-3.461 2.188 1.646.885 3.024 1.77 4.133 2.656zm-5.758-2.937-.641.492a16.136 16.136 0 0 0-1.89-2.32l.578-.532c.839.839 1.49 1.625 1.953 2.36zm-3.297 1.422h-4.468v-.774h4.468v.774zm9.18 8.539-.43.742c-2.146-.901-3.463-2.177-3.953-3.828-.406 1.494-1.786 2.765-4.141 3.812l-.468-.687c1.786-.75 2.937-1.578 3.453-2.485.515-.906.747-2.453.695-4.64h.813l-.032 1.89c0 .448.071.907.211 1.375a18.403 18.403 0 0 0 2.493-1.89l.578.547a19.681 19.681 0 0 1-2.797 2.078c.427 1.312 1.62 2.34 3.578 3.086zm-9.18-6.203h-4.468v-.82h4.468v.82zm3.36 2.945-.625.476c-.532-.817-1.209-1.638-2.032-2.46l.579-.547c.786.776 1.479 1.62 2.078 2.53zm-3.602 3.531h-.812v-.797h-2.391v1.164h-.813V14.47h4.016v4.945zm-.812-1.617V15.32h-2.391v2.477h2.391zm26.203 1.695h-8.274v-.86h3.735v-7.187h-3.328v-.828h3.328V5.812h.843v4.805h3.422v.828h-3.422v7.188h3.696v.86zm-8.75-1.758h-.852v-.96h-3.023v1.296h-.86V7.258h4.735v10.476zm-.852-1.804V8.086h-3.023v7.844h3.023zm20.117-2.133-.562.61a16.643 16.643 0 0 0-2.578-2.29l.593-.625c1.063.797 1.912 1.565 2.547 2.305zm20.946-2.11h-6.743V7.141h2.016V5.828h.703v1.313h1.328V5.828h.711v1.313h1.985v4.546zm-.727-2.624V7.851h-1.258v1.21h1.258zm-1.969 0V7.851h-1.328v1.21h1.328zm-2.031 0V7.851h-1.312v1.21h1.312zm4 1.953V9.734h-1.258v1.282h1.258zm-1.969 0V9.734h-1.328v1.282h1.328zm-2.031 0V9.734h-1.312v1.282h1.312zm-2.734.945h-.766v-.914h-4.273v.914h-.782v-1.664h.828V6.219h4.43v4.078h.563v1.664zm-1.328-3.79V6.97h-2.915v3.328h.977V8.172h1.938zm-.016 2.126V8.89h-1.164v1.406h1.164zm.273 8.383c0 .323-.088.593-.265.812-.172.224-.482.336-.93.336h-.609l-.227-.765h1.024c.046 0 .101-.03.164-.086.062-.058.093-.11.093-.157v-2.203c-.932.51-1.653.862-2.164 1.055l-.218-.399c-.276 1.094-.625 1.935-1.047 2.524l-.633-.367c.755-1.282 1.133-2.63 1.133-4.047v-3.18h3.679v6.477zm-.75-2.977v-2.765h-2.195v.914c.552.166 1.193.406 1.922.718l-.352.688c-.343-.167-.867-.375-1.57-.625-.021.963-.068 1.732-.141 2.305.75-.323 1.529-.735 2.336-1.235zm9.633-2.21h-7.586v-.735h7.586v.734zm.094 6h-8.016v-.75h2.446c-.094-.48-.292-1.04-.594-1.68H235v-2.641h6.078v2.64h-.945c-.261.678-.49 1.237-.688 1.68h2.516v.75zm-1.68-3.15v-1.202h-4.469v1.203h4.469zm-1.023.72h-2.61l.594 1.68h1.344c.286-.615.51-1.175.672-1.68zm12.336-7.07-.656.53a8.72 8.72 0 0 0-.61-.96 65.875 65.875 0 0 1-5.969.57l-.304-.688c.979-.755 1.838-1.96 2.578-3.617l.828.211c-.63 1.333-1.328 2.422-2.094 3.266a85.842 85.842 0 0 0 4.43-.461c-.281-.396-.729-.899-1.344-1.508l.727-.461c1.198 1.208 2.002 2.247 2.414 3.117zm6.273 1.921h-4.656a.925.925 0 0 1-.719-.312 1.091 1.091 0 0 1-.273-.743V5.883h.797v2h4.578v.765h-4.578v2.094c0 .255.143.383.429.383h4.422v.79zm-7.312 6.977c0 .265-.099.49-.297.672a1.062 1.062 0 0 1-.649.304c-.234.021-.742.031-1.523.031l-.336-.804c.255.015.505.023.75.023.516 0 .846-.018.992-.055.151-.036.227-.132.227-.289v-2.601c-1.531.693-2.789 1.208-3.774 1.547l-.367-.54a9.196 9.196 0 0 1-.758 2.688l-.734-.422c.49-1.26.734-2.534.734-3.82V11.32h5.735v7.57zm-.836-3.618v-3.156h-4.047v1.14c1.104.199 2.26.514 3.469.946l-.383.719c-1.235-.412-2.263-.695-3.086-.852v1.555c0 .448-.021.885-.063 1.313 1.042-.323 2.412-.878 4.11-1.665zm8.32 1.82c-.052.808-.164 1.4-.336 1.774-.172.37-.375.61-.609.719-.229.11-.662.164-1.297.164l-2.399-.031c-.359 0-.648-.104-.867-.313-.219-.203-.328-.476-.328-.82V12.57h.813v2.32h4.593v.766h-4.593v2.852c0 .307.192.46.578.46 1.625 0 2.552-.012 2.781-.038a.762.762 0 0 0 .547-.313c.135-.187.242-.763.32-1.726l.797.203zm7.055 2.688h-.828v-5.758h-1.938c-.031 2.412-.516 4.243-1.453 5.493l-.656-.547c.88-1.287 1.312-2.935 1.297-4.946h-1.399v-.78h4.149V11.03h-3.11v-4.93h.805v4.102h2.305v-4.39h.828V19.78zm8.898-.586-.64.672c-1.651-1.87-2.93-4.234-3.836-7.094-.297 2.402-1.396 4.771-3.297 7.11l-.727-.594c2.031-2.328 3.154-5.122 3.367-8.383h-3.007v-.836h3.023V5.883h.828v4.187h4.109v.836h-3.96c.781 3.427 2.161 6.19 4.14 8.29zm-.75-10.351-.703.398c-.323-.646-.878-1.43-1.664-2.351l.672-.47a11.566 11.566 0 0 1 1.695 2.423zm10.188.234-.688.485c-.198-.365-.372-.633-.523-.805-2.542.297-4.409.5-5.602.61l-.242-.626c.906-.698 1.664-1.674 2.273-2.93l.868.211c-.521 1.021-1.071 1.842-1.649 2.461a63.242 63.242 0 0 0 3.774-.46 8.143 8.143 0 0 0-.961-1.055l.687-.43c.651.604 1.339 1.45 2.063 2.54zm5.968 1.203h-4.218c-.344 0-.618-.099-.821-.297-.203-.203-.304-.484-.304-.843V5.828h.789v1.11h4.351v.78h-4.351v1.407c0 .094.041.188.125.281.083.094.169.14.258.14h4.171v.735zm-6.687 4.156c0 .402-.133.698-.399.891-.265.188-.77.281-1.515.281-.214 0-.44-.005-.68-.015l-.32-.75c1.068.036 1.687.02 1.859-.047.172-.068.258-.188.258-.36v-.89c-1.016.25-2.226.51-3.633.781l-.367-.562a5.611 5.611 0 0 1-.852 2.132l-.765-.453c.641-.77.961-1.932.961-3.484V10.1h5.453v4.336zm-.797-1.664v-1.898h-3.812v.586c1.026.073 2.013.195 2.96.367l-.242.758a30.172 30.172 0 0 0-2.75-.367c-.015.437-.052.89-.109 1.36 1.578-.272 2.896-.54 3.953-.806zm7.648 1.25c-.026.495-.135.868-.328 1.118-.192.244-.403.4-.632.468-.23.063-.787.094-1.672.094-.62 0-1.141-.018-1.563-.055-.422-.041-.698-.106-.828-.195a1.207 1.207 0 0 1-.344-.375c-.093-.166-.14-.4-.14-.703v-3.36h.804v1.07h4.368v.774h-4.368v1.516c0 .23.076.38.227.453.156.073.698.11 1.625.11.463 0 .862-.01 1.195-.032.334-.026.56-.125.68-.297.125-.177.187-.474.187-.89l.789.304zm-4.976 3.344-.609.547c-.365-.417-.951-.93-1.758-1.539l.601-.547c.724.49 1.313 1.003 1.766 1.54zm2.492.125c-.047.505-.143.906-.289 1.203-.146.297-.312.503-.5.617-.182.12-.583.201-1.203.243-.62.047-1.362.07-2.227.07-1.432 0-2.32-.078-2.664-.234-.338-.157-.507-.47-.507-.938v-2.219h.82v2.047c0 .266.12.427.359.485.24.052.935.078 2.086.078.891 0 1.568-.021 2.031-.063.469-.041.758-.112.868-.21.109-.1.205-.277.289-.532.083-.26.125-.542.125-.844l.812.297zm2.852 1.156-.641.532c-.667-.938-1.312-1.706-1.937-2.305l.609-.531a14.932 14.932 0 0 1 1.969 2.304zm-11.157-1.773c-.609 1.031-1.286 1.846-2.031 2.445l-.719-.515c.771-.584 1.464-1.362 2.079-2.336l.671.406zm-116.75 11.21h-5.101a14.94 14.94 0 0 1-1.797 2.15l-.719-.454c1.443-1.505 2.42-2.86 2.93-4.062l.75.398c-.203.459-.422.86-.656 1.203h4.593v.766zm-6.882 0h-4.633c-.474.694-1.084 1.405-1.828 2.134l-.672-.578c1.161-.974 2.117-2.26 2.867-3.86l.75.352c-.13.323-.333.719-.609 1.187h4.125v.766zm4.757 1.876-.773.305a7.605 7.605 0 0 0-1.086-1.586l.75-.352c.469.516.839 1.06 1.109 1.633zm-6.546.047-.766.32c-.182-.536-.508-1.091-.977-1.664l.75-.336c.443.531.774 1.091.993 1.68zm-.899.883c-.38.74-.828 1.437-1.344 2.093v6.813h-.812V33.93a14.865 14.865 0 0 1-1.922 1.773l-.352-.797c1.428-1.062 2.638-2.481 3.633-4.258l.797.243zm9.539 2.25h-2.336v5.43c0 .359-.117.656-.351.89a1.126 1.126 0 0 1-.821.352c-1.614 0-2.526-.006-2.734-.016l-.273-.813c.656.047 1.252.07 1.789.07.791 0 1.247-.036 1.367-.109.125-.073.187-.213.187-.422v-5.382h-6.508v-.782h6.508v-1.57h.836v1.57h2.336v.782zm-5.523 3.523-.688.516c-.469-.745-1.273-1.61-2.414-2.594l.625-.547c1.042.865 1.867 1.74 2.477 2.625zm21.617-6.227-.539.704c-2.688-1.12-4.859-2.542-6.516-4.266-1.442 1.453-3.601 2.88-6.476 4.281l-.532-.718c2.917-1.24 5.248-2.834 6.993-4.782l.812.32a.954.954 0 0 1-.234.352c1.672 1.682 3.836 3.052 6.492 4.11zm-2.891.836h-8.289v-.851h8.289v.851zm.875 8.579h-.843v-1.063h-8.368v1.063h-.867v-6.36h10.078v6.36zm-.843-1.907v-3.601h-8.368v3.601h8.368zm18.125.563c0 .38-.084.672-.25.875-.167.203-.355.33-.563.383-.203.057-.628.086-1.273.086-.313 0-.706-.008-1.18-.024l-.336-.89c.38.03.818.046 1.312.046.714 0 1.136-.028 1.266-.086.13-.062.195-.171.195-.328v-6.015h-4.671V26.28h5.5v12.227zm-.829-9.54v-1.874h-3.859v1.875h3.859zm0 2.735v-1.937h-3.859v1.937h3.859zm-6.257.852h-4.672v7.242h-.883V26.28h5.555v6.274zm-.852-3.586v-1.875h-3.82v1.875h3.82zm0 2.734v-1.937h-3.82v1.937h3.82zm24.5-3.039h-6.531v2.531h5.422v5.985c0 .354-.099.635-.297.843-.198.204-.443.32-.735.352-.286.031-.95.036-1.992.016l-.429-.86c.375.021.75.032 1.125.032.703 0 1.127-.037 1.273-.11.151-.078.227-.208.227-.39v-5.04h-4.594v7.829h-.844v-7.829h-4.547v6.368h-.867v-7.196h5.414v-2.53h-6.547v-.837h6.735c-.276-.505-.688-1.075-1.235-1.71l.789-.4c.427.433.922 1.136 1.485 2.11h6.148v.836zm16.172 10.414h-13.984v-.828h6.546V27.352h-5.875v-.883h12.579v.883h-5.836V38.25h6.57v.828zm15.922-10.273h-5.07v2.789h4.367v.812h-4.367v2.992h4.671v.836h-4.671v3.594h-.852V28.805h-1.484c-.521 1.208-1.279 2.458-2.274 3.75l-.562-.688c1.317-1.625 2.354-3.695 3.109-6.21l.75.32c-.094.354-.318 1.02-.672 2h7.055v.828zm-9.469-2.828a73.937 73.937 0 0 1-.953 2.078l-.445.883v10.89h-.86v-9.36c-.911 1.287-1.531 2.105-1.859 2.454l-.461-.805c1.521-1.776 2.779-3.914 3.773-6.414l.805.274zm25.453 6.398-.414.734c-1.693-.416-3.036-.927-4.031-1.53-.948.619-2.198 1.108-3.75 1.468l-.445-.734c1.349-.282 2.494-.688 3.437-1.22a11.177 11.177 0 0 1-1.648-1.648l.593-.508c.62.75 1.219 1.316 1.797 1.696.86-.656 1.531-1.552 2.016-2.688h-3.922a9.812 9.812 0 0 1-1.555 1.938l-.554-.64c.984-.912 1.794-2.113 2.429-3.602l.782.257a6.338 6.338 0 0 1-.625 1.227h5.695v.82h-1.406c-.547 1.375-1.256 2.414-2.125 3.117 1.119.6 2.362 1.037 3.726 1.313zm-10.531-6.547a24.866 24.866 0 0 1-.422 1.719l-.281.96V39.75h-.813v-9.297c-.328.771-.802 1.594-1.422 2.469l-.484-.79c1.224-1.874 2.109-4.023 2.656-6.444l.766.14zm1.477 11.617h-.79v-9.648h.79v9.648zm8.843-2.718h-3.804v5.039h-.797v-5.04h-3.539v-.78h3.539v-1.438h.797v1.437h3.804v.782zm-5.437 1.421c-.87 1.443-1.787 2.521-2.75 3.235l-.641-.61c1.011-.708 1.912-1.731 2.703-3.07l.688.445zm5.523 2.594-.625.563c-.443-.896-1.195-1.904-2.258-3.024l.594-.547c1.016 1.016 1.779 2.019 2.289 3.008zm6.321-12.656c-.178.495-.42 1.094-.727 1.797L263 28.906v10.961h-.781v-9.492c-.599 1.005-1.203 1.87-1.813 2.594l-.492-.93c1.287-1.396 2.438-3.487 3.453-6.273l.821.32zm9.914 8.672h-4.508v5.11h-.821v-5.11h-4.781v-.875h4.781v-3.985h-2.812c-.385.745-.899 1.581-1.539 2.508l-.625-.554c1.073-1.526 1.948-3.316 2.625-5.368l.867.29c-.375.979-.685 1.742-.93 2.288h2.414v-3.28h.821v3.28h4.14v.836h-4.14v3.985h4.508v.875zm8.953-3.508c.448 0 .83.154 1.148.46.318.308.477.694.477 1.157 0 .464-.146.847-.438 1.149-.291.302-.666.453-1.125.453-.416 0-.786-.133-1.109-.399-.318-.27-.477-.682-.477-1.234 0-.516.162-.909.485-1.18.328-.27.674-.406 1.039-.406zm.968 1.625a.843.843 0 0 0-.281-.664.97.97 0 0 0-.68-.258.867.867 0 0 0-.656.281.903.903 0 0 0-.258.641c0 .23.084.445.25.648.167.204.394.305.68.305a.91.91 0 0 0 .672-.266.917.917 0 0 0 .273-.687zM53.831 25.168c-.047 1.852-.26 3.059-.642 3.621-.374.563-.905.861-1.59.896-.686.036-2.221.053-4.606.053-1.031 0-2.018-.011-2.962-.035a65.471 65.471 0 0 1-2.276-.088c-.569-.03-.94-.088-1.116-.175a1.653 1.653 0 0 1-.484-.396 1.844 1.844 0 0 1-.36-.633 2.515 2.515 0 0 1-.132-.817v-9.07h1.661V20.5h9.43v-4.333H38.653v-1.582h13.755v7.488H41.324v5.397c0 .345.161.548.484.606.322.059 2.683.088 7.084.088 1.464 0 2.317-.026 2.557-.08.246-.058.43-.29.554-.693.123-.41.2-1.351.228-2.822l1.6.598zm18.088-8.57h-5.467a12.974 12.974 0 0 1-1.766 1.873l-1.266-.958c1.36-1.166 2.273-2.359 2.742-3.578l1.53.466c-.07.252-.191.54-.36.862h4.587v1.336zm-7.954-.017h-4.79c-.469.574-1.152 1.216-2.048 1.925l-1.151-1.187c1.453-1.013 2.455-2.135 3.005-3.366l1.565.484a3.11 3.11 0 0 1-.413.808h3.832v1.336zm5.976 1.442-1.66.43c-.206-.357-.505-.753-.897-1.186l1.652-.431c.246.24.548.636.905 1.187zm-7.11.193-1.6.448c-.334-.533-.659-.981-.975-1.345l1.696-.465c.399.45.692.905.88 1.362zm.193 10.854h-4.57v.844h-1.53V19.262h1.284c.305-.534.501-.97.589-1.31l1.661.299a5.88 5.88 0 0 1-.422 1.01h2.54v4.07h-4.122v1.327h4.57v4.412zm-1.995-7.145v-1.24h-2.575v1.24h2.575zm.466 5.721V26.1h-3.04v1.546h3.04zm10.441-7.505h-3.383v1.265h2.935v5.81c0 1.054-.732 1.523-2.197 1.406l-.483-1.494c.287.012.556.012.808 0s.378-.12.378-.325v-3.955h-1.441v7.03h-1.46v-7.03h-1.529v5.757h-1.458v-7.199h2.988v-1.265h-3.542v-1.46h8.384v1.46zm6.118-3.832-1.073 1.098c-.662-.773-1.467-1.523-2.416-2.25l1.098-1.08c1.143.925 1.94 1.67 2.39 2.232zm11.434 3.867h-3.542c-.468 0-.817-.111-1.046-.334-.228-.223-.342-.633-.342-1.23v-4.246h4.43v3.314h-2.971v.931c0 .205.102.308.307.308h3.164v1.257zm-1.96-3.718v-.87h-1.511v.87h1.511zm-3.797 3.34-4.614.905-.325-1.336c.228-.076.343-.255.343-.536v-4.465h4.412v3.331h-2.97v1.442c.456-.065 1.496-.27 3.12-.616l.034 1.275zm-1.643-3.34v-.87h-1.512v.87h1.512zm7.901 11.786-.448 1.512c-1.16.03-2.426.044-3.797.044-1.488 0-2.704-.012-3.647-.035a10.167 10.167 0 0 1-2.83-.484c-.938-.299-1.738-.764-2.4-1.397-.709 1.084-1.242 1.822-1.6 2.215l-1.221-1.046c1.43-1.67 2.282-3.349 2.557-5.036H74.39v-1.53c.832-1.072 1.49-2.086 1.977-3.04h-2.162v-1.521h3.894v1.52a30.93 30.93 0 0 1-1.89 3.112h1.942c.03.234.044.477.044.73 0 1.066-.231 2.14-.694 3.225.563.55 1.216.972 1.96 1.265.744.287 1.746.452 3.006.492 1.265.036 2.4.053 3.401.053 1.465 0 2.84-.026 4.122-.079zm-.281-2.935H78.564v-1.31h2.68v-1.063H78.96V21.6h2.285v-.88h1.53v.88h2.662v-.88h1.53v.88h2.267v1.335h-2.267V24h2.742v1.31zm-4.272-1.31v-1.063h-2.663v1.063h2.663zm-2.118 2.461c-.79.498-1.901.943-3.33 1.336l-1.117-1.204c1.06-.235 2.162-.612 3.305-1.134l1.142 1.002zm6.258.308-.984 1.168a21.904 21.904 0 0 0-3.463-1.274l.975-1.169c1.002.287 2.16.712 3.472 1.275zm18.361-10.67h-6.856c-.193.504-.486 1.107-.879 1.81h6.689v12.024h-1.582v-.826H94.885v.755H93.32V17.908h5.01c.363-.521.68-1.125.95-1.81h-7.058v-1.53h15.715v1.53zm-2.628 11.566V19.35h-1.908v8.314h1.908zm-3.472-6.53V19.35H98.33v1.784h3.507zm-5.08 6.53V19.35h-1.872v8.314h1.872zm5.08-3.252v-1.82H98.33v1.82h3.507zm0 3.252v-1.846H98.33v1.846h3.507zm14.221-10.274h-5.854v-1.53h2.162c-.135-.334-.369-.747-.703-1.239l1.6-.598c.299.463.606 1.076.923 1.837h1.872v1.53zm10.028 3.542-1.081 1.265a23.548 23.548 0 0 0-3.876-2.61c-.967 1.324-2.405 2.194-4.316 2.61l-.826-1.494c1.717-.369 2.904-.923 3.56-1.661.656-.738.937-2.35.844-4.834l1.626-.044c.017.896-.021 1.781-.115 2.654.832-.463 1.65-1.075 2.452-1.837l1.152 1.134c-.897.885-1.989 1.658-3.278 2.32 1.57.856 2.856 1.688 3.858 2.497zm-6.469-3.27-1.327.967c-.387-.885-.993-1.802-1.819-2.751l1.274-.958c.738.826 1.362 1.74 1.872 2.742zm-3.972 2.32h-5.01v-1.529h5.01v1.53zm0 2.593h-5.01V21.1h5.01v1.476zm10.441 6.065-.835 1.441c-1.887-.668-3.193-1.802-3.92-3.401-.949 1.588-2.443 2.727-4.482 3.419l-.879-1.442a10.805 10.805 0 0 0 2.522-1.204c.738-.486 1.248-1.107 1.529-1.863.288-.756.417-2.212.387-4.368l1.626.035a24.927 24.927 0 0 1-.132 3.067 16.397 16.397 0 0 0 2.488-1.837l1.133 1.117c-.709.714-1.711 1.453-3.005 2.214.222.563.682 1.114 1.379 1.653.704.539 1.433.928 2.189 1.169zm-6.434-3.279-1.344.906a12.57 12.57 0 0 0-2.022-2.83l1.318-.897c.856.885 1.539 1.825 2.048 2.821zm-3.99 4.193h-1.564v-.642h-1.82v1.002h-1.626V23.78h5.01v5.775zm-1.564-2.154V25.31h-1.82V27.4h1.82z" fill="#292929"/>
    <path d="M11.225 10C5.025 10 0 15.025 0 21.224c0 6.2 5.025 11.225 11.225 11.225 6.199 0 11.224-5.025 11.224-11.224 0-6.2-5.025-11.225-11.225-11.225zm0 2.172a9.047 9.047 0 0 1 9.052 9.052 9.047 9.047 0 0 1-9.053 9.053 9.047 9.047 0 0 1-9.052-9.053 9.047 9.047 0 0 1 9.053-9.052zm6.345 5.896-1.02-1.028a.543.543 0 0 0-.768-.003l-6.397 6.346-2.707-2.728a.543.543 0 0 0-.768-.003l-1.028 1.02a.543.543 0 0 0-.003.768l4.109 4.142a.543.543 0 0 0 .768.003l7.811-7.748a.543.543 0 0 0 .003-.769z" fill="#868047"/>
</svg>
