<svg width="311" height="44" fill="none" xmlns="http://www.w3.org/2000/svg">
    <path d="M136 44V0" stroke="#868047"/>
    <path d="M161.867 14.383c-.099 1.849-.302 2.974-.609 3.375-.307.4-.784.627-1.43.68-.646.052-2.5.078-5.562.078-1.37 0-2.36-.008-2.969-.024-.609-.01-1.044-.156-1.305-.437-.255-.282-.383-.706-.383-1.274V8.883h.86v2.031h9.312V6.125h-11.179v-.86h12.031v6.477h-10.164v5.297a.64.64 0 0 0 .164.422.61.61 0 0 0 .39.21c.151.017 1.032.024 2.641.024 3.99 0 6.198-.07 6.625-.21.432-.146.669-1.282.711-3.407l.867.305zm15.899 1.71h-8.321V9.267c-.453.645-.804 1.093-1.054 1.343l-.539-.656c1.281-1.531 2.229-3.286 2.843-5.265l.797.21c-.265.782-.562 1.54-.89 2.274h2.828a12.086 12.086 0 0 0-.719-2l.805-.258c.364.932.635 1.685.812 2.258h3.297v.781h-3.602v1.79h3.25v.773h-3.25v1.898h3.25v.79h-3.25v2.124h3.743v.766zm-4.571-6.35v-1.79h-2.914v1.79h2.914zm0 2.671v-1.898h-2.914v1.898h2.914zm0 2.914v-2.125h-2.914v2.125h2.914zm-5.843-8.305-.579.579a13.453 13.453 0 0 0-2.218-2.243l.523-.593c.974.765 1.732 1.518 2.274 2.257zm10.765 10.72-.187.82c-2.089.015-3.982 0-5.68-.047-1.693-.042-2.966-.22-3.82-.532-.849-.317-1.55-.765-2.102-1.343-.443.734-1.039 1.458-1.789 2.172l-.625-.524c1.557-1.5 2.57-3.2 3.039-5.102h-2.484v-.789c.698-.838 1.495-1.947 2.39-3.328h-2.742v-.78h3.735v.78a77.051 77.051 0 0 1-2.305 3.328h2.25v.79a10.268 10.268 0 0 1-1.086 2.78c.365.381.789.696 1.273.946.49.245.967.422 1.43.531.464.11 1.266.193 2.406.25 1.141.052 2.49.078 4.047.078.787 0 1.537-.01 2.25-.03zm6.516-12.43c-.959 1.192-2.297 2.302-4.016 3.328l-.484-.657c1.75-1.078 3.021-2.14 3.812-3.187l.688.516zm8.64 1.07h-7.601v-.844h7.601v.844zM185 8.493a16.496 16.496 0 0 1-1.555 2.194v8.18h-.828v-7.203a22.735 22.735 0 0 1-2.078 1.922l-.437-.656c1.989-1.75 3.388-3.383 4.195-4.899l.703.461zm9.055 1.937h-2.524v7.11c0 .348-.091.622-.273.82a1.05 1.05 0 0 1-.61.367c-.229.046-.69.07-1.382.07-.594 0-1.073-.01-1.438-.031l-.336-.86c.453.021.93.032 1.43.032.932 0 1.45-.019 1.555-.055.104-.042.156-.136.156-.281V10.43H185v-.844h9.055v.844zm16 5.523c-.167 1.886-.599 2.828-1.297 2.828-.615 0-1.125-.708-1.531-2.125-.803.875-1.566 1.516-2.289 1.922l-.43-.594a12.426 12.426 0 0 0 2.476-2.289c-.229-1.474-.362-3.286-.398-5.437h-5.781v-.774h1.523a25.088 25.088 0 0 0-.516-2.398h-.554v-.734h2.015c-.083-.282-.286-.683-.609-1.204l.703-.382c.276.448.531.976.766 1.586h1.859v.734h-.64a17.2 17.2 0 0 1-.399 2.398h1.602V4.883h.781c-.021 2-.031 3.541-.031 4.625h2.656v.75h-2.609c0 1.786.091 3.237.273 4.351.458-.822.88-1.932 1.266-3.328l.687.258c-.463 1.75-1.052 3.177-1.766 4.281.094.568.245 1.055.454 1.461.213.401.38.602.5.602.088 0 .195-.219.32-.656.125-.438.213-1.006.266-1.704l.703.43zm-5.5-8.867h-1.938c.229.906.393 1.706.492 2.398h1.063c.135-.63.263-1.43.383-2.398zm-3.797-.89h-.641v12.656h-.75V16.21c-1.271.568-2.305.982-3.101 1.242l-.258-.703c.443-.156.747-.268.914-.336V6.195h-.688v-.773h4.524v.773zm-1.391 2.492V6.194h-1.679v2.492h1.679zm0 3.523V9.453h-1.679v2.758h1.679zm0 3.195v-2.445h-1.679v3.148c.291-.099.851-.333 1.679-.703zm10.305-7.117-.719.305a13.005 13.005 0 0 0-.867-2.336l.703-.305c.422.886.716 1.664.883 2.336zm-4.242 8.367h-3.868V11.36h3.868v5.297zm-.766-3.086v-1.476h-2.336v1.476h2.336zm0 2.352v-1.617h-2.336v1.617h2.336zm18.094-10.75c-.339.448-.86.922-1.563 1.422l-.851-.438a8.914 8.914 0 0 0 1.679-1.375l.735.39zm-4.891 1.101-.805.336c-.395-.479-.929-.971-1.601-1.476l.883-.352c.609.49 1.117.987 1.523 1.492zm8.094 1.375H212.07v-.796h13.891v.796zm-1.234 10c0 .292-.073.534-.219.727a.871.871 0 0 1-.531.367c-.209.047-.618.07-1.227.07-.349 0-.724-.01-1.125-.03l-.305-.876 2.196.078c.265.016.398-.138.398-.46V8.897h.813v8.75zm-6.032.11c0 .297-.091.541-.273.734-.182.198-.435.302-.758.313-.323.01-.664.015-1.023.015-.297 0-.573-.008-.829-.023l-.296-.86c.411.042 1.078.063 2 .063.088 0 .169-.042.242-.125a.406.406 0 0 0 .109-.273v-2.32h-3.633c-.276 1.452-.789 2.669-1.539 3.648l-.64-.578c1.015-1.334 1.523-3.258 1.523-5.774V9.04h5.117v8.719zm-.828-6.063V9.86h-3.461v1.836h3.461zm0 2.797v-1.96h-3.461c0 .41-.031 1.064-.094 1.96h3.555zm3.695 1.649h-.804V9.28h.804v6.86zm15.852-7.04-.719.579c-.812-1.459-2.013-2.91-3.601-4.352l.656-.594c1.51 1.396 2.732 2.852 3.664 4.368zm1.492 5.157c-.062 1.01-.156 1.854-.281 2.531-.12.672-.26 1.11-.422 1.313a1.24 1.24 0 0 1-.648.421c-.271.079-.904.118-1.899.118-.739 0-1.357-.019-1.851-.055-.49-.031-.844-.148-1.063-.352-.213-.198-.32-.484-.32-.859V8.492h.867v8.64a.62.62 0 0 0 .133.391c.088.115.177.183.266.204.088.02.489.033 1.203.039l2.078.007c.161 0 .323-.067.484-.203.162-.14.294-.607.399-1.398.104-.792.151-1.531.14-2.219l.914.305zm3.102 1.82-.899.32c-.401-1.776-1.221-3.802-2.461-6.078l.782-.46c1.218 2.4 2.078 4.473 2.578 6.218zm-10.992-5.953c-.657 2.912-1.404 5.206-2.243 6.883l-.781-.547c.906-1.625 1.625-3.826 2.156-6.602l.868.266zm27.023 8.367h-9.219v-.781H253v-2.29h-3.57v-.796H253v-1.969h-3.438V5.22h7.743v7.437h-3.493v1.969h3.68v.797h-3.68v2.289h4.227v.781zm-1.555-9.976V6h-2.672v2.516h2.672zm-3.484 0V6h-2.625v2.516H253zm3.484 3.328V9.297h-2.672v2.547h2.672zm-3.484 0V9.297h-2.625v2.547H253zm-4.156 3.164c-1.156.661-2.667 1.46-4.532 2.398l-.351-.703c.979-.469 1.721-.851 2.227-1.148v-4.422h-1.86v-.781h1.86V6.687h-2.118v-.75h4.774v.75h-1.86v3.665h1.664v.78h-1.664v3.985c.547-.27 1.128-.596 1.743-.976l.117.867zm25.054-5.906h-1.14v2.273h-3.649v1.328h3.969v.781h-3.969v1.313h4.516v.789h-4.516v1.586h-.797v-1.586h-3.968v-.79h3.968v-1.312h-3.359v-.78h3.359v-1.329h-3.054v-.797h3.054V9.102h-3.953v-.813h3.953V6.9h-3.039v-.79h3.039V4.914h.797V6.11h3.649v2.18h1.14v.813zm-1.953-.813V6.93h-2.836v1.36h2.836zm0 2.29V9.101h-2.836v1.476h2.836zm2.078 7.194-.195.852c-.963.026-1.88.04-2.75.04-1.88 0-3.221-.05-4.023-.15a11.2 11.2 0 0 1-2.367-.546 5.382 5.382 0 0 1-2.071-1.344c-.76.958-1.482 1.706-2.164 2.242l-.57-.656A11.135 11.135 0 0 0 262.008 16c-.594-.802-1.094-1.852-1.5-3.148l.75-.305c.302 1.13.7 2.02 1.195 2.672.563-1.167.878-2.534.945-4.102h-2.96v-.75c.989-1.245 1.976-2.68 2.96-4.305h-3.281v-.796h4.18v.796c-.974 1.641-1.909 3.055-2.805 4.243h2.774c-.105 2.354-.516 4.221-1.235 5.601.505.516 1.073.92 1.703 1.211a7.019 7.019 0 0 0 2.032.578c.718.089 2.135.133 4.25.133 1.052 0 2.054-.018 3.007-.055zm7.727-10.507h-5.664V6.43h2.5a6.211 6.211 0 0 0-.641-1.407l.735-.335c.317.515.578 1.096.781 1.742h2.289v.836zm8.195 3.359h-1.554c-.766 0-1.149-.367-1.149-1.102V6.078h-2.82c-.026 1.474-.224 2.57-.594 3.29a4.244 4.244 0 0 1-1.516 1.687l-.624-.578a3.935 3.935 0 0 0 1.46-1.649c.344-.703.503-1.885.477-3.547h4.414v4c0 .36.177.54.531.54h1.375v.804zm-8.625-1.04h-4.914v-.804h4.914v.805zm-.015 2.352h-4.914v-.804h4.914v.805zm8.703 6.243-.477.687c-1.62-.536-2.87-1.15-3.75-1.844-1.026.73-2.304 1.316-3.836 1.758l-.5-.687c1.61-.474 2.821-1.018 3.633-1.633-1.104-1.016-1.909-2.375-2.414-4.078h-.547v-.813h6.703v.813c-.687 1.87-1.487 3.234-2.398 4.094.906.65 2.101 1.218 3.586 1.703zm-2.094-5.797h-4.398c.552 1.573 1.302 2.758 2.25 3.555.953-.88 1.669-2.066 2.148-3.555zm-6.836 6.094h-.828v-.875h-2.898v1.18h-.829v-5.329h4.555v5.024zm-.828-1.696v-2.476h-2.898v2.476h2.898zm18.562-3.484c-.385-.203-.578-.461-.578-.774 0-.15.065-.304.196-.46.13-.162.315-.243.554-.243.5 0 .75.328.75.985 0 .536-.315 1.054-.945 1.554l-.336-.257c.24-.318.359-.586.359-.805zM161.898 29.102h-1.14v2.273h-3.649v1.328h3.969v.781h-3.969v1.313h4.516v.789h-4.516v1.586h-.797v-1.586h-3.968v-.79h3.968v-1.312h-3.359v-.78h3.359v-1.329h-3.054v-.797h3.054v-1.476h-3.953v-.813h3.953V26.9h-3.039v-.79h3.039v-1.195h.797v1.195h3.649v2.18h1.14v.813zm-1.953-.813v-1.36h-2.836v1.36h2.836zm0 2.29v-1.477h-2.836v1.476h2.836zm2.078 7.194-.195.852c-.963.026-1.88.04-2.75.04-1.88 0-3.221-.05-4.023-.15a11.2 11.2 0 0 1-2.367-.546 5.382 5.382 0 0 1-2.071-1.344c-.76.958-1.482 1.706-2.164 2.242l-.57-.656A11.135 11.135 0 0 0 150.008 36c-.594-.802-1.094-1.852-1.5-3.148l.75-.305c.302 1.13.7 2.02 1.195 2.672.563-1.167.878-2.534.945-4.102h-2.96v-.75c.989-1.245 1.976-2.68 2.96-4.305h-3.281v-.796h4.18v.797c-.974 1.64-1.909 3.054-2.805 4.242h2.774c-.105 2.354-.516 4.221-1.235 5.601.505.516 1.073.92 1.703 1.211a7.019 7.019 0 0 0 2.032.578c.718.089 2.135.133 4.25.133 1.052 0 2.054-.018 3.007-.055zm16.016.61h-13.922v-.781h4.422a29.614 29.614 0 0 0-2.164-8.352l.5-.352h-2.211v-.804h6.367c-.323-.98-.786-1.998-1.39-3.055l.828-.258a20.346 20.346 0 0 1 1.445 3.313h5.563v.804h-2.079l.485.383c-.735 3.313-1.524 6.086-2.367 8.32h4.523v.782zm-2.961-9.485h-7.836c1.156 3.51 1.87 6.412 2.141 8.704h3.219c.911-2.302 1.737-5.204 2.476-8.704zm13.313-.851-.625.594c-.709-1.037-1.69-2.115-2.946-3.235l.625-.61c1.417 1.319 2.399 2.402 2.946 3.25zm3.281-1.836c-1.422 4.448-3.63 7.721-6.625 9.82v1.328c0 .162.081.274.242.336.162.063.807.094 1.938.094 1.067 0 1.752-.039 2.054-.117.302-.078.524-.45.664-1.117.146-.672.227-1.422.243-2.25l.843.273c-.015.89-.12 1.69-.312 2.399-.193.708-.469 1.161-.828 1.359-.355.203-1.133.305-2.336.305-1.568 0-2.524-.097-2.867-.29-.344-.187-.516-.502-.516-.945v-.797a23.06 23.06 0 0 1-3.649 1.79l-.531-.75c1.63-.615 3.024-1.303 4.18-2.063v-7.844h.875v7.172c2.562-1.833 4.51-4.836 5.844-9.008l.781.305zm-8.93 2.719c-.437 2.614-1.065 4.661-1.883 6.14l-.851-.336c.896-1.567 1.521-3.541 1.875-5.922l.859.118zm11.188 7.117-.821.367A31.071 31.071 0 0 0 191 30.211l.766-.352a36.577 36.577 0 0 1 2.164 6.188zm15.953-10h-4.547v1.586H209v3.742h-11.805v-3.742h3.664v-1.586h-4.531v-.813h13.555v.813zm-5.399 1.586v-1.586h-2.796v1.586h2.796zm3.688 2.945v-2.164h-2.836v2.164h2.836zm-3.688 0v-2.164h-2.796v2.164h2.796zm-3.625 0v-2.164h-2.82v2.164h2.82zm9.164 3.266h-3.711c-.578.99-1.192 1.789-1.843 2.398 2.187.651 3.953 1.284 5.297 1.899l-.477.726a33.142 33.142 0 0 0-5.57-2c-1.771 1.094-4.128 1.748-7.071 1.961l-.445-.844c2.62-.145 4.753-.63 6.399-1.453-1.5-.37-2.946-.685-4.336-.945a43.14 43.14 0 0 0 1.867-1.742h-4.031v-.774h4.773c.38-.37.794-.843 1.242-1.422l.867.258c-.172.24-.487.628-.945 1.164h3.711c.083-.13.224-.416.422-.86l.844.08c-.042.155-.149.416-.321.78h3.328v.774zm-4.703 0h-4a22.9 22.9 0 0 1-1.297 1.273c1.131.245 2.305.529 3.524.852a8.827 8.827 0 0 0 1.773-2.125zm12.305 4.648h-.805v-1.375h-3.453v1.696h-.812V27.468h1.484c.401-.714.781-1.63 1.141-2.75l.797.164c-.188.562-.55 1.424-1.086 2.586h2.734v11.023zm-.805-6.781v-3.438h-3.453v3.438h3.453zm0 4.594v-3.79h-3.453v3.79h3.453zm8.821-8.82c-.063 2.395-.18 4.622-.352 6.68-.167 2.056-.336 3.267-.508 3.632-.172.364-.393.622-.664.773-.265.157-.773.235-1.523.235-.328 0-.758-.008-1.289-.024l-.258-.812c.437.015.909.023 1.414.023.474 0 .776-.005.906-.015.136-.01.276-.076.422-.196a1.08 1.08 0 0 0 .313-.43c.062-.166.145-.78.25-1.843.104-1.063.19-2.232.257-3.508.068-1.281.118-2.523.149-3.727h-4.172a22.004 22.004 0 0 1-1.938 3.165l-.656-.461a17.096 17.096 0 0 0 2.977-6.149l.812.211c-.26.854-.552 1.67-.875 2.445h4.735zm-2.946 7.171-.672.477c-.515-1.188-1.289-2.43-2.32-3.727l.688-.445a15.786 15.786 0 0 1 2.304 3.695zm19.391 3.422h-13.984v-.828h6.546V26.352h-5.875v-.883h12.579v.883h-5.836V37.25h6.57v.828zm15.922-10.273h-5.07v2.789h4.367v.812h-4.367v2.992h4.671v.836h-4.671v3.594h-.852V27.805h-1.484c-.521 1.208-1.279 2.458-2.274 3.75l-.562-.688c1.317-1.625 2.354-3.695 3.109-6.21l.75.32c-.094.354-.318 1.02-.672 2h7.055v.828zm-9.469-2.828a73.937 73.937 0 0 1-.953 2.078l-.445.883v10.89h-.86v-9.36c-.911 1.287-1.531 2.105-1.859 2.454l-.461-.805c1.521-1.776 2.779-3.914 3.773-6.414l.805.274zm18.891 3.101-.688.485c-.198-.365-.372-.633-.523-.805-2.542.297-4.409.5-5.602.61l-.242-.626c.906-.698 1.664-1.674 2.273-2.93l.868.211c-.521 1.021-1.071 1.842-1.649 2.461 1.547-.15 2.805-.304 3.774-.46a8.143 8.143 0 0 0-.961-1.055l.687-.43c.651.604 1.339 1.45 2.063 2.54zm5.968 1.203h-4.218c-.344 0-.618-.099-.821-.297-.203-.203-.304-.484-.304-.843v-3.313h.789v1.11h4.351v.78h-4.351v1.407c0 .094.041.188.125.281.083.094.169.14.258.14h4.171v.735zm-6.687 4.157c0 .4-.133.697-.399.89-.265.188-.77.281-1.515.281-.214 0-.44-.005-.68-.015l-.32-.75c1.068.036 1.687.02 1.859-.047.172-.068.258-.188.258-.36v-.89c-1.016.25-2.226.51-3.633.781l-.367-.562a5.611 5.611 0 0 1-.852 2.132l-.765-.453c.641-.77.961-1.932.961-3.484V29.1h5.453v4.337zm-.797-1.665v-1.898h-3.812v.586c1.026.073 2.013.195 2.96.367l-.242.758a30.172 30.172 0 0 0-2.75-.367c-.015.437-.052.89-.109 1.36 1.578-.272 2.896-.54 3.953-.806zm7.648 1.25c-.026.495-.135.868-.328 1.118-.192.244-.403.4-.632.468-.23.063-.787.094-1.672.094-.62 0-1.141-.018-1.563-.055-.422-.041-.698-.106-.828-.195a1.207 1.207 0 0 1-.344-.375c-.093-.167-.14-.4-.14-.703v-3.36h.804v1.07h4.368v.774h-4.368v1.516c0 .23.076.38.227.453.156.073.698.11 1.625.11.463 0 .862-.01 1.195-.032.334-.026.56-.125.68-.297.125-.177.187-.474.187-.89l.789.304zm-4.976 3.344-.609.547c-.365-.417-.951-.93-1.758-1.539l.601-.547c.724.49 1.313 1.003 1.766 1.54zm2.492.125c-.047.505-.143.906-.289 1.203-.146.297-.312.503-.5.617-.182.12-.583.201-1.203.243-.62.047-1.362.07-2.227.07-1.432 0-2.32-.078-2.664-.234-.338-.157-.507-.47-.507-.938v-2.219h.82v2.047c0 .266.12.427.359.485.24.052.935.078 2.086.078.891 0 1.568-.021 2.031-.063.469-.041.758-.112.868-.21.109-.1.205-.277.289-.532.083-.26.125-.542.125-.844l.812.297zm2.852 1.156-.641.532c-.667-.938-1.312-1.706-1.937-2.305l.609-.531a14.932 14.932 0 0 1 1.969 2.304zm-11.157-1.773c-.609 1.031-1.286 1.846-2.031 2.445l-.719-.515c.771-.584 1.464-1.362 2.079-2.336l.671.406zm27.079-8.93h-11.555v4.461c0 2.901-.586 5.297-1.758 7.188l-.727-.532c1.12-1.74 1.68-4.229 1.68-7.468V26.14h5.906a8.362 8.362 0 0 0-.781-1.196l.93-.226c.333.515.609.99.828 1.422h5.477v.804zm0 2.563h-2.758v2.601h-5.742v-2.601h-2.43v-.79h2.43v-1.312h.836v1.313h4.078v-1.313h.828v1.313h2.758v.789zm-3.586 1.805v-1.805h-4.078v1.805h4.078zm3.953 6.796-.516.774c-2.182-.36-3.974-.867-5.375-1.524-1.625.73-3.604 1.214-5.937 1.453l-.414-.828c2.291-.177 4.083-.544 5.375-1.101-1.245-.76-2.201-1.742-2.868-2.946h-.601v-.835h8.094v.836c-.625 1.218-1.547 2.19-2.766 2.914 1.198.52 2.867.94 5.008 1.257zm-3.25-4.172h-5.492a6.53 6.53 0 0 0 2.789 2.493c1.239-.683 2.14-1.513 2.703-2.492zm12.086-3.687c.448 0 .83.154 1.148.46.318.308.477.694.477 1.157 0 .464-.146.847-.438 1.149-.291.302-.666.453-1.125.453-.416 0-.786-.133-1.109-.399-.318-.27-.477-.682-.477-1.234 0-.516.162-.909.485-1.18.328-.27.674-.406 1.039-.406zm.968 1.625a.843.843 0 0 0-.281-.664.97.97 0 0 0-.68-.258.867.867 0 0 0-.656.281.903.903 0 0 0-.258.641c0 .23.084.445.25.648.167.204.394.305.68.305a.91.91 0 0 0 .672-.266.917.917 0 0 0 .273-.687zM53.866 27.466H38.17v-1.617h6.46V12.182h1.679v5.405h6.785v1.582h-6.785v6.68h7.558v1.617zm18.035-4.535h-6.565v3.278c0 .416-.129.765-.387 1.046-.252.281-.524.451-.817.51-.293.064-.967.096-2.022.096-.468 0-1.069-.006-1.801-.017l-.466-1.582c.996.035 1.793.052 2.39.052.616 0 1.008-.011 1.178-.035.176-.023.264-.222.264-.597V22.93h-7.4v-1.565h7.4v-2.663h-6.443v-1.582h6.443v-2.347c-1.705.17-3.774.296-6.205.378l-.51-1.476c5.15-.135 9.542-.645 13.175-1.53l.923 1.372c-1.284.351-3.19.7-5.722 1.045v2.558h5.572v1.582h-5.572v2.663H71.9v1.565zm6.592-8.535-1.116 1.152c-.65-.756-1.6-1.53-2.848-2.32l1.064-1.17a12.903 12.903 0 0 1 2.9 2.338zm11.461 9.598-.808 1.275a32.59 32.59 0 0 0-3.657-2.55v2.892h-1.564v-3.199c-1.195 1.207-2.467 2.21-3.815 3.006l-1.028-1.266c1.863-.984 3.267-2.062 4.21-3.234h-3.129V16.4h3.762v-1.186h-4.333V13.79h4.333v-1.53h1.564v1.53h4.377v1.424H85.49V16.4h3.78v4.518h-3.78v.193c1.852 1.02 3.34 1.98 4.465 2.883zm-2.232-4.465V17.71h-2.233v1.82h2.233zm-3.797 0V17.71h-2.233v1.82h2.233zm6.1 6.61-.466 1.564c-.739.024-1.603.035-2.593.035-1.33 0-2.722-.02-4.175-.061-1.447-.035-2.587-.197-3.419-.484a7.15 7.15 0 0 1-2.25-1.239 18.234 18.234 0 0 1-1.635 2.162l-1.283-.993c1.565-1.623 2.56-3.343 2.988-5.16h-2.698v-1.476a19.749 19.749 0 0 0 2.47-3.067h-2.742v-1.45h4.596v1.45c-.586.955-1.362 1.977-2.329 3.067h2.347V22a10.885 10.885 0 0 1-.958 2.663c1.172 1.055 2.695 1.582 4.57 1.582 2.526 0 5.051-.035 7.576-.105zM107.9 14.792H95.359v5.906c0 2.947-.618 5.373-1.854 7.278l-1.354-.906c1.067-1.623 1.6-3.747 1.6-6.372v-7.321h5.906a9.155 9.155 0 0 0-.685-.94l1.749-.378c.234.398.486.838.756 1.318h6.424v1.415zm-.175 3.085h-2.646v2.646h-6.952v-2.646h-2.162v-1.406h2.162v-1.064h1.547v1.064h3.832v-1.064h1.573v1.064h2.646v1.406zm-4.219 1.257v-1.257h-3.832v1.257h3.832zm4.5 7.268-.484 1.53c-2.15-.123-4.171-.572-6.064-1.345-1.553.65-3.39 1.113-5.51 1.389l-.739-1.53c1.834-.1 3.334-.372 4.5-.817a6.495 6.495 0 0 1-2.408-2.663h-.791v-1.424h9.448v1.424c-.621.96-1.553 1.848-2.795 2.663 1.365.48 2.98.738 4.843.773zm-4.087-3.436h-4.764c.487.738 1.231 1.4 2.233 1.986 1.142-.656 1.986-1.318 2.531-1.986zm12.173-4.808-.976 1.099a7.726 7.726 0 0 0-1.116-1.433v10.02h-1.582V12.208h1.582v3.577a14.933 14.933 0 0 1 2.092 2.373zm9.756 3.155h-5.617c-.439 2.672-2.001 4.899-4.684 6.68l-1.152-1.283c2.397-1.441 3.783-3.24 4.158-5.396h-3.736v-1.565h3.973c.064-.832.105-1.972.123-3.419h-3.269v-1.556h3.251c.042-.92.053-1.77.036-2.548h1.59c.018.931.018 1.78 0 2.548h4.105v4.975h1.222v1.565zm-2.848-1.564V16.33h-2.461c-.023 1.512-.061 2.651-.114 3.419h2.575zm-10.995-3.709c-.076 1.723-.317 3.211-.721 4.465l-1.222-.65c.358-1.05.581-2.418.668-4.105l1.275.29zm14.001 10.89-1.275 1.08c-1.224-1.575-2.701-3.064-4.429-4.464l1.134-1.099c1.834 1.389 3.357 2.883 4.57 4.483z" fill="#292929"/>
    <path d="M11.225 9C5.025 9 0 14.025 0 20.224c0 6.2 5.025 11.225 11.225 11.225 6.199 0 11.224-5.025 11.224-11.225C22.45 14.025 17.424 9 11.224 9zm0 2.172a9.047 9.047 0 0 1 9.052 9.052 9.047 9.047 0 0 1-9.053 9.053 9.047 9.047 0 0 1-9.052-9.053 9.047 9.047 0 0 1 9.053-9.052zm6.345 5.896-1.02-1.028a.543.543 0 0 0-.768-.003l-6.397 6.346-2.707-2.728a.543.543 0 0 0-.768-.003l-1.028 1.02a.543.543 0 0 0-.003.768l4.109 4.142a.543.543 0 0 0 .768.003l7.811-7.748a.543.543 0 0 0 .003-.769z" fill="#868047"/>
</svg>
