<svg width="311" height="44" fill="none" xmlns="http://www.w3.org/2000/svg">
    <path d="M136 44V0" stroke="#868047"/>
    <path d="M161.289 7.031c-1.885 1.912-3.784 3.485-5.695 4.719v6.836c0 .474-.138.8-.414.977-.276.182-.831.273-1.664.273-.454 0-.914-.023-1.383-.07l-.25-.86c.286.042 1.086.063 2.398.063.11 0 .211-.05.305-.149a.47.47 0 0 0 .141-.312V11.32c1.984-1.323 3.76-2.752 5.328-4.289h-11.36v-.86h12.594v.86zm9.328 11.617c0 .318-.109.592-.328.82-.219.23-.633.345-1.242.345h-.899l-.296-.813c.234.026.494.04.781.04.531 0 .859-.04.984-.118.13-.078.195-.216.195-.414V16.07h-3.882a12.264 12.264 0 0 1-1.086 3.758l-.758-.383c.307-.573.575-1.325.805-2.258.234-.937.351-2.338.351-4.203V9.625h2.61c.427-.495.901-1.135 1.421-1.922h-2.5c-.838.958-1.606 1.711-2.304 2.258l-.477-.672c1.584-1.302 2.646-2.482 3.188-3.539l.781.273a4.833 4.833 0 0 1-.578.93h2.851v.75a27.592 27.592 0 0 1-1.343 1.922h1.726v9.023zm-.805-6.289v-1.984h-1.453v1.984h1.453zm-2.281 0v-1.984h-1.492v1.984h1.492zm2.281 2.93v-2.164h-1.453v2.164h1.453zm-2.281 0v-2.164h-1.492c0 .698-.021 1.42-.062 2.164h1.554zm10.125-8.976c.005.354-.023 1.093-.086 2.218-.062 1.125-.211 1.831-.445 2.117-.229.287-.698.43-1.406.43a5.99 5.99 0 0 1-.61-.031l-.289-.766c.245.021.5.031.766.031.557 0 .893-.114 1.008-.343.12-.235.213-1.193.281-2.875h-2.242c-.11 2.104-1.138 3.554-3.086 4.351l-.485-.57c1.844-.797 2.766-2.057 2.766-3.781h-2.156v-.782h5.984zm.383 10.546h-2.914v2.993h-.797v-2.993h-3.023v-.804h3.023v-2.047h-1.758c-.218.437-.497.911-.836 1.422l-.703-.414a9.475 9.475 0 0 0 1.555-3.422l.734.258a15.27 15.27 0 0 1-.414 1.39h1.422v-1.781h.797v1.781h2.578v.766h-2.578v2.047h2.914v.804zm14.578-6.96h-11.055v-3.68h11.055v3.68zm-.851-2.133v-.907h-9.407v.907h9.407zm0 1.507V8.36h-9.407v.914h9.407zm2.086 2.172h-13.555v-.64h13.555v.64zm.125 7.985h-13.86v-.64h6.516v-1.056h-5.555v-.625h5.555v-1.023h-5.086v-3.711h11.039v3.71h-5.125v1.024h5.57v.625h-5.57v1.055h6.516v.64zm-2.211-5.5v-.914h-4.305v.914h4.305zm-5.133 0v-.914h-4.289v.914h4.289zm5.133 1.53v-.92h-4.305v.92h4.305zm-5.133 0v-.92h-4.289v.92h4.289zm14.445.29h-3.18l.571.398a12.755 12.755 0 0 1-1.774 3.665l-.687-.461c.693-1.053 1.273-2.253 1.742-3.602h-1.117V6.172h4.445v9.578zm-.812-6.719V6.97h-2.836V9.03h2.836zm0 2.836V9.812h-2.836v2.055h2.836zm0 3.117v-2.351h-2.836v2.351h2.836zm9.773 4.274-.609.61c-1.037-.542-2.06-1.391-3.071-2.548-.974 1.052-2.028 1.888-3.164 2.508l-.453-.672a10.907 10.907 0 0 0 3.125-2.492c-.989-1.661-1.62-3.667-1.89-6.016h-.547c-.016 4.391-.644 7.459-1.883 9.204l-.656-.5c.505-.683.919-1.698 1.242-3.047.323-1.354.484-3.459.484-6.313V6.203h7.164V7h-6.351v2.867h5.679c-.406 2.948-1.156 5.203-2.25 6.766.719.984 1.779 1.86 3.18 2.625zm-1.851-8.61h-3.415c.25 2.13.784 3.891 1.602 5.282.786-1.235 1.391-2.995 1.813-5.282zm-7.157 7.665-.765.398a6.785 6.785 0 0 0-1.071-2.125l.657-.438c.546.698.94 1.42 1.179 2.165zm24.641-6.625h-.813V8.82h-5.367v2.211h-.812v-2.21h-5.438v2.82h-.82V8.039h6.258V6.938h-5.727v-.805h12.156v.804h-5.617V8.04h6.18v3.649zm-7.68-1.727-.367.656c-1.38-.37-2.57-.578-3.57-.625l.289-.703c1.458.167 2.674.39 3.648.672zm6.094.062c-1.115.313-2.315.51-3.602.594l-.312-.703c1.323-.068 2.526-.26 3.609-.578l.305.687zm-6.047 1.586c-1.135.266-2.419.47-3.851.61l-.258-.703a26.698 26.698 0 0 0 3.804-.563l.305.656zm6.258.047-.367.688a21.678 21.678 0 0 0-3.571-.688l.336-.687c1.615.224 2.815.453 3.602.687zm1.789 2.672-.398.75c-1.933-.448-3.464-.922-4.594-1.422v.656h-4.188v-.609c-1.547.636-3.036 1.089-4.468 1.36l-.415-.735c3.157-.61 5.529-1.58 7.118-2.914l.804.367c-.13.11-.221.19-.273.242 1.604.99 3.742 1.758 6.414 2.305zm-5.148-.75c-.719-.333-1.36-.68-1.922-1.039-.521.375-1.133.721-1.836 1.04h3.758zm3.148 2.445c-.938.704-2.19 1.451-3.758 2.243.469.192 1.146.513 2.031.96l-.507.672c-1.829-.994-3.954-1.778-6.375-2.351l.468-.703c1.552.432 2.677.778 3.375 1.039a20.178 20.178 0 0 0 3.391-1.86h-9.149v-.75h10.524v.75zm17.906-1.89h-11.695V9.336a17.837 17.837 0 0 1-1.68 1.726l-.64-.539a16.21 16.21 0 0 0 3.632-4.82l.829.258-.797 1.406h3.89c-.13-.312-.377-.765-.742-1.36l.789-.241c.287.427.552.96.797 1.601h5.422v.805h-5.438v1.133h4.735v.765h-4.735v1.25h4.75v.75h-4.75v1.297h5.633v.766zm-6.445-4.828V8.172h-4.422v1.133h4.422zm0 1.984V10.07h-4.422v1.22h4.422zm0 2.078V12.07h-4.422v1.297h4.422zm5.242 6.383h-.828v-.844h-9.055v.844h-.836v-4.445h10.719v4.445zm-.828-1.633v-2h-9.055v2h9.055zm18.062-2.32h-6.492v4.07h-.851v-4.07h-6.578V15h6.578v-1.313h-5.875v-.75h5.875v-1.25h-6.211v-.78h4.179a6.664 6.664 0 0 0-.898-1.25l.609-.384h-4.257V8.47h5.281V5.883h.82v2.586h1.805V5.883h.797v2.586h5.187v.804h-4.164l.578.399a5.585 5.585 0 0 1-.797 1.234h4.047v.781h-6.125v1.25h5.742v.75h-5.742V15h6.492v.797zm-4.398-6.524h-5.07c.489.672.841 1.217 1.054 1.633h3.008c.511-.661.847-1.205 1.008-1.633zm-5.875-1.57-.703.414c-.391-.515-.914-1.052-1.57-1.61l.726-.5a12.166 12.166 0 0 1 1.547 1.696zm8.992-1.297a7.657 7.657 0 0 1-1.617 1.664l-.734-.414c.713-.61 1.247-1.148 1.601-1.617l.75.367zm1.297 12.547-.477.656c-1.635-1.062-3.192-1.906-4.671-2.53l.476-.642c1.802.782 3.36 1.62 4.672 2.516zm-8.781-1.937c-1.177.927-2.703 1.742-4.578 2.445l-.532-.703c2.016-.719 3.516-1.482 4.5-2.29l.61.548zm16.367 2.476h-.805v-1.375h-3.453v1.695h-.812V8.47h1.484c.401-.714.781-1.63 1.141-2.75l.797.164c-.188.562-.55 1.424-1.086 2.586h2.734v11.023zm-.805-6.781V9.273h-3.453v3.438h3.453zm0 4.594v-3.79h-3.453v3.79h3.453zm8.821-8.82c-.063 2.395-.18 4.622-.352 6.68-.167 2.056-.336 3.267-.508 3.632-.172.364-.393.622-.664.773-.265.157-.773.235-1.523.235-.328 0-.758-.008-1.289-.024l-.258-.812c.437.015.909.023 1.414.023.474 0 .776-.005.906-.015.136-.01.276-.076.422-.196a1.08 1.08 0 0 0 .313-.43c.062-.166.145-.78.25-1.843.104-1.063.19-2.232.257-3.508.068-1.281.118-2.523.149-3.727h-4.172a22.006 22.006 0 0 1-1.938 3.165l-.656-.461a17.096 17.096 0 0 0 2.977-6.149l.812.211c-.26.854-.552 1.67-.875 2.445h4.735zm-2.946 7.171-.672.477c-.515-1.188-1.289-2.43-2.32-3.727l.688-.445a15.786 15.786 0 0 1 2.304 3.695zm19.391 3.422h-13.984v-.828h6.546V7.352h-5.875v-.883h12.579v.883h-5.836V18.25h6.57v.828zm15.922-10.273h-5.07v2.789h4.367v.812h-4.367v2.992h4.671v.836h-4.671v3.594h-.852V8.805h-1.484c-.521 1.208-1.279 2.458-2.274 3.75l-.562-.688c1.317-1.625 2.354-3.695 3.109-6.21l.75.32c-.094.354-.318 1.02-.672 2h7.055v.828zm-9.469-2.828a73.888 73.888 0 0 1-.953 2.078l-.445.883v10.89h-.86v-9.36c-.911 1.287-1.531 2.105-1.859 2.454l-.461-.805c1.521-1.776 2.779-3.914 3.773-6.414l.805.274zm-134.5 33.421h-13.937v-.812h6.773v-4.32h-5.125v-.852h5.125v-3.648h-4.336c-.604 1.114-1.271 2.039-2 2.773l-.672-.578c1.417-1.469 2.451-3.341 3.102-5.617l.828.21c-.214.772-.49 1.555-.828 2.352h3.906v-3.14h.859v3.14h6.078v.86h-6.078v3.648h5.344v.852h-5.344v4.32h6.305v.812zm9.391-10.32-.688.485c-.198-.365-.372-.633-.523-.805-2.542.297-4.409.5-5.602.61l-.242-.626c.906-.698 1.664-1.674 2.273-2.93l.868.211c-.521 1.021-1.071 1.842-1.649 2.461 1.547-.15 2.805-.304 3.774-.46a8.143 8.143 0 0 0-.961-1.055l.687-.43c.651.604 1.339 1.45 2.063 2.54zm5.968 1.203h-4.218c-.344 0-.618-.099-.821-.297-.203-.203-.304-.484-.304-.843v-3.313h.789v1.11h4.351v.78h-4.351v1.407c0 .094.041.188.125.281.083.094.169.14.258.14h4.171v.735zm-6.687 4.157c0 .4-.133.697-.399.89-.265.188-.77.281-1.515.281-.214 0-.44-.005-.68-.015l-.32-.75c1.068.036 1.687.02 1.859-.047.172-.068.258-.188.258-.36v-.89c-1.016.25-2.226.51-3.633.781l-.367-.562a5.611 5.611 0 0 1-.852 2.132l-.765-.453c.641-.77.961-1.932.961-3.484V30.1h5.453v4.337zm-.797-1.665v-1.898h-3.812v.586c1.026.073 2.013.195 2.96.367l-.242.758a30.172 30.172 0 0 0-2.75-.367c-.015.437-.052.89-.109 1.36 1.578-.272 2.896-.54 3.953-.806zm7.648 1.25c-.026.495-.135.868-.328 1.118-.192.244-.403.4-.632.468-.23.063-.787.094-1.672.094-.62 0-1.141-.018-1.563-.055-.422-.041-.698-.106-.828-.195a1.207 1.207 0 0 1-.344-.375c-.093-.167-.14-.4-.14-.703v-3.36h.804v1.07h4.368v.774h-4.368v1.516c0 .23.076.38.227.453.156.073.698.11 1.625.11.463 0 .862-.01 1.195-.032.334-.026.56-.125.68-.297.125-.177.187-.474.187-.89l.789.304zm-4.976 3.344-.609.547c-.365-.417-.951-.93-1.758-1.539l.601-.547c.724.49 1.313 1.003 1.766 1.54zm2.492.125c-.047.505-.143.906-.289 1.203-.146.297-.312.503-.5.617-.182.12-.583.201-1.203.243-.62.047-1.362.07-2.227.07-1.432 0-2.32-.078-2.664-.234-.338-.157-.507-.47-.507-.938v-2.219h.82v2.047c0 .266.12.427.359.485.24.052.935.078 2.086.078.891 0 1.568-.021 2.031-.063.469-.041.758-.112.868-.21.109-.1.205-.277.289-.532.083-.26.125-.542.125-.844l.812.297zm2.852 1.156-.641.532c-.667-.938-1.312-1.706-1.937-2.305l.609-.531a14.932 14.932 0 0 1 1.969 2.304zm-11.157-1.773c-.609 1.031-1.286 1.846-2.031 2.445l-.719-.515c.771-.584 1.464-1.362 2.079-2.336l.671.406zm20.039-2.578c-.385-.203-.578-.461-.578-.774 0-.15.065-.304.196-.46.13-.162.315-.243.554-.243.5 0 .75.328.75.985 0 .536-.315 1.054-.945 1.554l-.336-.257c.24-.318.359-.586.359-.805zm23.305 2.273h-14v-.804h1.617V26.28h10.688v9.469h1.695v.82zm-2.523-7.984v-1.54h-8.992v1.54h8.992zm0 2.32v-1.554h-8.992v1.554h8.992zm0 2.383v-1.648h-8.992v1.648h8.992zm0 2.445V34.04h-8.992v1.695h8.992zm-6.18 2.133c-1.24.771-2.838 1.464-4.797 2.078l-.531-.687c1.963-.573 3.536-1.245 4.719-2.016l.609.625zm8.672 1.422-.539.672c-1.386-.781-2.998-1.443-4.836-1.984l.414-.704c2.047.63 3.701 1.302 4.961 2.016zm5.476-13.39-.882 2.96v10.953h-.828v-8.968c-.474.968-.912 1.747-1.313 2.336l-.578-.657c1.182-1.786 2.12-4.09 2.812-6.914l.789.29zm10.415 4.656h-7.071c-.297.53-.57.963-.82 1.297h6.945v6.75c0 .24-.067.47-.203.695a1.008 1.008 0 0 1-.547.453c-.224.078-.682.104-1.375.078l-.336-.797c.354.016.657.024.907.024.515 0 .773-.183.773-.547v-1.633h-2.625v2.766h-.805v-2.766h-2.953c-.344 1.177-.903 2.185-1.679 3.023l-.579-.546c1.224-1.355 1.836-3.013 1.836-4.977v-1.727a12.799 12.799 0 0 1-1.883 1.985l-.546-.578c1.172-1 2.179-2.167 3.023-3.5h-2.641v-.79h3.008v-1.578h-2.656v-.804h2.656v-1.555h.821v1.555h3.054v-1.555h.828v1.555h2.532v.805h-2.532v1.578h2.868v.789zm-3.696-.79v-1.578h-3.054v1.579h3.054zm1.969 4.18v-1.328h-2.625v1.328h2.625zm-3.43 0v-1.328h-2.57v1.328h2.57zm3.43 2.14v-1.358h-2.625v1.359h2.625zm-3.43 0v-1.358h-2.601a7.652 7.652 0 0 1-.164 1.359h2.765zm7.274 1.024c.828.657 1.76.985 2.797.985.833 0 1.51-.211 2.031-.633.526-.422.789-1.003.789-1.742 0-1.615-1.138-2.422-3.414-2.422h-1V32.18h.953c2.021 0 3.031-.756 3.031-2.266 0-1.401-.771-2.102-2.312-2.102-.854 0-1.657.295-2.407.883v-1.304c.771-.464 1.683-.696 2.735-.696.958 0 1.75.263 2.375.79.63.525.945 1.223.945 2.093 0 1.584-.81 2.61-2.429 3.078v.032c.859.072 1.549.374 2.07.906.526.531.789 1.192.789 1.984 0 1.104-.399 1.984-1.195 2.64-.792.657-1.805.985-3.04.985-1.135 0-2.041-.216-2.718-.648v-1.446zm17.992 1.375c-.891.48-2.003.72-3.336.72-1.698 0-3.068-.56-4.109-1.68-1.037-1.12-1.555-2.568-1.555-4.344 0-1.865.57-3.412 1.711-4.64 1.141-1.23 2.622-1.845 4.445-1.845 1.146 0 2.094.167 2.844.5v1.438c-.87-.48-1.828-.719-2.875-.719-1.438 0-2.586.484-3.445 1.453-.855.969-1.282 2.214-1.282 3.735 0 1.442.401 2.62 1.204 3.53.802.912 1.877 1.368 3.226 1.368 1.219 0 2.276-.27 3.172-.813v1.297zm9.476-8.492-.656.531a8.704 8.704 0 0 0-.609-.96 65.89 65.89 0 0 1-5.969.57l-.305-.688c.98-.755 1.839-1.96 2.579-3.617l.828.211c-.631 1.333-1.328 2.422-2.094 3.266a86.02 86.02 0 0 0 4.43-.461c-.282-.396-.73-.899-1.344-1.508l.726-.461c1.198 1.208 2.003 2.247 2.414 3.117zm6.274 1.922h-4.656a.923.923 0 0 1-.719-.312 1.091 1.091 0 0 1-.273-.743v-4.976h.796v2h4.578v.765h-4.578v2.094c0 .255.144.383.43.383h4.422v.79zm-7.313 6.977a.88.88 0 0 1-.296.672 1.062 1.062 0 0 1-.649.304c-.234.021-.742.031-1.523.031l-.336-.804c.255.015.505.023.75.023.515 0 .846-.018.992-.054.151-.037.227-.133.227-.29v-2.601c-1.532.693-2.79 1.208-3.774 1.547l-.367-.54a9.227 9.227 0 0 1-.758 2.688l-.734-.422c.489-1.26.734-2.534.734-3.82V31.32h5.734v7.57zm-.835-3.618v-3.156h-4.047v1.14c1.104.199 2.26.514 3.468.946l-.382.719c-1.235-.412-2.263-.695-3.086-.852v1.555c0 .448-.021.885-.063 1.313 1.042-.323 2.412-.878 4.11-1.665zm8.32 1.82c-.052.808-.164 1.4-.336 1.774-.172.37-.375.61-.61.719-.229.11-.661.164-1.296.164l-2.399-.031c-.359 0-.648-.104-.867-.313-.219-.203-.328-.476-.328-.82V32.57h.812v2.32h4.594v.766h-4.594v2.852c0 .307.193.46.578.46 1.626 0 2.553-.012 2.782-.038a.762.762 0 0 0 .547-.313c.135-.187.242-.763.32-1.726l.797.203zm15.054-8.304c0 2.568-.052 4.742-.156 6.523-.099 1.777-.232 2.894-.398 3.352-.162.458-.401.77-.719.938-.312.166-.969.25-1.969.25-.437 0-.971-.013-1.601-.04l-.305-.89c.734.036 1.365.055 1.891.055.838 0 1.341-.06 1.507-.18.172-.12.3-.315.383-.586.089-.276.196-1.318.321-3.125.125-1.813.192-3.622.203-5.43h-4.899c-.187 2.844-.776 4.992-1.765 6.446-.99 1.448-2.498 2.708-4.524 3.78l-.609-.773a10.362 10.362 0 0 0 2.945-1.797 8.416 8.416 0 0 0 2.071-2.757c.515-1.089.848-2.722 1-4.899h-5.594v-.867h5.648c.063-.963.094-1.956.094-2.977h.859c0 .839-.031 1.831-.093 2.977h5.71zm9.961 2.461c.448 0 .831.154 1.149.46.318.308.476.694.476 1.157 0 .464-.145.847-.437 1.149-.292.302-.667.453-1.125.453-.417 0-.787-.133-1.109-.399-.318-.27-.477-.682-.477-1.234 0-.516.161-.909.484-1.18.328-.27.675-.406 1.039-.406zm.969 1.625a.847.847 0 0 0-.281-.664.971.971 0 0 0-.68-.258.867.867 0 0 0-.656.281.903.903 0 0 0-.258.641c0 .23.084.445.25.648.167.204.393.305.68.305a.91.91 0 0 0 .672-.266.917.917 0 0 0 .273-.687zM53.901 24.871c0 1.418-.102 2.361-.307 2.83-.2.463-.466.759-.8.888s-1.204.193-2.61.193c-1.084 0-1.767-.055-2.048-.167a1.28 1.28 0 0 1-.642-.518c-.146-.235-.22-.537-.22-.906v-8.068h4.448v-3.955h-4.606v-1.53h6.153v6.997H48.83v6.09c0 .247.065.399.193.458.13.058.525.087 1.187.087.914 0 1.459-.05 1.635-.149.175-.1.293-.325.351-.677.065-.357.112-1.069.14-2.135l1.565.562zm-7.435-9.773H43.75v1.828H46v11.953h-1.459v-.826h-4.447v.826H38.67V16.926h2.197v-1.828H38.24v-1.46h8.227v1.46zm-3.85 1.828v-1.828h-.597v1.828h.597zm1.925 4.236v-2.76h-.791v2.33c0 .287.144.43.43.43h.361zm-3.709-2.76h-.738v3.727c.527-.762.773-2.004.738-3.727zm3.709 8.192v-4.008h-.844c-.334 0-.597-.103-.79-.308-.194-.205-.29-.468-.29-.79v-3.086H42c0 2.262-.378 3.903-1.134 4.922l-.773-.817v4.087h4.447zm-.483-1.424h-3.472v-1.345h3.472v1.345zm28.151-6.996-.94 1.38c-2.83-1.307-5.224-2.78-7.181-4.421-1.793 1.459-4.096 2.903-6.908 4.333l-1.081-1.31c3.386-1.552 5.953-3.246 7.699-5.08l1.714.615a8.65 8.65 0 0 1-.29.326c1.717 1.464 4.046 2.85 6.987 4.157zm-3.964 1.564H60.02v-1.547h8.226v1.547zm1.732 9.22h-1.68v-.923h-8.401v.923h-1.714v-7.313h11.795v7.313zm-1.68-2.505v-3.26h-8.401v3.26h8.402zm21.604-10.661H77.36v5.906c0 2.947-.618 5.373-1.854 7.278l-1.354-.906c1.067-1.623 1.6-3.747 1.6-6.372v-7.321h5.906a9.155 9.155 0 0 0-.685-.94l1.749-.378c.234.398.486.838.756 1.318H89.9v1.415zm-.175 3.085H87.08v2.646h-6.952v-2.646h-2.162v-1.406h2.162v-1.064h1.547v1.064h3.832v-1.064h1.573v1.064h2.646v1.406zm-4.22 1.257v-1.257h-3.831v1.257h3.832zm4.5 7.268-.483 1.53c-2.15-.123-4.171-.572-6.064-1.345-1.553.65-3.39 1.113-5.51 1.389l-.739-1.53c1.834-.1 3.334-.372 4.5-.817a6.495 6.495 0 0 1-2.408-2.663h-.791v-1.424h9.448v1.424c-.621.96-1.553 1.848-2.795 2.663 1.365.48 2.98.738 4.843.773zm-4.086-3.436h-4.764c.487.738 1.23 1.4 2.233 1.986 1.142-.656 1.986-1.318 2.53-1.986zm21.911-7.559h-7.954v-1.511h3.094c-.117-.463-.346-.956-.686-1.477l1.565-.448a17.5 17.5 0 0 1 .887 1.925h3.094v1.511zm-8.174 10.389h-3.023v2.136H95.14v-2.136h-2.918v-1.46h2.918v-1.168h-2.444V17.11h2.444v-1.133h-2.971V14.5h2.97v-1.318h1.495V14.5h2.68v1.477h-2.68v1.133h2.47v7.058h-2.47v1.169h3.023v1.459zm-2.03-6.838v-1.441h-.993v1.441h.993zm-2.487-.026v-1.415h-.958v1.415h.958zm2.504 2.83V21.25h-1.01v1.512h1.01zm-2.504 0V21.25h-.958v1.512h.958zm12.849-2.145-1.327.905c-.545-1.406-1.318-2.768-2.32-4.086l1.362-.721c.99 1.318 1.752 2.619 2.285 3.902zm-4.966-3.181c-.709 1.646-1.555 3.032-2.54 4.157l-1.063-1.134c.75-.885 1.471-2.104 2.162-3.656l1.441.633zm5.063 10.31-.94 1.318a12.402 12.402 0 0 1-3.472-2.681c-1.254 1.195-2.526 2.095-3.815 2.698l-.993-1.283c1.658-.797 2.942-1.685 3.85-2.663a12.919 12.919 0 0 1-1.565-3.955l1.407-.633a13.997 13.997 0 0 0 1.151 3.208c.51-.832.929-1.884 1.257-3.155l1.388.72c-.457 1.576-1.028 2.86-1.713 3.85a10.264 10.264 0 0 0 3.445 2.575zm17.657-11.91h-15.231v-1.354h6.934a6.164 6.164 0 0 0-.545-1.116l1.582-.29c.276.533.475 1.002.598 1.406h6.662v1.354zm-2.399 4.553h-10.53v-3.674h10.53v3.674zm-1.653-1.284V17.99h-7.198v1.116h7.198zm3.384 8.412c0 .404-.164.738-.492 1.002-.328.263-1.131.4-2.408.413l-.571-1.547c.404.035.744.052 1.019.052.381 0 .621-.029.721-.087a.287.287 0 0 0 .149-.264v-4.447h-10.837v6.293h-1.564v-7.647h13.983v6.232zm-3.208-.378h-7.488v-3.604h7.488v3.604zm-1.582-1.248v-1.134h-4.333v1.134h4.333z" fill="#292929"/>
    <path d="M11.225 10C5.025 10 0 15.025 0 21.224c0 6.2 5.025 11.225 11.225 11.225 6.199 0 11.224-5.025 11.224-11.224 0-6.2-5.025-11.225-11.225-11.225zm0 2.172a9.047 9.047 0 0 1 9.052 9.052 9.047 9.047 0 0 1-9.053 9.053 9.047 9.047 0 0 1-9.052-9.053 9.047 9.047 0 0 1 9.053-9.052zm6.345 5.896-1.02-1.028a.543.543 0 0 0-.768-.003l-6.397 6.346-2.707-2.728a.543.543 0 0 0-.768-.003l-1.028 1.02a.543.543 0 0 0-.003.768l4.109 4.142a.543.543 0 0 0 .768.003l7.811-7.748a.543.543 0 0 0 .003-.769z" fill="#868047"/>
</svg>
