<svg xmlns="http://www.w3.org/2000/svg" width="40" height="40" viewBox="0 0 40 40">
    <g fill="none" fill-rule="evenodd">
        <g>
            <g>
                <g>
                    <g>
                        <path fill="#FFF" d="M12 0l-.008.035c2.135.246 3.51 1.754 4.466 4.147.461 1.154.648 2.42.78 3.677.183 1.771.264 3.456 1.021 5.054.553 1.165 2.4 2.406 3.741 2.587 0 0-2.638 2.724-6.202 2.04l-8.668.409C3.566 18.515.6 16.5.6 16.5c1.377-.18 1.979-2.422 2.546-3.587.778-1.598.479-3.283.668-5.054.134-1.257 1.212-3.377 1.686-4.531C6.486.924 8.967.131 11.353.015L11.357 0c.087 0 .172.002.256.006l.145-.004L12 0z" transform="translate(-72.000000, -616.000000) translate(14.000000, 608.000000) translate(58.000000, 8.000000) translate(3.000000, 2.000000)"/>
                        <path fill="#FFF" d="M15 7.7c-1.016.173-2.51.363-3.228-.393-.44-.466-.736-1.054-1.135-1.558l-.012-.015c-.568-.71-1.541-.926-2.362-.556C7.247 5.637 6.518 6.581 6.32 7.7c-.218 1.232-.456 2.83-.446 3.91.046 1.026.283 1.82.893 2.609.431.558.646 1.26.566 1.967l-.037.316c-.027.243-.157.462-.356.598-.07.05-.148.086-.23.11l-3.763 1.118c-.474.107-.97.372-1.458.784C.722 19.76.194 20.664 0 21.658v8.38C0 32.779 2.17 35 4.848 35H24l-5-17-3-1c-.89.07-1.03-.93-.418-3 .612-2.07.418-4.17-.582-6.3z" transform="translate(-72.000000, -616.000000) translate(14.000000, 608.000000) translate(58.000000, 8.000000) translate(3.000000, 2.000000)"/>
                        <g>
                            <path fill="#FFB200" d="M2.957 13.787l-.062.017-.064.014c-.297.061-.667.257-1.042.55-.584.459-1.004 1.091-1.189 1.791v9.787c0 2.225 1.905 4.035 4.247 4.035h4.839c10.343-.104 15.514-.104 15.514 0 0 .648-3.423-15.346-3.423-15.346S17.274 12.04 17.274 12c0 0-5.9 4.186-5.674 4.16.458-.054-1.125-1.156-4.747-3.307l-3.896.934z" transform="translate(-72.000000, -616.000000) translate(14.000000, 608.000000) translate(58.000000, 8.000000) translate(3.000000, 2.000000) translate(0.000000, 5.000000)"/>
                            <path stroke="#000" stroke-linejoin="round" stroke-width="1.25" d="M16.231 2.7c-1.058.173-3.221.363-3.968-.393-.46-.466-.767-1.054-1.183-1.558l-.012-.015c-.592-.71-1.606-.926-2.46-.556C7.547.637 6.79 1.581 6.582 2.7c-.227 1.232-.474 2.83-.465 3.91.05 1.026.295 1.82.93 2.609.45.558.674 1.26.59 1.967L7.6 11.5c-.028.243-.164.462-.37.598-.074.05-.155.086-.24.11l-3.92 1.118c-.494.107-1.01.372-1.52.784C.753 14.76.204 15.664 0 16.658v8.38C0 27.779 2.261 30 5.05 30H25" transform="translate(-72.000000, -616.000000) translate(14.000000, 608.000000) translate(58.000000, 8.000000) translate(3.000000, 2.000000) translate(0.000000, 5.000000)"/>
                        </g>
                        <path stroke="#000" stroke-linejoin="round" stroke-width="1.25" d="M10.5 0c2.803 0 5.24 1.581 6.413 4.24.516 1.17.726 2.454.873 3.728.205 1.796.296 3.504 1.145 5.124.618 1.182 1.567 2.013 3.069 2.196 0 0-.223 3.046-4.214 2.352" transform="translate(-72.000000, -616.000000) translate(14.000000, 608.000000) translate(58.000000, 8.000000) translate(3.000000, 2.000000)"/>
                        <path stroke="#000" stroke-linejoin="round" stroke-width="1.25" d="M15.277 7.144c.2 1.134.917 3.289.908 4.213-.052 1.063-.318 1.88-1.013 2.697-.46.542-.654 1.248-.57 1.942l.04.321c.03.247.171.468.386.607.077.05.16.087.25.112L18 17.64M11 0C8.43 0 5.739 1.646 4.663 4.414c-.473 1.219-.666 2.555-.8 3.881-.189 1.87-.272 3.649-1.05 5.335-.567 1.23-1.436 2.096-2.813 2.287 0 0 1.842 2.306 5.5 1.583" transform="translate(-72.000000, -616.000000) translate(14.000000, 608.000000) translate(58.000000, 8.000000) translate(3.000000, 2.000000)"/>
                        <path stroke="#000" stroke-linejoin="round" stroke-width="1.5" d="M5.5 17.5L11 21 16.292 17.5M11 21L11 31" transform="translate(-72.000000, -616.000000) translate(14.000000, 608.000000) translate(58.000000, 8.000000) translate(3.000000, 2.000000)"/>
                    </g>
                    <g transform="translate(-72.000000, -616.000000) translate(14.000000, 608.000000) translate(58.000000, 8.000000) translate(19.000000, 21.000000)">
                        <circle cx="9" cy="8" r="8" fill="#FFF"/>
                        <circle cx="2" cy="8" r="2" fill="#FFF"/>
                        <circle cx="17" cy="7" r="1" fill="#FFF"/>
                        <g>
                            <path stroke="#000" stroke-width="1.25" d="M11.183 12C9.558 13.333 8.625 13.333 7 12"/>
                            <path stroke="#000" stroke-width="1.5" d="M1.627 10.177C.642 10.165 0 9.082 0 8.107 0 7 .726 6.1 1.622 6.1c.053 0 .106.003.158.01C2.632 2.747 5.54 0 9 0c3.46 0 6.368 2.747 7.22 6.11.052-.007.105-.01.158-.01C17.274 6.1 18 7 18 8.107c0 .975-.641 2.058-1.627 2.07-.708 2.433-2.594 4.308-4.914 5.094-.773.262-1.6.729-2.46.729-.858 0-1.685-.467-2.458-.729-2.32-.785-4.206-2.661-4.914-5.094z"/>
                            <path stroke="#000" stroke-linecap="square" stroke-width="1.5" d="M5.495 4.446s1.96.02 2.4-1c1.679 1.2 3.047 1.268 4.105.2"/>
                            <path fill="#000" d="M6 7.385c.663 0 1.2.55 1.2 1.23 0 .68-.537 1.231-1.2 1.231-.663 0-1.2-.551-1.2-1.23 0-.68.537-1.231 1.2-1.231M12 7.385c.663 0 1.2.55 1.2 1.23 0 .68-.537 1.231-1.2 1.231-.663 0-1.2-.551-1.2-1.23 0-.68.537-1.231 1.2-1.231"/>
                        </g>
                    </g>
                </g>
            </g>
        </g>
    </g>
</svg>
