<svg xmlns="http://www.w3.org/2000/svg" width="40" height="40" viewBox="0 0 40 40">
    <g fill="none" fill-rule="evenodd">
        <g>
            <g>
                <g>
                    <g>
                        <path fill="#F8B422" d="M18.056 23.613c0 .387-3.32.387-4.788.387-4.694 0-8.5-4.253-8.5-9.5S8.575 5 13.269 5c4.695 0 8.5 4.253 8.5 9.5 0 3.607-3.712 7.146-3.712 9.113z" transform="translate(-248.000000, -1240.000000) translate(190.000000, 1232.000000) translate(58.000000, 8.000000) translate(7.000000, 2.000000)"/>
                        <path stroke="#000" stroke-linecap="square" stroke-linejoin="round" stroke-width="1.5" d="M8.89 25.685v.602c0 2.05 1.7 3.713 3.797 3.713h1.626c2.097 0 3.797-1.662 3.797-3.713v-.602l-.054-2.042v-.03c0-1.273.503-2.504 1.428-3.4C21.037 18.707 22 16.62 22 14.313c0-4.787-4.136-8.628-9.103-8.293-4.148.28-7.526 3.536-7.867 7.588-.215 2.548.747 4.879 2.412 6.532.94.933 1.502 2.165 1.502 3.473v.03H13.5" transform="translate(-248.000000, -1240.000000) translate(190.000000, 1232.000000) translate(58.000000, 8.000000) translate(7.000000, 2.000000)"/>
                        <path stroke="#000" stroke-linecap="square" stroke-linejoin="round" stroke-width="2" d="M12 33.005v.519c0 .815.895 1.476 2 1.476 1.104 0 2-.66 2-1.476V33" transform="translate(-248.000000, -1240.000000) translate(190.000000, 1232.000000) translate(58.000000, 8.000000) translate(7.000000, 2.000000)"/>
                        <g stroke="#000" stroke-linecap="square" stroke-linejoin="round" stroke-width="2">
                            <path d="M12.52 1.778L12.52 0" transform="translate(-248.000000, -1240.000000) translate(190.000000, 1232.000000) translate(58.000000, 8.000000) translate(7.000000, 2.000000)"/>
                            <path d="M6.28 3.581L4.96 2.405" transform="translate(-248.000000, -1240.000000) translate(190.000000, 1232.000000) translate(58.000000, 8.000000) translate(7.000000, 2.000000) translate(5.620000, 2.993027) rotate(18.287460) translate(-5.620000, -2.993027)"/>
                            <path d="M1.32 8L0 6.823" transform="translate(-248.000000, -1240.000000) translate(190.000000, 1232.000000) translate(58.000000, 8.000000) translate(7.000000, 2.000000)"/>
                            <path d="M19.76 3.581L21.08 2.405" transform="translate(-248.000000, -1240.000000) translate(190.000000, 1232.000000) translate(58.000000, 8.000000) translate(7.000000, 2.000000) translate(20.420000, 2.993027) rotate(-18.287460) translate(-20.420000, -2.993027)"/>
                            <path d="M24.68 8L26 6.823" transform="translate(-248.000000, -1240.000000) translate(190.000000, 1232.000000) translate(58.000000, 8.000000) translate(7.000000, 2.000000)"/>
                        </g>
                        <path fill="#FFF" d="M17.917 10.722C16.689 9.602 15.117 9 13.448 9c-.156 0-.314.005-.472.016-2.978.2-5.444 2.4-5.976 5.224.842-.839 1.838-1.526 2.955-1.956 1.65-.634 3.56-.68 5.18.021 2.063.893 3.457 2.886 4.114 4.995.073.232.134.465.191.7.366-.806.56-1.684.56-2.593 0-1.795-.74-3.459-2.083-4.685" transform="translate(-248.000000, -1240.000000) translate(190.000000, 1232.000000) translate(58.000000, 8.000000) translate(7.000000, 2.000000)"/>
                    </g>
                </g>
            </g>
        </g>
    </g>
</svg>
