<svg xmlns="http://www.w3.org/2000/svg" xmlns:xlink="http://www.w3.org/1999/xlink" width="40" height="40" viewBox="0 0 40 40">
    <defs>
        <path id="ud1rxgg82a" d="M0 0H40V40H0z"/>
    </defs>
    <g fill="none" fill-rule="evenodd">
        <g>
            <g>
                <g transform="translate(-72.000000, -1136.000000) translate(14.000000, 1128.000000) translate(58.000000, 8.000000)">
                    <mask id="c01ixvn1xb" fill="#fff">
                        <use xlink:href="#ud1rxgg82a"/>
                    </mask>
                    <g mask="url(#c01ixvn1xb)">
                        <g>
                            <path fill="#000" d="M15.782 1.366c-2.29 0-4.841 6.626-4.841 16.134s2.551 16.134 4.841 16.134 4.84-6.626 4.84-16.134-2.55-16.134-4.84-16.134m0 33.634c-1.818 0-3.39-1.865-4.55-5.394-1.064-3.244-1.65-7.543-1.65-12.106s.586-8.862 1.65-12.105C12.393 1.865 13.965 0 15.783 0c1.818 0 3.39 1.865 4.549 5.395 1.064 3.243 1.65 7.542 1.65 12.105 0 4.563-.586 8.862-1.65 12.106C19.172 33.135 17.6 35 15.782 35" transform="translate(5.000000, 3.000000)"/>
                            <path fill="#000" d="M4.233 8.82c-1.387 0-2.342.33-2.69.932-.565.975.265 2.86 2.219 5.044 2.177 2.433 5.483 4.986 9.307 7.188 5.112 2.942 10.36 4.77 13.698 4.77 1.386 0 2.342-.33 2.69-.932.565-.975-.265-2.86-2.22-5.045-2.176-2.433-5.482-4.986-9.307-7.188-5.11-2.942-10.36-4.77-13.697-4.77m22.534 19.296c-3.563 0-9.073-1.898-14.38-4.953-3.947-2.272-7.372-4.921-9.643-7.46C.273 12.94-.55 10.647.361 9.072c.426-.736 1.443-1.613 3.872-1.613 3.563 0 9.073 1.898 14.38 4.953 3.946 2.271 7.372 4.92 9.643 7.46 2.471 2.762 3.295 5.054 2.383 6.63-.426.736-1.444 1.613-3.872 1.613" transform="translate(5.000000, 3.000000)"/>
                            <path fill="#000" d="M26.767 8.82c-3.337 0-8.586 1.827-13.698 4.77-3.824 2.201-7.13 4.754-9.307 7.188C1.808 22.96.98 24.847 1.542 25.82c.349.602 1.304.933 2.69.933 3.338 0 8.586-1.828 13.698-4.77 3.825-2.202 7.13-4.754 9.308-7.188 1.954-2.184 2.784-4.07 2.22-5.044-.349-.601-1.305-.933-2.691-.933M4.233 28.115c-2.429 0-3.446-.878-3.872-1.614-.912-1.575-.088-3.867 2.383-6.63 2.271-2.538 5.696-5.187 9.643-7.46 5.307-3.054 10.817-4.952 14.38-4.952 2.428 0 3.446.877 3.872 1.612.912 1.576.088 3.869-2.383 6.63-2.272 2.54-5.696 5.188-9.643 7.46-5.307 3.056-10.817 4.954-14.38 4.954" transform="translate(5.000000, 3.000000)"/>
                            <path fill="#FFF" d="M30.436 20.943c0 1.108-.883 2.008-1.972 2.008-1.09 0-1.973-.9-1.973-2.008 0-1.11.883-2.009 1.973-2.009s1.972.9 1.972 2.009" transform="translate(5.000000, 3.000000)"/>
                            <path fill="#F8B422" d="M14.09 4.877c0 1.109-.882 2.008-1.972 2.008-1.09 0-1.973-.9-1.973-2.008s.884-2.008 1.973-2.008c1.09 0 1.973.9 1.973 2.008" transform="translate(5.000000, 3.000000)"/>
                            <path fill="#FFF" d="M7.327 27.254c0 1.109-.883 2.008-1.972 2.008-1.09 0-1.973-.899-1.973-2.008s.883-2.008 1.973-2.008 1.972.9 1.972 2.008" transform="translate(5.000000, 3.000000)"/>
                            <path fill="#000" d="M15.5 15.709c-.97 0-1.76.803-1.76 1.791 0 .988.79 1.791 1.76 1.791s1.76-.803 1.76-1.791c0-.988-.79-1.791-1.76-1.791m0 4.947c-1.71 0-3.1-1.416-3.1-3.156 0-1.74 1.39-3.156 3.1-3.156 1.71 0 3.1 1.416 3.1 3.156 0 1.74-1.39 3.156-3.1 3.156" transform="translate(5.000000, 3.000000)"/>
                        </g>
                    </g>
                </g>
            </g>
        </g>
    </g>
</svg>
