<svg xmlns="http://www.w3.org/2000/svg" xmlns:xlink="http://www.w3.org/1999/xlink" width="40" height="40" viewBox="0 0 40 40">
    <defs>
        <path id="frnb0u6ika" d="M0 0H40V40H0z"/>
        <path id="o6klgcp18c" d="M0 0L32.536 0 32.536 31.924 0 31.924z"/>
    </defs>
    <g fill="none" fill-rule="evenodd">
        <g>
            <g>
                <g transform="translate(-248.000000, -1032.000000) translate(190.000000, 1024.000000) translate(58.000000, 8.000000)">
                    <mask id="aci09j7drb" fill="#fff">
                        <use xlink:href="#frnb0u6ika"/>
                    </mask>
                    <g mask="url(#aci09j7drb)">
                        <g>
                            <path fill="#F8B422" d="M12.129 3.38C7.767 1.552 2.654 3.44.733 7.585c-1.921 4.146.064 9.005 4.425 10.832 4.363 1.827 9.475-.06 11.397-4.206 1.921-4.146-.065-9.006-4.426-10.833" transform="translate(3.000000, 3.151283)"/>
                            <path fill="#FFF" d="M17.844 28.749c-1.84 0-3.632-.372-5.325-1.106-6.687-2.898-9.73-10.606-6.784-17.182C7.85 5.735 12.618 2.682 17.88 2.682c1.84 0 3.63.372 5.324 1.106 3.234 1.401 5.722 3.962 7.005 7.211 1.283 3.25 1.205 6.79-.22 9.972-2.117 4.725-6.884 7.778-12.145 7.778z" transform="translate(3.000000, 3.151283)"/>
                            <path fill="#000" d="M17.592 2.115c-5.604 0-10.683 3.186-12.936 8.118-3.139 6.862.103 14.904 7.226 17.929 1.804.765 3.713 1.153 5.673 1.153 5.605 0 10.683-3.185 12.938-8.116 1.518-3.319 1.6-7.014.234-10.405-1.367-3.39-4.017-6.063-7.462-7.525-1.804-.765-3.712-1.154-5.673-1.154m0 1.31c1.716 0 3.458.335 5.125 1.043C29.153 7.2 32.085 14.47 29.248 20.67c-2.101 4.596-6.786 7.335-11.693 7.335-1.715 0-3.457-.335-5.125-1.043C5.994 24.23 3.064 16.962 5.9 10.761 8 6.166 12.686 3.425 17.591 3.425" transform="translate(3.000000, 3.151283)"/>
                            <path fill="#00DBB6" d="M30.439 17.215L28.66 18.56l-3.207 2.622-.143-2.544-2.081.364-.233-2.343-1.431.743-.414-.311-1.232-1.196-.392 1.628.942.924-4.125 3.896-1.12.172-.007-2.102.807-3.177-1.468-.7-.15-1.367 1.86-1.898 1.379.249.552.828 2.037.35-1.535-1.946-1.563-1.003.135-.531 2.045-.22-.225-1.332 2.313-.75 1.492 1.353 3.332.363s1.479-.108 3.13-.218c.995 2.096 1.392 4.452 1.08 6.8M13.83 3.815l-1.136.832-2.023 1.559c-.054.043-.082.111-.072.179l.234 1.606c.01.066.068.13.114.148.061.026.13.019.184-.019l1.14-.8.624 2.218-3.61 1.179-1.528-.507c-.07-.024-.147-.003-.2.05l-.708.762c-.045.048-.062.114-.046.177l.431 1.683-1.261-1.426-.21-.744c1.576-3.523 4.605-5.953 8.068-6.897M7.544 17.262L7.39 14.82l2.188-1.937 1.946 4.223-5.186 4.277V19.91l1.186-2.557c.015-.029.02-.06.019-.09M15.085 7.782l-.102-3.37c2.228-.133 3.543.216 4.034.385l-1.608 2.317-2.324.668z" transform="translate(3.000000, 3.151283)"/>
                            <path fill="#000" d="M2.863 22.378l-1.218-.575c.2-.393.418-.797.65-1.2l1.186.635c-.22.383-.428.766-.618 1.14zM1.858 24.73l-1.29-.404c.14-.413.306-.846.495-1.285l1.253.5c-.176.408-.33.808-.458 1.19zm-.503 2.409L0 27.08c.021-.442.086-.916.193-1.41l1.328.267c-.093.426-.149.83-.166 1.203zm-.606 2.866c-.302-.413-.516-.9-.637-1.447l1.326-.273c.082.374.224.7.42.968l-1.11.752zM4.206 20.249l-1.325-.62c.136-.17.276-.342.42-.514l1.31.64c-.14.165-.274.33-.405.494" transform="translate(3.000000, 3.151283)"/>
                            <g transform="translate(3.000000, 3.151283) translate(1.218807, 0.000000)">
                                <mask id="0g2895frjd" fill="#fff">
                                    <use xlink:href="#o6klgcp18c"/>
                                </mask>
                                <path fill="#000" d="M3.333 31.924c-1.427 0-2.56-.399-3.333-1.198l.962-.905c1.175 1.214 3.868 1.038 7.387-.483 3.777-1.633 8.05-4.596 12.036-8.342 3.984-3.747 7.188-7.815 9.02-11.456 1.708-3.393 2.013-6.034.838-7.248-1.395-1.44-4.997-.882-9.404 1.457l-.63-1.153c5.107-2.712 9.115-3.152 10.996-1.209 1.607 1.66 1.391 4.762-.609 8.735-1.9 3.775-5.2 7.973-9.293 11.822-4.094 3.849-8.505 6.901-12.42 8.594-2.137.923-4.014 1.386-5.55 1.386" mask="url(#0g2895frjd)"/>
                            </g>
                            <path fill="#FFF" d="M9.797 30.449c0 1.565-1.29 2.833-2.882 2.833-1.591 0-2.881-1.268-2.881-2.833 0-1.565 1.29-2.834 2.881-2.834 1.592 0 2.882 1.269 2.882 2.834" transform="translate(3.000000, 3.151283)"/>
                            <path fill="#000" d="M6.915 28.365c-1.168 0-2.119.935-2.119 2.084s.95 2.084 2.12 2.084c1.168 0 2.118-.935 2.118-2.084 0-1.15-.95-2.084-2.119-2.084m0 5.484c-1.906 0-3.457-1.525-3.457-3.4s1.55-3.4 3.457-3.4c1.907 0 3.458 1.525 3.458 3.4s-1.551 3.4-3.458 3.4" transform="translate(3.000000, 3.151283)"/>
                        </g>
                    </g>
                </g>
            </g>
        </g>
    </g>
</svg>
