<svg xmlns="http://www.w3.org/2000/svg" xmlns:xlink="http://www.w3.org/1999/xlink" width="40" height="40" viewBox="0 0 40 40">
    <defs>
        <path id="ykprbeyvna" d="M0 0H40V40H0z"/>
        <path id="sivo2trtvc" d="M0 33.402L34 33.402 34 0 0 0z"/>
    </defs>
    <g fill="none" fill-rule="evenodd">
        <g>
            <g>
                <g transform="translate(-248.000000, -928.000000) translate(190.000000, 920.000000) translate(58.000000, 8.000000)">
                    <mask id="gg6njrg6bb" fill="#fff">
                        <use xlink:href="#ykprbeyvna"/>
                    </mask>
                    <g mask="url(#gg6njrg6bb)">
                        <g>
                            <path fill="#F8B422" d="M0 33.742L34 33.742 34 27.979 0 27.979z" transform="translate(3.000000, 3.258060)"/>
                            <path fill="#000" d="M1.7 30.861L2.833 30.861 2.833 27.979 1.7 27.979zM4.533 29.708L5.667 29.708 5.667 27.979 4.533 27.979zM6.8 30.861L7.933 30.861 7.933 27.979 6.8 27.979zM8.5 29.708L9.633 29.708 9.633 27.979 8.5 27.979zM11.333 30.861L12.467 30.861 12.467 27.979 11.333 27.979zM13.6 29.708L14.733 29.708 14.733 27.979 13.6 27.979zM15.867 30.861L17 30.861 17 27.979 15.867 27.979zM18.7 29.708L19.833 29.708 19.833 27.979 18.7 27.979zM20.967 30.861L22.1 30.861 22.1 27.979 20.967 27.979zM23.233 29.708L24.367 29.708 24.367 27.979 23.233 27.979zM25.5 30.861L26.633 30.861 26.633 27.979 25.5 27.979zM27.767 29.708L28.9 29.708 28.9 27.979 27.767 27.979zM30.033 30.861L31.167 30.861 31.167 27.979 30.033 27.979z" transform="translate(3.000000, 3.258060)"/>
                            <g transform="translate(3.000000, 3.258060)">
                                <path fill="#FFF" d="M19.255 23.761c0 .164-.132.296-.295.296H1.047c-.162 0-.294-.132-.294-.296V.975c0-.163.132-.295.294-.295H18.96c.163 0 .295.132.295.295V23.76z"/>
                                <mask id="fqe8vpbprd" fill="#fff">
                                    <use xlink:href="#sivo2trtvc"/>
                                </mask>
                                <path fill="#000" d="M1.433 23.377h17.142V1.36H1.433v22.017zm17.527 1.36H1.047c-.537 0-.974-.438-.974-.975V.975C.073.438.51 0 1.047 0H18.96c.538 0 .975.438.975.975v22.787c0 .537-.437.975-.975.975z" mask="url(#fqe8vpbprd)"/>
                                <path fill="#F8B422" d="M9.882 21.337L16.7 21.337 16.7 14.52 9.882 14.52z" mask="url(#fqe8vpbprd)"/>
                                <path fill="#000" d="M11.56 19.557L15.023 19.557 15.023 18.197 11.56 18.197zM11.56 17.659L15.023 17.659 15.023 16.299 11.56 16.299z" mask="url(#fqe8vpbprd)"/>
                                <path fill="#000" d="M3.982 20.672H16.02V8.635H3.982v12.037zm-1.36 1.36H17.38V7.275H2.622v14.757z" mask="url(#fqe8vpbprd)"/>
                                <path fill="#00DBB6" d="M2.767 6.152L17.24 6.152 17.24 2.912 2.767 2.912z" mask="url(#fqe8vpbprd)"/>
                                <path fill="#000" d="M3.982 20.672H16.02V8.635H3.982v12.037zm-1.36 1.36H17.38V7.275H2.622v14.757z" mask="url(#fqe8vpbprd)"/>
                                <path fill="#000" d="M9.354 21.287L10.714 21.287 10.714 7.955 9.354 7.955z" mask="url(#fqe8vpbprd)"/>
                                <path fill="#000" d="M3.367 15.3L16.7 15.3 16.7 13.94 3.367 13.94zM4.839 12.011L8.302 12.011 8.302 10.651 4.839 10.651z" mask="url(#fqe8vpbprd)"/>
                                <path fill="#000" d="M5.891 13.062L7.25 13.062 7.25 9.6 5.891 9.6zM11.679 12.011L15.142 12.011 15.142 10.651 11.679 10.651zM7.314 19.789L4.865 17.34 5.827 16.379 8.276 18.827z" mask="url(#fqe8vpbprd)"/>
                                <path fill="#000" d="M5.827 19.789L4.866 18.827 7.314 16.378 8.276 17.34zM31.025 24.073L26.973 10.079 22.921 24.073 21.615 23.695 26.973 5.189 32.331 23.695z" mask="url(#fqe8vpbprd)"/>
                                <path fill="#000" d="M26.973 4.378c-.78 0-1.413.634-1.413 1.412 0 .779.634 1.413 1.413 1.413s1.412-.634 1.412-1.413c0-.778-.633-1.412-1.412-1.412m0 4.185c-1.53 0-2.773-1.244-2.773-2.773 0-1.528 1.244-2.772 2.773-2.772 1.528 0 2.772 1.244 2.772 2.772 0 1.529-1.244 2.773-2.772 2.773" mask="url(#fqe8vpbprd)"/>
                                <path fill="#000" d="M26.293 3.452L27.653 3.452 27.653.252 26.293.252zM26.972 17.183c-1.766 0-3.532-.388-5.176-1.164l.58-1.23c2.921 1.379 6.272 1.379 9.194 0l.58 1.23c-1.645.776-3.412 1.164-5.178 1.164" mask="url(#fqe8vpbprd)"/>
                            </g>
                        </g>
                    </g>
                </g>
            </g>
        </g>
    </g>
</svg>
