<svg xmlns="http://www.w3.org/2000/svg" width="40" height="40" viewBox="0 0 40 40">
    <g fill="none" fill-rule="evenodd">
        <g>
            <g>
                <g>
                    <g>
                        <path fill="#F8B422" d="M9 7H41V39H9z" transform="translate(-72.000000, -928.000000) translate(14.000000, 920.000000) translate(55.000000, 8.000000) translate(22.000000, 22.000000) rotate(-90.000000) translate(-22.000000, -22.000000)"/>
                        <path fill="#00DBB6" d="M6 4L43 41 6 41z" transform="translate(-72.000000, -928.000000) translate(14.000000, 920.000000) translate(55.000000, 8.000000) translate(22.000000, 22.000000) rotate(-90.000000) translate(-22.000000, -22.000000)"/>
                        <g transform="translate(-72.000000, -928.000000) translate(14.000000, 920.000000) translate(55.000000, 8.000000) translate(22.000000, 22.000000) rotate(-90.000000) translate(-22.000000, -22.000000)">
                            <path fill="#F8B422" d="M17.162 21.995c2.299 0 8.838.194 8.838-1.77C26 18.263 18.208 10 15.91 10c-2.3 0-2.91 6.476-2.91 8.44 0 1.963 1.863 3.555 4.162 3.555z"/>
                            <path fill="#F8B422" d="M30 31.737c5.06-.38 6 0 6-5.444S33.314 20 30 20s-6 .231-6 6.293.94 5.824 6 5.444z"/>
                            <circle cx="20" cy="25" r="4" fill="#00DBB6"/>
                            <g>
                                <path stroke="#000" stroke-linecap="square" stroke-linejoin="round" stroke-width="1.5" d="M13.851 16.297c1.086-1.584 2.039-3.367 4.183-3.367 3.86 0 3.86 5.772 7.72 5.772s3.86-5.772 7.72-5.772M6.926 16.393c.85 1.215 1.783 2.309 3.462 2.309 1.68 0 2.613-1.094 3.463-2.309M2.309 12.93c2.366 0 3.419 1.834 4.617 3.463" transform="translate(22.000000, 22.000000) rotate(45.000000) translate(-22.000000, -22.000000) translate(5.024105, 7.863196)"/>
                                <path fill="#FFF" d="M5.771 6.582c0-2.231 2.067-4.04 4.617-4.04s4.434 3.723 4.434 5.955c0 2.231-1.883-1.338-4.434-1.338-2.55 0-4.617 1.654-4.617-.577z" transform="translate(22.000000, 22.000000) rotate(45.000000) translate(-22.000000, -22.000000) translate(5.024105, 7.863196)"/>
                                <path stroke="#000" stroke-linecap="square" stroke-linejoin="round" stroke-width="1.5" d="M5.771 7.16c0-2.551 2.067-4.618 4.617-4.618s4.617 2.067 4.617 4.617-2.066 4.617-4.617 4.617c-2.55 0-4.617-2.067-4.617-4.617zM13.851 12.93L18.225 7.984 19.683 7.984 23.808 1.667 28.74 0M6.926 7.278s6.009-.89 6.925 2.19M28.249 14.085L21.931 10.323 21.931 9.852 25.819 3.739 30.262 1.522M24.858 25.091L26.012 25.091M32.798 17.547L33.952 17.547M9.128 24.135L10.282 24.135M18.386 20.054L17.232 20.054M18.386 28.216L17.232 28.216M1.154 16.393L0 16.393" transform="translate(22.000000, 22.000000) rotate(45.000000) translate(-22.000000, -22.000000) translate(5.024105, 7.863196)"/>
                            </g>
                        </g>
                    </g>
                </g>
            </g>
        </g>
    </g>
</svg>
