<svg xmlns="http://www.w3.org/2000/svg" xmlns:xlink="http://www.w3.org/1999/xlink" width="40" height="40" viewBox="0 0 40 40">
    <defs>
        <path id="odtb0sodea" d="M0 0H40V40H0z"/>
        <path id="qrp7nlzp4c" d="M0 34L33 34 33 0 0 0z"/>
    </defs>
    <g fill="none" fill-rule="evenodd">
        <g>
            <g>
                <g transform="translate(-248.000000, -616.000000) translate(190.000000, 608.000000) translate(58.000000, 8.000000)">
                    <mask id="vxbzwnaj1b" fill="#fff">
                        <use xlink:href="#odtb0sodea"/>
                    </mask>
                    <g mask="url(#vxbzwnaj1b)">
                        <g transform="translate(4.000000, 3.000000)">
                            <path fill="#000" d="M16.27 10.2h-1.477V6.296c0-1.284 1.02-2.33 2.276-2.33v1.512c-.441 0-.8.367-.8.818V10.2z"/>
                            <mask id="wm1yw7uxld" fill="#fff">
                                <use xlink:href="#qrp7nlzp4c"/>
                            </mask>
                            <path fill="#FFF" d="M0.569 34L31.862 34 31.862 27.767 0.569 27.767z" mask="url(#wm1yw7uxld)"/>
                            <path fill="#000" d="M1.427 33.09h30.146v-4.98H1.427v4.98zM0 34.568h33v-7.934H0v7.934z" mask="url(#wm1yw7uxld)"/>
                            <path fill="#00DBB6" d="M2.845 31.733L30.155 31.733 30.155 29.467 2.845 29.467z" mask="url(#wm1yw7uxld)"/>
                            <path fill="#000" d="M25.034 32.3L26.741 32.3 26.741 28.9 25.034 28.9zM22.759 32.3L24.466 32.3 24.466 28.9 22.759 28.9z" mask="url(#wm1yw7uxld)"/>
                            <path fill="#FFF" d="M26.892 24.084c0-1.376.89-2.542 2.125-2.955v-.162H5.386c-1.717 0-3.11 1.395-3.11 3.117 0 1.72 1.393 3.116 3.11 3.116H29.018v-.162c-1.235-.413-2.126-1.579-2.126-2.954" mask="url(#wm1yw7uxld)"/>
                            <path fill="#000" d="M5.488 21.872c-1.312 0-2.378 1.119-2.378 2.495 0 1.375 1.066 2.495 2.378 2.495H26.92c-.532-.69-.842-1.563-.842-2.495 0-.932.31-1.806.842-2.495H5.488zm24.098 6.461H5.488c-2.085 0-3.781-1.779-3.781-3.966 0-2.188 1.696-3.967 3.78-3.967h24.1v1.434l-.48.168c-.972.34-1.625 1.291-1.625 2.365 0 1.073.653 2.024 1.625 2.364l.48.168v1.434z" mask="url(#wm1yw7uxld)"/>
                            <path fill="#000" d="M5.69 24.367L27.31 24.367 27.31 22.667 5.69 22.667z" mask="url(#wm1yw7uxld)"/>
                            <path fill="#F8B422" d="M10.81 30.033L8.534 28.514 6.259 30.033 6.259 24.367 8.534 24.367 10.81 24.367zM18.767 7.95c-.083-.006-.165-.017-.247-.017-1.188.001-2.222.538-3.158 1.457-.936-.919-1.97-1.456-3.157-1.457-.082 0-.165.011-.248.016-2.084.236-4.103 1.7-3.987 3.546.096 1.763.495 3.557 1.08 5.32.771 2.021 2.82 3.586 4.27 3.585h1.512c.18-.147.357-.31.53-.487.173.177.35.34.531.487h1.512c1.45.001 3.498-1.564 4.269-3.584.585-1.764.983-3.558 1.08-5.321.116-1.847-1.903-3.31-3.987-3.546" mask="url(#wm1yw7uxld)"/>
                            <path fill="#FFF" d="M9.872 12.467c-.102-.25-.313-.768-.123-1.563.225-.942 1.244-1.663 2.597-1.837l.171 1.462c-.969.125-1.369.58-1.405.733-.076.314-.012.47.04.596.028.07.048.126.06.169l-.676.201-.664.239z" mask="url(#wm1yw7uxld)"/>
                            <path fill="#000" d="M28.737 19.267l-1.427-.517c.09-.203.174-.409.253-.617l1.454.448c-.087.231-.18.46-.28.686M16.07 1.465c-.46-.025-.928-.025-1.388-.001L14.608.02c.51-.027 1.03-.026 1.54.001l-.077 1.444zm-4.12.448L11.57.519c.492-.139.999-.25 1.506-.334l.227 1.428c-.456.075-.911.176-1.354.3zm6.853.007c-.444-.125-.9-.227-1.354-.303l.23-1.427c.506.084 1.013.198 1.506.337l-.382 1.393zM9.375 2.951l-.668-1.278c.454-.243.925-.464 1.4-.656l.527 1.344c-.428.172-.851.37-1.259.59zm11.998.013c-.407-.22-.83-.42-1.257-.593l.53-1.342c.474.192.944.414 1.398.66l-.67 1.275zM7.083 4.53L6.16 3.426c.391-.336.804-.655 1.227-.946l.8 1.197c-.38.262-.752.549-1.104.852zm16.579.017c-.351-.303-.722-.59-1.103-.854l.803-1.195c.423.293.835.612 1.225.95l-.925 1.1zM5.176 6.568L4.043 5.69c.31-.413.646-.814.998-1.19l1.034.995c-.317.34-.62.7-.9 1.072zm20.388.022c-.278-.372-.58-.733-.897-1.074l1.036-.993c.353.378.687.78.997 1.193l-1.136.874zM3.745 8.973l-1.293-.608c.215-.47.458-.935.724-1.38l1.22.747c-.238.4-.457.818-.65 1.241zM26.991 9c-.193-.424-.411-.843-.649-1.245l1.222-.744c.264.446.507.911.72 1.383L26.992 9zM2.86 11.635l-1.393-.31c.11-.507.249-1.014.413-1.508l1.35.462c-.147.444-.272.9-.37 1.356zm25.008.029c-.097-.456-.221-.913-.367-1.357l1.352-.458c.162.493.3 1 .409 1.508l-1.394.307zM2.563 14.429H1.138c0-.52.028-1.045.083-1.56l1.416.154c-.049.464-.074.937-.074 1.406zm25.597.031v-.042c0-.447-.023-.91-.07-1.365l1.417-.152c.052.504.08 1.02.08 1.531l-1.427.028zM1.47 17.534c-.11-.506-.195-1.026-.25-1.544l1.417-.155c.05.465.126.933.225 1.388l-1.392.311zm27.777.033l-1.391-.315c.1-.456.177-.923.227-1.388l1.417.16c-.056.516-.141 1.035-.253 1.543zM2.556 19.267c-.1-.226-.193-.455-.28-.686l1.454-.448c.079.208.162.414.253.617l-1.427.517z" mask="url(#wm1yw7uxld)"/>
                        </g>
                    </g>
                </g>
            </g>
        </g>
    </g>
</svg>
