<svg xmlns="http://www.w3.org/2000/svg" xmlns:xlink="http://www.w3.org/1999/xlink" width="40" height="40" viewBox="0 0 40 40">
    <defs>
        <path id="zwbc19toba" d="M0 0H40V40H0z"/>
        <path id="unfswn6m3c" d="M0 32.867L29 32.867 29 0 0 0z"/>
    </defs>
    <g fill="none" fill-rule="evenodd">
        <g>
            <g>
                <g transform="translate(-248.000000, -720.000000) translate(190.000000, 712.000000) translate(58.000000, 8.000000)">
                    <mask id="rafudizerb" fill="#fff">
                        <use xlink:href="#zwbc19toba"/>
                    </mask>
                    <g mask="url(#rafudizerb)">
                        <g transform="translate(6.000000, 3.283333)">
                            <path fill="#F8B422" d="M14.108 24.37c-2.092 0-3.788-1.602-3.788-3.576 0-1.975 1.696-3.576 3.788-3.576.132 0 .263.007.392.02v-.76c0-3.78-3.246-6.845-7.25-6.845S0 12.698 0 16.477v.76c.129-.012.26-.02.392-.02 2.092 0 3.788 1.602 3.788 3.577 0 1.974-1.696 3.576-3.788 3.576-.133 0-.263-.007-.392-.02v2.24c0 3.78 3.246 6.843 7.25 6.843s7.25-3.063 7.25-6.843v-2.24c-.129.013-.26.02-.392.02"/>
                            <mask id="btwttvk10d" fill="#fff">
                                <use xlink:href="#unfswn6m3c"/>
                            </mask>
                            <path fill="#000" d="M5.22 27.2L6.38 27.2 6.38.567 5.22.567zM7.54 27.2L8.7 27.2 8.7.567 7.54.567z" mask="url(#btwttvk10d)"/>
                            <path fill="#000" d="M4.06 6.233L9.28 6.233 9.28 5.1 4.06 5.1zM4.06 3.967L9.28 3.967 9.28 2.833 4.06 2.833zM5.22 1.7L8.7 1.7 8.7.567 5.22.567zM4.06 27.2L9.28 27.2 9.28 26.067 4.06 26.067z" mask="url(#btwttvk10d)"/>
                            <path fill="#FFF" d="M16.82 20.684c0 1.564-1.428 2.833-3.19 2.833-1.761 0-3.19-1.27-3.19-2.833 0-1.566 1.429-2.834 3.19-2.834 1.762 0 3.19 1.268 3.19 2.834" mask="url(#btwttvk10d)"/>
                            <path fill="#00DBB6" d="M15.08 20.683c0 .783-.649 1.417-1.45 1.417-.8 0-1.45-.634-1.45-1.417 0-.782.65-1.416 1.45-1.416.801 0 1.45.634 1.45 1.416" mask="url(#btwttvk10d)"/>
                            <path fill="#000" d="M13.63 18.36c-1.311 0-2.378 1.042-2.378 2.324 0 1.28 1.067 2.323 2.378 2.323 1.311 0 2.378-1.042 2.378-2.323 0-1.282-1.067-2.324-2.378-2.324m0 6.007c-2.079 0-3.77-1.653-3.77-3.683 0-2.032 1.691-3.684 3.77-3.684 2.079 0 3.77 1.652 3.77 3.684 0 2.03-1.691 3.683-3.77 3.683" mask="url(#btwttvk10d)"/>
                            <path fill="#FFF" d="M26.1 17.85c0 1.565-1.428 2.833-3.19 2.833-1.761 0-3.19-1.268-3.19-2.833 0-1.564 1.429-2.833 3.19-2.833 1.762 0 3.19 1.269 3.19 2.833" mask="url(#btwttvk10d)"/>
                            <path fill="#00DBB6" d="M24.36 17.85c0 .783-.649 1.417-1.45 1.417-.8 0-1.45-.634-1.45-1.417 0-.782.65-1.417 1.45-1.417.801 0 1.45.635 1.45 1.417" mask="url(#btwttvk10d)"/>
                            <path fill="#000" d="M22.91 15.527c-1.311 0-2.378 1.042-2.378 2.323 0 1.28 1.067 2.323 2.378 2.323 1.311 0 2.378-1.042 2.378-2.323s-1.067-2.323-2.378-2.323m0 6.006c-2.079 0-3.77-1.652-3.77-3.683 0-2.031 1.691-3.683 3.77-3.683 2.079 0 3.77 1.652 3.77 3.683 0 2.031-1.691 3.683-3.77 3.683" mask="url(#btwttvk10d)"/>
                            <path fill="#000" d="M17.662 20.967L16.24 20.967 16.24 8.395 27.26 4.533 27.26 17.603 25.838 17.603 25.838 6.489 17.662 9.353z" mask="url(#btwttvk10d)"/>
                            <path fill="#000" d="M19.615 11.9L19.14 10.646 28.525 7.367 29 8.621z" mask="url(#btwttvk10d)"/>
                        </g>
                    </g>
                </g>
            </g>
        </g>
    </g>
</svg>
