<svg xmlns="http://www.w3.org/2000/svg" xmlns:xlink="http://www.w3.org/1999/xlink" width="40" height="40" viewBox="0 0 40 40">
    <defs>
        <path id="gyvjpaef9a" d="M0 0H40V40H0z"/>
    </defs>
    <g fill="none" fill-rule="evenodd">
        <g>
            <g>
                <g transform="translate(-72.000000, -1032.000000) translate(14.000000, 1024.000000) translate(58.000000, 8.000000)">
                    <mask id="o2w619cm4b" fill="#fff">
                        <use xlink:href="#gyvjpaef9a"/>
                    </mask>
                    <g mask="url(#o2w619cm4b)">
                        <g>
                            <path fill="#000" d="M12.638 1.7L13.787 1.7 13.787 0 12.638 0zM9.657 2.267L9.191.369 10.45 0 10.915 1.899zM7.338 3.967L6.319 2.369 7.598 1.7 8.617 3.298zM4.779 5.667L3.447 4.352 4.412 3.4 5.745 4.714zM3.343 7.933L1.723 6.928 2.401 5.667 4.021 6.672zM0 10.308L1.924 10.767 2.298 9.526.374 9.067zM0 13.6L1.723 13.6 1.723 12.467 0 12.467zM0 15.758L.374 17 2.298 16.541 1.924 15.3zM2.401 20.4L1.723 19.138 3.344 18.133 4.021 19.395zM24.599 20.4L22.979 19.395 23.657 18.133 25.277 19.138zM26.052 17L24.128 16.541 24.501 15.3 26.426 15.759zM25.277 13.6L27 13.6 27 12.467 25.277 12.467zM24.501 10.767L24.128 9.526 26.052 9.067 26.426 10.308zM23.657 7.933L22.979 6.672 24.599 5.667 25.277 6.928zM22.221 5.667L21.255 4.714 22.588 3.4 23.553 4.352zM19.662 3.967L18.383 3.298 19.402 1.7 20.681 2.368zM17.343 2.267L16.085 1.898 16.55 0 17.809.368zM22.588 22.667L21.255 21.352 22.221 20.4 23.553 21.714zM4.412 22.667L3.447 21.714 4.779 20.4 5.745 21.352z" transform="translate(6.000000, 3.000000)"/>
                            <path fill="#FFF" d="M9.191 11.9L9.191 11.34 13.805 5.1 17.809 11.34 17.809 11.9" transform="translate(6.000000, 3.000000)"/>
                            <path fill="#000" d="M18.383 12.467L16.973 12.467 16.973 12.069 13.487 6.488 9.453 12.094 9.453 12.466 8.043 12.466 8.043 11.647 13.571 3.967 18.383 11.673z" transform="translate(6.000000, 3.000000)"/>
                            <path fill="#F8B422" d="M8.617 28.9L8.617 11.9 17.809 11.9 17.808 28.9z" transform="translate(6.000000, 3.000000)"/>
                            <path fill="#000" d="M18.383 11.333H8.043v18.133h10.34V11.334zm-1.396 1.353v15.428H9.438V12.686h7.55z" transform="translate(6.000000, 3.000000)"/>
                            <path fill="#000" d="M11.489 29.467L12.638 29.467 12.638 13.033 11.489 13.033zM14.362 29.467L14.362 13.033 15.51 13.033 15.511 29.467zM12.064 7.367L14.936 7.367 14.936 6.233 12.064 6.233z" transform="translate(6.000000, 3.000000)"/>
                            <path fill="#00DBB6" d="M8.043 31.167v2.117c0 .395.312.716.697.716h8.946c.385 0 .697-.32.697-.716v-2.117H8.043z" transform="translate(6.000000, 3.000000)"/>
                        </g>
                    </g>
                </g>
            </g>
        </g>
    </g>
</svg>
