<?xml version="1.0" encoding="UTF-8"?>
<svg width="24px" height="24px" viewBox="0 0 24 24" version="1.1" xmlns="http://www.w3.org/2000/svg" xmlns:xlink="http://www.w3.org/1999/xlink">
    <title>store</title>
    <g id="小網Guideline" stroke="none" stroke-width="1" fill="none" fill-rule="evenodd">
        <g id="icon" transform="translate(-192.000000, -122.000000)" fill-rule="nonzero">
            <g id="store" transform="translate(192.000000, 122.000000)">
                <rect id="Rectangle" fill="#000000" opacity="0" x="0" y="0" width="24" height="24"></rect>
                <path d="M18.2385713,19.40625 L18.2385713,14.3599062 C18.7545228,14.5700036 19.314255,14.6574057 19.8716185,14.6149062 L19.8716185,19.40625 C19.8716185,20.2864538 19.1404783,21 18.2385713,21 L13.3394297,21 L13.3394297,17.28125 L11.7063824,17.28125 L11.7063824,21 L6.80724083,21 C5.90533376,21 5.17419362,20.2864538 5.17419362,19.40625 L5.17419362,14.5325625 C5.711138,14.6564831 6.27029645,14.6564831 6.80724083,14.5325625 L6.80724083,19.40625 L10.0733352,19.40625 L10.0733352,15.6875 L14.9724769,15.6875 L14.9724769,19.40625 L18.2385713,19.40625 L18.2385713,14.3599062 L18.2385713,19.40625 Z M17.7023874,4 C18.2778282,4.00010336 18.8107411,4.29576906 19.105175,4.77828124 L21.70172,9.03253126 L21.6946435,9.03199999 C22.3383256,10.2717779 21.9358624,11.7852985 20.7556695,12.5631468 C19.5754766,13.3409951 17.9865623,13.1399629 17.0486242,12.094125 C16.4674364,12.6964182 15.656901,13.0373268 14.8091721,13.0360349 C13.9244679,13.0369823 13.0822374,12.6658792 12.497866,12.017625 C11.9136199,12.6657399 11.0716185,13.0368293 10.1871042,13.0360349 C9.33945554,13.0369461 8.52906835,12.6960999 7.94765212,12.094125 C6.96869178,13.1814496 5.29486675,13.3448847 4.11458335,12.4683925 C2.93429994,11.5919002 2.64942398,9.97391077 3.46221578,8.76318751 L5.6455999,4.83406249 C5.93112866,4.3201526 6.482037,4 7.08104839,4 L17.7023874,4 Z M17.7023874,5.59375 L7.08104839,5.59375 L4.86337029,9.58343749 L4.82526586,9.64081249 C4.48471682,10.1517959 4.60602259,10.8326719 5.10331673,11.2014817 C5.60061086,11.5702914 6.30527508,11.501982 6.71851191,11.0449062 L7.90029375,9.72581251 L9.1343331,10.9992188 C9.40705198,11.2813125 9.7821085,11.4422813 10.1871042,11.4422813 C10.6095191,11.4422813 10.999273,11.2669688 11.2736249,10.9630937 L12.4984103,9.60946876 L13.7226514,10.9630937 C13.9970033,11.2669688 14.3867573,11.4422813 14.8091721,11.4422813 C15.2141678,11.4422813 15.58868,11.2813125 15.8608545,11.0002812 L17.0938052,9.72528124 L18.27722,11.044375 C18.6727797,11.4852994 19.3426336,11.5702669 19.8405421,11.2426741 C20.3384506,10.9150814 20.5089722,10.2771993 20.2385097,9.75396874 L20.2200019,9.718375 L17.7023874,5.59375 Z" id="Shape" fill="#3E3E3E"></path>
            </g>
        </g>
    </g>
</svg>