<?xml version="1.0" encoding="UTF-8"?>
<svg width="32px" height="32px" viewBox="0 0 32 32" version="1.1" xmlns="http://www.w3.org/2000/svg" xmlns:xlink="http://www.w3.org/1999/xlink">
    <title>add-circle</title>
    <g id="Guideline" stroke="none" stroke-width="1" fill="none" fill-rule="evenodd">
        <g id="icon" transform="translate(-30.000000, -182.000000)" fill-rule="nonzero">
            <g id="add-circle" transform="translate(30.000000, 182.000000)">
                <rect id="Rectangle" fill="#000000" opacity="0" x="0" y="0" width="32" height="32"></rect>
                <path d="M16,2.33333334 C23.5333333,2.33333334 29.6666667,8.46666666 29.6666667,16 C29.6666667,23.5333333 23.5333333,29.6666667 16,29.6666667 C8.46666666,29.6666667 2.33333334,23.5333333 2.33333334,16 C2.33333334,8.46666666 8.46666666,2.33333334 16,2.33333334 Z" id="Shape" fill="#F9935C"></path>
                <path d="M21.3333333,15 L17,15 L17,10.6666667 C17,10.1333333 16.5333333,9.66666666 16,9.66666666 C15.4666667,9.66666666 15,10.1333333 15,10.6666667 L15,15 L10.6666667,15 C10.1333333,15 9.66666666,15.4666667 9.66666666,16 C9.66666666,16.5333333 10.1333333,17 10.6666667,17 L15,17 L15,21.3333333 C15,21.8666667 15.4666667,22.3333333 16,22.3333333 C16.5333333,22.3333333 17,21.8666667 17,21.3333333 L17,17 L21.3333333,17 C21.8666667,17 22.3333333,16.5333333 22.3333333,16 C22.3333333,15.4666667 21.8666667,15 21.3333333,15 Z" id="Path" fill="#FFFFFF"></path>
            </g>
        </g>
    </g>
</svg>