<?xml version="1.0" encoding="UTF-8"?>
<svg width="24px" height="24px" viewBox="0 0 24 24" version="1.1" xmlns="http://www.w3.org/2000/svg" xmlns:xlink="http://www.w3.org/1999/xlink">
    <title>channel_y</title>
    <g id="Guideline" stroke="none" stroke-width="1" fill="none" fill-rule="evenodd">
        <g id="icon" transform="translate(-154.000000, -276.000000)" fill-rule="nonzero">
            <g id="channel_y" transform="translate(154.000000, 276.000000)">
                <rect id="Rectangle" fill="#3E3E3E" opacity="0" x="0" y="0" width="24" height="24"></rect>
                <path d="M3,3 C1.8945,3 1.0005,3.8955 1.0005,4.9995 L1.0005,16.9995 C1.0005,18.105 1.8945,19.0005 3,19.0005 L7.9995,19.0005 L7.9995,21 L16.0005,21 L16.0005,19.0005 L21,19.0005 C22.1055,19.0005 22.9995,18.105 22.9995,16.9995 L22.9995,4.9995 C22.9995,3.8955 22.1055,3 21,3 L3,3 Z M3,4.9995 L21,4.9995 L21,16.9995 L3,16.9995 L3,4.9995 Z M4.9995,7.0005 L4.9995,10.0005 L10.9995,10.0005 L10.9995,7.0005 L4.9995,7.0005 Z M13.0005,7.0005 L13.0005,10.0005 L19.0005,10.0005 L19.0005,7.0005 L13.0005,7.0005 Z M4.9995,12 L4.9995,15 L10.9995,15 L10.9995,12 L4.9995,12 Z M13.0005,12 L13.0005,15 L19.0005,15 L19.0005,12 L13.0005,12 Z" id="Shape" fill="#FFB400"></path>
            </g>
        </g>
    </g>
</svg>