<?xml version="1.0" encoding="UTF-8"?>
<svg width="24px" height="24px" viewBox="0 0 24 24" version="1.1" xmlns="http://www.w3.org/2000/svg" xmlns:xlink="http://www.w3.org/1999/xlink">
    <title>contacts</title>
    <g id="Guideline" stroke="none" stroke-width="1" fill="none" fill-rule="evenodd">
        <g id="icon" transform="translate(-65.000000, -682.000000)">
            <g id="contacts" transform="translate(65.000000, 682.000000)">
                <rect id="Rectangle-Copy-3" fill="#000000" fill-rule="nonzero" opacity="0" x="0" y="0" width="24" height="24"></rect>
                <g id="Group-23" transform="translate(1.000000, 3.000000)" fill="#3E3E3E">
                    <path d="M0,18 C0,14.2129046 3.13400675,11.1428571 7,11.1428571 C10.8659932,11.1428571 14,14.2129046 14,18 L12.25,18 C12.25,15.1596784 9.89949494,12.8571429 7,12.8571429 C4.10050506,12.8571429 1.74999999,15.1596784 1.74999999,18 L0,18 L0,18 Z M7,10.2857143 C4.099375,10.2857143 1.74999999,7.98428571 1.74999999,5.14285714 C1.74999999,2.30142857 4.099375,0 7,0 C9.900625,0 12.25,2.30142857 12.25,5.14285714 C12.25,7.98428571 9.900625,10.2857143 7,10.2857143 Z M6.99999999,8.57142856 C8.93375,8.57142856 10.5,7.03714285 10.5,5.14285714 C10.5,3.24857144 8.93375002,1.71428571 6.99999999,1.71428571 C5.06624998,1.71428571 3.49999999,3.24857142 3.49999999,5.14285714 C3.49999999,7.03714287 5.06624998,8.57142856 6.99999999,8.57142856 L6.99999999,8.57142856 Z" id="Shape-Copy" fill-rule="nonzero"></path>
                    <g id="Group-24" transform="translate(14.000000, 4.000000)">
                        <rect id="Rectangle" x="0" y="0" width="8" height="2" rx="1"></rect>
                        <rect id="Rectangle-Copy" x="0" y="4.5" width="8" height="2" rx="1"></rect>
                        <rect id="Rectangle-Copy-2" x="0" y="9" width="5" height="2" rx="1"></rect>
                    </g>
                </g>
            </g>
        </g>
    </g>
</svg>