<?xml version="1.0" encoding="UTF-8"?>
<svg width="24px" height="24px" viewBox="0 0 24 24" version="1.1" xmlns="http://www.w3.org/2000/svg" xmlns:xlink="http://www.w3.org/1999/xlink">
    <title>delete</title>
    <g id="Guideline" stroke="none" stroke-width="1" fill="none" fill-rule="evenodd">
        <g id="icon" transform="translate(-98.000000, -138.000000)" fill-rule="nonzero">
            <g id="delete" transform="translate(98.000000, 138.000000)">
                <rect id="Rectangle" fill="#000000" opacity="0" x="0" y="0" width="24" height="24"></rect>
                <path d="M19.3,6.19999999 L3.94999999,6.19999999 C3.54999998,6.19999999 3.19999999,5.85 3.19999999,5.44999999 C3.19999999,5.04999998 3.54999998,4.69999999 3.94999999,4.69999999 L19.3,4.69999999 C19.7,4.69999999 20.05,5.04999998 20.05,5.44999999 C20.05,5.85 19.7,6.19999999 19.3,6.19999999 L19.3,6.19999999 Z M17.25,21.75 L6,21.75 C5.05000001,21.75 4.24999999,20.95 4.24999999,20 L4.24999999,8.14999999 C4.24999999,7.74999998 4.59999998,7.39999999 4.99999999,7.39999999 C5.4,7.39999999 5.74999999,7.74999998 5.74999999,8.14999999 L5.74999999,20 C5.74999999,20.15 5.85,20.25 6,20.25 L17.3,20.25 C17.45,20.25 17.55,20.15 17.55,20 L17.55,8.14999999 C17.55,7.74999998 17.9,7.39999999 18.3,7.39999999 C18.7,7.39999999 19.05,7.74999998 19.05,8.14999999 L19.05,20 C19,20.95 18.25,21.75 17.25,21.75 Z M12.35,6.19999999 L10.9,6.19999999 C10.2,6.19999999 9.64999999,5.64999998 9.64999999,4.95 L9.64999999,3.6 C9.64999999,2.89999999 10.2,2.35000001 10.9,2.35000001 L12.35,2.35000001 C13.05,2.35000001 13.6,2.90000002 13.6,3.6 L13.6,4.95 C13.6,5.65000001 13.05,6.19999999 12.35,6.19999999 L12.35,6.19999999 Z M11.15,4.69999999 L12.1,4.69999999 L12.1,3.85000001 L11.15,3.85000001 L11.15,4.69999999 Z M9.04999999,16.25 C8.64999998,16.25 8.29999999,15.9 8.29999999,15.5 L8.29999999,10.35 C8.29999999,9.94999999 8.64999998,9.6 9.04999999,9.6 C9.45,9.6 9.79999999,9.94999999 9.79999999,10.35 L9.79999999,15.5 C9.79999999,15.9 9.49999999,16.25 9.04999999,16.25 Z M14,16.25 C13.6,16.25 13.25,15.9 13.25,15.5 L13.25,10.35 C13.25,9.94999999 13.6,9.6 14,9.6 C14.4,9.6 14.75,9.94999999 14.75,10.35 L14.75,15.5 C14.75,15.9 14.4,16.25 14,16.25 Z" id="Shape" fill="#3E3E3E"></path>
            </g>
        </g>
    </g>
</svg>