<?xml version="1.0" encoding="UTF-8"?>
<svg width="24px" height="24px" viewBox="0 0 24 24" version="1.1" xmlns="http://www.w3.org/2000/svg" xmlns:xlink="http://www.w3.org/1999/xlink">
    <title>mms-s_y</title>
    <g id="Guideline" stroke="none" stroke-width="1" fill="none" fill-rule="evenodd">
        <g id="icon" transform="translate(-123.000000, -276.000000)">
            <g id="mms-s_y" transform="translate(123.000000, 276.000000)">
                <g id="Group-5-Copy-4" fill-rule="nonzero">
                    <g id="search">
                        <rect id="Rectangle" fill="#000000" opacity="0" x="0" y="0" width="24" height="24"></rect>
                        <path d="M23.3068905,22.198525 L19.5654431,18.1950429 C21.0819492,16.3686454 21.9159099,14.0919248 21.9159099,11.6951704 C21.9159099,6.0724081 17.3405018,1.497 11.7161704,1.497 C6.0934081,1.497 1.518,6.07162357 1.518,11.6951704 C1.518,17.3187173 6.0934081,21.8933408 11.716955,21.8933408 C13.1903117,21.8925563 14.6111046,21.5850186 15.9393223,20.9801421 C16.3339434,20.8004836 16.5081102,20.3352543 16.3284517,19.9414178 C16.1487932,19.5460121 15.6812103,19.3710608 15.2897273,19.5522884 C14.1654887,20.0638052 12.9635811,20.3234863 11.7161704,20.3242709 C6.95796567,20.3242709 3.08706999,16.4533752 3.08706999,11.6951704 C3.08706999,6.9377502 6.95796567,3.06606999 11.7161704,3.06606999 C16.4751597,3.06606999 20.3468399,6.93696567 20.3468399,11.6951704 C20.3468399,13.9350178 19.4924813,16.057185 17.9422402,17.6709735 C17.6417633,17.9832184 17.6519622,18.4798291 17.9634226,18.780306 C17.9869587,18.8030575 18.0175555,18.8116874 18.0442297,18.8313008 C18.0654122,18.8626822 18.0763956,18.8987708 18.1030698,18.927014 L22.1606848,23.2686307 C22.3144537,23.4341676 22.5239245,23.5173283 22.7333954,23.5173283 C22.9256065,23.5173283 23.1178175,23.4475047 23.2692328,23.3055038 C23.5854004,23.0113032 23.6026602,22.5146926 23.3068905,22.198525 Z" id="Path" stroke="#F9935C" stroke-width="0.3" fill="#F9935C"></path>
                    </g>
                </g>
                <g id="Group-6" transform="translate(5.000000, 6.000000)" fill="#F9935C">
                    <path d="M4.50000245,0 C5.32842958,0 6.00000245,0.671572875 6.00000245,1.5 C6.00000245,2.32842712 5.32842958,3 4.50000245,3 C3.67157533,3 3.00000245,2.32842712 3.00000245,1.5 C3.00000245,0.671572875 3.67157533,0 4.50000245,0 Z" id="Path"></path>
                    <path d="M14,9.50000002 C14,9.63260826 13.947324,9.75978522 13.8535559,9.85355341 C13.7597877,9.9473216 13.6326107,10 13.5,10 L0.5,10 C0.36739422,10 0.240217259,9.9473216 0.146449066,9.85355341 C0.0526808734,9.75978522 0,9.63260826 0,9.50000002 L0,9.16000001 C-0.000356232738,9.05006855 0.0386663396,8.94364337 0.110002466,8.86000001 L3,5.19 C3.08683359,5.08273088 3.21274519,5.01437888 3.35000247,5.00000002 C3.50046472,4.99825915 3.64371025,5.06437247 3.74000247,5.18000002 L5.19000245,6.93 C5.28318037,7.04405996 5.42272119,7.11015824 5.57000247,7.11 C5.72701463,7.10846434 5.87456663,7.03468834 5.97000245,6.91000001 L8.85000245,3.19000001 C8.9467294,3.06771014 9.09408288,2.99638584 9.25000246,2.99638584 C9.40592204,2.99638584 9.55327551,3.06771014 9.65000247,3.19000001 L13.9000025,8.86000001 C13.9642796,8.9468789 13.9992969,9.05193058 14,9.16000001 L14,9.50000002 Z" id="Path"></path>
                </g>
            </g>
        </g>
    </g>
</svg>