<?xml version="1.0" encoding="UTF-8"?>
<svg width="24px" height="24px" viewBox="0 0 24 24" version="1.1" xmlns="http://www.w3.org/2000/svg" xmlns:xlink="http://www.w3.org/1999/xlink">
    <title>mms_y</title>
    <g id="Guideline" stroke="none" stroke-width="1" fill="none" fill-rule="evenodd">
        <g id="icon" transform="translate(-93.000000, -276.000000)" fill-rule="nonzero">
            <g id="mms_y" transform="translate(93.000000, 276.000000)">
                <rect id="Rectangle" fill="#000000" opacity="0" x="0" y="0" width="24" height="24"></rect>
                <path d="M12,1.84615385 C5.86153847,1.84615385 0.969230766,6.36923077 0.969230766,11.9538461 C0.969230766,13.7076923 1.47692306,15.3692308 2.3076923,16.8461539 C2.44615383,17.0769231 2.49230768,17.3538461 2.4,17.6307692 L0.969230766,21.5538461 C0.830769234,21.9230769 1.2,22.2461539 1.56923077,22.1538461 L5.53846153,20.6307692 C5.76923077,20.5384615 6.04615383,20.5846154 6.32307691,20.7230769 C7.98461538,21.6461538 9.96923077,22.2 12.0923077,22.2 C18.1384615,22.1538461 23.0769231,17.6307692 23.0769231,12.0461539 C23.0307692,6.36923077 18.0923077,1.84615385 12,1.84615385 Z M9.50000245,6 C10.3284296,6 11.0000025,6.67157288 11.0000025,7.5 C11.0000025,8.32842712 10.3284296,9 9.50000245,9 C8.67157533,9 8.00000245,8.32842712 8.00000245,7.5 C8.00000245,6.67157288 8.67157533,6 9.50000245,6 Z M19,15.5 C19,15.6326083 18.947324,15.7597852 18.8535559,15.8535534 C18.7597877,15.9473216 18.6326107,16 18.5,16 L5.5,16 C5.36739422,16 5.24021726,15.9473216 5.14644907,15.8535534 C5.05268087,15.7597852 5,15.6326083 5,15.5 L5,15.16 C4.99964377,15.0500685 5.03866634,14.9436434 5.11000247,14.86 L8,11.19 C8.08683359,11.0827309 8.21274519,11.0143789 8.35000247,11 C8.50046472,10.9982591 8.64371025,11.0643725 8.74000247,11.18 L10.1900025,12.93 C10.2831804,13.04406 10.4227212,13.1101582 10.5700025,13.11 C10.7270146,13.1084643 10.8745666,13.0346883 10.9700025,12.91 L13.8500025,9.19000001 C13.9467294,9.06771014 14.0940829,8.99638584 14.2500025,8.99638584 C14.405922,8.99638584 14.5532755,9.06771014 14.6500025,9.19000001 L18.9000025,14.86 C18.9642796,14.9468789 18.9992969,15.0519306 19,15.16 L19,15.5 Z" id="Shape" fill="#FFB400"></path>
            </g>
        </g>
    </g>
</svg>