<?xml version="1.0" encoding="UTF-8"?>
<svg width="24px" height="24px" viewBox="0 0 24 24" version="1.1" xmlns="http://www.w3.org/2000/svg" xmlns:xlink="http://www.w3.org/1999/xlink">
    <title>sms-s_y</title>
    <g id="Guideline" stroke="none" stroke-width="1" fill="none" fill-rule="evenodd">
        <g id="icon" transform="translate(-63.000000, -276.000000)">
            <g id="sms-s_y" transform="translate(63.000000, 276.000000)">
                <g id="search" fill-rule="nonzero">
                    <rect id="Rectangle" fill="#000000" opacity="0" x="0" y="0" width="24" height="24"></rect>
                    <path d="M23.3068905,22.198525 L19.5654431,18.1950429 C21.0819492,16.3686454 21.9159099,14.0919248 21.9159099,11.6951704 C21.9159099,6.0724081 17.3405018,1.497 11.7161704,1.497 C6.0934081,1.497 1.518,6.07162357 1.518,11.6951704 C1.518,17.3187173 6.0934081,21.8933408 11.716955,21.8933408 C13.1903117,21.8925563 14.6111046,21.5850186 15.9393223,20.9801421 C16.3339434,20.8004836 16.5081102,20.3352543 16.3284517,19.9414178 C16.1487932,19.5460121 15.6812103,19.3710608 15.2897273,19.5522884 C14.1654887,20.0638052 12.9635811,20.3234863 11.7161704,20.3242709 C6.95796567,20.3242709 3.08706999,16.4533752 3.08706999,11.6951704 C3.08706999,6.9377502 6.95796567,3.06606999 11.7161704,3.06606999 C16.4751597,3.06606999 20.3468399,6.93696567 20.3468399,11.6951704 C20.3468399,13.9350178 19.4924813,16.057185 17.9422402,17.6709735 C17.6417633,17.9832184 17.6519622,18.4798291 17.9634226,18.780306 C17.9869587,18.8030575 18.0175555,18.8116874 18.0442297,18.8313008 C18.0654122,18.8626822 18.0763956,18.8987708 18.1030698,18.927014 L22.1606848,23.2686307 C22.3144537,23.4341676 22.5239245,23.5173283 22.7333954,23.5173283 C22.9256065,23.5173283 23.1178175,23.4475047 23.2692328,23.3055038 C23.5854004,23.0113032 23.6026602,22.5146926 23.3068905,22.198525 Z" id="Path" stroke="#F9935C" stroke-width="0.3" fill="#F9935C"></path>
                </g>
                <g id="Group-2-Copy-2" transform="translate(4.500000, 9.000000)" fill="#F9935C">
                    <path d="M3.560314,4.07692309 C3.43523315,4.26923078 3.31015229,4.46153848 3.14337782,4.57692309 C2.97660336,4.6923077 2.76813528,4.80769232 2.51797359,4.88461539 C2.30950551,4.96153846 2.05934382,4.96153846 1.80918211,4.96153846 C1.47563319,4.96153846 1.18377786,4.92307691 0.891922551,4.8076923 C0.600067244,4.6923077 0.308211917,4.53846154 0.0997438314,4.3076923 L0.0163566101,4.23076924 C-0.0253370112,4.1923077 0.0163566101,4.11538463 0.0997438314,4.03846154 L0.766841708,3.46153846 C0.850228951,3.38461537 0.933616172,3.38461537 0.975309772,3.42307693 C1.01700337,3.4615385 1.05869701,3.53846154 1.05869701,3.53846154 C1.14208426,3.65384615 1.2671651,3.73076924 1.39224594,3.8076923 C1.60071403,3.92307691 1.80918211,3.92307691 2.0593438,3.88461539 C2.14273104,3.88461539 2.18442464,3.84615385 2.26781188,3.8076923 L2.39289275,3.6923077 C2.43458637,3.65384615 2.43458637,3.57692309 2.43458635,3.53846154 C2.43458635,3.38461539 2.39289273,3.34615385 2.35119913,3.3076923 C2.26781188,3.23076922 2.14273104,3.15384615 1.97595658,3.11538461 C1.80918211,3.07692307 1.64240765,3 1.43393956,2.96153846 C1.22547148,2.88461537 1.01700339,2.8076923 0.85022893,2.73076924 C0.641760845,2.61538463 0.516680002,2.46153848 0.391599159,2.3076923 C0.266518317,2.11538461 0.183131074,1.88461539 0.183131074,1.57692309 C0.183131074,1.30769232 0.224824695,1.07692309 0.349905538,0.884615391 C0.474986381,0.692307695 0.600067244,0.538461543 0.808535308,0.423076934 C0.975309772,0.307692324 1.18377786,0.192307695 1.43393956,0.153846152 C1.93426296,0.038461543 2.43458635,0.038461543 2.93490976,0.192307695 C3.18507147,0.269230781 3.43523315,0.423076934 3.560314,0.5 L3.68539484,0.576923086 C3.76878208,0.615384629 3.72708846,0.730769238 3.64370124,0.807692305 L3.01829698,1.38461539 C2.93490974,1.46153848 2.8098289,1.46153848 2.72644168,1.38461539 C2.64305443,1.34615385 2.60136083,1.26923078 2.55966721,1.26923078 C2.35119913,1.15384617 2.05934382,1.11538463 1.80918211,1.15384615 C1.72579487,1.15384615 1.68410127,1.1923077 1.64240765,1.23076924 L1.51732679,1.34615385 C1.47563316,1.38461539 1.47563316,1.42307693 1.47563319,1.5 C1.47563319,1.61538461 1.51732681,1.65384615 1.55902041,1.6923077 C1.64240765,1.76923078 1.76748849,1.8076923 1.93426296,1.88461539 C2.10103742,1.92307693 2.26781188,2 2.47627997,2.03846154 C2.68474805,2.11538463 2.89321614,2.1923077 3.0599906,2.26923078 C3.26845869,2.38461539 3.39353953,2.53846154 3.51862037,2.6923077 C3.64370122,2.88461539 3.72708846,3.11538461 3.72708846,3.42307693 C3.72708846,3.65384617 3.68539484,3.88461539 3.560314,4.07692309 L3.560314,4.07692309 Z" id="Path"></path>
                    <path d="M10.4814543,4.61538461 C10.4814543,4.84615385 10.2729862,5 10.0228245,5 L9.60588838,5 C9.35572668,5 9.23064583,4.84615385 9.23064583,4.61538461 L9.23064583,2.34615385 C9.23064583,2.11538461 8.8970969,2.07692309 8.81370966,2.26923078 L8.10491819,4 C8.06322456,4.15384615 7.8964501,4.23076924 7.72967564,4.23076924 L7.43782033,4.23076924 C7.27104587,4.23076924 7.1042714,4.11538463 7.06257778,4 L6.31209268,2.26923078 C6.22870544,2.07692309 5.89515651,2.11538463 5.89515651,2.34615385 L5.89515651,4.61538461 C5.89515651,4.84615385 5.68668843,5 5.43652674,5 L5.01959057,5 C4.76942886,5 4.64434802,4.84615385 4.64434802,4.61538461 L4.64434802,0.384615391 C4.64434802,0.153846152 4.81112249,0 5.01959057,0 L6.1036246,0 C6.27039906,0 6.43717352,0.115384609 6.47886715,0.230769238 L7.31273947,2.23076924 C7.39612671,2.38461539 7.64628839,2.38461539 7.68798201,2.23076924 L8.52185436,0.230769238 C8.56354798,0.0769230859 8.73032244,0 8.8970969,0 L10.0228245,0 C10.2729862,0 10.4814543,0.153846152 10.4814543,0.384615391 L10.4814543,4.61538461 L10.4814543,4.61538461 Z" id="Path"></path>
                    <path d="M14.859284,4.11538461 C14.7342032,4.3076923 14.6091223,4.5 14.4006543,4.61538461 C14.2338798,4.73076922 14.0254117,4.84615385 13.77525,4.92307693 C13.5250883,5 13.3166203,5 13.0664585,5 C12.7329096,5 12.4410543,4.96153846 12.149199,4.84615385 C11.8573437,4.73076924 11.5654883,4.57692309 11.3570203,4.34615385 L11.273633,4.26923078 C11.2319394,4.23076924 11.273633,4.15384617 11.3570203,4.07692309 L12.0241181,3.5 C12.1075054,3.42307691 12.1908926,3.42307691 12.2325862,3.46153846 C12.2742798,3.5 12.3159734,3.57692307 12.3159734,3.57692309 C12.3993607,3.6923077 12.5244415,3.76923078 12.6495224,3.84615385 C12.8579905,3.96153846 13.1081521,3.96153846 13.3166202,3.92307693 C13.4000075,3.88461539 13.4833947,3.88461539 13.5250883,3.84615385 L13.6501692,3.73076924 C13.6501692,3.73076924 13.6918628,3.61538463 13.6918628,3.57692309 C13.6918628,3.42307693 13.6501692,3.38461539 13.6084756,3.34615385 C13.5250883,3.26923076 13.4000075,3.1923077 13.233233,3.15384615 C13.0664585,3.11538461 12.8996841,3.03846154 12.691216,3 C12.4827479,2.92307691 12.2742798,2.84615385 12.1075054,2.76923078 C11.8990373,2.65384617 11.7322628,2.50000002 11.607182,2.34615385 C11.4821011,2.15384615 11.3987139,1.92307693 11.3987139,1.61538461 C11.3987139,1.34615385 11.4404075,1.11538461 11.5654883,0.923076934 C11.6905692,0.730769238 11.8156501,0.576923086 12.0241181,0.461538457 C12.1908926,0.346153848 12.4410543,0.230769219 12.6495224,0.192307695 C13.1498458,0.0769230859 13.6501692,0.0769230859 14.1504926,0.230769238 C14.4006543,0.307692324 14.650816,0.461538477 14.7758968,0.576923086 L14.9009776,0.692307695 C14.9843649,0.730769238 14.9426713,0.846153848 14.859284,0.923076934 L14.2338798,1.5 C14.1504926,1.57692309 14.0254117,1.57692309 13.9420245,1.5 C13.8586372,1.46153846 13.8169436,1.38461539 13.77525,1.38461539 C13.5667819,1.26923078 13.2749266,1.23076924 13.0247649,1.26923078 C12.9413777,1.26923078 12.8996841,1.30769232 12.8579905,1.34615385 L12.7329096,1.46153846 C12.691216,1.5 12.691216,1.57692307 12.691216,1.61538461 C12.691216,1.73076922 12.7329096,1.76923076 12.7746032,1.8076923 C12.8579905,1.88461539 12.9830713,1.92307691 13.1498458,2 C13.3166202,2.03846154 13.4833947,2.11538461 13.6918628,2.15384615 C13.9003309,2.23076924 14.108799,2.3076923 14.2755734,2.38461539 C14.4840415,2.5 14.6091223,2.65384615 14.7758968,2.8076923 C14.9009776,3 14.9843649,3.23076922 14.9843649,3.53846154 C15.0260585,3.65384615 14.9843649,3.92307693 14.859284,4.11538461 L14.859284,4.11538461 Z" id="Path"></path>
                </g>
            </g>
        </g>
    </g>
</svg>