<?xml version="1.0" encoding="UTF-8"?>
<svg width="24px" height="24px" viewBox="0 0 24 24" version="1.1" xmlns="http://www.w3.org/2000/svg" xmlns:xlink="http://www.w3.org/1999/xlink">
    <title>sms</title>
    <g id="Guideline" stroke="none" stroke-width="1" fill="none" fill-rule="evenodd">
        <g id="icon" transform="translate(-32.000000, -235.000000)" fill-rule="nonzero">
            <g id="sms" transform="translate(32.000000, 235.000000)">
                <rect id="Rectangle" fill="#000000" opacity="0" x="0" y="0" width="24" height="24"></rect>
                <path d="M12,1.84615385 C5.86153847,1.84615385 0.969230766,6.36923077 0.969230766,11.9538461 C0.969230766,13.7076923 1.47692306,15.3692308 2.3076923,16.8461539 C2.44615383,17.0769231 2.49230768,17.3538461 2.4,17.6307692 L0.969230766,21.5538461 C0.830769234,21.9230769 1.2,22.2461539 1.56923077,22.1538461 L5.53846153,20.6307692 C5.76923077,20.5384615 6.04615383,20.5846154 6.32307691,20.7230769 C7.98461538,21.6461538 9.96923077,22.2 12.0923077,22.2 C18.1384615,22.1538461 23.0769231,17.6307692 23.0769231,12.0461539 C23.0307692,6.36923077 18.0923077,1.84615385 12,1.84615385 Z M7.56923077,13.6615385 C7.43076923,13.8923077 7.29230768,14.1230769 7.1076923,14.2615385 C6.92307691,14.4 6.69230768,14.5384616 6.41538462,14.6307692 C6.18461538,14.7230769 5.90769232,14.7230769 5.63076923,14.7230769 C5.26153847,14.7230769 4.93846153,14.6769231 4.61538462,14.5384615 C4.2923077,14.4 3.96923077,14.2153846 3.73846153,13.9384615 L3.64615385,13.8461539 C3.6,13.8 3.64615385,13.7076923 3.73846153,13.6153846 L4.47692309,12.9230769 C4.56923079,12.8307692 4.66153847,12.8307692 4.7076923,12.8769231 C4.75384612,12.923077 4.8,13.0153846 4.8,13.0153846 C4.8923077,13.1538461 5.03076923,13.2461539 5.16923077,13.3384615 C5.4,13.4769231 5.63076923,13.4769231 5.9076923,13.4307692 C6,13.4307692 6.04615383,13.3846154 6.13846153,13.3384615 L6.27692309,13.2 C6.32307694,13.1538461 6.32307694,13.0615385 6.32307691,13.0153846 C6.32307691,12.8307692 6.27692306,12.7846154 6.23076923,12.7384615 C6.13846153,12.6461538 6,12.5538461 5.81538462,12.5076923 C5.63076923,12.4615384 5.44615385,12.3692308 5.21538462,12.3230769 C4.98461538,12.2307692 4.75384615,12.1384615 4.56923077,12.0461539 C4.33846153,11.9076923 4.2,11.7230769 4.06153847,11.5384615 C3.92307694,11.3076923 3.83076923,11.0307692 3.83076923,10.6615385 C3.83076923,10.3384616 3.87692309,10.0615385 4.01538462,9.83076923 C4.15384615,9.6 4.2923077,9.41538462 4.52307691,9.27692309 C4.7076923,9.13846155 4.93846153,9 5.21538462,8.95384615 C5.76923077,8.81538462 6.32307691,8.81538462 6.87692309,9 C7.15384617,9.0923077 7.43076923,9.27692309 7.56923077,9.36923077 L7.7076923,9.46153847 C7.8,9.50769232 7.75384615,9.64615385 7.66153847,9.73846153 L6.96923077,10.4307692 C6.87692306,10.5230769 6.73846153,10.5230769 6.64615385,10.4307692 C6.55384615,10.3846154 6.50769232,10.2923077 6.46153847,10.2923077 C6.23076923,10.1538462 5.90769232,10.1076923 5.63076923,10.1538461 C5.53846153,10.1538461 5.4923077,10.2 5.44615385,10.2461539 L5.3076923,10.3846154 C5.26153845,10.4307692 5.26153845,10.4769231 5.26153847,10.5692308 C5.26153847,10.7076923 5.30769232,10.7538461 5.35384615,10.8 C5.44615385,10.8923077 5.58461538,10.9384615 5.76923077,11.0307692 C5.95384615,11.0769231 6.13846153,11.1692308 6.36923077,11.2153846 C6.6,11.3076923 6.83076923,11.4 7.01538462,11.4923077 C7.24615385,11.6307692 7.38461538,11.8153846 7.52307691,12 C7.66153845,12.2307692 7.75384615,12.5076923 7.75384615,12.8769231 C7.75384615,13.1538462 7.7076923,13.4307692 7.56923077,13.6615385 L7.56923077,13.6615385 Z M15.2307692,14.3076923 C15.2307692,14.5846154 15,14.7692308 14.7230769,14.7692308 L14.2615385,14.7692308 C13.9846154,14.7692308 13.8461539,14.5846154 13.8461539,14.3076923 L13.8461539,11.5846154 C13.8461539,11.3076923 13.4769231,11.2615385 13.3846154,11.4923077 L12.6,13.5692308 C12.5538461,13.7538461 12.3692308,13.8461539 12.1846154,13.8461539 L11.8615385,13.8461539 C11.6769231,13.8461539 11.4923077,13.7076923 11.4461539,13.5692308 L10.6153846,11.4923077 C10.5230769,11.2615385 10.1538461,11.3076923 10.1538461,11.5846154 L10.1538461,14.3076923 C10.1538461,14.5846154 9.92307691,14.7692308 9.64615385,14.7692308 L9.18461538,14.7692308 C8.9076923,14.7692308 8.76923077,14.5846154 8.76923077,14.3076923 L8.76923077,9.23076923 C8.76923077,8.95384615 8.95384615,8.76923077 9.18461538,8.76923077 L10.3846154,8.76923077 C10.5692308,8.76923077 10.7538461,8.9076923 10.8,9.04615385 L11.7230769,11.4461539 C11.8153846,11.6307692 12.0923077,11.6307692 12.1384615,11.4461539 L13.0615385,9.04615385 C13.1076923,8.86153847 13.2923077,8.76923077 13.4769231,8.76923077 L14.7230769,8.76923077 C15,8.76923077 15.2307692,8.95384615 15.2307692,9.23076923 L15.2307692,14.3076923 L15.2307692,14.3076923 Z M20.0769231,13.7076923 C19.9384616,13.9384615 19.8,14.1692308 19.5692308,14.3076923 C19.3846154,14.4461538 19.1538461,14.5846154 18.8769231,14.6769231 C18.6,14.7692308 18.3692308,14.7692308 18.0923077,14.7692308 C17.7230769,14.7692308 17.4,14.7230769 17.0769231,14.5846154 C16.7538462,14.4461539 16.4307692,14.2615385 16.2,13.9846154 L16.1076923,13.8923077 C16.0615384,13.8461539 16.1076923,13.7538462 16.2,13.6615385 L16.9384615,12.9692308 C17.0307692,12.8769231 17.1230769,12.8769231 17.1692308,12.9230769 C17.2153846,12.9692308 17.2615385,13.0615384 17.2615385,13.0615385 C17.3538462,13.2 17.4923077,13.2923077 17.6307692,13.3846154 C17.8615385,13.5230769 18.1384615,13.5230769 18.3692308,13.4769231 C18.4615385,13.4307692 18.5538461,13.4307692 18.6,13.3846154 L18.7384615,13.2461539 C18.7384615,13.2461539 18.7846154,13.1076923 18.7846154,13.0615385 C18.7846154,12.8769231 18.7384615,12.8307692 18.6923077,12.7846154 C18.6,12.6923077 18.4615385,12.6 18.2769231,12.5538461 C18.0923077,12.5076923 17.9076923,12.4153846 17.6769231,12.3692308 C17.4461539,12.2769231 17.2153846,12.1846154 17.0307692,12.0923077 C16.8,11.9538462 16.6153846,11.7692308 16.4769231,11.5846154 C16.3384616,11.3538461 16.2461539,11.0769231 16.2461539,10.7076923 C16.2461539,10.3846154 16.2923077,10.1076923 16.4307692,9.87692309 C16.5692308,9.64615385 16.7076923,9.46153847 16.9384615,9.32307691 C17.1230769,9.18461538 17.4,9.04615383 17.6307692,9 C18.1846154,8.86153847 18.7384615,8.86153847 19.2923077,9.04615385 C19.5692308,9.13846155 19.8461539,9.32307694 19.9846154,9.46153847 L20.1230769,9.6 C20.2153846,9.64615385 20.1692308,9.78461538 20.0769231,9.87692309 L19.3846154,10.5692308 C19.2923077,10.6615385 19.1538461,10.6615385 19.0615385,10.5692308 C18.9692308,10.5230769 18.9230769,10.4307692 18.8769231,10.4307692 C18.6461539,10.2923077 18.3230769,10.2461539 18.0461539,10.2923077 C17.9538461,10.2923077 17.9076923,10.3384616 17.8615385,10.3846154 L17.7230769,10.5230769 C17.6769231,10.5692308 17.6769231,10.6615384 17.6769231,10.7076923 C17.6769231,10.8461538 17.7230769,10.8923077 17.7692308,10.9384615 C17.8615385,11.0307692 18,11.0769231 18.1846154,11.1692308 C18.3692308,11.2153846 18.5538461,11.3076923 18.7846154,11.3538461 C19.0153846,11.4461539 19.2461539,11.5384615 19.4307692,11.6307692 C19.6615385,11.7692308 19.8,11.9538461 19.9846154,12.1384615 C20.1230769,12.3692308 20.2153846,12.6461538 20.2153846,13.0153846 C20.2615385,13.1538461 20.2153846,13.4769231 20.0769231,13.7076923 L20.0769231,13.7076923 Z" id="Shape" fill="#3E3E3E"></path>
            </g>
        </g>
    </g>
</svg>