<?xml version="1.0" encoding="UTF-8"?>
<svg width="24px" height="24px" viewBox="0 0 24 24" version="1.1" xmlns="http://www.w3.org/2000/svg" xmlns:xlink="http://www.w3.org/1999/xlink">
    <title>user-settings_y</title>
    <g id="Guideline" stroke="none" stroke-width="1" fill="none" fill-rule="evenodd">
        <g id="icon" transform="translate(-183.000000, -276.000000)" fill-rule="nonzero">
            <g id="user-settings_y" transform="translate(183.000000, 276.000000)">
                <rect id="Rectangle" fill="#3E3E3E" opacity="0" x="0" y="0" width="24" height="24"></rect>
                <path d="M12,14 L12,16 C8.6862915,16 6.00000001,18.6862915 6.00000001,22 L4.00000001,22 C4.00000001,19.8782681 4.84285472,17.8434368 6.34314575,16.3431457 C7.84343677,14.8428547 9.87826808,14 12,14 L12,14 Z M12,13 C8.685,13 6,10.315 6,7.00000001 C6,3.68500001 8.685,1.00000001 12,1.00000001 C15.315,1.00000001 18,3.68500001 18,7.00000001 C18,10.315 15.315,13 12,13 Z M12,11 C14.21,11 16,9.21 16,7 C16,4.79000002 14.21,3 12,3 C9.78999998,3 7.99999999,4.78999999 7.99999999,7 C7.99999999,9.21000002 9.78999998,11 12,11 L12,11 Z M14.595,18.812 C14.468205,18.2784293 14.468205,17.7225707 14.595,17.189 L13.603,16.616 L14.603,14.884 L15.595,15.457 C15.9931626,15.0798803 16.4744609,14.8017207 17,14.645 L17,13.5 L19,13.5 L19,14.645 C19.532,14.803 20.012,15.085 20.405,15.457 L21.397,14.884 L22.397,16.616 L21.405,17.189 C21.5316366,17.7222514 21.5316366,18.2777486 21.405,18.811 L22.397,19.384 L21.397,21.116 L20.405,20.543 C20.0068374,20.9201197 19.5255391,21.1982793 19,21.355 L19,22.5 L17,22.5 L17,21.355 C16.4744609,21.1982793 15.9931626,20.9201197 15.595,20.543 L14.603,21.116 L13.603,19.384 L14.595,18.812 L14.595,18.812 Z M18,19.5 C18.8284271,19.5 19.5,18.8284271 19.5,18 C19.5,17.1715729 18.8284271,16.5 18,16.5 C17.1715729,16.5 16.5,17.1715729 16.5,18 C16.5,18.8284271 17.1715729,19.5 18,19.5 Z" id="Shape" fill="#FFB400"></path>
            </g>
        </g>
    </g>
</svg>