<?xml version="1.0" encoding="UTF-8"?>
<svg width="42px" height="42px" viewBox="0 0 42 42" version="1.1" xmlns="http://www.w3.org/2000/svg" xmlns:xlink="http://www.w3.org/1999/xlink">
    <title>User-round_g</title>
    <g id="Guideline" stroke="none" stroke-width="1" fill="none" fill-rule="evenodd">
        <g id="icon" transform="translate(-83.000000, -726.000000)">
            <g id="User-round_g" transform="translate(83.000000, 726.000000)">
                <circle id="Oval" stroke="#FFFFFF" fill="#C9C9C9" cx="21" cy="21" r="20.5"></circle>
                <g id="User" transform="translate(7.000000, 7.000000)" fill-rule="nonzero">
                    <rect id="Rectangle" fill="#000000" opacity="0" x="0" y="0" width="28" height="28"></rect>
                    <path d="M16.6483333,21.8796667 C16.6483333,23.7469748 17.6445303,25.4724388 19.2616666,26.4060929 C20.8788029,27.339747 22.8711971,27.339747 24.4883334,26.4060929 C26.1054697,25.4724388 27.1016667,23.7469748 27.1016667,21.8796667 C27.1016667,18.9930584 24.7616083,16.653 21.875,16.653 C18.9883917,16.653 16.6483333,18.9930584 16.6483333,21.8796667 L16.6483333,21.8796667 Z" id="Path" fill="#E3E3E3"></path>
                    <path d="M14,14.6906667 C11.1626667,14.6906667 8.848,12.376 8.848,9.53866668 C8.848,6.70133335 11.1626667,4.38666668 14,4.38666668 C16.8373333,4.38666668 19.152,6.70133335 19.152,9.53866668 C19.152,12.376 16.8373333,14.6906667 14,14.6906667 Z M14,5.50666668 C11.7786667,5.50666668 9.968,7.31733335 9.968,9.53866668 C9.968,11.76 11.7786667,13.5706667 14,13.5706667 C16.2213333,13.5706667 18.032,11.76 18.032,9.53866668 C18.032,7.31733335 16.2213333,5.50666668 14,5.50666668 Z M22.7733333,23.6133333 C22.5306666,23.6133333 22.3066666,23.464 22.232,23.2213333 C21.0933333,19.6186667 17.7893333,17.192 14,17.192 C10.2106667,17.192 6.90666668,19.6186667 5.74933332,23.2213333 C5.656,23.52 5.33866665,23.6693333 5.04,23.5946667 C4.74133332,23.5013334 4.57333332,23.184 4.66666668,22.8853333 C5.95466668,18.816 9.70666668,16.072 13.9813333,16.072 C18.256,16.072 22.008,18.816 23.296,22.8853333 C23.3893333,23.184 23.2213333,23.5013333 22.9226667,23.5946667 C22.8853334,23.6133334 22.8293334,23.6133334 22.7733333,23.6133333 Z" id="Shape" stroke="#FFFFFF" stroke-width="0.5" fill="#FFFFFF"></path>
                </g>
            </g>
        </g>
    </g>
</svg>