<?xml version="1.0" encoding="UTF-8"?>
<svg width="24px" height="24px" viewBox="0 0 24 24" version="1.1" xmlns="http://www.w3.org/2000/svg" xmlns:xlink="http://www.w3.org/1999/xlink">
    <title>user group</title>
    <g id="大網Guideline" stroke="none" stroke-width="1" fill="none" fill-rule="evenodd">
        <g id="icon" transform="translate(-404.000000, -138.000000)" fill-rule="nonzero">
            <g id="user-group" transform="translate(404.000000, 138.000000)">
                <rect id="Rectangle-Copy" x="0" y="0" width="24" height="24"></rect>
                <g id="Group" transform="translate(0.857143, 3.428571)" fill="#3E3E3E" stroke="#3E3E3E">
                    <path d="M8.0221133,8.832 C5.5901133,8.832 3.6061133,6.84799999 3.6061133,4.416 C3.6061133,1.98400001 5.5901133,0 8.0221133,0 C10.4541133,0 12.4381133,1.98400001 12.4381133,4.416 C12.4381133,6.84799999 10.4541133,8.832 8.0221133,8.832 Z M8.0221133,0.96 C6.1181133,0.96 4.5661133,2.51200001 4.5661133,4.416 C4.5661133,6.31999999 6.1181133,7.872 8.0221133,7.872 C9.92611329,7.872 11.4781133,6.31999999 11.4781133,4.416 C11.4781133,2.51200001 9.92611329,0.96 8.0221133,0.96 Z M15.5421133,16.48 C15.3341133,16.48 15.1421133,16.352 15.0781133,16.144 C14.1021133,13.056 11.2701133,10.976 8.0221133,10.976 C4.7741133,10.976 1.9421133,13.056 0.950113287,16.144 C0.870113295,16.4 0.598113279,16.528 0.342113295,16.464 C0.0861132872,16.384 -0.0578867128,16.112 0.0221133029,15.856 C1.1261133,12.368 4.3421133,10.016 8.00611329,10.016 C11.6701133,10.016 14.8861133,12.368 15.9901133,15.856 C16.0701133,16.112 15.9261133,16.384 15.6701133,16.464 C15.6381133,16.48 15.5901133,16.48 15.5421133,16.48 Z" id="Shape-Copy" stroke-width="0.5"></path>
                    <path d="M22.8472562,15.856 C22.9272561,16.112 22.7832561,16.384 22.5272562,16.464 C22.4952562,16.48 22.4472562,16.48 22.3992561,16.48 C22.1912561,16.48 21.9992561,16.352 21.9352562,16.144 C21.1360121,13.6152441 19.0921467,11.7624463 16.5944323,11.1742924 L16.5942463,10.1944634 C19.5097506,10.804278 21.9213241,12.9305915 22.8472562,15.856 Z" id="Combined-Shape" stroke-width="0.5"></path>
                    <path d="M17.4506847,1.38285714 C19.3449704,1.38285714 20.8792562,2.91714285 20.8792562,4.81142856 C20.8792562,6.70571428 19.3449704,8.23999999 17.4506847,8.23999999 C15.556399,8.23999999 14.0221133,6.70571428 14.0221133,4.81142856 C14.0221133,2.91714285 15.556399,1.38285714 17.4506847,1.38285714 Z M17.4506847,2.52571427 C16.1878276,2.52571427 15.1649704,3.54857143 15.1649704,4.81142856 C15.1649704,6.0742857 16.1878276,7.09714284 17.4506847,7.09714284 C18.7135419,7.09714284 19.736399,6.07428572 19.736399,4.81142856 C19.736399,3.54857141 18.7135419,2.52571427 17.4506847,2.52571427 Z" id="Combined-Shape" stroke-width="0.2"></path>
                </g>
            </g>
        </g>
    </g>
</svg>