<?xml version="1.0" encoding="utf-8"?>
<!-- Generator: Adobe Illustrator 26.2.1, SVG Export Plug-In . SVG Version: 6.00 Build 0)  -->
<svg version="1.1" id="圖層_1" xmlns="http://www.w3.org/2000/svg" xmlns:xlink="http://www.w3.org/1999/xlink" x="0px" y="0px"
	 viewBox="0 0 129.81 37.47" style="enable-background:new 0 0 129.81 37.47;" xml:space="preserve">
<style type="text/css">
	.st0{fill:url(#SVGID_1_);}
	.st1{fill:url(#SVGID_00000085947145317638079140000014022785218581991081_);}
	.st2{fill:url(#SVGID_00000070824063671491609120000008637843234138909847_);}
	.st3{fill:#413B38;}
	.st4{fill:#ED6D17;}
	.st5{fill:#E83832;}
	.st6{fill:url(#SVGID_00000060745346314550088180000014427329412520220060_);}
	.st7{fill:url(#SVGID_00000078740997842355663160000002933720655436653759_);}
	.st8{fill:url(#SVGID_00000137093954847629069090000002565423787213470893_);}
</style>
<g>
	<linearGradient id="SVGID_1_" gradientUnits="userSpaceOnUse" x1="66.9175" y1="19.1606" x2="93.7638" y2="19.1606">
		<stop  offset="0" style="stop-color:#ED6D17"/>
		<stop  offset="0.9966" style="stop-color:#E83832"/>
	</linearGradient>
	<path class="st0" d="M80.83,5.16h-1.29c-6.97,0-12.62,5.65-12.62,12.62v2.45c0,7.14,5.79,12.94,12.94,12.94h1.29
		c6.97,0,12.62-5.65,12.62-12.62v-2.45C93.76,10.95,87.97,5.16,80.83,5.16z M86.06,23.25c0,1.04-0.84,1.88-1.88,1.88H73.87
		c-0.49,0-0.74-0.6-0.39-0.94l0.73-0.73c0.32-0.32,0.5-0.75,0.5-1.19v-7.28c0-1.04,0.84-1.88,1.88-1.88h7.6
		c1.04,0,1.88,0.84,1.88,1.88V23.25z"/>
	
		<linearGradient id="SVGID_00000000919103441412579560000000787636139319870385_" gradientUnits="userSpaceOnUse" x1="96.3445" y1="19.3897" x2="119.4785" y2="19.3897">
		<stop  offset="0" style="stop-color:#ED6D17"/>
		<stop  offset="1" style="stop-color:#E83931"/>
	</linearGradient>
	
		<rect x="96.45" y="5.62" style="fill:url(#SVGID_00000000919103441412579560000000787636139319870385_);" width="7.54" height="27.55"/>
	
		<linearGradient id="SVGID_00000137126867913905013510000009437406298923728563_" gradientUnits="userSpaceOnUse" x1="96.3445" y1="19.3897" x2="119.4785" y2="19.3897">
		<stop  offset="0" style="stop-color:#ED6D17"/>
		<stop  offset="1" style="stop-color:#E83931"/>
	</linearGradient>
	<path style="fill:url(#SVGID_00000137126867913905013510000009437406298923728563_);" d="M108.46,5.62h-2.16v2.33v5.25l1.42,0
		c3.23-0.01,7.01,2.77,7.01,6.2c0,3.42-3.77,6.2-6.99,6.2h-1.43v5.25v2.33h2.16c7.17,0,12.99-6.17,12.99-13.77
		S115.63,5.62,108.46,5.62z"/>
	<rect x="41.12" y="8.56" class="st3" width="5.03" height="22.37"/>
	<g>
		<polygon class="st3" points="66.31,13.05 59.23,13.05 53.76,18.58 53.76,8.56 48.73,8.56 48.73,30.93 53.76,30.93 53.76,25.12 		
			"/>
		<polygon class="st3" points="60.4,21.22 56.65,24.82 60.51,30.93 67.27,30.93 		"/>
	</g>
	<path class="st3" d="M20.18,27.21c-0.14,0.65-0.37,1.86-0.67,3.62c-0.99,0.22-1.77,0.37-2.34,0.43c-0.57,0.06-1.1,0.09-1.6,0.09
		c-0.87,0-1.66-0.08-2.35-0.25c-0.69-0.17-1.26-0.46-1.71-0.88c-0.45-0.42-0.75-0.91-0.91-1.47c-0.16-0.56-0.24-1.14-0.24-1.75
		c0-0.15,0.01-0.36,0.02-0.62c0.01-0.26,0.06-1.1,0.14-2.52l0.41-7.38H8.37c0.06-0.71,0.11-1.85,0.16-3.42h2.67
		c0.07-0.69,0.14-1.85,0.21-3.49l2.1-0.41c0.44-0.08,1.29-0.28,2.54-0.59c-0.09,1.6-0.13,3.09-0.15,4.49h4.51
		c-0.08,1.6-0.12,2.74-0.12,3.42h-4.52c-0.25,4.81-0.37,7.6-0.37,8.36c0,0.73,0.08,1.3,0.24,1.7c0.16,0.4,0.42,0.69,0.77,0.87
		c0.35,0.18,0.73,0.27,1.14,0.27c0.3,0,0.61-0.02,0.93-0.07C18.79,27.55,19.36,27.42,20.18,27.21z"/>
	<path class="st3" d="M38.22,14.35c-0.61-0.66-1.47-1.14-2.55-1.45c-1.09-0.3-2.28-0.45-3.58-0.45c-1.15,0-2.34,0.08-3.57,0.23
		c-1.23,0.15-2.65,0.42-4.26,0.8c-0.11,0.7-0.18,1.22-0.22,1.56c-0.04,0.34-0.14,0.94-0.31,1.79c2.6-1.03,4.98-1.54,7.14-1.54
		c0.58,0,1.11,0.06,1.59,0.19c0.48,0.12,0.87,0.35,1.17,0.67c0.3,0.32,0.45,0.71,0.45,1.17c0,0.24-0.05,0.47-0.15,0.69
		c-0.1,0.22-0.26,0.44-0.47,0.65c-0.21,0.21-0.46,0.38-0.75,0.51c-0.29,0.13-0.68,0.26-1.16,0.4c-0.48,0.14-0.95,0.25-1.4,0.35
		c-1.69,0.37-3.05,0.73-4.08,1.09c-1.03,0.36-1.82,0.73-2.36,1.12c-0.54,0.38-0.99,0.78-1.33,1.2c-0.34,0.41-0.6,0.87-0.78,1.37
		c-0.18,0.5-0.27,1-0.27,1.51c0,0.89,0.23,1.77,0.68,2.64c0.46,0.88,1.16,1.51,2.12,1.92c0.96,0.4,2.18,0.6,3.67,0.6
		c0.43,0,0.89-0.02,1.38-0.05c0.49-0.03,1.14-0.12,1.96-0.26l0.22-2.81c-0.39,0.11-0.73,0.19-1,0.23c-0.42,0.06-0.82,0.09-1.2,0.09
		c-0.59,0-1.11-0.07-1.54-0.21c-0.44-0.14-0.8-0.39-1.09-0.75c-0.29-0.36-0.43-0.79-0.43-1.29c0-0.31,0.06-0.59,0.17-0.86
		c0.11-0.27,0.29-0.52,0.54-0.76c0.25-0.24,0.55-0.46,0.91-0.66c0.36-0.2,0.77-0.37,1.22-0.52c0.45-0.15,1.05-0.33,1.79-0.54
		c0.75-0.21,1.27-0.36,1.56-0.46c0.3-0.1,0.56-0.21,0.8-0.33c0.24-0.12,0.58-0.32,1.03-0.62l-0.23,4.42
		c-0.1,1.88-0.22,3.54-0.38,4.97c0.97-0.02,4.12-0.02,5.02,0c0.04-2.94,0.15-5.8,0.33-8.56c0.19-2.76,0.28-4.48,0.28-5.15
		C39.15,15.96,38.84,15.01,38.22,14.35z"/>
</g>
<g>
	<text transform="matrix(1 0 0 1 -136.2024 67.2433)"><tspan x="0" y="0" class="st3" style="font-family:'PingFangTC-Semibold-B5pc-H'; font-size:2.5108px;">灰色</tspan><tspan x="0" y="3.01" class="st3" style="font-family:'PingFangTC-Semibold-B5pc-H'; font-size:2.5108px;">R 66  G 63  B 63 </tspan><tspan x="0" y="6.03" class="st3" style="font-family:'PingFangTC-Semibold-B5pc-H'; font-size:2.5108px;">C 75  M 71  Y 68  K 34</tspan><tspan x="0" y="9.04" class="st3" style="font-family:'PingFangTC-Semibold-B5pc-H'; font-size:2.5108px;">#423f3f</tspan></text>
	<rect x="-145.53" y="68.03" class="st3" width="5.88" height="5.88"/>
</g>
<g>
	<text transform="matrix(1 0 0 1 -95.154 67.2433)"><tspan x="0" y="0" class="st3" style="font-family:'PingFangTC-Semibold-B5pc-H'; font-size:2.5108px;">橘色漸層－淺色</tspan><tspan x="0" y="3.01" class="st3" style="font-family:'PingFangTC-Semibold-B5pc-H'; font-size:2.5108px;">R 235  G 109  B 41</tspan><tspan x="0" y="6.03" class="st3" style="font-family:'PingFangTC-Semibold-B5pc-H'; font-size:2.5108px;">C 0  M 70  Y 93  K 0</tspan><tspan x="0" y="9.04" class="st3" style="font-family:'PingFangTC-Semibold-B5pc-H'; font-size:2.5108px;">#EB6D29</tspan></text>
	<rect x="-103.84" y="68.03" class="st4" width="5.88" height="5.88"/>
</g>
<g>
	
		<text transform="matrix(1 0 0 1 -146.2836 58.935)" class="st3" style="font-family:'PingFangTC-Semibold-B5pc-H'; font-size:3.5208px;">指定色票</text>
</g>
<g>
	<rect x="-64.09" y="68.03" class="st5" width="5.88" height="5.88"/>
	<text transform="matrix(1 0 0 1 -55.5523 67.2433)"><tspan x="0" y="0" class="st3" style="font-family:'PingFangTC-Semibold-B5pc-H'; font-size:2.5108px;">橘色漸層－深色</tspan><tspan x="0" y="3.01" class="st3" style="font-family:'PingFangTC-Semibold-B5pc-H'; font-size:2.5108px;">R 229  G 58  B 57</tspan><tspan x="0" y="6.03" class="st3" style="font-family:'PingFangTC-Semibold-B5pc-H'; font-size:2.5108px;">C 0  M 90  Y 78  K 0</tspan><tspan x="0" y="9.04" class="st3" style="font-family:'PingFangTC-Semibold-B5pc-H'; font-size:2.5108px;">#E53A39</tspan></text>
</g>
<g>
	
		<linearGradient id="SVGID_00000133513277410060151360000006373275490792033716_" gradientUnits="userSpaceOnUse" x1="-88.188" y1="19.1606" x2="-61.3417" y2="19.1606">
		<stop  offset="0" style="stop-color:#ED6D17"/>
		<stop  offset="0.9966" style="stop-color:#E83832"/>
	</linearGradient>
	<path style="fill:url(#SVGID_00000133513277410060151360000006373275490792033716_);" d="M-74.28,5.16h-1.29
		c-6.97,0-12.62,5.65-12.62,12.62v2.45c0,7.14,5.79,12.94,12.94,12.94h1.29c6.97,0,12.62-5.65,12.62-12.62v-2.45
		C-61.34,10.95-67.13,5.16-74.28,5.16z M-69.04,23.25c0,1.04-0.84,1.88-1.88,1.88h-10.32c-0.49,0-0.74-0.6-0.39-0.94l0.73-0.73
		c0.32-0.32,0.5-0.75,0.5-1.19v-7.28c0-1.04,0.84-1.88,1.88-1.88h7.6c1.04,0,1.88,0.84,1.88,1.88V23.25z"/>
	
		<linearGradient id="SVGID_00000095314581262906077690000007794040621975498388_" gradientUnits="userSpaceOnUse" x1="-58.761" y1="19.3897" x2="-35.6271" y2="19.3897">
		<stop  offset="0" style="stop-color:#ED6D17"/>
		<stop  offset="1" style="stop-color:#E83931"/>
	</linearGradient>
	
		<rect x="-58.65" y="5.62" style="fill:url(#SVGID_00000095314581262906077690000007794040621975498388_);" width="7.54" height="27.55"/>
	
		<linearGradient id="SVGID_00000038401248301434615910000017024439257104122768_" gradientUnits="userSpaceOnUse" x1="-58.761" y1="19.3897" x2="-35.6271" y2="19.3897">
		<stop  offset="0" style="stop-color:#ED6D17"/>
		<stop  offset="1" style="stop-color:#E83931"/>
	</linearGradient>
	<path style="fill:url(#SVGID_00000038401248301434615910000017024439257104122768_);" d="M-46.65,5.62h-2.16v2.33v5.25l1.42,0
		c3.23-0.01,7.01,2.77,7.01,6.2c0,3.42-3.77,6.2-6.99,6.2h-1.43v5.25v2.33h2.16c7.17,0,12.99-6.17,12.99-13.77
		S-39.48,5.62-46.65,5.62z"/>
	<rect x="-113.98" y="8.56" class="st3" width="5.03" height="22.37"/>
	<g>
		<polygon class="st3" points="-88.79,13.05 -95.87,13.05 -101.34,18.58 -101.34,8.56 -106.37,8.56 -106.37,30.93 -101.34,30.93 
			-101.34,25.12 		"/>
		<polygon class="st3" points="-94.71,21.22 -98.46,24.82 -94.59,30.93 -87.83,30.93 		"/>
	</g>
	<path class="st3" d="M-134.92,27.21c-0.14,0.65-0.37,1.86-0.67,3.62c-0.99,0.22-1.77,0.37-2.34,0.43c-0.57,0.06-1.1,0.09-1.6,0.09
		c-0.87,0-1.66-0.08-2.35-0.25c-0.69-0.17-1.26-0.46-1.71-0.88c-0.45-0.42-0.75-0.91-0.91-1.47c-0.16-0.56-0.24-1.14-0.24-1.75
		c0-0.15,0.01-0.36,0.02-0.62c0.01-0.26,0.06-1.1,0.14-2.52l0.41-7.38h-2.55c0.06-0.71,0.11-1.85,0.16-3.42h2.67
		c0.07-0.69,0.14-1.85,0.21-3.49l2.1-0.41c0.44-0.08,1.29-0.28,2.54-0.59c-0.09,1.6-0.13,3.09-0.15,4.49h4.51
		c-0.08,1.6-0.12,2.74-0.12,3.42h-4.52c-0.25,4.81-0.37,7.6-0.37,8.36c0,0.73,0.08,1.3,0.24,1.7c0.16,0.4,0.42,0.69,0.77,0.87
		c0.35,0.18,0.73,0.27,1.14,0.27c0.3,0,0.61-0.02,0.93-0.07C-136.31,27.55-135.74,27.42-134.92,27.21z"/>
	<path class="st3" d="M-116.88,14.35c-0.61-0.66-1.47-1.14-2.55-1.45c-1.09-0.3-2.28-0.45-3.58-0.45c-1.15,0-2.34,0.08-3.57,0.23
		c-1.23,0.15-2.65,0.42-4.26,0.8c-0.11,0.7-0.18,1.22-0.22,1.56c-0.04,0.34-0.14,0.94-0.31,1.79c2.6-1.03,4.98-1.54,7.14-1.54
		c0.58,0,1.11,0.06,1.59,0.19c0.48,0.12,0.87,0.35,1.17,0.67c0.3,0.32,0.45,0.71,0.45,1.17c0,0.24-0.05,0.47-0.15,0.69
		c-0.1,0.22-0.26,0.44-0.47,0.65c-0.21,0.21-0.46,0.38-0.75,0.51c-0.29,0.13-0.68,0.26-1.16,0.4c-0.48,0.14-0.95,0.25-1.4,0.35
		c-1.69,0.37-3.05,0.73-4.08,1.09c-1.03,0.36-1.82,0.73-2.36,1.12c-0.54,0.38-0.99,0.78-1.33,1.2c-0.34,0.41-0.6,0.87-0.78,1.37
		c-0.18,0.5-0.27,1-0.27,1.51c0,0.89,0.23,1.77,0.68,2.64c0.46,0.88,1.16,1.51,2.12,1.92c0.96,0.4,2.18,0.6,3.67,0.6
		c0.43,0,0.89-0.02,1.38-0.05c0.49-0.03,1.14-0.12,1.96-0.26l0.22-2.81c-0.39,0.11-0.73,0.19-1,0.23c-0.42,0.06-0.82,0.09-1.2,0.09
		c-0.59,0-1.11-0.07-1.54-0.21c-0.44-0.14-0.8-0.39-1.09-0.75c-0.29-0.36-0.43-0.79-0.43-1.29c0-0.31,0.06-0.59,0.17-0.86
		c0.11-0.27,0.29-0.52,0.54-0.76c0.25-0.24,0.55-0.46,0.91-0.66c0.36-0.2,0.77-0.37,1.22-0.52c0.45-0.15,1.05-0.33,1.79-0.54
		c0.75-0.21,1.27-0.36,1.56-0.46c0.3-0.1,0.56-0.21,0.8-0.33c0.24-0.12,0.58-0.32,1.03-0.62l-0.23,4.42
		c-0.1,1.88-0.22,3.54-0.38,4.97c0.97-0.02,4.12-0.02,5.02,0c0.04-2.94,0.15-5.8,0.33-8.56c0.19-2.76,0.28-4.48,0.28-5.15
		C-115.96,15.96-116.27,15.01-116.88,14.35z"/>
</g>
</svg>
