<svg xmlns="http://www.w3.org/2000/svg" xmlns:xlink="http://www.w3.org/1999/xlink" width="42" height="42" viewBox="0 0 42 42">
    <defs>
        <path id="xw3j4lotsa" d="M.928 19.223c2.424-.594 4.249-1.98 5.473-4.157C7.626 12.89 8.238 9.921 8.238 6.16V0H0v8.238h3.525v.817c0 2.028-.216 3.661-.649 4.898-.433 1.237-1.082 2.078-1.948 2.524v2.746zm13.73 0c2.425-.594 4.25-1.98 5.474-4.157 1.224-2.177 1.837-5.145 1.837-8.906V0H13.73v8.238h3.526v.817c0 2.028-.217 3.661-.65 4.898-.432 1.237-1.082 2.078-1.948 2.524v2.746z"/>
    </defs>
    <g fill="none" fill-rule="evenodd">
        <g>
            <g>
                <g>
                    <g transform="translate(-1044 -171) translate(834 170) translate(210 1) translate(10 11)">
                        <mask id="kehfxnvw0b" fill="#fff">
                            <use xlink:href="#xw3j4lotsa"/>
                        </mask>
                        <use fill="#005378" fill-rule="nonzero" xlink:href="#xw3j4lotsa"/>
                        <path fill="#003149" d="M-10 -11H32V31H-10z" mask="url(#kehfxnvw0b)"/>
                    </g>
                </g>
            </g>
        </g>
    </g>
</svg>
