<svg xmlns="http://www.w3.org/2000/svg" xmlns:xlink="http://www.w3.org/1999/xlink" width="250" height="156" viewBox="0 0 250 156">
    <defs>
        <path id="xjb9iumida" d="M0 155.766L250.002 155.766 250.002 0 0 0z"/>
    </defs>
    <g fill="none" fill-rule="evenodd">
        <g>
            <g transform="translate(-842 -240) translate(842 240)">
                <path fill="#4A4A4A" d="M153.701 138.46H24.293V54.572c0-1.697.687-3.233 1.799-4.345.663-.663 1.359-1.033 1.597-1.152 1.134-.567 2.18-.646 2.748-.648h117.12c3.393 0 6.144 2.751 6.144 6.145v83.89z"/>
                <mask id="jn06duxfnb" fill="#fff">
                    <use xlink:href="#xjb9iumida"/>
                </mask>
                <path fill="#DEF4FF" d="M30.98 130.728L147.014 130.728 147.014 56.159 30.98 56.159z" mask="url(#jn06duxfnb)"/>
                <path fill="#4A4A4A" d="M173.347 150.373H4.647l19.646-11.912H153.7l19.646 11.912" mask="url(#jn06duxfnb)"/>
                <path fill="#000" d="M4.647 155.766L173.347 155.766 173.347 150.374 4.647 150.374zM161.745 143.339H16.249l8.044-4.878H153.7l8.044 4.878M103.794 148.48H79.252l1.357-3.248h21.828l1.357 3.248" mask="url(#jn06duxfnb)"/>
                <path fill="#4A4A4A" d="M240.282 63.547h-64.028v-39.52c0-1.389.562-2.645 1.472-3.555.524-.524 1.071-.823 1.26-.92.945-.483 1.821-.55 2.293-.552h53.977c2.775 0 5.026 2.25 5.026 5.026v39.52z" mask="url(#jn06duxfnb)"/>
                <path fill="#DEF4FF" d="M179.563 59.72L236.973 59.72 236.973 22.826 179.563 22.826z" mask="url(#jn06duxfnb)"/>
                <path fill="#4A4A4A" d="M250.001 69.44h-83.467l9.72-5.894h64.027l9.72 5.895" mask="url(#jn06duxfnb)"/>
                <path fill="#000" d="M166.534 72.109L250.001 72.109 250.001 69.441 166.534 69.441zM244.261 65.96h-71.987l3.98-2.413h64.027l3.98 2.413M215.589 68.503h-12.143l.672-1.606h10.8l.67 1.606" mask="url(#jn06duxfnb)"/>
                <path fill="#FFF" d="M193.394 97.406l26.065-20.41-16.668 23.2-9.397-2.79" mask="url(#jn06duxfnb)"/>
                <path fill="#D3E1F9" d="M202.79 100.196c3.492 1.12 6.984 2.24 10.476 3.362 2.064-8.855 4.13-17.709 6.193-26.562l-16.668 23.2" mask="url(#jn06duxfnb)"/>
                <path fill="#D3E1F9" d="M199.99 99.334l2.126 5.73 2.65-4.26-4.776-1.47" mask="url(#jn06duxfnb)"/>
                <path fill="#D58800" d="M0 12.412v91.549h111.043V34.757c0-5.536-4.488-10.025-10.025-10.025H37.375v-2.295c0-5.537-4.488-10.025-10.024-10.025H0z" mask="url(#jn06duxfnb)"/>
                <path fill="#FFF" d="M12.55 103.961L111.361 103.961 111.361 29.083 12.55 29.083z" mask="url(#jn06duxfnb)"/>
                <path fill="#005F7D" d="M12.55 36.264L111.361 36.264 111.361 29.084 12.55 29.084z" mask="url(#jn06duxfnb)"/>
                <path fill="#005378" d="M57.367 57.943L130.687 57.943 130.687 16.438 57.367 16.438z" mask="url(#jn06duxfnb)"/>
                <path fill="#8AD0E7" d="M73.716 22.97c-3.939 0-7.144 3.205-7.144 7.144 0 3.94 3.205 7.143 7.144 7.143s7.144-3.204 7.144-7.143c0-3.94-3.205-7.144-7.144-7.144m0 15.314c-4.504 0-8.169-3.665-8.169-8.17s3.665-8.17 8.17-8.17c4.504 0 8.168 3.665 8.168 8.17s-3.664 8.17-8.169 8.17M93.628 25.25L98.187 25.25 98.187 20.691 93.628 20.691zM89.981 53.709c-.095 0-.171-.077-.171-.171V20.844c0-.095.076-.171.171-.171.094 0 .171.076.171.17v32.695c0 .094-.077.17-.17.17M85.66 44.343H61.772c-.094 0-.171-.077-.171-.171 0-.095.077-.172.171-.172H85.66c.095 0 .171.077.171.172 0 .094-.076.17-.17.17M85.66 47.182H61.772c-.094 0-.171-.076-.171-.171 0-.094.077-.171.171-.171H85.66c.095 0 .171.077.171.171 0 .095-.076.171-.17.171M85.66 41.503H61.772c-.094 0-.171-.076-.171-.17 0-.096.077-.172.171-.172H85.66c.095 0 .171.076.171.171 0 .095-.076.171-.17.171M85.66 50.022H61.772c-.094 0-.171-.077-.171-.172 0-.094.077-.17.171-.17H85.66c.095 0 .171.076.171.17 0 .095-.076.172-.17.172M124.304 21.463h-23.887c-.095 0-.171-.077-.171-.171 0-.094.076-.171.17-.171h23.888c.095 0 .172.077.172.17 0 .095-.077.172-.172.172M117.808 23.233h-17.391c-.095 0-.171-.076-.171-.171 0-.094.076-.17.17-.17h17.392c.095 0 .172.076.172.17 0 .095-.077.171-.172.171M117.808 25.003h-17.391c-.095 0-.171-.076-.171-.17 0-.096.076-.172.17-.172h17.392c.095 0 .172.076.172.171 0 .095-.077.171-.172.171M93.628 32.393L98.187 32.393 98.187 27.835 93.628 27.835zM124.304 28.607h-23.887c-.095 0-.171-.077-.171-.171 0-.095.076-.172.17-.172h23.888c.095 0 .172.077.172.172 0 .094-.077.17-.172.17M117.808 30.377h-17.391c-.095 0-.171-.077-.171-.171 0-.095.076-.171.17-.171h17.392c.095 0 .172.076.172.17 0 .095-.077.172-.172.172M117.808 32.147h-17.391c-.095 0-.171-.077-.171-.17 0-.096.076-.172.17-.172h17.392c.095 0 .172.076.172.171 0 .094-.077.17-.172.17M93.628 39.537L98.187 39.537 98.187 34.978 93.628 34.978zM124.304 35.75h-23.887c-.095 0-.171-.076-.171-.17 0-.095.076-.172.17-.172h23.888c.095 0 .172.077.172.171 0 .095-.077.171-.172.171M117.808 37.52h-17.391c-.095 0-.171-.076-.171-.17 0-.095.076-.172.17-.172h17.392c.095 0 .172.077.172.171 0 .095-.077.172-.172.172M117.808 39.29h-17.391c-.095 0-.171-.076-.171-.17 0-.095.076-.172.17-.172h17.392c.095 0 .172.077.172.171 0 .095-.077.172-.172.172M93.628 46.681L98.187 46.681 98.187 42.122 93.628 42.122zM124.304 42.894h-23.887c-.095 0-.171-.076-.171-.17 0-.096.076-.172.17-.172h23.888c.095 0 .172.076.172.171 0 .095-.077.171-.172.171M117.808 44.664h-17.391c-.095 0-.171-.077-.171-.17 0-.095.076-.172.17-.172h17.392c.095 0 .172.077.172.171 0 .094-.077.171-.172.171M117.808 46.434h-17.391c-.095 0-.171-.076-.171-.171 0-.094.076-.17.17-.17h17.392c.095 0 .172.076.172.17 0 .095-.077.171-.172.171M93.628 53.825L98.187 53.825 98.187 49.266 93.628 49.266zM124.304 50.038h-23.887c-.095 0-.171-.077-.171-.172 0-.094.076-.17.17-.17h23.888c.095 0 .172.076.172.17 0 .095-.077.172-.172.172M117.808 51.808h-17.391c-.095 0-.171-.077-.171-.171 0-.095.076-.172.17-.172h17.392c.095 0 .172.077.172.172 0 .094-.077.17-.172.17M117.808 53.578h-17.391c-.095 0-.171-.076-.171-.171 0-.095.076-.171.17-.171h17.392c.095 0 .172.076.172.17 0 .096-.077.172-.172.172M85.66 52.861H61.772c-.094 0-.171-.076-.171-.17 0-.095.077-.172.171-.172H85.66c.095 0 .171.077.171.171 0 .095-.076.171-.17.171" mask="url(#jn06duxfnb)"/>
                <path fill="#FFF" d="M18.705 32.845c0 .566-.46 1.026-1.027 1.026-.566 0-1.025-.46-1.025-1.026 0-.566.459-1.026 1.025-1.026.567 0 1.027.46 1.027 1.026M24.004 32.845c0 .566-.46 1.026-1.026 1.026-.567 0-1.025-.46-1.025-1.026 0-.566.458-1.026 1.025-1.026.566 0 1.026.46 1.026 1.026M29.304 32.845c0 .566-.46 1.026-1.027 1.026-.566 0-1.025-.46-1.025-1.026 0-.566.459-1.026 1.025-1.026.567 0 1.027.46 1.027 1.026" mask="url(#jn06duxfnb)"/>
                <path fill="#F8B422" d="M16.311 63.616L51.698 63.616 51.698 41.563 16.311 41.563z" mask="url(#jn06duxfnb)"/>
                <path fill="#FFF" d="M26.739 47.547c0 1.888-1.53 3.419-3.418 3.419-1.89 0-3.42-1.531-3.42-3.42 0-1.888 1.53-3.418 3.42-3.418 1.888 0 3.418 1.53 3.418 3.419M19.687 60.368L48.322 60.368 48.322 53.189 19.687 53.189zM47.584 45.6H28.46c-.1 0-.182-.077-.182-.172 0-.094.082-.17.182-.17h19.124c.1 0 .182.076.182.17 0 .095-.081.171-.182.171M47.584 48.163H28.46c-.1 0-.182-.076-.182-.17 0-.095.082-.171.182-.171h19.124c.1 0 .182.076.182.17 0 .095-.081.171-.182.171M47.584 46.882H28.46c-.1 0-.182-.077-.182-.172 0-.094.082-.17.182-.17h19.124c.1 0 .182.076.182.17 0 .095-.081.172-.182.172M47.584 49.446H28.46c-.1 0-.182-.077-.182-.171 0-.095.082-.172.182-.172h19.124c.1 0 .182.077.182.172 0 .094-.081.17-.182.17M47.584 50.728H28.46c-.1 0-.182-.077-.182-.171 0-.095.082-.171.182-.171h19.124c.1 0 .182.076.182.171 0 .094-.081.17-.182.17" mask="url(#jn06duxfnb)"/>
                <path fill="#005F7D" d="M44.98 11.625L88.166 11.625 88.166 0 44.98 0z" mask="url(#jn06duxfnb)"/>
                <path fill="#00DBB6" d="M48.314 8.719L54.126 8.719 54.126 2.906 48.314 2.906zM81.327 3.067h-25.02c-.093 0-.17-.077-.17-.171 0-.094.077-.17.17-.17h25.02c.095 0 .171.076.171.17 0 .094-.076.171-.17.171M81.327 5.802h-25.02c-.093 0-.17-.076-.17-.171 0-.094.077-.17.17-.17h25.02c.095 0 .171.076.171.17 0 .095-.076.171-.17.171M75.002 8.538H56.308c-.095 0-.17-.077-.17-.172 0-.094.075-.17.17-.17h18.694c.094 0 .17.076.17.17 0 .095-.076.172-.17.172M75.002 7.17H56.308c-.095 0-.17-.077-.17-.171 0-.095.075-.172.17-.172h18.694c.094 0 .17.077.17.172 0 .094-.076.17-.17.17M75.002 4.435H56.308c-.095 0-.17-.077-.17-.172 0-.094.075-.17.17-.17h18.694c.094 0 .17.076.17.17 0 .095-.076.172-.17.172" mask="url(#jn06duxfnb)"/>
                <path fill="#8AD0E7" d="M74.193 32.805c.342-.076.592-.202.75-.378.16-.176.24-.372.24-.59 0-.19-.068-.365-.202-.524-.135-.16-.398-.308-.788-.444v1.936zm-.882-5.943c-.257.085-.436.19-.536.315-.1.125-.151.273-.151.442 0 .178.05.333.153.465.102.13.28.241.534.33v-1.552zm3.88.603l-2.244.356c-.113-.286-.214-.483-.305-.594-.09-.11-.24-.222-.449-.335v1.746c1.223.326 2.04.67 2.45 1.032.542.487.814 1.105.814 1.854 0 .44-.097.842-.293 1.207-.195.367-.444.673-.748.918-.304.246-.627.424-.968.535-.342.11-.76.176-1.255.196v1.14h-.882v-1.14c-.59-.052-1.07-.148-1.438-.287-.368-.139-.686-.33-.953-.576-.268-.245-.474-.51-.619-.794-.145-.283-.254-.625-.325-1.028l2.437-.284c.072.398.17.687.293.863.122.177.324.334.605.471v-2.132c-.811-.226-1.388-.42-1.728-.586-.34-.165-.635-.43-.884-.794-.25-.365-.374-.808-.374-1.331 0-.717.25-1.316.751-1.797.502-.48 1.247-.747 2.235-.8v-.597h.882v.597c.901.057 1.59.27 2.067.64.476.37.787.877.931 1.52z" mask="url(#jn06duxfnb)"/>
                <path fill="#F8B422" d="M139.331 56.99L26.477 56.99 0 103.961 112.854 103.961z" mask="url(#jn06duxfnb)"/>
                <path stroke="#FFF" stroke-linecap="round" stroke-linejoin="round" stroke-width="1.259" d="M157.386 135.813c.268-.036.544-.076.828-.122" mask="url(#jn06duxfnb)"/>
                <path stroke="#FFF" stroke-dasharray="1.712 2.567" stroke-linecap="round" stroke-linejoin="round" stroke-width="1.259" d="M160.736 135.22c9.759-2.089 25.962-8.48 38.075-23.825" mask="url(#jn06duxfnb)"/>
                <path stroke="#FFF" stroke-linecap="round" stroke-linejoin="round" stroke-width="1.259" d="M199.6 110.374c.17-.223.337-.447.504-.673" mask="url(#jn06duxfnb)"/>
                <path fill="#00CDAB" d="M208.268 25.887c-.721 0-1.306.584-1.306 1.305v4.57c0 .72.585 1.305 1.306 1.305.72 0 1.305-.585 1.305-1.306v-4.569c0-.72-.585-1.305-1.305-1.305M208.268 49.48c-.721 0-1.306.584-1.306 1.305v4.57c0 .72.585 1.305 1.306 1.305.72 0 1.305-.585 1.305-1.306v-4.569c0-.72-.585-1.305-1.305-1.305M200.061 41.274c0-.721-.585-1.306-1.305-1.306h-4.57c-.72 0-1.305.585-1.305 1.306 0 .72.585 1.305 1.306 1.305h4.569c.72 0 1.305-.585 1.305-1.305M222.349 39.968h-4.57c-.72 0-1.305.585-1.305 1.306 0 .72.585 1.304 1.306 1.304h4.569c.72 0 1.305-.584 1.305-1.304 0-.721-.584-1.306-1.305-1.306M195.42 35.364l3.957 2.284c.625.36 1.423.147 1.784-.478.36-.625.146-1.423-.478-1.784l-3.957-2.283c-.625-.361-1.423-.147-1.784.477-.36.624-.146 1.423.478 1.784M221.115 47.183l-3.957-2.284c-.625-.36-1.423-.146-1.784.477-.36.625-.146 1.423.479 1.784l3.957 2.284c.624.361 1.422.147 1.783-.477.36-.625.147-1.423-.478-1.784M204.164 48.38c-.624-.36-1.423-.146-1.783.478l-2.285 3.958c-.36.624-.147 1.422.478 1.782.625.361 1.423.147 1.784-.477l2.285-3.957c.36-.625.146-1.423-.479-1.784M212.371 34.166c.625.36 1.423.147 1.783-.478l2.285-3.956c.36-.625.147-1.423-.478-1.784-.624-.36-1.423-.146-1.783.478l-2.285 3.957c-.36.625-.147 1.423.478 1.783M202.55 28.34c-.352-.63-1.146-.856-1.776-.505-.63.351-.856 1.147-.504 1.776l2.224 3.99c.351.63 1.147.856 1.777.505.63-.351.855-1.146.504-1.776l-2.225-3.99zM214.04 48.945c-.35-.63-1.146-.855-1.775-.504-.63.35-.856 1.146-.504 1.776l2.225 3.99c.35.63 1.146.856 1.775.505.63-.351.856-1.147.505-1.776l-2.225-3.99zM201.1 45.27c-.35-.63-1.146-.855-1.776-.504l-3.99 2.225c-.63.351-.856 1.147-.505 1.776.352.63 1.147.856 1.776.505l3.99-2.225c.63-.352.856-1.147.505-1.777M215.435 37.276c.351.63 1.146.856 1.776.505l3.99-2.226c.63-.35.856-1.146.505-1.775-.352-.63-1.147-.857-1.776-.505l-3.99 2.225c-.63.351-.856 1.147-.505 1.776" mask="url(#jn06duxfnb)"/>
                <path fill="#005378" d="M130.543 119.456H45.788c-1.59 0-2.877-1.288-2.877-2.878 0-1.589 1.288-2.877 2.877-2.877h84.755c1.589 0 2.877 1.288 2.877 2.877 0 1.59-1.288 2.878-2.877 2.878" mask="url(#jn06duxfnb)"/>
                <path fill="#00CDAB" d="M95.938 119.456H45.159c-1.242 0-2.248-1.007-2.248-2.249v-1.258c0-1.242 1.006-2.248 2.248-2.248h50.779c1.242 0 2.25 1.006 2.25 2.248v1.258c0 1.242-1.008 2.249-2.25 2.249" mask="url(#jn06duxfnb)"/>
            </g>
        </g>
    </g>
</svg>
