<svg xmlns="http://www.w3.org/2000/svg" width="212" height="32" viewBox="0 0 212 32">
    <g fill="none" fill-rule="evenodd">
        <g>
            <g>
                <g>
                    <path fill="#FFF" d="M0 0H191V32H0z" transform="translate(-507 -421) translate(484 237) translate(23 184)"/>
                    <path fill="#003149" d="M76 0H212V32H76z" transform="translate(-507 -421) translate(484 237) translate(23 184)"/>
                    <text fill="#FFF" font-family="MicrosoftJhengHeiBold, Microsoft JhengHei" font-size="18" font-weight="bold" transform="translate(-507 -421) translate(484 237) translate(23 184)">
                        <tspan x="90" y="23">建立接案檔案</tspan>
                    </text>
                    <g fill="#003149">
                        <path d="M58.513.112v18H53.61V6.316c-.794.611-1.562 1.106-2.304 1.485-.742.378-1.673.74-2.792 1.086V4.856c1.651-.54 2.933-1.187 3.846-1.944.912-.756 1.626-1.69 2.142-2.8h4.012zM0 14.639l2.282-.223c.138.767.416 1.329.836 1.689.42.359.986.538 1.7.538.755 0 1.325-.16 1.707-.48.383-.32.575-.692.575-1.121 0-.274-.08-.507-.242-.701-.161-.192-.442-.36-.843-.503-.275-.095-.901-.263-1.878-.507-1.258-.311-2.14-.694-2.647-1.15C.777 11.544.42 10.765.42 9.846c0-.592.168-1.145.504-1.66.335-.515.818-.907 1.45-1.177.631-.27 1.393-.404 2.285-.404 1.458 0 2.556.32 3.293.959.736.639 1.123 1.492 1.16 2.559l-2.344.103c-.101-.597-.317-1.025-.647-1.287s-.825-.393-1.485-.393c-.682 0-1.215.14-1.601.42-.248.18-.372.42-.372.722 0 .274.116.51.349.705.296.248 1.013.507 2.155.776 1.141.27 1.984.548 2.531.836.547.288.975.682 1.283 1.18.31.5.464 1.117.464 1.85 0 .667-.184 1.29-.554 1.87-.37.582-.893 1.014-1.569 1.297-.676.282-1.519.423-2.528.423-1.469 0-2.596-.34-3.383-1.018C.624 16.926.153 15.938 0 14.639M14.034 18.418L14.034 8.767 10.587 8.767 10.587 6.802 19.818 6.802 19.818 8.767 16.379 8.767 16.379 18.418zM21.331 18.418L21.331 6.802 29.944 6.802 29.944 8.767 23.677 8.767 23.677 11.342 29.508 11.342 29.508 13.299 23.677 13.299 23.677 16.461 30.166 16.461 30.166 18.418zM34.5 8.767v3.297h1.283c.925 0 1.543-.061 1.855-.183.311-.121.555-.311.732-.57.177-.26.266-.56.266-.903 0-.423-.124-.772-.372-1.046-.249-.275-.563-.447-.944-.516-.28-.053-.842-.08-1.687-.08H34.5zm-2.346 9.65V6.803h3.764c1.427 0 2.356.059 2.789.175.666.174 1.223.553 1.672 1.137.449.584.674 1.338.674 2.26 0 .715-.13 1.315-.389 1.8-.259.487-.588.868-.986 1.146-.399.277-.804.46-1.216.55-.561.11-1.371.167-2.433.167H34.5v4.38h-2.346zM40.871 18.419L43.098 18.419 43.098 16.192 40.871 16.192z" transform="translate(-507 -421) translate(484 237) translate(23 184) translate(6 7)"/>
                    </g>
                </g>
            </g>
        </g>
    </g>
</svg>
