<svg xmlns="http://www.w3.org/2000/svg" xmlns:xlink="http://www.w3.org/1999/xlink" width="258" height="161" viewBox="0 0 258 161">
    <defs>
        <path id="sflfg7ha6a" d="M0 160.163L257.906 160.163 257.906 0 0 0z"/>
    </defs>
    <g fill="none" fill-rule="evenodd">
        <g>
            <g transform="translate(-484 -237) translate(484 237)">
                <path fill="#000" d="M140.145 32.539s-1.331-1.507-10.637-5.301c-3.957 3.45-10.522 1.216-10.918-1.68-.394-2.894 1.723-10.36 12.422-10.36 10.698 0 14.82 6.686 14.82 6.686s2.927.552 1.966 3.675c-.962 3.123-5.882 9.997-5.882 9.997l-1.771-3.017z"/>
                <path fill="#FFE9C3" d="M92.525 96.861l9.131 5.18s1.857-1.077 2.862-1.614c.481-.256 1.215-.151 2.652.137 2.003.401 3.629 1.231 3.117 3.209-.233.905-1.297 3.176-2.221 4.105-1.718 1.727-4.646 1.114-5.993.704-.451-.138-.853-.401-1.169-.751l-.739-.82-10.026-4.885 2.386-5.265z"/>
                <path fill="#003149" d="M109.43 77.109c-9.326 2.342-14.023 7.648-15.144 10.04-.532 1.137-3.411 7.78 6.749 12.675.094.046-2.963 7.573-2.963 7.573s-17.914-3.317-17.39-20.72c.57-18.985 32.863-33.838 32.863-33.838s-3.117 24.019-4.115 24.27"/>
                <path fill="#FFE9C3" d="M170.197 100.74l-11.09 4.629s-1.962-1.48-3.03-2.23c-.511-.357-1.36-.339-3.032-.21-2.332.18-4.294.9-3.985 3.217.14 1.06 1.037 3.789 1.959 4.971 1.714 2.2 5.126 1.906 6.712 1.626.532-.095 1.025-.339 1.432-.693l.954-.83 12.067-4.169-1.987-6.311z"/>
                <path fill="#003149" d="M155.355 80.236c10.44 3.101 15.638 9.122 16.715 11.751.51 1.248.125 6.791-13.422 11.295-.114.037 2.304 8.394 2.304 8.394s25.014-4.59 26.173-19.588c1.162-15.038-25.87-34.285-25.87-34.285s-7.017 22.101-5.9 22.433"/>
                <path fill="#E2E2E2" d="M113.764 55.045c2.496-3.537 17.771-8.22 17.547-6.907-.067.395-.224 2.493 3.322 4.216 4.959 2.408 8.373-1.88 8.373-1.88 5.282.283 11.947 6.446 13.657 10.257 3.956 8.814-3.394 17.184-8.963 58.501-.64 4.754-28.462-.961-37.552-6.59-5.167-32.099.045-52.54 3.616-57.597"/>
                <path fill="#005378" d="M136.816 51.236c.346.642 3.329 4.32 3.329 4.32l-5.828 2.878s-8.256 23.065-3.904 44.483c-1.334 3.102-5.965 8.069-5.965 8.069l-5.858-6.655s5.167-26.757 13.123-46.998c.022.02-.72-4.342-.72-4.342l5.823-1.755z"/>
                <path fill="#003149" d="M148.274 51.687s9.9 5.356 12.981 6.115c2.593.639-16.427 46.366-2.383 68.535.975 2.889-39.434 7.786-49.784.705-4.886-17.323-6.98-53.364 1.72-72.816 2.173-1.634 11.14-4.657 14.85-5.143 1.079-.14-8.713 23.379-3.074 48.463 14.806-19.607 23.964-43.811 25.69-45.86"/>
                <path fill="#FFF" d="M147.798 51.598s-1.941 3.62-8.251 6.408c-.71-1.206-4.17-5.812-4.17-5.812l-5.46 2.926s-3.022-2.973-2.18-6.927c1.11-.467 3.546-.52 3.546-.52s3.972 5.506 12.414 2.204c1.952.327 4.1 1.721 4.1 1.721"/>
                <path fill="#005378" d="M147.936 51.291l4.46 2.299-1.779 13.842-5.61-.381 6.353 3.924s-22.102 16.58-28.917 27.093c2.24-10.848 23.822-45.506 25.493-46.777M127.653 48.322s-5.779 4.177-5.21 49.667c-.79-2.034-6.977-30.31-7.066-32.566.641-.09 6.507-.322 6.507-.322l-4.953-2.838s5.268-12.086 6.457-13.037c.619-.67 4.265-.904 4.265-.904"/>
                <mask id="hgkg6tsxdb" fill="#fff">
                    <use xlink:href="#sflfg7ha6a"/>
                </mask>
                <path fill="#FFF" d="M76.291 119.576h115.154V9.132H76.29v110.444zm-9.515 40.112H200.96V0H66.776v159.69z" mask="url(#hgkg6tsxdb)"/>
                <path fill="#F8B422" d="M76.292 142.326L94.314 142.326 94.314 124.303 76.292 124.303z" mask="url(#hgkg6tsxdb)"/>
                <path fill="#FFF" d="M90.05 140.422c-.191-4.31-2.244-7.704-4.748-7.704-2.503 0-4.556 3.393-4.746 7.704h9.493zM88.08 128.985c0 1.533-1.244 2.777-2.777 2.777-1.535 0-2.777-1.244-2.777-2.777 0-1.534 1.242-2.777 2.777-2.777 1.533 0 2.777 1.243 2.777 2.777" mask="url(#hgkg6tsxdb)"/>
                <path fill="#F8B422" d="M104.851 126.489L191.445 126.489 191.445 124.304 104.851 124.304zM104.851 131.817L191.445 131.817 191.445 129.631 104.851 129.631zM104.851 137.144L191.445 137.144 191.445 134.958 104.851 134.958zM104.851 142.471L191.445 142.471 191.445 140.286 104.851 140.286zM104.851 147.799L191.445 147.799 191.445 145.614 104.851 145.614z" mask="url(#hgkg6tsxdb)"/>
                <path fill="#FFE9C3" d="M129.508 27.238s-.487 7.983-1.92 9.995l3.431 1.005v5.03h3.909l-3.645 4.405s3.297 5.795 12.414 2.204c-1.949-5.939-1.781-14.32-1.781-14.32l1.942-4.94-.434-1.396-3.28 3.318s-3.094-11.104-10.636-5.301" mask="url(#hgkg6tsxdb)"/>
                <path fill="#A5A5A5" d="M184.658 99.812L257.906 99.812 257.906 61.257 184.658 61.257z" mask="url(#hgkg6tsxdb)"/>
                <path fill="#FFF" d="M224.809 76.296L222.285 81.229 217.845 72.558 208.975 89.886 217.852 89.886 226.716 89.886 231.765 89.886zM230.185 71.885c0 1.2.967 2.173 2.16 2.173 1.192 0 2.16-.973 2.16-2.173 0-1.2-.968-2.172-2.16-2.172-1.193 0-2.16.973-2.16 2.172" mask="url(#hgkg6tsxdb)"/>
                <path fill="#005F7D" d="M64.299 34.596L107.65 46.163 70.841 27.892z" mask="url(#hgkg6tsxdb)"/>
                <path fill="#8AD0E7" d="M161.502 52.944L244.684 52.944 244.684 30.553 161.502 30.553z" mask="url(#hgkg6tsxdb)"/>
                <path fill="#005378" d="M167.923 47.346L179.119 47.346 179.119 36.151 167.923 36.151zM231.513 36.46h-48.191c-.182 0-.33-.147-.33-.329 0-.182.148-.33.33-.33h48.19c.183 0 .33.148.33.33 0 .182-.147.33-.33.33M231.513 41.73h-48.191c-.182 0-.33-.148-.33-.33 0-.182.148-.33.33-.33h48.19c.183 0 .33.148.33.33 0 .182-.147.33-.33.33M219.33 46.998H183.32c-.182 0-.329-.148-.329-.33 0-.182.147-.33.33-.33h36.007c.182 0 .33.148.33.33 0 .182-.148.33-.33.33M219.33 44.363H183.32c-.182 0-.329-.147-.329-.33 0-.18.147-.328.33-.328h36.007c.182 0 .33.147.33.329 0 .182-.148.33-.33.33M219.33 39.095H183.32c-.182 0-.329-.148-.329-.33 0-.181.147-.329.33-.329h36.007c.182 0 .33.148.33.33 0 .181-.148.329-.33.329" mask="url(#hgkg6tsxdb)"/>
                <path fill="#E2E2E2" d="M0 104.574L85.645 104.574 85.645 54.831 0 54.831z" mask="url(#hgkg6tsxdb)"/>
                <path fill="#003149" d="M0 61.275L85.645 61.275 85.645 54.831 0 54.831z" mask="url(#hgkg6tsxdb)"/>
                <path fill="#FFF" d="M4.285 58.787c-.459 0-.83-.37-.83-.83 0-.457.371-.828.83-.828.458 0 .83.37.83.829 0 .459-.372.83-.83.83M8.846 58.787c-.458 0-.83-.37-.83-.83 0-.457.372-.828.83-.828.458 0 .83.37.83.829 0 .459-.372.83-.83.83M13.408 58.787c-.459 0-.83-.37-.83-.83 0-.457.371-.828.83-.828.458 0 .829.37.829.829 0 .459-.371.83-.83.83" mask="url(#hgkg6tsxdb)"/>
                <path fill="#F8B422" d="M24.254 74.232c0 2.249-.912 4.289-2.384 5.77-.253.253-.524.488-.804.705-1.382 1.066-3.097 1.688-4.966 1.688h-.958c-1.472 0-2.854-.388-4.046-1.074-.009 0-.009-.01-.009-.01-2.456-1.399-4.108-4.044-4.108-7.079 0-2.249.912-4.29 2.393-5.77 1.472-1.472 3.513-2.385 5.77-2.385h.958c4.506 0 8.154 3.65 8.154 8.155" mask="url(#hgkg6tsxdb)"/>
                <path fill="#005378" d="M24.254 74.232c0 2.249-.912 4.289-2.384 5.77-.253.253-.524.488-.804.705-1.382 1.066-3.097 1.688-4.966 1.688h-.958c-1.472 0-2.854-.388-4.046-1.074-.009 0-.009-.01-.009-.01-2.456-1.399-4.108-4.044-4.108-7.079 0-2.249.912-4.29 2.393-5.77 1.472-1.472 3.513-2.385 5.77-2.385h.958c4.506 0 8.154 3.65 8.154 8.155M6.98 97.543L78.664 97.543 78.664 85.171 6.98 85.171zM78.625 68.724L28.666 68.301 28.705 67.331 78.664 67.754zM78.625 70.72L28.666 70.297 28.705 69.327 78.664 69.75zM78.625 72.717L28.666 72.294 28.705 71.324 78.664 71.747zM78.625 74.713L28.666 74.291 28.705 73.321 78.664 73.744zM78.625 76.71L28.666 76.287 28.705 75.317 78.664 75.74zM78.625 78.707L28.666 78.284 28.705 77.313 78.664 77.736zM78.625 80.703L28.666 80.28 28.705 79.31 78.664 79.733zM78.625 82.7L28.666 82.277 28.705 81.307 78.664 81.73z" mask="url(#hgkg6tsxdb)"/>
                <path fill="#005F7D" d="M50.165 32.802C52.374 41.87 61.512 47.43 70.58 45.22c9.068-2.209 14.626-11.352 12.417-20.418-2.21-9.066-11.35-14.626-20.417-12.417-9.068 2.21-14.626 11.35-12.416 20.417" mask="url(#hgkg6tsxdb)"/>
                <path fill="#8AD0E7" d="M52.254 32.294c1.925 7.9 9.92 12.761 17.818 10.835 7.9-1.925 12.762-9.918 10.836-17.818-1.925-7.9-9.918-12.762-17.818-10.837-7.9 1.925-12.761 9.919-10.836 17.82m-.769.186c-2.027-8.324 3.094-16.745 11.418-18.772 8.324-2.028 16.744 3.092 18.773 11.416 2.027 8.324-3.093 16.746-11.417 18.774-8.325 2.028-16.745-3.094-18.774-11.418" mask="url(#hgkg6tsxdb)"/>
                <path fill="#8AD0E7" d="M69.66 34.2c-.409.458-.99.764-1.742.918l-.031-4.906c.777.24 1.367.538 1.77.89.4.352.605.852.609 1.502.003.606-.199 1.137-.606 1.595m-4.726-8.12c-.33-.301-.497-.746-.501-1.337-.003-.619.169-1.083.518-1.392.35-.309.835-.558 1.463-.749l.028 4.291c-.674-.242-1.177-.513-1.508-.814m6.629 2.798c-.435-.393-.929-.693-1.479-.897-.55-.206-1.29-.433-2.217-.68l-.03-4.662c.943.301 1.542.916 1.793 1.848.222.79.699 1.183 1.432 1.179.388-.003.717-.14.989-.416.27-.274.404-.598.403-.971-.004-.337-.097-.706-.282-1.108-.187-.402-.449-.792-.787-1.172-.43-.496-.93-.867-1.503-1.11-.574-.243-1.26-.402-2.059-.48l-.008-1.21c0-.022-.003-.041-.004-.062l-1.415.008c0 .029-.004.055-.003.086l.007 1.187c-1.545.145-2.725.63-3.538 1.458-.812.827-1.214 1.882-1.205 3.167.006.986.22 1.791.642 2.416.423.624.971 1.105 1.645 1.44.674.336 1.513.639 2.517.91l.034 5.209c-.502-.14-.906-.342-1.21-.609-.304-.267-.53-.562-.683-.886-.152-.325-.33-.792-.535-1.404-.092-.282-.254-.502-.487-.657-.233-.155-.517-.232-.853-.23-.419.003-.767.149-1.045.438-.279.29-.416.614-.415.972.005.486.112.98.325 1.483.212.504.539.986.978 1.45.44.464.987.85 1.644 1.161.656.31 1.42.509 2.295.6l.011 1.812 1.423-.01-.012-1.832c1.069-.097 1.99-.383 2.762-.86.774-.476 1.359-1.086 1.753-1.831.395-.747.59-1.545.584-2.396-.004-.68-.134-1.305-.387-1.874-.254-.571-.613-1.059-1.08-1.467" mask="url(#hgkg6tsxdb)"/>
                <path fill="#005378" d="M9.305 160.163L58.664 160.163 58.664 114.956 9.305 114.956z" mask="url(#hgkg6tsxdb)"/>
                <path fill="#00DBB6" d="M43.64 155.67L48.456 155.67 48.456 150.854 43.64 150.854zM52.308 120.79c.1 0 .181.08.181.18v34.539c0 .1-.08.18-.18.18-.1 0-.18-.08-.18-.18v-34.54c0-.099.08-.18.18-.18M16.048 154.855h25.236c.1 0 .18.08.18.18 0 .1-.08.18-.18.18H16.048c-.1 0-.18-.08-.18-.18 0-.1.08-.18.18-.18M22.91 152.985h18.374c.1 0 .18.08.18.18 0 .1-.08.18-.18.18H22.911c-.1 0-.181-.08-.181-.18 0-.1.08-.18.18-.18M22.91 151.115h18.374c.1 0 .18.08.18.18 0 .1-.08.181-.18.181H22.911c-.1 0-.181-.081-.181-.18 0-.1.08-.181.18-.181M43.64 148.124L48.456 148.124 48.456 143.308 43.64 143.308zM16.048 147.308h25.236c.1 0 .18.08.18.18 0 .1-.08.181-.18.181H16.048c-.1 0-.18-.08-.18-.18 0-.1.08-.181.18-.181M22.91 145.438h18.374c.1 0 .18.08.18.18 0 .1-.08.181-.18.181H22.911c-.1 0-.181-.08-.181-.181 0-.1.08-.18.18-.18M22.91 143.568h18.374c.1 0 .18.08.18.18 0 .1-.08.18-.18.18H22.911c-.1 0-.181-.08-.181-.18 0-.1.08-.18.18-.18M43.64 140.576L48.456 140.576 48.456 135.76 43.64 135.76zM16.048 139.76h25.236c.1 0 .18.082.18.181 0 .1-.08.181-.18.181H16.048c-.1 0-.18-.081-.18-.18 0-.1.08-.181.18-.181M22.91 137.891h18.374c.1 0 .18.081.18.18 0 .1-.08.181-.18.181H22.911c-.1 0-.181-.08-.181-.18 0-.1.08-.18.18-.18M22.91 136.02h18.374c.1 0 .18.082.18.182 0 .1-.08.18-.18.18H22.911c-.1 0-.181-.08-.181-.18 0-.1.08-.181.18-.181M43.64 133.03L48.456 133.03 48.456 128.214 43.64 128.214zM16.048 132.214h25.236c.1 0 .18.08.18.18 0 .1-.08.182-.18.182H16.048c-.1 0-.18-.081-.18-.182 0-.1.08-.18.18-.18M22.91 130.344h18.374c.1 0 .18.081.18.18 0 .1-.08.181-.18.181H22.911c-.1 0-.181-.08-.181-.18 0-.1.08-.181.18-.181M22.91 128.474h18.374c.1 0 .18.081.18.18 0 .1-.08.181-.18.181H22.911c-.1 0-.181-.08-.181-.18 0-.1.08-.18.18-.18M43.64 125.483L48.456 125.483 48.456 120.667 43.64 120.667zM16.048 124.667h25.236c.1 0 .18.081.18.18 0 .1-.08.181-.18.181H16.048c-.1 0-.18-.08-.18-.18 0-.1.08-.18.18-.18M22.91 122.797h18.374c.1 0 .18.081.18.18 0 .1-.08.182-.18.182H22.911c-.1 0-.181-.081-.181-.181 0-.1.08-.181.18-.181M22.91 120.927h18.374c.1 0 .18.081.18.18 0 .1-.08.182-.18.182H22.911c-.1 0-.181-.081-.181-.182 0-.099.08-.18.18-.18" mask="url(#hgkg6tsxdb)"/>
            </g>
        </g>
    </g>
</svg>
