<svg xmlns="http://www.w3.org/2000/svg" xmlns:xlink="http://www.w3.org/1999/xlink" width="245" height="161" viewBox="0 0 245 161">
    <defs>
        <path id="y4k2ciutpa" d="M0 160.535L244.089 160.535 244.089 0 0 0z"/>
    </defs>
    <g fill="none" fill-rule="evenodd">
        <g>
            <g transform="translate(-1192 -237) translate(1192 237)">
                <path fill="#FFF" d="M37.445 93.487h-25.85c-1.183 0-2.151-.967-2.151-2.15V50.822c0-1.183.968-2.151 2.151-2.151h25.85c1.183 0 2.15.967 2.15 2.15v40.516c0 1.183-.967 2.15-2.15 2.15"/>
                <mask id="2ykk2oefwb" fill="#fff">
                    <use xlink:href="#y4k2ciutpa"/>
                </mask>
                <path fill="#8AD0E7" d="M13.273 53.656L35.253 53.656 35.253 52.326 13.273 52.326zM13.273 56.272L35.253 56.272 35.253 54.943 13.273 54.943zM13.273 58.889L35.253 58.889 35.253 57.56 13.273 57.56zM13.273 61.506L35.253 61.506 35.253 60.176 13.273 60.176zM13.273 64.123L35.253 64.123 35.253 62.794 13.273 62.794zM13.273 66.74L35.253 66.74 35.253 65.41 13.273 65.41zM13.273 69.357L35.253 69.357 35.253 68.027 13.273 68.027zM13.273 71.973L35.253 71.973 35.253 70.644 13.273 70.644zM13.273 74.591L35.253 74.591 35.253 73.261 13.273 73.261zM13.273 77.207L35.253 77.207 35.253 75.878 13.273 75.878zM13.273 79.824L35.253 79.824 35.253 78.494 13.273 78.494zM13.273 82.441L35.253 82.441 35.253 81.111 13.273 81.111zM13.273 85.058L35.253 85.058 35.253 83.728 13.273 83.728zM13.273 87.675L35.253 87.675 35.253 86.345 13.273 86.345z" mask="url(#2ykk2oefwb)"/>
                <path fill="#003149" d="M44.289 72.722H21.763l-7.215-6.511H2.815C1.267 66.21 0 67.477 0 69.026V94.016c0 1.548 1.267 2.815 2.815 2.815H44.29c1.548 0 2.816-1.267 2.816-2.815V75.537c0-1.548-1.268-2.815-2.816-2.815" mask="url(#2ykk2oefwb)"/>
                <path fill="#FFF" d="M25.96 82.677L24.434 80.21 22.907 77.742 21.381 80.21 19.854 82.677 21.232 82.677 21.232 90.947 24.582 90.947 24.582 82.677z" mask="url(#2ykk2oefwb)"/>
                <path fill="#005378" d="M244.089 128.819L184.223 128.819 184.223 52.596 226.525 52.596 244.089 66.551z" mask="url(#2ykk2oefwb)"/>
                <path fill="#00CDAB" d="M222.226 69.52c0 5.582-4.526 10.108-10.109 10.108s-10.109-4.526-10.109-10.109c0-5.582 4.526-10.108 10.11-10.108 5.582 0 10.108 4.526 10.108 10.108" mask="url(#2ykk2oefwb)"/>
                <path fill="#FFF" d="M215.803 65.975c0 2.035-1.65 3.685-3.686 3.685-2.035 0-3.685-1.65-3.685-3.685 0-2.036 1.65-3.686 3.685-3.686 2.036 0 3.686 1.65 3.686 3.686" mask="url(#2ykk2oefwb)"/>
                <path fill="#FFF" d="M218.222 77.576l-1.236-4.518c-1.164-4.217-8.755-4.217-9.738 0l-1.236 4.518c1.696 1.288 3.812 2.052 6.105 2.052 2.294 0 4.409-.764 6.105-2.052" mask="url(#2ykk2oefwb)"/>
                <path fill="#005F7D" d="M226.525 52.596L244.089 52.596 244.089 72.751z" mask="url(#2ykk2oefwb)"/>
                <path fill="#00CDAB" d="M195.468 86.121L228.767 86.121 228.767 83.516 195.468 83.516zM195.468 92.01L228.767 92.01 228.767 89.405 195.468 89.405zM195.468 97.899L228.767 97.899 228.767 95.294 195.468 95.294zM195.468 103.788L228.767 103.788 228.767 101.183 195.468 101.183zM195.468 109.677L228.767 109.677 228.767 107.072 195.468 107.072zM195.468 115.565L228.767 115.565 228.767 112.961 195.468 112.961zM195.468 121.455L228.767 121.455 228.767 118.85 195.468 118.85z" mask="url(#2ykk2oefwb)"/>
                <path fill="#005378" d="M129.311 80.957c.011-.095.018-.192.018-.29 0-.097-.007-.194-.018-.289v-3.861h-12.78v4.455h.019c.24 2.15 3.004 3.847 6.38 3.847s6.139-1.697 6.38-3.847h.001v-.015z" mask="url(#2ykk2oefwb)"/>
                <path fill="#003149" d="M131.719 75.63c.088 1.242-3.776 2.527-8.63 2.87-4.853.345-8.86-.381-8.948-1.622-.015-.22-.002-.91-.002-.91s4.633-1.676 8.632-1.96c3.92-.279 8.948.91 8.948.91s-.017.475 0 .713" mask="url(#2ykk2oefwb)"/>
                <path fill="#005378" d="M131.719 74.919c.088 1.24-3.776 2.526-8.63 2.87-4.854.344-8.86-.383-8.948-1.624-.088-1.24 3.775-2.525 8.63-2.87 4.854-.344 8.86.383 8.948 1.624" mask="url(#2ykk2oefwb)"/>
                <path fill="#003149" d="M131.719 72.943c.088 1.24-3.776 2.525-8.63 2.87-4.853.344-8.86-.383-8.948-1.624-.015-.219-.002-.91-.002-.91s4.633-1.676 8.632-1.96c3.92-.278 8.948.911 8.948.911s-.017.474 0 .713" mask="url(#2ykk2oefwb)"/>
                <path fill="#005378" d="M131.719 72.23c.088 1.241-3.776 2.526-8.63 2.87-4.854.345-8.86-.382-8.948-1.623-.088-1.24 3.775-2.526 8.63-2.87 4.854-.345 8.86.383 8.948 1.623" mask="url(#2ykk2oefwb)"/>
                <path fill="#003149" d="M131.719 70.61c.088 1.24-3.776 2.526-8.63 2.87-4.853.345-8.86-.382-8.948-1.623-.015-.219-.002-.91-.002-.91s4.633-1.677 8.632-1.96c3.92-.278 8.948.911 8.948.911s-.017.474 0 .712" mask="url(#2ykk2oefwb)"/>
                <path fill="#005378" d="M131.719 69.898c.088 1.24-3.776 2.526-8.63 2.87-4.854.344-8.86-.382-8.948-1.624-.088-1.24 3.775-2.526 8.63-2.87 4.854-.344 8.86.384 8.948 1.624" mask="url(#2ykk2oefwb)"/>
                <path fill="#FFF" d="M122.648 12.92h-.037c-12.92.02-23.388 10.332-23.388 23.05 0 9.868 6.907 12.238 12.763 27.054 1.84 4.656 5.027 8.89 10.625 8.91h.038c5.598-.02 8.783-4.254 10.624-8.91 5.856-14.816 12.763-17.186 12.763-27.054 0-12.718-10.468-23.03-23.388-23.05" mask="url(#2ykk2oefwb)" opacity=".775"/>
                <path fill="#00CDAB" d="M129.155 42.076l-4.078 27.057c-.027.184.1.356.286.383.184.026.356-.101.382-.285l4.611-27.03c-.05-.413-.753-.947-1.2-.125M116.43 42.099c-.187-.372-1.03-.64-1.173.286l5.27 26.85c.037.183.215.301.399.264.182-.036.3-.215.264-.398l-4.76-27.002zM128.609 39.066l-1.507 1.277-1.282-1.3c-.105-.107-.49-.235-.757.094l-2.129 2.334-2.374-4.485c-.017-.051-.043-.1-.08-.145-.095-.149-.285-.21-.466-.16l-.009.001-.012.004c-.08.023-.155.067-.215.132l-3.021 3.316c-.173.188-.159.48.03.653.189.172.481.158.654-.03l2.595-2.848 2.268 4.282c.208.345.618.56.977.276.04-.031 2.217-2.434 2.217-2.434l1.147 1.165c.018.03.405.394.655.19l1.907-1.617c.113-.096.196-.42.031-.615s-.516-.186-.63-.09" mask="url(#2ykk2oefwb)"/>
                <path fill="#003149" d="M176.743 0v25.258h5.756l-2.728 13.585 12.327-13.585h43.578c4.767.056 8.413-3.988 8.413-8.906V0h-67.346z" mask="url(#2ykk2oefwb)"/>
                <path fill="#8AD0E7" d="M236.609 6.427c0 .638-.517 1.155-1.156 1.155H185.38c-.639 0-1.156-.517-1.156-1.155s.517-1.155 1.156-1.155h50.074c.639 0 1.156.517 1.156 1.155M236.609 12.488c0 .639-.517 1.156-1.156 1.156H185.38c-.639 0-1.156-.517-1.156-1.156 0-.638.517-1.155 1.156-1.155h50.074c.639 0 1.156.517 1.156 1.155M236.609 18.55c0 .638-.517 1.155-1.156 1.155H185.38c-.639 0-1.156-.517-1.156-1.155 0-.639.517-1.156 1.156-1.156h50.074c.639 0 1.156.517 1.156 1.156" mask="url(#2ykk2oefwb)"/>
                <path fill="#005378" d="M63.315 6.923v22.904h-5.22l2.474 12.32-11.178-12.32H9.874c-4.322.05-7.63-3.616-7.63-8.076V6.923h61.07z" mask="url(#2ykk2oefwb)"/>
                <path fill="#003149" d="M56.532 12.42c0 .579-.47 1.047-1.048 1.047H10.075c-.578 0-1.048-.468-1.048-1.047 0-.58.47-1.049 1.048-1.049h45.409c.578 0 1.048.47 1.048 1.049M56.532 17.916c0 .579-.47 1.048-1.048 1.048H10.075c-.578 0-1.048-.47-1.048-1.048 0-.58.47-1.048 1.048-1.048h45.409c.578 0 1.048.469 1.048 1.048M56.532 23.413c0 .578-.47 1.047-1.048 1.047H10.075c-.578 0-1.048-.469-1.048-1.047 0-.58.47-1.049 1.048-1.049h45.409c.578 0 1.048.47 1.048 1.049" mask="url(#2ykk2oefwb)"/>
                <path fill="#000" d="M131.582 100.317c.006 4.982-4.094 9.028-9.158 9.036-5.066.007-9.176-4.026-9.184-9.008-.008-4.981 4.09-9.027 9.157-9.034 5.064-.008 9.177 4.025 9.185 9.006" mask="url(#2ykk2oefwb)"/>
                <path fill="#F8B422" d="M135.183 90.838c-.472-.47-1.237-.469-1.709.003l-12.089 12.127-5.223-5.206c-.472-.471-1.237-.47-1.708.003-.47.472-.469 1.236.003 1.708l6.065 6.045c.238.24.555.356.869.352.313.002.628-.115.866-.354l12.928-12.969c.471-.472.47-1.237-.002-1.709" mask="url(#2ykk2oefwb)"/>
                <path fill="#FFE3B3" d="M73.394 118.806s13.856 10.62 40.62 18.688c0 0 .875 1.19 1.666 2.181l10.72.093c.655-.755 1.208-1.508 1.461-1.968 1.186-2.157-.464-3.61-2.684-4.676-1.592-.765-2.417-1.106-3.055-.95-1.334.328-4.356-.348-4.356-.348-6.159-3.1-27.765-16.052-32.693-22.11-11.629-10.332-11.68 9.09-11.68 9.09" mask="url(#2ykk2oefwb)"/>
                <path fill="#EBEBEB" d="M67.357 88.378s7.62 13.79 29.57 30.106c.048 1.465-6.897 10.335-6.897 10.335s-20.76-6.203-45.332-36.413c-4.014-7.993 15.345-15.275 22.66-4.028" mask="url(#2ykk2oefwb)"/>
                <path fill="#EBEBEB" d="M93.566 115.818s-6.088 10.45-7.307 10.975c-1.22.527.246 2.11 2.21 1.939 1.966-.17 2.4 1.81 4.001 1.2 1.602-.611 6.453-8.935 6.765-10.56.312-1.624-2.445-1.41-2.445-1.41s-.831-2.798-3.224-2.144" mask="url(#2ykk2oefwb)"/>
                <path fill="#FFF5E4" d="M135.568 130.227c-.104.126-13.833 6.14-15.53 5.805-1.697-.336-8.406.831-8.965 2.627-.559 1.797 4.851 6.076 5.343 5.95.49-.125 15.817-5.056 15.817-5.056l3.335-9.326z" mask="url(#2ykk2oefwb)"/>
                <path fill="#FFE9C3" d="M121.821 142.945c.145-.066-1.872-.763-3.714-3.247-.538-.726.455-3.049.802-3.504 0 0-1.366-1.766-2.466-1.7-1.899.113-1.922-.234-3.015.004-1.091.239-1.22-.405-3.51.615-.306.137-.725.21-1.218.236 0-.004.003-.014.002-.017-22.797-7.7-43.65-29.174-43.65-29.174s-1.503 6.264-4.805 15.295c15.23 15.086 40.277 19.78 44.455 19.927 1.649.654 3.244 1.533 4.317 2.644.67.696 4.778 2.949 5.616 3.058 1.118.146 3.215 1.214 4.17-.178-.061.09 1.442.14 1.31-1.108.166-.124 1.874.247 1.29-1.29.02.112 1.074-.02.416-1.561" mask="url(#2ykk2oefwb)"/>
                <path fill="#000" d="M74 160.535H36.614c1.621-8.652 6.787-14.77 7.223-13.108l28.577-1.021 1.588 14.13z" mask="url(#2ykk2oefwb)"/>
                <path fill="#000" d="M73.689 149.819l-1.928 10.716H32.78c2.257-12.258 13.302-20.111 13.234-17.906l27.675 7.19z" mask="url(#2ykk2oefwb)"/>
                <path fill="#FFF5E4" d="M111.654 144.355s.618-1.152-.843-1.048c-.656.026-1.863 1.294-1.898 1.722-.035.43-.133 1.582 1.577.873.238-.333 1.164-1.16 1.164-1.547" mask="url(#2ykk2oefwb)"/>
                <path fill="#FFF5E4" d="M112.603 145.753s.848-.818-.135-1.766c-.203-.097-.556-.613-1.594 1.037-.49.513-.78 1.595-.292 1.818.485.222 1.563.156 2.02-1.09" mask="url(#2ykk2oefwb)"/>
                <path fill="#FFF5E4" d="M113.94 146.685s.145-1.743-1.158-1.615c-.422.042-.881 1.674-.69 2.042.191.369 1.543.64 2.626-.164.034-.043-.778-.263-.778-.263M125.883 134.342l-5.393 1.689s-3.077-1.29-3.747-1.354c-.67-.065-4.05.727-4.05.727s-2.033 2.251-2.324 2.715c-.48.766 2.106 2.007 3.94-.656 1.87.721 3.198.985 3.817 2.037.62 1.051 1.396 3.19 3.527 4.479.034-.358 7.818-1.916 7.818-1.916l-3.588-7.721zM108.16 142.704s-1.042 1.098.884 1.799c.345-.035 1.408-.787 1.034-1.447-.374-.66-1.918-.352-1.918-.352" mask="url(#2ykk2oefwb)"/>
                <path fill="#FFE9C3" d="M48.871 83.818s1.253-1.773 3.745-5.886c.339-.559 7.93-16.515 9.672-16.998 2.022-.563 7.648-.272 9.346.523.84.392-1.566 6.56-1.705 9.733-.316 7.198 1.799 11.14 2.488 13.271 1.638 5.06-19.039 7.514-23.546-.643" mask="url(#2ykk2oefwb)"/>
                <path fill="#FFE9C3" d="M59.81 45.453c-.684.677-10.367 8.722-2.338 22.288 1.492 3.25 18.336 13.222 17.66-4.447-.561-14.684-7.722-25.356-15.322-17.84" mask="url(#2ykk2oefwb)"/>
                <path fill="#000" d="M60.558 60.418l1.38-1.552s-3.396-8.453 2.598-8.257c7.286.239 12.093-2.084 12.221-9.132-.124-3.086-3.856.396-3.856.396s4.745-4.088.725-8.4c-3.205-2.003-2.628 1.604-6.724 3.738-6.23 3.249-13.047 1.202-15.862 9.493-2.815 8.292-.524 14.286 6.695 21.489.179-1.656.103-4.899.103-4.899s-3.416-5.814.593-6.455c1.515-.244 2.127 3.58 2.127 3.58" mask="url(#2ykk2oefwb)"/>
                <path fill="#E2E2E2" d="M52.991 75.434s-8.071 8.593-12.81 24.363c-8.237 27.412-9.28 35.665-2.866 51.045 9.964 2.179 26.95 3.157 34.987-1.118 1.718-12.305 7.31-20.242 8.378-37.541.873-14.127-3.223-22.988-8.68-31.724-.579-.927-10.441 2.199-19.009-5.025" mask="url(#2ykk2oefwb)"/>
                <path fill="#005378" d="M73.02 80.902l-.908-.582-1.798 3.998 3.137 3.797s.763 9.635-4.546 17.71C58.896 121.05 38 128.093 38.447 136.963c-.116-.454 1.081 11.16 1.081 11.16l8.224-5.952s2.8-7.712 23.13-28.634c11.39-11.72 5.688-26.74 5.688-26.74l-1.055-2.642c-.428-1.342-1.31-2.494-2.495-3.253" mask="url(#2ykk2oefwb)"/>
                <path fill="#FFF" d="M53.373 74.326c.6.27 9.11 6.25 19.03 5.733.547.448-2.345 8.844-2.345 8.844s-13.912-.215-20.146-10.435c-.127-.23 3.461-4.142 3.461-4.142" mask="url(#2ykk2oefwb)"/>
                <path fill="#CFCFCF" d="M40.252 99.105S37.867 113.17 72.6 133.111c-.185.067 12.009-11.042 10.327-12.4-23.191-18.724-20.994-29.979-29.73-30.965-6.553-.74-12.316 5.36-12.945 9.36" mask="url(#2ykk2oefwb)"/>
                <path fill="#CFCFCF" d="M81.16 118.656s-8.144 12.304-9.388 12.978c-1.242.673.735 3.143 2.8 2.763 2.065-.381 1.65 1.89 3.29 1.09 1.638-.8 6.162-9.792 6.845-15.024.224-1.717-2.361-.4-2.361-.4s1.286-2.334-1.187-1.407" mask="url(#2ykk2oefwb)"/>
                <path fill="#F7A600" d="M168.546 87.082s-6.162-.248-8.523 4.546c-2.363 4.792-11.385 27.26-11.385 27.26l-22.755 15.454.859 8.29 28.132-13.813 17.73-26.25-4.058-15.487z" mask="url(#2ykk2oefwb)"/>
                <path fill="#000" d="M166.638 42.919s.428 4.018-5.002 10.736c-8.514-8.699-.614-23.625 10.968-20.163 11.582 3.462 14.712 15.088 15.552 26.87 5.046 8.137 9.159 13.53 9.97 26.406.811 12.876-33.569 13.354-33.569 13.354l-4.829-21.726s-4.239-20.699 6.91-35.477" mask="url(#2ykk2oefwb)"/>
                <path fill="#FFF5E4" d="M175.417 63.988l.886 20.728s-12.443 12.478-10.383 8.288c3.915-7.963 5.044-30.138 1.69-29.924l7.807.908z" mask="url(#2ykk2oefwb)"/>
                <path fill="#FFF5E4" d="M172.638 39.86c.75.546 11.162 6.801 5.49 20.914-1.844 6.972-12.023 9.052-15.415-.99-3.39-10.04 1.577-25.978 9.925-19.924" mask="url(#2ykk2oefwb)"/>
                <path fill="#FFF5E4" d="M178.275 49.544s3.498-3.052 3.31.998c-.148 3.212-3.21 3.112-3.21 3.112l-.1-4.11z" mask="url(#2ykk2oefwb)"/>
                <path fill="#000" d="M163.615 38.363s9.172 15.546 17.978 8.267c-9.973-12.885-17.978-8.267-17.978-8.267" mask="url(#2ykk2oefwb)"/>
                <path fill="#F8B422" d="M183.988 108.4l8.374 20.372-7.547 4.338c-.998-12.865-.827-24.71-.827-24.71m22.384 27.363c0-15.694-20.071-48.983-20.071-48.983l-9.997-2.064V77.35c-4.57 4.933-7.02 0-7.02 0s-4.393 17.499-8.594 22.771c-7.848 11.165.947 20.09.947 20.09l-4.798 40.324h33.397c-1.957-3.86-3.3-9.797-4.23-16.296 5.999-1.915 13.046-4.643 20.366-8.476" mask="url(#2ykk2oefwb)"/>
                <path fill="#FFF5E4" d="M165.735 143.635L168.257 148.445 151.721 156.226 148.638 144.203 156.205 141.808 156.205 144.502z" mask="url(#2ykk2oefwb)"/>
            </g>
        </g>
    </g>
</svg>
