<svg xmlns="http://www.w3.org/2000/svg" xmlns:xlink="http://www.w3.org/1999/xlink" width="407" height="314" viewBox="0 0 407 314">
    <defs>
        <path id="3bx3i2h1ma" d="M0 0L341.1 0 341.1 240.3 0 240.3z"/>
        <path id="9e54g6k2rc" d="M206.796.925c-17.78 1.078-39.284 13.323-58.257 26.934-10.229 7.338-20.76 14.245-31.636 20.588l-5.509 3.213C85.41 66.818 57.867 79.128 29.24 88.376 7.164 95.046.076 106.14 0 119.31v.421c.005.804.035 1.616.088 2.437h282.235c3.075-11.92 7.976-24.134 10.453-37.417 5.635-30.23-10.21-60.412-37.747-74.098C243.336 4.836 231.056.559 215.077.559c-2.654 0-5.408.119-8.28.366"/>
        <path id="8ochxkuhqe" d="M206.796.925c-17.78 1.078-39.284 13.323-58.257 26.934-10.229 7.338-20.76 14.245-31.636 20.588l-5.509 3.213C85.41 66.818 57.867 79.128 29.24 88.376 7.164 95.046.076 106.14 0 119.31v.421c.005.804.035 1.616.088 2.437h282.235c3.075-11.92 7.976-24.134 10.453-37.417 5.635-30.23-10.21-60.412-37.747-74.098C243.336 4.836 231.056.559 215.077.559c-2.654 0-5.408.119-8.28.366"/>
        <path id="5z0xl6lgpg" d="M206.796.925c-17.78 1.078-39.284 13.323-58.257 26.934-10.229 7.338-20.76 14.245-31.636 20.588l-5.509 3.213C85.41 66.818 57.867 79.128 29.24 88.376 7.164 95.046.076 106.14 0 119.31v.421c.005.804.035 1.616.088 2.437h282.235c3.075-11.92 7.976-24.134 10.453-37.417 5.635-30.23-10.21-60.412-37.747-74.098C243.336 4.836 231.056.559 215.077.559c-2.654 0-5.408.119-8.28.366h-.001z"/>
        <path id="j36n3sd8ni" d="M206.796.925c-17.78 1.078-39.284 13.323-58.257 26.934-10.229 7.338-20.76 14.245-31.636 20.588l-5.509 3.213C85.41 66.818 57.867 79.128 29.24 88.376 7.164 95.046.076 106.14 0 119.31v.421c.005.804.035 1.616.088 2.437h282.235c3.075-11.92 7.976-24.134 10.453-37.417 5.635-30.23-10.21-60.412-37.747-74.098C243.336 4.836 231.056.559 215.077.559c-2.654 0-5.408.119-8.28.366"/>
        <path id="5yi4vxtckk" d="M206.796.925c-17.78 1.078-39.284 13.323-58.257 26.934-10.229 7.338-20.76 14.245-31.636 20.588l-5.509 3.213C85.41 66.818 57.867 79.128 29.24 88.376 7.164 95.046.076 106.14 0 119.31v.421c.005.804.035 1.616.088 2.437h282.235c3.075-11.92 7.976-24.134 10.453-37.417 5.635-30.23-10.21-60.412-37.747-74.098C243.336 4.836 231.056.559 215.077.559c-2.654 0-5.408.119-8.28.366h-.001z"/>
        <path id="f912upwkmm" d="M206.796.925c-17.78 1.078-39.284 13.323-58.257 26.934-10.229 7.338-20.76 14.245-31.636 20.588l-5.509 3.213C85.41 66.818 57.867 79.128 29.24 88.376 7.164 95.046.076 106.14 0 119.31v.421c.005.804.035 1.616.088 2.437h282.235c3.075-11.92 7.976-24.134 10.453-37.417 5.635-30.23-10.21-60.412-37.747-74.098C243.336 4.836 231.056.559 215.077.559c-2.654 0-5.408.119-8.28.366"/>
        <path id="pkwtkfekco" d="M206.796.925c-17.78 1.078-39.284 13.323-58.257 26.934-10.229 7.338-20.76 14.245-31.636 20.588l-5.509 3.213C85.41 66.818 57.867 79.128 29.24 88.376 7.164 95.046.076 106.14 0 119.31v.421c.005.804.035 1.616.088 2.437h282.235c3.075-11.92 7.976-24.134 10.453-37.417 5.635-30.23-10.21-60.412-37.747-74.098C243.336 4.836 231.056.559 215.077.559c-2.654 0-5.408.119-8.28.366h-.001z"/>
        <path id="ezyaey85cq" d="M206.796.925c-17.78 1.078-39.284 13.323-58.257 26.934-10.229 7.338-20.76 14.245-31.636 20.588l-5.509 3.213C85.41 66.818 57.867 79.128 29.24 88.376 7.164 95.046.076 106.14 0 119.31v.421c.005.804.035 1.616.088 2.437h282.235c3.075-11.92 7.976-24.134 10.453-37.417 5.635-30.23-10.21-60.412-37.747-74.098C243.336 4.836 231.056.559 215.077.559c-2.654 0-5.408.119-8.28.366h-.001z"/>
        <path id="6ja670lq5s" d="M206.796.925c-17.78 1.078-39.284 13.323-58.257 26.934-10.229 7.338-20.76 14.245-31.636 20.588l-5.509 3.213C85.41 66.818 57.867 79.128 29.24 88.376 7.164 95.046.076 106.14 0 119.31v.421c.005.804.035 1.616.088 2.437h282.235c3.075-11.92 7.976-24.134 10.453-37.417 5.635-30.23-10.21-60.412-37.747-74.098C243.336 4.836 231.056.559 215.077.559c-2.654 0-5.408.119-8.28.366h-.001z"/>
        <path id="08md5cqopu" d="M0.818 0.877L55.022 0.877 55.022 13.739 0.818 13.739z"/>
        <path id="qz0u6tw1rw" d="M0.107 0.827L95.22 0.827 95.22 68.226 0.107 68.226z"/>
    </defs>
    <g fill="none" fill-rule="evenodd">
        <g>
            <g transform="translate(0 73)">
                <mask id="ptcoo45cub" fill="#fff">
                    <use xlink:href="#3bx3i2h1ma"/>
                </mask>
                <g mask="url(#ptcoo45cub)">
                    <g>
                        <g>
                            <g transform="translate(4 2) translate(0 116) translate(.5 .154)">
                                <mask id="o6nlc2x1jd" fill="#fff">
                                    <use xlink:href="#9e54g6k2rc"/>
                                </mask>
                                <path fill="#E9E8E1" fill-rule="nonzero" d="M.09 122.165h282.234c3.075-11.917 7.976-24.131 10.453-37.414 5.635-30.23-10.21-60.412-37.747-74.1C241.392 3.87 226.965-.82 206.795.925c-17.781 1.076-39.282 13.323-58.255 26.93-10.231 7.342-20.762 14.246-31.639 20.592l-5.506 3.213C85.41 66.819 57.865 79.129 29.241 88.377 5.585 95.524-.861 107.751.089 122.165" mask="url(#o6nlc2x1jd)"/>
                            </g>
                            <g transform="translate(4 2) translate(0 116) translate(.5 .154)">
                                <mask id="g4z6ly1esf" fill="#fff">
                                    <use xlink:href="#8ochxkuhqe"/>
                                </mask>
                                <path fill="#FFF" fill-rule="nonzero" d="M76.624 129.019l-.118-.481c22.015-5.418 43.183-16.587 64.703-34.159 8.85-7.225 17.353-15.833 26-26.316 15.172-18.396 31.794-32.995 49.414-43.397 8.495-5.018 17.116-8.034 25.616-8.961 14.651-1.603 27.526 2.255 37.11 5.786l-.172.468c-9.533-3.518-22.355-7.34-36.885-5.76-8.43.922-16.983 3.913-25.417 8.893-17.567 10.372-34.149 24.935-49.284 43.286-8.666 10.508-17.194 19.14-26.067 26.384-21.58 17.62-42.81 28.826-64.9 34.257" mask="url(#g4z6ly1esf)"/>
                            </g>
                            <g transform="translate(4 2) translate(0 116) translate(.5 .154)">
                                <mask id="jdhkp9qu5h" fill="#fff">
                                    <use xlink:href="#5z0xl6lgpg"/>
                                </mask>
                                <path fill="#FFF" fill-rule="nonzero" d="M76.163 129.78l-.42-1.704.614-.151c21.924-5.393 43.009-16.526 64.454-34.033 8.818-7.202 17.292-15.78 25.91-26.23 15.221-18.454 31.904-33.103 49.582-43.539 8.573-5.065 17.274-8.106 25.865-9.044 14.762-1.618 27.738 2.263 37.397 5.821l.592.217-.607 1.648-.59-.22c-9.47-3.49-22.184-7.28-36.6-5.722-8.344.915-16.811 3.878-25.165 8.81-17.502 10.334-34.03 24.852-49.118 43.145-8.696 10.546-17.251 19.205-26.155 26.472-21.659 17.683-42.97 28.928-65.147 34.378l-.612.152z" mask="url(#jdhkp9qu5h)"/>
                            </g>
                            <g transform="translate(4 2) translate(0 116) translate(.5 .154)">
                                <mask id="3l9j62o3kj" fill="#fff">
                                    <use xlink:href="#j36n3sd8ni"/>
                                </mask>
                                <path fill="#DBD9D3" fill-rule="nonzero" d="M69.996 128.876l-.023-.196c45.87-5.217 77.498-21.38 99.525-50.859 13.757-17.065 27.496-31.185 42.003-43.157 12.47-10.29 25.757-16.683 39.496-19.011 8.273-1.401 16.166-1.308 23.461.272l-.042.191c-7.27-1.572-15.143-1.663-23.383-.27-13.71 2.324-26.964 8.707-39.403 18.971-14.5 11.965-28.23 26.072-41.976 43.128-10.423 13.95-22.831 24.728-37.928 32.951-17.114 9.32-37.304 15.2-61.73 17.98" mask="url(#3l9j62o3kj)"/>
                            </g>
                            <g transform="translate(4 2) translate(0 116) translate(.5 .154)">
                                <mask id="uzaiuareil" fill="#fff">
                                    <use xlink:href="#5yi4vxtckk"/>
                                </mask>
                                <path fill="#FFF" fill-rule="nonzero" d="M69.719 129.226l-.096-.827.313-.035c45.78-5.206 77.336-21.327 99.31-50.733 13.775-17.093 27.531-31.222 42.057-43.21 12.509-10.325 25.845-16.743 39.642-19.076 8.31-1.41 16.241-1.318 23.58.27l.312.065-.182.811-.305-.068c-7.24-1.565-15.064-1.653-23.264-.265-13.654 2.316-26.86 8.674-39.254 18.903-14.48 11.942-28.194 26.037-41.933 43.082-10.443 13.976-22.884 24.782-38.022 33.03-17.146 9.339-37.376 15.23-61.846 18.015l-.312.038z" mask="url(#uzaiuareil)"/>
                            </g>
                            <g transform="translate(4 2) translate(0 116) translate(.5 .154)">
                                <mask id="e8dawtchqn" fill="#fff">
                                    <use xlink:href="#f912upwkmm"/>
                                </mask>
                                <path fill="#DBD9D3" fill-rule="nonzero" d="M177.06 125.803l-.048-.194c26.863-6.62 44.98-16.083 58.744-30.684l18.781-18.781c11.124-11.124 23.144-21.549 35.729-30.989l2.1-1.572.12.158-2.1 1.575c-12.579 9.433-24.592 19.85-35.707 30.969l-18.782 18.779c-13.79 14.626-31.936 24.106-58.837 30.739" mask="url(#e8dawtchqn)"/>
                            </g>
                            <g transform="translate(4 2) translate(0 116) translate(.5 .154)">
                                <mask id="4arpbqilvp" fill="#fff">
                                    <use xlink:href="#pkwtkfekco"/>
                                </mask>
                                <path fill="#DBD9D3" fill-rule="nonzero" d="M176.827 126.184l-.194-.806.305-.076c26.8-6.607 44.869-16.042 58.588-30.593l18.789-18.789c11.13-11.128 23.161-21.564 35.761-31.016l2.351-1.76.502.659-2.354 1.764c-12.557 9.417-24.557 19.827-35.675 30.94l-18.78 18.78c-13.827 14.668-32.021 24.174-58.985 30.821l-.308.076z" mask="url(#4arpbqilvp)"/>
                            </g>
                            <g transform="translate(4 2) translate(0 116) translate(.5 .154)">
                                <mask id="53fozuvm4r" fill="#fff">
                                    <use xlink:href="#ezyaey85cq"/>
                                </mask>
                                <path fill="#FFF" fill-rule="nonzero" d="M151.623 122.165l-.142-.476 31.037-8.984c22.897-6.63 42.643-19.419 57.098-36.993l.37-.449 5.096-6.71c8.558-11.275 18.328-21.69 29.038-30.959l6.698-5.796.325.376-6.698 5.798c-10.682 9.243-20.43 19.633-28.965 30.878l-5.481 7.18c-14.52 17.65-34.35 30.496-57.343 37.154l-31.033 8.981z" mask="url(#53fozuvm4r)"/>
                            </g>
                            <g transform="translate(4 2) translate(0 116) translate(.5 .154)">
                                <mask id="ku1qag8uzt" fill="#fff">
                                    <use xlink:href="#6ja670lq5s"/>
                                </mask>
                                <path fill="#FFF" fill-rule="nonzero" d="M151.408 122.554l-.315-1.08.303-.09 31.034-8.983c22.836-6.61 42.527-19.366 56.944-36.888l.37-.45 5.088-6.701c8.57-11.293 18.356-21.723 29.081-31.007l6.938-6.002.738.852-6.937 6.005c-10.668 9.228-20.397 19.603-28.923 30.83l-5.478 7.181c-14.57 17.708-34.453 30.59-57.506 37.264l-31.337 9.07v-.001z" mask="url(#ku1qag8uzt)"/>
                            </g>
                        </g>
                        <g>
                            <g transform="translate(4 2) translate(12) translate(240.5 224.514)">
                                <mask id="nnk1e4xl6v" fill="#fff">
                                    <use xlink:href="#08md5cqopu"/>
                                </mask>
                                <path fill="#005378" fill-rule="nonzero" d="M52.665 13.739c1.358-1.764 2.117-3.538 2.32-5.322.24-2.072-.713-4.1-2.605-4.972-1.756-.807-4.279-1.049-7.726-.613L25.892 5.587c-2.424.355-4.853-.741-6.12-2.84-.2-.333-.467-.643-.815-.925-.942-.766-2.192-1.018-3.402-.928-.201.015-.403.038-.61.066-3.17.423-5.922 2.381-7.663 5.06-1.92 2.953-4.34 5.42-6.464 7.719 0 0 51.847-.34 51.847 0" mask="url(#nnk1e4xl6v)"/>
                            </g>
                            <path fill="#FFF" fill-rule="nonzero" d="M41.279 238.319s65.734-26.288 100.291-66.981c30.278-35.65 99.74-45.615 99.74-45.615l9.074 4.788s-71.659 4.859-104.97 44.09c-29.6 34.86-89.312 63.718-89.312 63.718H41.279z" transform="translate(4 2) translate(12)"/>
                            <path fill="#FFE9C3" fill-rule="nonzero" d="M128.997 68.46s3.442-2.6 5.12 2.717C123.947 84.82 104.53 98.36 104.53 98.36l-3.767-11.012 28.234-18.888z" transform="translate(4 2) translate(12)"/>
                            <g transform="translate(4 2) translate(12) translate(140.6 .234)">
                                <mask id="7kg39q4ozx" fill="#fff">
                                    <use xlink:href="#qz0u6tw1rw"/>
                                </mask>
                                <path fill="#000" fill-rule="nonzero" d="M10.348 1.855c4.37-2.029 7.366-.68 10.473.804 1.593.76 2.81 1.882 3.45 3.162 1.356 2.702 3.622 4.277 6.079 4.108 18.897-2.762 29.957 1.862 35.862 11.348 1.572 2.53 4.253 4.198 7.227 4.412 7.033.507 12.749 1.777 16.642 4.098 4.508 2.683 6.28 9.12 4.392 14.016-1.922 4.992-5.99 8.092-11.579 9.853-1.78 9.717-6.595 11.637-11.801 12.547-4.01-10.498-29.48 7.87-42.815 0-4.909-2.905 1.545-31.878-8.296-34.247-3.041-2.26-.38-9.38-.89-14.369-.105-1.018.313-2 1.029-2.734.383-.388.4-.658-.25-1.817-.756-.272-1.305-.446-1.945-.043-1.757.65-3.528.048-4.99-.806-1.396-.819-2.33-2.628-3.23-3.977l-.683-.932c-1.49.932-1.16 4.682-1.036 6.544l1.492 4.347c.169.827.527 1.603 1.04 2.271l.34.438s1.362 2.04 2.347 1.888l2.235-.746c.245 3.236.958 6.053-.123 7.704-1.74 2.608-4.219 2.754-6.336 3.434l-7.827 2.735c-1.245-2.498-1.786-5.045.719-7.797 1.179-1.298 2.378-2.576 3.412-3.992l.002-.002c.915-1.255 1.248-2.853.917-4.37-1.124-5.166-2.124-9.135-.143-12.908.514-1.806 1.998-4.394 4.286-4.969" mask="url(#7kg39q4ozx)"/>
                            </g>
                            <path fill="#000" fill-rule="nonzero" d="M168.879 75.6c-.084.327 15.43 10.755 26.518-1.956 0 0 16.415 1.094 17.264-8.838.852-9.933-28.627-22.987-28.627-22.987l-34.451-8.427-7.827 2.734s-2.339 26.256 10.392 33.6c12.729 7.343 16.73 5.874 16.73 5.874" transform="translate(4 2) translate(12)"/>
                            <path fill="#11203D" fill-rule="nonzero" d="M149.913 86.354c-4.594.255-38.233 12.408-62.856 20.868-11.023 4.025-17.693 9.105-20.372 15.155l-15.404 39.254-32.793 65.79c-.484 1.048-1.318 1.895-2.361 2.397l-15.17 7.255c-.535.254-.349 1.058.246 1.05l16.665-.201c.952-.01 1.84-.502 2.354-1.305l6.13-9.561 45.053-49.027c10.63-11.69 17.607-26.987 21.614-45.216l79.726-20.362-22.832-26.097z" transform="translate(4 2) translate(12)"/>
                            <path fill="#005378" fill-rule="nonzero" d="M173.93 85.111c6.171 3.195 10.296 12.111 13.416 20.208 2.825 7.34 2.369 17.083-3.147 22.69-3.19 3.243-8.916 5.123-14.742 6.461-22.169 5.139-43.753 9.468-61.448 8.778 14.228 10.054 23.512 24.34 29.151 41.738l10.683 27.91c3.031 6.59 5.576 13.393 7.62 20.353l.557 2.523c.187.854-.408 1.68-1.278 1.774l-19.759 2.13c-.69.072-1.01-.837-.426-1.21l11.872-7.563c.456-.295.592-.897.29-1.348-11.86-17.54-32.143-39.693-53.787-63.622-5.398-5.968-9.314-13.233-10.773-21.146-1.358-7.368-.512-14.528 5.312-21.25 2.006-2.317 4.49-4.139 7.177-5.714 4.599-2.694 9.654-4.52 14.838-5.753l35.459-8.41 28.985-18.549z" transform="translate(4 2) translate(12)"/>
                            <path fill="#B5B4AE" fill-rule="nonzero" d="M149.21 104.821L157.657 91.944 120.018 95.048 110.576 108.671z" transform="translate(4 2) translate(12)"/>
                            <path fill="#E9E8E1" fill-rule="nonzero" d="M149.21 104.821L110.576 108.671 97.159 80.349 135.793 76.499z" transform="translate(4 2) translate(12)"/>
                            <path fill="#DBD9D3" fill-rule="nonzero" d="M97.532 80.266c5.363 3.316 10.297 6.957 14.762 10.952 3.43 3.064 7.77 4.99 12.348 5.42 9.627.907 17.353 4.224 24.568 8.183l-38.634 3.85-13.044-28.405z" transform="translate(4 2) translate(12)"/>
                            <path fill="#1E70BC" fill-rule="nonzero" d="M151.074 17.918l-.252-.023c.065-.708-.03-1.245-.124-1.764-.088-.474-.166-.922-.123-1.464l.25.02c-.039.51.037.943.12 1.399.096.537.194 1.091.129 1.832m4.963 4.634l-.118-.222c.912-.484 1.731-1.283 2.268-1.84l.181.174c-.549.572-1.386 1.386-2.33 1.888" transform="translate(4 2) translate(12)"/>
                            <path fill="#FFE9C3" fill-rule="nonzero" d="M149.623 7.39s-3.102 2.62-1.144 11.494c1.96 8.87 7.441 3.447 7.441 3.447l-.501 7.749-5.836 3.311s3.734 13.076 12.373 9.559c8.636-3.518 6.748-10.758 6.748-10.758l-7.068-2.039-1.643-9.664 1.802-7.13-3.269-.133.39 1.442-9.293-7.278z" transform="translate(4 2) translate(12)"/>
                            <path fill="#009DB7" fill-rule="nonzero" d="M149.582 33.392s6.033 5.524 10.085 5.264c4.053-.262 9.037-6.466 9.037-6.466s9.107.922 17.355 12.545c8.25 11.622 15.934 27.183 15.934 27.183s-1.31 6-7.497 3.56c-3.938-5.06-18.083-24.652-18.083-24.652s-11.37 15.208-2.482 34.284c-18.416 15.995-22.75 8.83-24.018 1.245 2.028-5.627-6.784-23.06-6.411-32.621.375-9.564 6.08-20.342 6.08-20.342" transform="translate(4 2) translate(12)"/>
                            <path fill="#FFE9C3" fill-rule="nonzero" d="M195.397 73.644l-41.717 18.3-7.098-1.649-1.553 1.275 7.258 2.9-8.198 2.332-4.84-1.431h-2.823l9.813 5.733h9.273l2.145-4.169 36.837-14.112s7.293-2.394 6.94-9.462c-.355-7.071-6.037.282-6.037.282" transform="translate(4 2) translate(12)"/>
                            <path fill="#009DB7" fill-rule="nonzero" d="M149.582 33.392s-6.09-3.293-20.585 35.068c7.421 3.94 5.12 2.717 5.12 2.717l9.627-13.613s11.025-23.103 5.838-24.172" transform="translate(4 2) translate(12)"/>
                        </g>
                    </g>
                </g>
            </g>
            <path d="M0 0L407 0 407 314 0 314z"/>
        </g>
    </g>
</svg>
