<svg xmlns="http://www.w3.org/2000/svg" xmlns:xlink="http://www.w3.org/1999/xlink" width="62" height="56" viewBox="0 0 62 56">
    <defs>
        <path id="n2h7meft5a" d="M0 0L62 0 62 56 0 56z"/>
        <path id="4qoh56vutc" d="M0.3 0.128L29.388 0.128 29.388 36.207 0.3 36.207z"/>
    </defs>
    <g fill="none" fill-rule="evenodd">
        <g>
            <g>
                <g>
                    <g transform="translate(-28 -108) translate(12 68) translate(0 40) translate(16)">
                        <mask id="sy8gxoq5fb" fill="#fff">
                            <use xlink:href="#n2h7meft5a"/>
                        </mask>
                        <g mask="url(#sy8gxoq5fb)">
                            <g transform="translate(26 .872)">
                                <mask id="j3jqoy8k2d" fill="#fff">
                                    <use xlink:href="#4qoh56vutc"/>
                                </mask>
                                <path fill="#000" fill-rule="nonzero" d="M.3 8.935S4.398-.562 15.355.168c10.958.73 19.724 20.27 9.497 36.039H5.772L.3 8.935z" mask="url(#j3jqoy8k2d)"/>
                            </g>
                            <path fill="#FFE9C3" fill-rule="nonzero" d="M21.51 17.5L19.8 30.325h1.71v4.276s0 1.71 3.421 1.71c0 6.842-1.711 8.552-1.711 8.552h8.552V34.602s5.131-5.13 5.131-8.55c0-3.422-6.841-10.263-6.841-10.263L21.51 17.5z"/>
                            <path fill="#FFE9C3" fill-rule="nonzero" d="M34.911 23.307s1.741-3.06 3.381-1.686c2.552 2.138-4.474 10.658-4.474 10.658l1.093-8.972z"/>
                            <path stroke="#000" stroke-width="1.315" d="M23.973 23.76c0 1.734-1.407 3.142-3.143 3.142-1.735 0-3.142-1.408-3.142-3.143 0-1.735 1.407-3.143 3.142-3.143 1.736 0 3.143 1.408 3.143 3.143v.001zm8.612 0c0 1.734-1.407 3.142-3.143 3.142-1.735 0-3.142-1.408-3.142-3.143 0-1.735 1.407-3.143 3.142-3.143 1.736 0 3.143 1.408 3.143 3.143v.001zm-10.449-.001h6.216"/>
                            <path fill="#000" fill-rule="nonzero" d="M21.51 17.5l8.552-1.71 4.849 7.517v2.4l1.405-3.1c.342-.755 1.167-1.167 1.976-.986 0 0 5.089-10.713-3.381-13.132-8.469-2.419-14.876-1.566-17.222 9.82 2.111.9 3.568 1.088 3.568 1.088l.253-1.898v.001z"/>
                            <path fill="#FFC06F" fill-rule="nonzero" d="M24.93 36.313s3.236.483 5.05-1.072c-3.456 2.85-5.2 4.318-5.2 4.318l.15-3.246z"/>
                            <path fill="#005378" fill-rule="nonzero" d="M24.781 39.6l6.991-1.228v6.721s16.636-2.544 28.449 12.279H14.853s9.299-10.818 9.928-17.771M8.126 30.346S.995 52.929 0 57.51h9.452s-.166-24.946 2.985-28l-4.312.835.001.001z"/>
                            <path fill="#FFE9C3" fill-rule="nonzero" d="M8.126 30.326L11.567 21.311 19.8 19.64 13.963 23.759 13.963 26.451 15.981 25.707 17.116 24.97 12.438 29.511z"/>
                        </g>
                    </g>
                </g>
            </g>
        </g>
    </g>
</svg>
