<svg width="223" height="22" fill="none" xmlns="http://www.w3.org/2000/svg">
    <path d="M22.817 10.543h3.611C26.428 4.686 21.832 0 16.087 0 12.393 0 9.11 2.008 7.305 5.02V0H3.61L0 3.765h3.611V21.17h3.612v-5.02c-.903-1.674-1.478-3.598-1.478-5.606 0-2.176.821-4.184 2.134-5.69l.082-.084.575-.585c.082 0 .082-.084.082-.084.246-.167.492-.418.657-.586l.082-.083c.246-.168.574-.335.82-.502.247-.168.575-.251.821-.419.082 0 .164-.084.246-.084.247-.083.41-.167.657-.25.082 0 .164-.084.328-.084.247-.084.41-.084.657-.168.082 0 .164 0 .328-.083.329 0 .657-.084.985-.084.493 0 .985.084 1.478.167h.164c.082 0 .164 0 .246.084a6.93 6.93 0 0 1 1.97.753c.328.168.574.335.82.502h.083c.164.168.41.251.574.419h.082c.164.167.41.334.575.502l.082.083.492.502s0 .084.082.084c.165.167.329.335.41.586.083.083.083.167.165.25.082.168.164.252.246.42.082.166.164.334.246.417.082.084.082.168.164.251l.247.502c0 .084.082.168.082.251l.246.754c.164.502.246 1.087.246 1.59-.082.25-.082.418-.082.669zM39.806 13.639V0h-.574L22.816 16.734h13.297v4.351h3.611v-4.35h4.268v-3.096h-4.186zm-3.693 0h-6.074l6.074-6.192v6.192z" fill="#686868"/>
    <path d="m22.738 16.735 3.283-3.346c.246-.92.41-1.841.41-2.845H22.82c0 3.765-2.955 6.86-6.73 6.86-3.694 0-6.73-3.095-6.73-6.86 0-3.766 2.954-6.861 6.73-6.861 3.447 0 6.32 2.677 6.648 6.108-.328-4.435-4.022-7.95-8.454-7.95-4.678 0-8.536 3.933-8.536 8.703 0 5.857 4.596 10.542 10.342 10.542 3.447 0 6.484-1.673 8.371-4.35h-1.723z" fill="#FF7800"/>
    <path d="M58.79.112h1.989v1.625h9.509v1.885h-21.11V1.737h9.612V.112zm6.7 19.58v.07a2.767 2.767 0 0 0 1.608.051 1.046 1.046 0 0 0 .544-.908v-5.86c0-.096-.06-.139-.164-.139h-15.5a.122.122 0 0 0-.133.082.122.122 0 0 0-.005.056v8.645h-1.988V11.6a.433.433 0 0 1 .493-.493h18.784a.431.431 0 0 1 .493.493v8.091a2.22 2.22 0 0 1-.934 1.85c-.778.524-2.178.553-4.2.086v-1.65h-10.27c-.173 0-.26-.096-.26-.286v-5.273a.234.234 0 0 1 .26-.26h11.021c.182 0 .277.087.277.26v5.273h-.026zm1.418-9.708H52.584c-.173 0-.26-.095-.26-.276v-4.72a.225.225 0 0 1 .26-.25h14.324a.225.225 0 0 1 .259.25v4.72c-.017.181-.104.276-.26.276zM54.399 6.527c-.078 0-.104 0-.07.086v1.452c0 .043 0 .087.07.113h10.693l.07-.113V6.613c0-.06 0-.086-.07-.086H54.4zm1.444 9.335c-.078 0-.096 0-.07.07v2.23l.07.095h7.78l.095-.095v-2.239l-.095-.07-7.78.01zM74.343 17.384v-1.98h3.25V8.048c-.035-.329.121-.493.467-.493h7.78V3.804h-6.82a15.258 15.258 0 0 1-3.38 4.149l-1.47-1.418a15.64 15.64 0 0 0 2.593-2.688A16.966 16.966 0 0 0 78.371.112l1.893.536-.371 1.167h15.56v1.989H87.94v3.751h6.915v1.963h-6.915v5.86h7.97v1.98h-7.98v4.556h-2.074v-4.53H74.343zM85.83 9.517h-5.86c-.174 0-.243.078-.208.234v5.627h6.051l.017-5.86zM100.286 12.111a9.237 9.237 0 0 0-.493-1.841l1.66-.234a30.113 30.113 0 0 0 1.867-2.221 17.043 17.043 0 0 0-3.527-2.473l.864-1.677.908.51A36.878 36.878 0 0 0 103.83.182l1.616 1.011a46.2 46.2 0 0 1-2.429 4.011l1.332 1.055a18.544 18.544 0 0 0 1.538-3.363l1.798.58c-.484 1.633-1.729 3.716-3.803 6.232l2.593-.372-.605-1.236 1.634-.7a34.69 34.69 0 0 1 1.936 4.322l-1.66.605-.44-1.141-2.032.285v10.313h-1.824V11.67l-3.198.441zm2.282 1.521c-.432 3.458-.769 5.766-1.003 6.916l-1.729-.398c.502-2.227.831-4.49.986-6.768l1.746.25zm9.128.165a27.267 27.267 0 0 1-2.679 7.633l-1.989-.476c.502-.994.969-2.074 1.427-3.241l-1.565.259-.691-4.65 1.728-.416.675 4.366a30.26 30.26 0 0 0 2.031-11.835v-2.55h-2.308V.873h10.615c.249.017.483.124.657.303a.871.871 0 0 1 .234.726l-1.435 5.022h1.729l1.098.744a17.204 17.204 0 0 1-1.548 5.973 23.373 23.373 0 0 1-2.187 3.553 25.408 25.408 0 0 0 4.037 3.38l-1.66 1.357a27.69 27.69 0 0 1-3.639-3.389A29.807 29.807 0 0 1 111.437 22l-1.487-1.564a19.204 19.204 0 0 0 4.322-2.801l.744-.7a19.885 19.885 0 0 1-2.706-7.78l-.614 4.642zm4.668-6.864 1.072-3.899c0-.147-.069-.19-.207-.147h-4.625v2.55l-.086 1.47 3.846.026zm-1.262 5.81c.303.96.712 1.885 1.219 2.757a14.237 14.237 0 0 0 2.818-6.095c0-.199 0-.337-.086-.397-.087-.06-.259-.121-.545-.095h-4.27c.144 1.296.434 2.572.864 3.803v.026zM136.074 8.938a26.412 26.412 0 0 1-2.551 6.232 22.067 22.067 0 0 1-6.578 6.579l-1.539-1.47c6.224-3.515 9.428-9.74 9.613-18.672V.302h2.083v2.187a20.001 20.001 0 0 0 1.141 6.82c1.343 3.89 4.199 7.636 8.567 11.238l-1.729 1.254-2.853-2.732a24.208 24.208 0 0 1-6.154-10.131zM151.324 5.341V3.353h7.556V.302h2.152v3.034h9.379l.398.086c.251.156.372.51.372 1.055l-.121 8.731c-.139 4.247-.917 6.84-2.334 7.78-1.291.864-3.709.787-7.253-.233l-.095-2.404c3.207 1.02 5.264 1.22 6.189.58a3.828 3.828 0 0 0 1.003-1.66c.323-1.438.479-2.909.467-4.383.13-2.465.13-4.935 0-7.4a.277.277 0 0 0-.259-.164h-7.78a28.081 28.081 0 0 1-1.773 7.84 19.457 19.457 0 0 1-6.915 8.334l-1.617-1.521c5.072-3.003 7.795-7.887 8.169-14.653l-7.538.018zM180.856 1.867a19.06 19.06 0 0 1-4.063 3.752l-1.729-1.167c2.594-1.556 4.202-3.043 4.971-4.452h1.798l-.095.398V.346a32.077 32.077 0 0 0 3.198 2.731l-1.469 1.358a38.276 38.276 0 0 1-2.611-2.568zm-3.881 11.108a19.68 19.68 0 0 1 1.184 4.41l-1.729.414a20.445 20.445 0 0 0-1.141-4.322l1.686-.502zm2.118-1.098h-3.458V10.08h3.458V7.694h-2.447V5.878h6.864v1.816h-2.524v2.385h3.242v1.798h-3.242v6.553l2.896-.813.397 1.842a83.264 83.264 0 0 1-8.359 1.867l-.259-1.867 3.458-.605-.026-6.976zm5.135 1.73a38.785 38.785 0 0 1-1.072 3.31l-1.539-.657a27.06 27.06 0 0 0 1.029-3.241l1.582.587zm7.823 1.538a28.86 28.86 0 0 0 3.337-2.939l1.21 1.349a25.245 25.245 0 0 1-3.639 3.172 17.164 17.164 0 0 0 4.106 3.691l-1.677 1.306a17.82 17.82 0 0 1-3.225-2.914 11.832 11.832 0 0 1-2.801-7.356h-2.014v7.702c1.291-.397 2.389-.787 3.294-1.167l.631 1.798a35.493 35.493 0 0 1-6.821 2.084l-.536-1.85 1.539-.372V1.253a.481.481 0 0 1 .135-.4.474.474 0 0 1 .401-.135h9.085c.372 0 .562.181.562.535v9.596c0 .406-.216.605-.588.605h-3.734a12.54 12.54 0 0 0 .769 3.691h-.034zm1.668-9.95V2.956a.399.399 0 0 0-.269-.405.397.397 0 0 0-.172-.018h-5.515c-.32 0-.475.147-.441.44v2.222h6.397zm-6.397 1.798v2.68h5.905c.328 0 .492-.164.492-.51v-2.17h-6.397zM202.581 14.116l-1.634-1.28a17.928 17.928 0 0 0 5.083-6.75l1.798.864a45.054 45.054 0 0 1-1.729 3.172v11.67h-1.988v-9.146l-1.53 1.47zM207.016.933a17.705 17.705 0 0 1-4.227 6.483l-1.677-1.167A14.928 14.928 0 0 0 205.174.2l1.842.734zm1.677 7.78v-1.98h13.986v1.98h-3.648V19.2a2.352 2.352 0 0 1-1.045 2.005c-1.28.801-3.559.724-6.838-.233v-2.075a33.96 33.96 0 0 0 3.458.813 2.912 2.912 0 0 0 2.221-.372.87.87 0 0 0 .208-.674V8.722l-8.342-.009zm13.07-7.469v1.988h-12.318V1.244h12.318z" fill="#686868"/>
</svg>
