<svg xmlns="http://www.w3.org/2000/svg" xmlns:xlink="http://www.w3.org/1999/xlink" width="50" height="50" viewBox="0 0 50 50">
    <defs>
        <rect id="s7c0qid3sa" width="50" height="50" x="0" y="0" rx="25"/>
    </defs>
    <g fill="none" fill-rule="evenodd">
        <g>
            <g>
                <g>
                    <g transform="translate(-391 -512) translate(0 502) translate(391 10)">
                        <mask id="mtq1ufynmb" fill="#fff">
                            <use xlink:href="#s7c0qid3sa"/>
                        </mask>
                        <use fill="#F2F2F2" xlink:href="#s7c0qid3sa"/>
                        <g fill="#00CDAB" mask="url(#mtq1ufynmb)">
                            <path d="M0 0H100V100H0z" transform="translate(-32 -43)"/>
                        </g>
                    </g>
                    <path fill="#FFF" d="M35.833 14h-2.889c-1.196 0-2.166.924-2.166 2.064v.062L18.37 20.879c-.305-.822-1.12-1.373-2.037-1.376h-2.166c-1.197 0-2.167.924-2.167 2.064v6.88c0 1.14.97 2.063 2.167 2.063h2.166c.914-.005 1.725-.555 2.03-1.376l1.336.558c-.075.14-.115.296-.116.454-.04 1.84 1.036 3.54 2.766 4.361.638.302 1.34.457 2.052.454 1.285-.014 2.521-.471 3.48-1.286.14-.117.244-.267.304-.434l2.636 1.108c.206.961 1.094 1.651 2.123 1.651h2.89C37.03 36 38 35.076 38 33.936V16.05c-.008-1.134-.976-2.05-2.167-2.05zM16 29h-2v-7h2v7zm15 3l-12-5.233v-4.01L31 18v14zm-7.58.807C22.626 32.462 22.09 31.78 22 31l4 1.553c-.747.486-1.73.583-2.58.254zM36 34h-3V16h3v18z" transform="translate(-391 -512) translate(0 502) translate(391 10)"/>
                </g>
            </g>
        </g>
    </g>
</svg>
