<svg xmlns="http://www.w3.org/2000/svg" xmlns:xlink="http://www.w3.org/1999/xlink" width="40" height="40" viewBox="0 0 40 40">
    <defs>
        <path id="ahfljkqlsa" d="M0 0H70V70H0z"/>
        <path id="k3phqiwkcc" d="M0 35.84L37.831 35.84 37.831 0.153 0 0.153z"/>
    </defs>
    <g fill="none" fill-rule="evenodd">
        <g>
            <g>
                <g>
                    <g transform="translate(-780 -1236) translate(287 1009) translate(438 190) translate(55 37)">
                        <mask id="leqrq5u2vb" fill="#fff">
                            <use xlink:href="#ahfljkqlsa"/>
                        </mask>
                        <g mask="url(#leqrq5u2vb)">
                            <g>
                                <path fill="#FFF" d="M15.797 7.412c1.919-1.375 4.27-2.184 6.81-2.184 6.469 0 11.713 5.244 11.713 11.712 0 .177-.006.353-.014.53l1.635 2.832 2.151 3.726h-2.72v4.623c0 1.745-1.413 3.159-3.158 3.159h-5.002v4.205H15.797" transform="translate(1 2)"/>
                                <path fill="#F8B422" d="M0.367 36.291L16.367 36.291 16.367 13.291 0.367 13.291z" transform="translate(1 2)"/>
                                <path fill="#FFF" d="M2.844 33.988L16.367 33.988 16.367 14.798 2.844 14.798z" transform="translate(1 2)"/>
                                <path fill="#000" d="M8.017 14.781L10.808 14.781 10.808 13.303 8.017 13.303z" transform="translate(1 2)"/>
                                <g transform="translate(1 2) translate(1 .216)">
                                    <path fill="#000" d="M15.502 35.84h-1.478c0-.748-.609-1.357-1.358-1.357H1.21V13.087h2.851v1.478H2.688v18.44h9.978c.491 0 .954.126 1.358.347V22.44h1.478V35.84z"/>
                                    <mask id="id93acl8zd" fill="#fff">
                                        <use xlink:href="#k3phqiwkcc"/>
                                    </mask>
                                    <path fill="#000" d="M4.081 17.668L9.808 17.668 9.808 16.191 4.081 16.191zM4.081 20.384L9.808 20.384 9.808 18.906 4.081 18.906zM4.081 23.057L12.482 23.057 12.482 21.579 4.081 21.579zM4.081 25.729L12.482 25.729 12.482 24.251 4.081 24.251zM4.081 28.402L12.482 28.402 12.482 26.924 4.081 26.924zM4.081 31.074L12.482 31.074 12.482 29.596 4.081 29.596zM26.952 35.798h-1.478v-4.205c0-.407.33-.739.739-.739h5.001c1.334 0 2.418-1.085 2.418-2.42v-4.623c0-.408.331-.739.74-.739h1.44l-3.146-5.45c-.07-.122-.104-.26-.098-.401.007-.166.013-.331.013-.498 0-6.05-4.923-10.973-10.973-10.973-2.306 0-4.513.708-6.38 2.046l-.862-1.202c2.121-1.519 4.625-2.322 7.242-2.322 6.865 0 12.45 5.586 12.45 12.451 0 .116-.002.23-.005.345l3.68 6.374c.131.228.131.51 0 .739-.133.228-.377.37-.64.37H35.11v3.884c0 2.149-1.747 3.897-3.896 3.897h-4.262v3.466z" mask="url(#id93acl8zd)"/>
                                    <path fill="#000" d="M16.367 15.975c0 3.503 2.84 6.343 6.343 6.343s6.343-2.84 6.343-6.343-2.84-6.343-6.343-6.343-6.343 2.84-6.343 6.343" mask="url(#id93acl8zd)"/>
                                    <path fill="#FFF" d="M19.139 15.975c0 1.972 1.599 3.572 3.571 3.572 1.973 0 3.572-1.6 3.572-3.572s-1.6-3.571-3.572-3.571-3.571 1.599-3.571 3.571" mask="url(#id93acl8zd)"/>
                                    <path fill="#00DBB6" d="M22.71 13.143c-1.562 0-2.832 1.27-2.832 2.832 0 1.562 1.27 2.833 2.832 2.833 1.562 0 2.833-1.27 2.833-2.833 0-1.562-1.271-2.832-2.833-2.832m0 7.143c-2.377 0-4.31-1.934-4.31-4.31 0-2.378 1.933-4.311 4.31-4.311s4.31 1.933 4.31 4.31-1.933 4.31-4.31 4.31" mask="url(#id93acl8zd)"/>
                                    <path fill="#000" d="M12.552 12.827h-1.478v-.956c0-1.324-1.077-2.4-2.4-2.4V7.991c2.138 0 3.878 1.74 3.878 3.879v.956zM15.368 18.186H13.89V4.927c0-2.632 2.142-4.774 4.774-4.774v1.478c-1.817 0-3.296 1.478-3.296 3.296v13.259z" mask="url(#id93acl8zd)"/>
                                    <path fill="#000" d="M13.218 21.37c-1.185 0-2.149-.964-2.149-2.15v-6.566h1.478v6.566c0 .371.301.673.671.673.37 0 .672-.302.672-.673v-3.735h1.478v3.735c0 1.186-.964 2.15-2.15 2.15M23.356 11.82h-1.478V4.927c0-1.817-1.48-3.296-3.3-3.296V.153c2.635 0 4.778 2.142 4.778 4.774v6.893zM6.34 14.497H4.862V11.87c0-2.139 1.74-3.879 3.878-3.879V9.47c-1.323 0-2.4 1.077-2.4 2.401v2.626z" mask="url(#id93acl8zd)"/>
                                </g>
                            </g>
                        </g>
                    </g>
                </g>
            </g>
        </g>
    </g>
</svg>
