<svg xmlns="http://www.w3.org/2000/svg" xmlns:xlink="http://www.w3.org/1999/xlink" width="70" height="70" viewBox="0 0 70 70">
    <defs>
        <path id="83u65c1tfa" d="M0 0H70V70H0z"/>
        <path id="denketnowc" d="M0.115 0.267L56.575 0.267 56.575 56.604 0.115 56.604z"/>
    </defs>
    <g fill="none" fill-rule="evenodd">
        <g>
            <g>
                <g>
                    <g transform="translate(-308 -1325) translate(219 1009) translate(69 276) translate(20 40)">
                        <mask id="w5y8ofwzib" fill="#fff">
                            <use xlink:href="#83u65c1tfa"/>
                        </mask>
                        <g mask="url(#w5y8ofwzib)">
                            <g>
                                <path fill="#F8B422" d="M21.047 6.23c-7.568-3.223-16.442.108-19.775 7.425-3.334 7.315.111 15.89 7.68 19.115 7.57 3.223 16.44-.106 19.775-7.423 3.335-7.316-.112-15.893-7.68-19.117" transform="translate(5 5)"/>
                                <path fill="#FFF" d="M30.965 51c-3.193 0-6.302-.657-9.241-1.951C10.12 43.934 4.839 30.332 9.951 18.728 13.623 10.388 21.897 5 31.028 5c3.193 0 6.3.657 9.24 1.951 5.612 2.473 9.928 6.993 12.155 12.727 2.227 5.734 2.091 11.983-.382 17.596C48.368 45.612 40.096 51 30.966 51h-.001z" transform="translate(5 5)"/>
                                <path fill="#000" d="M30.528 4C20.802 4 11.99 9.623 8.078 18.325c-5.445 12.11.18 26.302 12.54 31.639C23.75 51.315 27.063 52 30.465 52c9.725 0 18.537-5.622 22.45-14.322 2.634-5.858 2.778-12.38.406-18.362-2.371-5.983-6.97-10.7-12.948-13.28C37.242 4.686 33.93 4 30.528 4m0 2.311c2.976 0 6 .591 8.893 1.84 11.169 4.821 16.255 17.65 11.334 28.595-3.647 8.109-11.778 12.943-20.291 12.943-2.976 0-6-.591-8.894-1.84C10.4 43.026 5.317 30.2 10.237 19.257 13.882 11.147 22.015 6.31 30.528 6.31" transform="translate(5 5)"/>
                                <path fill="#00DBB6" d="M52.82 30.646l-3.086 2.373-5.566 4.629-.248-4.491-3.611.644-.405-4.136-2.483 1.31-.717-.548-2.14-2.11-.68 2.873 1.636 1.63-7.158 6.876-1.945.304-.01-3.71 1.4-5.607-2.548-1.234L25 27.036l3.228-3.35 2.39.439.96 1.462 3.534.616-2.663-3.432L29.735 21l.236-.938 3.547-.39-.39-2.348L37.143 16l2.588 2.389 5.783.64s2.567-.19 5.43-.384c1.729 3.698 2.416 7.856 1.877 12M24 7l-1.973 1.467-3.51 2.752c-.094.075-.142.196-.125.315l.406 2.836c.017.115.119.23.198.26.106.046.225.033.319-.033l1.98-1.414 1.082 3.916-6.265 2.08-2.65-.895c-.123-.042-.257-.005-.347.09l-1.23 1.344c-.078.084-.107.2-.08.313L12.554 23l-2.19-2.516L10 19.17C12.736 12.953 17.992 8.665 24 7M13.09 30.73l-.265-4.312L16.622 23 20 30.452 11 38v-2.597l2.059-4.513c.024-.05.034-.105.031-.16M26.177 14L26 8.052c3.867-.234 6.148.381 7 .68l-2.79 4.09L26.177 14z" transform="translate(5 5)"/>
                                <path fill="#000" d="M4.968 39.757l-2.113-1.014c.346-.694.726-1.406 1.127-2.116l2.058 1.118c-.382.677-.743 1.353-1.072 2.012zM3.224 43.91l-2.239-.712c.242-.73.531-1.493.86-2.27l2.173.885c-.304.72-.572 1.425-.794 2.097zm-.873 4.25L0 48.056c.037-.78.15-1.617.335-2.49l2.304.472c-.16.752-.257 1.467-.288 2.124zm-1.052 5.06c-.524-.73-.895-1.59-1.105-2.555l2.301-.481c.143.66.388 1.234.728 1.708L1.3 53.219zM7.299 36L5 34.905c.236-.3.48-.602.728-.905L8 35.128c-.24.292-.474.583-.701.872" transform="translate(5 5)"/>
                                <g transform="translate(5 5) translate(2)">
                                    <mask id="hs7c5pe5jd" fill="#fff">
                                        <use xlink:href="#denketnowc"/>
                                    </mask>
                                    <path fill="#000" d="M5.898 56.604c-2.475 0-4.44-.704-5.783-2.115l1.67-1.597c2.039 2.142 6.711 1.831 12.817-.853 6.555-2.881 13.972-8.109 20.886-14.72 6.914-6.612 12.474-13.791 15.654-20.216 2.963-5.988 3.493-10.65 1.453-12.791-2.42-2.543-8.671-1.557-16.318 2.571l-1.094-2.035C44.045.062 51-.715 54.265 2.715c2.79 2.93 2.414 8.404-1.056 15.415-3.297 6.66-9.025 14.07-16.128 20.862-7.104 6.792-14.757 12.178-21.551 15.165-3.708 1.63-6.966 2.447-9.632 2.447" mask="url(#hs7c5pe5jd)"/>
                                </g>
                                <path fill="#FFF" d="M17 54c0 2.762-2.239 5-5 5s-5-2.238-5-5 2.239-5 5-5 5 2.238 5 5" transform="translate(5 5)"/>
                                <path fill="#000" d="M12 50.323c-2.028 0-3.677 1.65-3.677 3.677 0 2.028 1.65 3.677 3.677 3.677 2.028 0 3.677-1.65 3.677-3.677 0-2.028-1.65-3.677-3.677-3.677M12 60c-3.309 0-6-2.691-6-6 0-3.308 2.691-6 6-6s6 2.692 6 6c0 3.309-2.691 6-6 6" transform="translate(5 5)"/>
                            </g>
                        </g>
                    </g>
                </g>
            </g>
        </g>
    </g>
</svg>
