<svg xmlns="http://www.w3.org/2000/svg" xmlns:xlink="http://www.w3.org/1999/xlink" width="40" height="40" viewBox="0 0 40 40">
    <defs>
        <path id="adewqmebda" d="M0 0H70V70H0z"/>
        <path id="fuj58z1lvc" d="M0.182 0.084L4.355 0.084 4.355 15.514 0.182 15.514z"/>
        <path id="0a5c8nco0e" d="M0.195 0.084L4.372 0.084 4.372 7.914 0.195 7.914z"/>
        <path id="g868vy1eag" d="M0 36.608L35.749 36.608 35.749 0.375 0 0.375z"/>
    </defs>
    <g fill="none" fill-rule="evenodd">
        <g>
            <g>
                <g>
                    <g transform="translate(-342 -1138) translate(287 1009) translate(0 92) translate(55 37)">
                        <mask id="cb3ah2abab" fill="#fff">
                            <use xlink:href="#adewqmebda"/>
                        </mask>
                        <g mask="url(#cb3ah2abab)">
                            <g transform="translate(2 2)">
                                <path fill="#000" d="M19.85 11.295h-1.497v-1.114c0-2.43 1.976-4.406 4.406-4.406v1.497c-1.604 0-2.909 1.305-2.909 2.91v1.113z"/>
                                <g transform="translate(13.104 .29)">
                                    <mask id="gif254nxod" fill="#fff">
                                        <use xlink:href="#fuj58z1lvc"/>
                                    </mask>
                                    <path fill="#000" d="M4.355 15.514H2.857V4.259c0-1.477-1.2-2.677-2.675-2.677V.084c2.3 0 4.173 1.873 4.173 4.175v11.255z" mask="url(#gif254nxod)"/>
                                </g>
                                <path fill="#000" d="M17.909 18.63c-1.074 0-1.947-.874-1.947-1.948v-3.17h1.497v3.17c0 .248.202.45.45.45.247 0 .448-.202.448-.45v-5.574h1.497v5.574c0 1.074-.873 1.948-1.945 1.948"/>
                                <g transform="translate(8.986 .29)">
                                    <mask id="lqigluto2f" fill="#fff">
                                        <use xlink:href="#0a5c8nco0e"/>
                                    </mask>
                                    <path fill="#282D33" d="M1.693 7.914H.195V4.258C.195 1.957 2.07.084 4.372.084v1.498c-1.477 0-2.68 1.2-2.68 2.676v3.656z" mask="url(#lqigluto2f)"/>
                                </g>
                                <path fill="#000" d="M27.087 14.01h-1.498V10.18c0-1.604-1.304-2.909-2.908-2.909V5.775c2.43 0 4.406 1.977 4.406 4.406v3.829z"/>
                                <path fill="#FFF" d="M24.082 15.804L24.082 18.491 24.458 19.452 24.458 24.686 20.316 33.238 19.516 35.11 19.854 36.044 32.703 36.044 33.418 35.11 28.544 24.96 28.544 19.452 29.089 17.584 29.027 16.147z"/>
                                <path fill="#000" d="M24.642 18.045h.419v7.223l-4.65 9.43c-.117.236-.098.368-.087.39.004.001.053.022.153.022h11.805c.1 0 .149-.021.158-.029.006-.015.024-.147-.093-.383l-4.65-9.43v-7.223h.419v-1.651h-3.474v1.651zm7.64 18.563H20.477c-.618 0-1.137-.266-1.426-.73-.316-.509-.31-1.18.017-1.843l4.495-9.117v-5.375h-.419v-4.647h6.47v4.647h-.418v5.376l4.494 9.116c.327.662.333 1.334.017 1.844-.289.463-.807.729-1.425.729z"/>
                                <path fill="#FFF" d="M7.13 9.977v3.03h.884v4.964c-2.916.509-5.088 2.21-6.516 5.102-2.143 4.34-.372 12.016 8.26 12.971 8.917-1.593 9.889-8.057 8.26-12.01-1.085-2.634-3.215-4.655-6.39-6.063v-4.594l.827-.639v-2.76H7.129z"/>
                                <path fill="#00DBB6" d="M22.616 33.612L26.38 25.98 30.143 33.612z"/>
                                <path fill="#F8B422" d="M9.757 33.238c-3.332 0-6.077-2.566-6.363-5.826h12.728c-.286 3.26-3.031 5.826-6.365 5.826"/>
                                <path fill="#000" d="M7.909 12.71h.586v5.957l-.582.132c-3.777.863-6.415 4.173-6.415 8.052 0 4.554 3.705 8.259 8.26 8.259 4.554 0 8.26-3.705 8.26-8.26 0-3.878-2.638-7.188-6.416-8.05l-.581-.134V12.71h.585v-1.674H7.91v1.674zm1.848 23.898C4.377 36.608 0 32.23 0 26.85c0-4.38 2.848-8.147 6.997-9.36v-3.283h-.586v-4.67h6.693v4.67h-.586v3.283c4.15 1.213 6.998 4.98 6.998 9.36 0 5.38-4.378 9.757-9.759 9.757zM3.125 4.306c-.482 0-.873.392-.873.874s.391.874.873.874S4 5.662 4 5.18s-.392-.874-.874-.874m0 3.245C1.818 7.551.754 6.488.754 5.18s1.064-2.371 2.371-2.371c1.308 0 2.372 1.063 2.372 2.37 0 1.309-1.064 2.372-2.372 2.372"/>
                                <mask id="f9b21ikarh" fill="#fff">
                                    <use xlink:href="#g868vy1eag"/>
                                </mask>
                                <path fill="#000" d="M31.206 3.433L32.703 3.433 32.703 2.006 31.206 2.006zM29.333 5.307L28.097 4.593 28.846 3.296 30.082 4.01zM28.783 8.578L28.035 7.281 29.271 6.568 30.019 7.866zM32.578 9.977L31.08 9.977 31.081 8.55 32.578 8.55zM34.937 8.687L33.702 7.973 34.451 6.676 35.686 7.39zM34.513 5.415L33.765 4.117 35 3.404 35.749 4.702z" mask="url(#f9b21ikarh)"/>
                            </g>
                        </g>
                    </g>
                </g>
            </g>
        </g>
    </g>
</svg>
