<svg xmlns="http://www.w3.org/2000/svg" xmlns:xlink="http://www.w3.org/1999/xlink" width="70" height="70" viewBox="0 0 70 70">
    <defs>
        <path id="h1kpzwjcra" d="M0 0H70V70H0z"/>
        <path id="p5akqld8pc" d="M0 58.5L50 58.5 50 0.5 0 0.5z"/>
    </defs>
    <g fill="none" fill-rule="evenodd">
        <g>
            <g>
                <g>
                    <g transform="translate(-308 -1461) translate(219 1009) translate(69 412) translate(20 40)">
                        <mask id="y2sbrom95b" fill="#fff">
                            <use xlink:href="#h1kpzwjcra"/>
                        </mask>
                        <g mask="url(#y2sbrom95b)">
                            <g transform="translate(10 5)">
                                <path fill="#F8B422" d="M24.324 43.506c-3.607 0-6.532-2.826-6.532-6.312 0-3.485 2.925-6.31 6.532-6.31.228 0 .454.012.676.034v-1.34c0-6.67-5.596-12.078-12.5-12.078C5.597 17.5 0 22.908 0 29.578v1.34c.222-.022.447-.033.676-.033 3.607 0 6.532 2.824 6.532 6.31 0 3.485-2.925 6.31-6.532 6.31-.229 0-.454-.011-.676-.034v3.952C0 54.093 5.597 59.5 12.5 59.5c6.904 0 12.5-5.406 12.5-12.077V43.47c-.222.023-.448.035-.676.035"/>
                                <mask id="5yxkgfinrd" fill="#fff">
                                    <use xlink:href="#p5akqld8pc"/>
                                </mask>
                                <path fill="#000" d="M9 48.5L11 48.5 11 1.5 9 1.5zM13 48.5L15 48.5 15 1.5 13 1.5z" mask="url(#5yxkgfinrd)"/>
                                <path fill="#000" d="M7 11.5L16 11.5 16 9.5 7 9.5zM7 7.5L16 7.5 16 5.5 7 5.5zM9 3.5L15 3.5 15 1.5 9 1.5zM7 48.5L16 48.5 16 46.5 7 46.5z" mask="url(#5yxkgfinrd)"/>
                                <path fill="#FFF" d="M29 37c0 2.76-2.462 5-5.5 5-3.037 0-5.5-2.24-5.5-5 0-2.762 2.463-5 5.5-5 3.038 0 5.5 2.238 5.5 5" mask="url(#5yxkgfinrd)"/>
                                <path fill="#00DBB6" d="M26 37c0 1.38-1.119 2.5-2.5 2.5-1.38 0-2.5-1.12-2.5-2.5 0-1.381 1.12-2.5 2.5-2.5 1.381 0 2.5 1.119 2.5 2.5" mask="url(#5yxkgfinrd)"/>
                                <path fill="#000" d="M23.5 32.9c-2.26 0-4.1 1.839-4.1 4.1 0 2.261 1.84 4.1 4.1 4.1 2.261 0 4.1-1.839 4.1-4.1 0-2.261-1.839-4.1-4.1-4.1m0 10.6c-3.584 0-6.5-2.916-6.5-6.5s2.916-6.5 6.5-6.5S30 33.416 30 37s-2.916 6.5-6.5 6.5" mask="url(#5yxkgfinrd)"/>
                                <path fill="#FFF" d="M45 32c0 2.762-2.462 5-5.5 5-3.037 0-5.5-2.238-5.5-5 0-2.76 2.463-5 5.5-5 3.038 0 5.5 2.24 5.5 5" mask="url(#5yxkgfinrd)"/>
                                <path fill="#00DBB6" d="M42 32c0 1.381-1.119 2.5-2.5 2.5-1.38 0-2.5-1.119-2.5-2.5 0-1.38 1.12-2.5 2.5-2.5 1.381 0 2.5 1.12 2.5 2.5" mask="url(#5yxkgfinrd)"/>
                                <path fill="#000" d="M39.5 27.9c-2.26 0-4.1 1.839-4.1 4.1 0 2.26 1.84 4.1 4.1 4.1 2.261 0 4.1-1.84 4.1-4.1 0-2.261-1.839-4.1-4.1-4.1m0 10.6c-3.584 0-6.5-2.916-6.5-6.5 0-3.585 2.916-6.5 6.5-6.5S46 28.415 46 32c0 3.584-2.916 6.5-6.5 6.5" mask="url(#5yxkgfinrd)"/>
                                <path fill="#000" d="M30.452 37.5L28 37.5 28 15.315 47 8.5 47 31.564 44.548 31.564 44.548 11.95 30.452 17.006z" mask="url(#5yxkgfinrd)"/>
                                <path fill="#000" d="M33.82 21.5L33 19.287 49.18 13.5 50 15.713z" mask="url(#5yxkgfinrd)"/>
                            </g>
                        </g>
                    </g>
                </g>
            </g>
        </g>
    </g>
</svg>
