<svg xmlns="http://www.w3.org/2000/svg" xmlns:xlink="http://www.w3.org/1999/xlink" width="70" height="70" viewBox="0 0 70 70">
    <defs>
        <path id="udrcqqyaha" d="M0 0H70V70H0z"/>
    </defs>
    <g fill="none" fill-rule="evenodd">
        <g>
            <g>
                <g>
                    <g transform="translate(-744 -1189) translate(219 1009) translate(505 140) translate(20 40)">
                        <mask id="kguxw27tab" fill="#fff">
                            <use xlink:href="#udrcqqyaha"/>
                        </mask>
                        <g mask="url(#kguxw27tab)">
                            <g>
                                <path fill="#000" d="M22 3L24 3 24 0 22 0zM16.81 4L16 .651 18.19 0 19 3.35zM12.774 7L11 4.18 13.226 3 15 5.82zM8.319 10L6 7.68 7.681 6 10 8.32zM5.82 14L3 12.226 4.18 10 7 11.774zM0 18.19L3.35 19 4 16.81.65 16zM0 24L3 24 3 22 0 22zM0 27.809L.65 30 4 29.19 3.35 27zM4.18 36L3 33.774 5.82 32 7 34.226zM42.82 36L40 34.226 41.18 32 44 33.774zM45.35 30L42 29.19 42.65 27 46 27.81zM44 24L47 24 47 22 44 22zM42.65 19L42 16.81 45.35 16 46 18.19zM41.18 14L40 11.774 42.82 10 44 12.226zM38.681 10L37 8.319 39.319 6 41 7.681zM34.227 7L32 5.82 33.773 3 36 4.18zM30.19 4L28 3.349 28.81 0 31 .65zM39.319 40L37 37.68 38.681 36 41 38.32zM7.681 40L6 38.319 8.319 36 10 37.68z" transform="translate(11 5)"/>
                                <path fill="#FFF" d="M16 20.999L16 20.012 24.032 9 31 20.012 31 21" transform="translate(11 5)"/>
                                <path fill="#000" d="M32 22L29.545 22 29.545 21.299 23.478 11.449 16.455 21.342 16.455 21.999 14 21.999 14 20.554 23.624 7 32 20.599z" transform="translate(11 5)"/>
                                <path fill="#F8B422" d="M15 50.999L15.001 21 31 21 30.999 51z" transform="translate(11 5)"/>
                                <path fill="#000" d="M32 20H14v32h18V20zm-2.43 2.387v27.226H16.43V22.387h13.14z" transform="translate(11 5)"/>
                                <path fill="#000" d="M20 52L22 52 22 23 20 23zM25 52L25 23 27 23 27 52zM21 13L26 13 26 11 21 11z" transform="translate(11 5)"/>
                                <path fill="#00DBB6" d="M14 55v3.737c0 .697.544 1.263 1.213 1.263h15.574c.67 0 1.213-.566 1.213-1.263V55H14z" transform="translate(11 5)"/>
                            </g>
                        </g>
                    </g>
                </g>
            </g>
        </g>
    </g>
</svg>
