<svg xmlns="http://www.w3.org/2000/svg" xmlns:xlink="http://www.w3.org/1999/xlink" width="70" height="70" viewBox="0 0 70 70">
    <defs>
        <path id="sd8lhp0m8a" d="M0 0H70V70H0z"/>
    </defs>
    <g fill="none" fill-rule="evenodd">
        <g>
            <g>
                <g>
                    <g transform="translate(-744 -1325) translate(219 1009) translate(505 276) translate(20 40)">
                        <mask id="wscro4sgsb" fill="#fff">
                            <use xlink:href="#sd8lhp0m8a"/>
                        </mask>
                        <g mask="url(#wscro4sgsb)">
                            <g>
                                <path fill="#000" d="M28 2.38c-4.062 0-8.589 11.549-8.589 28.12s4.527 28.12 8.59 28.12c4.062 0 8.588-11.549 8.588-28.12S32.063 2.38 28.001 2.38M28 61c-3.226 0-6.016-3.251-8.072-9.402C18.04 45.945 17 38.453 17 30.5c0-7.952 1.04-15.445 2.93-21.098C21.984 3.252 24.774 0 28 0c3.225 0 6.015 3.251 8.07 9.402C37.96 15.055 39 22.548 39 30.5c0 7.953-1.04 15.445-2.93 21.098C34.016 57.748 31.226 61 28 61" transform="translate(8 5)"/>
                                <path fill="#000" d="M7.51 15.371c-2.46 0-4.155.577-4.773 1.625-1.001 1.7.47 4.985 3.937 8.792 3.863 4.24 9.728 8.69 16.513 12.527 9.07 5.128 18.38 8.314 24.302 8.314 2.46 0 4.156-.577 4.774-1.625 1.001-1.7-.47-4.985-3.938-8.792-3.863-4.242-9.728-8.69-16.513-12.528-9.068-5.127-18.38-8.313-24.302-8.313M47.49 49c-6.322 0-16.097-3.308-25.513-8.633-7.003-3.96-13.079-8.576-17.108-13C.484 22.552-.978 18.556.64 15.81 1.396 14.529 3.201 13 7.51 13c6.322 0 16.097 3.308 25.512 8.632 7.003 3.96 13.08 8.577 17.11 13.002 4.384 4.813 5.846 8.809 4.227 11.555C53.603 47.471 51.798 49 47.49 49" transform="translate(8 5)"/>
                                <path fill="#000" d="M47.49 15.371c-5.921 0-15.233 3.186-24.302 8.313-6.786 3.838-12.651 8.287-16.513 12.528-3.468 3.806-4.939 7.092-3.938 8.79.617 1.05 2.312 1.627 4.773 1.627 5.92 0 15.232-3.187 24.302-8.315 6.786-3.837 12.65-8.285 16.513-12.526 3.467-3.807 4.94-7.093 3.938-8.792-.618-1.048-2.313-1.625-4.773-1.625M7.51 49C3.2 49 1.397 47.47.64 46.188c-1.618-2.745-.156-6.74 4.228-11.554 4.03-4.424 10.107-9.042 17.11-13.003C31.392 16.307 41.167 13 47.49 13c4.308 0 6.114 1.529 6.87 2.81 1.618 2.747.156 6.743-4.228 11.556-4.03 4.424-10.107 9.041-17.11 13C23.607 45.693 13.831 49 7.511 49" transform="translate(8 5)"/>
                                <path fill="#FFF" d="M54 36.5c0 1.933-1.567 3.5-3.5 3.5S47 38.433 47 36.5s1.567-3.5 3.5-3.5 3.5 1.567 3.5 3.5" transform="translate(8 5)"/>
                                <path fill="#F8B422" d="M25 8.5c0 1.933-1.567 3.5-3.5 3.5S18 10.433 18 8.5C18 6.568 19.567 5 21.5 5S25 6.568 25 8.5" transform="translate(8 5)"/>
                                <path fill="#FFF" d="M13 47.5c0 1.933-1.567 3.5-3.5 3.5S6 49.433 6 47.5 7.567 44 9.5 44s3.5 1.567 3.5 3.5" transform="translate(8 5)"/>
                                <path fill="#000" d="M27.5 27.378c-1.721 0-3.122 1.4-3.122 3.122 0 1.721 1.4 3.122 3.123 3.122 1.72 0 3.12-1.4 3.12-3.122 0-1.721-1.4-3.122-3.12-3.122m0 8.622C24.468 36 22 33.533 22 30.5s2.468-5.5 5.5-5.5c3.033 0 5.5 2.467 5.5 5.5S30.533 36 27.5 36" transform="translate(8 5)"/>
                            </g>
                        </g>
                    </g>
                </g>
            </g>
        </g>
    </g>
</svg>
