<svg xmlns="http://www.w3.org/2000/svg" xmlns:xlink="http://www.w3.org/1999/xlink" width="40" height="40" viewBox="0 0 40 40">
    <defs>
        <path id="h4o1gu3v7a" d="M0 0H70V70H0z"/>
        <path id="53o6976nqc" d="M0 0.087L33.911 0.087 33.911 34 0 34z"/>
    </defs>
    <g fill="none" fill-rule="evenodd">
        <g>
            <g>
                <g>
                    <g transform="translate(-780 -1138) translate(287 1009) translate(438 92) translate(55 37)">
                        <mask id="qux19v4tyb" fill="#fff">
                            <use xlink:href="#h4o1gu3v7a"/>
                        </mask>
                        <g mask="url(#qux19v4tyb)">
                            <g>
                                <g transform="translate(3 2) translate(0 .267)">
                                    <mask id="arz7aa08nd" fill="#fff">
                                        <use xlink:href="#53o6976nqc"/>
                                    </mask>
                                    <path fill="#FFF" d="M17.697.232c9.685 1.031 15.006 6.512 15.963 16.443.956 9.93-8.324 13.17-27.842 9.716l2.592 3.38-5.493 3.11 1.95-4.886-1.95-7.262 14.78-20.5z" mask="url(#arz7aa08nd)"/>
                                    <path fill="#FFF" d="M17.16 32.88c-9.114 0-16.5-7.162-16.5-16 0-8.836 7.386-16 16.5-16 9.112 0 16.5 7.164 16.5 16 0 8.838-7.388 16-16.5 16z" mask="url(#arz7aa08nd)"/>
                                    <path fill="#000" d="M7.61 31.18l-5.854 2.736 2.025-6.212C1.34 24.692 0 20.924 0 17.044 0 7.694 7.608.087 16.958.087v1.417c-8.57 0-15.542 6.971-15.542 15.54 0 3.676 1.314 7.245 3.699 10.049l.257.301-1.257 3.855 3.63-1.697.335.234c2.621 1.83 5.692 2.797 8.878 2.797 8.567 0 15.536-6.97 15.536-15.539h1.417C33.91 26.394 26.306 34 16.958 34c-3.342 0-6.564-.974-9.349-2.82z" mask="url(#arz7aa08nd)"/>
                                </g>
                                <path fill="#282D33" d="M33.911 17.311h-1.417c0-.227-.005-.453-.014-.677l1.415-.062c.01.245.016.492.016.74" transform="translate(3 2)"/>
                                <path fill="#000" d="M20.333 2.138c-.44-.097-.889-.176-1.335-.235L19.182.5c.487.063.977.15 1.457.256l-.306 1.383zm2.58.815c-.416-.173-.844-.329-1.272-.464l.426-1.351c.467.147.935.318 1.39.507l-.544 1.308zm2.4 1.253c-.38-.242-.775-.47-1.173-.679l.657-1.256c.434.228.864.477 1.278.742l-.762 1.193zm2.146 1.651c-.332-.304-.68-.598-1.038-.872l.864-1.123c.39.3.77.62 1.131.952l-.957 1.043zm1.83 1.997c-.274-.356-.567-.705-.872-1.038l1.045-.957c.332.363.652.744.95 1.133l-1.124.862zm1.455 2.283c-.207-.398-.435-.792-.678-1.173l1.194-.761c.266.415.514.845.74 1.28l-1.256.654zm1.036 2.501c-.135-.429-.29-.857-.463-1.272l1.309-.543c.188.454.358.922.505 1.39l-1.351.425zm.583 2.644c-.058-.448-.136-.897-.233-1.335l1.383-.305c.106.478.192.968.255 1.457l-1.405.183z" transform="translate(3 2)"/>
                                <path fill="#282D33" d="M17.635 1.785c-.224-.01-.45-.014-.677-.014V.354c.248 0 .494.005.739.016l-.062 1.415z" transform="translate(3 2)"/>
                                <path fill="#F8B422" d="M29.55 17.148c0 7.12-5.772 12.89-12.89 12.89-7.12 0-12.89-5.77-12.89-12.89 0-7.12 5.77-12.89 12.89-12.89 7.118 0 12.89 5.77 12.89 12.89" transform="translate(3 2)"/>
                                <path fill="#00DBB6" stroke="#000" stroke-width="1.5" d="M26.25 35.5c1.745 0 3.346-.617 4.597-1.644.102-.083 1.153.198 3.153.843-.912-2.002-1.352-3.035-1.32-3.098.524-1.002.82-2.142.82-3.351 0-4.004-3.246-7.25-7.25-7.25S19 24.246 19 28.25s3.246 7.25 7.25 7.25z" transform="translate(3 2)"/>
                            </g>
                        </g>
                        <path fill="#000" d="M11.314 20l.468-1.71h2.16L14.41 20h1.395l-2.142-6.669h-1.566L9.964 20h1.35zm2.34-2.745H12.07l.198-.729c.198-.693.396-1.449.567-2.178h.045c.189.72.369 1.485.576 2.178l.198.729zM18.964 20c1.467 0 2.583-.621 2.583-1.962 0-.9-.531-1.404-1.251-1.575v-.045c.567-.198.909-.828.909-1.44 0-1.242-1.044-1.647-2.412-1.647h-2.205V20h2.376zm-.27-3.951h-.774v-1.692h.792c.801 0 1.197.234 1.197.819 0 .531-.369.873-1.215.873zm.153 2.925h-.927V17.03h.927c.918 0 1.404.279 1.404.927 0 .693-.495 1.017-1.404 1.017zm6.588 1.152c.864 0 1.575-.342 2.124-.981l-.702-.828c-.36.387-.801.657-1.377.657-1.053 0-1.737-.873-1.737-2.322 0-1.431.756-2.295 1.764-2.295.504 0 .891.234 1.233.558l.693-.846c-.432-.45-1.107-.855-1.953-.855-1.683 0-3.096 1.287-3.096 3.483 0 2.223 1.368 3.429 3.051 3.429zM25.701 31.126c.468 0 .819-.378.819-.864s-.351-.864-.819-.864c-.477 0-.828.378-.828.864s.351.864.828.864zm3.402 0c.477 0 .828-.378.828-.864s-.351-.864-.828-.864c-.468 0-.819.378-.819.864s.351.864.819.864zm3.411 0c.468 0 .828-.378.828-.864s-.36-.864-.828-.864c-.468 0-.819.378-.819.864s.351.864.819.864z" mask="url(#qux19v4tyb)"/>
                    </g>
                </g>
            </g>
        </g>
    </g>
</svg>
