<svg xmlns="http://www.w3.org/2000/svg" xmlns:xlink="http://www.w3.org/1999/xlink" width="70" height="70" viewBox="0 0 70 70">
    <defs>
        <path id="wnkg171yaa" d="M0 0H70V70H0z"/>
        <path id="eqjo5ysibc" d="M0 58.41L60 58.41 60 0.448 0 0.448z"/>
    </defs>
    <g fill="none" fill-rule="evenodd">
        <g>
            <g>
                <g>
                    <g transform="translate(-308 -1189) translate(219 1009) translate(69 140) translate(20 40)">
                        <mask id="r8w1krq5xb" fill="#fff">
                            <use xlink:href="#wnkg171yaa"/>
                        </mask>
                        <g mask="url(#r8w1krq5xb)">
                            <g>
                                <path fill="#F8B422" d="M0 59L60 59 60 49 0 49z" transform="translate(5 6)"/>
                                <path fill="#000" d="M3 54L5 54 5 49 3 49zM8 52L10 52 10 49 8 49zM12 54L14 54 14 49 12 49zM15 52L17 52 17 49 15 49zM20 54L22 54 22 49 20 49zM24 52L26 52 26 49 24 49zM28 54L30 54 30 49 28 49zM33 52L35 52 35 49 33 49zM37 54L39 54 39 49 37 49zM41 52L43 52 43 49 41 49zM45 54L47 54 47 49 45 49zM49 52L51 52 51 49 49 49zM53 54L55 54 55 49 53 49z" transform="translate(5 6)"/>
                                <g transform="translate(5 6)">
                                    <path fill="#FFF" d="M33.98 41.68c0 .285-.233.514-.52.514H1.847c-.286 0-.519-.23-.519-.513V2.14c0-.283.233-.512.52-.512H33.46c.287 0 .52.229.52.512v39.54z"/>
                                    <mask id="ioor4eogfd" fill="#fff">
                                        <use xlink:href="#eqjo5ysibc"/>
                                    </mask>
                                    <path fill="#000" d="M2.528 41.014H32.78V2.808H2.53v38.206zm30.932 2.36H1.847c-.948 0-1.719-.76-1.719-1.693V2.14C.128 1.207.9.448 1.848.448H33.46c.948 0 1.72.76 1.72 1.692V41.68c0 .934-.772 1.693-1.72 1.693z" mask="url(#ioor4eogfd)"/>
                                    <path fill="#F8B422" d="M17.439 37.474L29.47 37.474 29.47 25.644 17.439 25.644z" mask="url(#ioor4eogfd)"/>
                                    <path fill="#000" d="M20.399 34.386L26.51 34.386 26.51 32.026 20.399 32.026zM20.399 31.092L26.51 31.092 26.51 28.732 20.399 28.732z" mask="url(#ioor4eogfd)"/>
                                    <path fill="#000" d="M7.028 36.32H28.27V15.43H7.028V36.32zm-2.4 2.36H30.67V13.07H4.628V38.68z" mask="url(#ioor4eogfd)"/>
                                    <path fill="#00DBB6" d="M4.883 11.123L30.424 11.123 30.424 5.501 4.883 5.501z" mask="url(#ioor4eogfd)"/>
                                    <path fill="#000" d="M7.028 36.32H28.27V15.43H7.028V36.32zm-2.4 2.36H30.67V13.07H4.628V38.68z" mask="url(#ioor4eogfd)"/>
                                    <path fill="#000" d="M16.507 37.387L18.907 37.387 18.907 14.251 16.507 14.251z" mask="url(#ioor4eogfd)"/>
                                    <path fill="#000" d="M5.942 26.998L29.47 26.998 29.47 24.638 5.942 24.638zM8.54 21.291L14.651 21.291 14.651 18.931 8.54 18.931z" mask="url(#ioor4eogfd)"/>
                                    <path fill="#000" d="M10.395 23.114L12.795 23.114 12.795 17.106 10.395 17.106zM20.609 21.291L26.72 21.291 26.72 18.931 20.609 18.931zM12.908 34.787L8.586 30.538 10.283 28.87 14.604 33.118z" mask="url(#ioor4eogfd)"/>
                                    <path fill="#000" d="M10.284 34.787L8.587 33.118 12.908 28.869 14.604 30.538zM54.749 42.221L47.599 17.937 40.448 42.221 38.143 41.565 47.599 9.453 57.055 41.565z" mask="url(#ioor4eogfd)"/>
                                    <path fill="#000" d="M47.599 8.045c-1.375 0-2.493 1.1-2.493 2.45 0 1.352 1.118 2.451 2.493 2.451 1.374 0 2.492-1.1 2.492-2.45 0-1.351-1.118-2.45-2.492-2.45m0 7.26c-2.698 0-4.893-2.158-4.893-4.81 0-2.653 2.195-4.81 4.893-4.81 2.697 0 4.892 2.157 4.892 4.81 0 2.652-2.195 4.81-4.892 4.81" mask="url(#ioor4eogfd)"/>
                                    <path fill="#000" d="M46.399 6.438L48.799 6.438 48.799.885 46.399.885zM47.598 30.266c-3.116 0-6.232-.674-9.135-2.021l1.024-2.134c5.155 2.392 11.068 2.392 16.224 0l1.024 2.133c-2.903 1.348-6.02 2.022-9.137 2.022" mask="url(#ioor4eogfd)"/>
                                </g>
                            </g>
                        </g>
                    </g>
                </g>
            </g>
        </g>
    </g>
</svg>
