<svg xmlns="http://www.w3.org/2000/svg" xmlns:xlink="http://www.w3.org/1999/xlink" width="70" height="70" viewBox="0 0 70 70">
    <defs>
        <path id="ohjatitc0a" d="M0 0H70V70H0z"/>
        <path id="0evfnkt9nc" d="M0 60L58 60 58 0 0 0z"/>
    </defs>
    <g fill="none" fill-rule="evenodd">
        <g>
            <g>
                <g>
                    <g transform="translate(-744 -1461) translate(219 1009) translate(505 412) translate(20 40)">
                        <mask id="8tikt8d70b" fill="#fff">
                            <use xlink:href="#ohjatitc0a"/>
                        </mask>
                        <g mask="url(#8tikt8d70b)">
                            <g transform="translate(6 5)">
                                <path fill="#000" d="M28.594 18H26v-6.889C26 8.844 27.794 7 30 7v2.667c-.775 0-1.406.648-1.406 1.444V18z"/>
                                <mask id="ttd6juh0kd" fill="#fff">
                                    <use xlink:href="#0evfnkt9nc"/>
                                </mask>
                                <path fill="#FFF" d="M1 60L56 60 56 49 1 49z" mask="url(#ttd6juh0kd)"/>
                                <path fill="#000" d="M2.508 58.395h52.984v-8.79H2.508v8.79zM0 61h58V47H0v14z" mask="url(#ttd6juh0kd)"/>
                                <path fill="#00DBB6" d="M5 56L53 56 53 52 5 52z" mask="url(#ttd6juh0kd)"/>
                                <path fill="#000" d="M44 57L47 57 47 51 44 51zM40 57L43 57 43 51 40 51z" mask="url(#ttd6juh0kd)"/>
                                <path fill="#FFF" d="M47.265 42.5c0-2.428 1.566-4.485 3.735-5.214V37H9.466C6.448 37 4 39.462 4 42.5S6.448 48 9.466 48H51v-.286c-2.17-.73-3.735-2.786-3.735-5.214" mask="url(#ttd6juh0kd)"/>
                                <path fill="#000" d="M9.645 38.597c-2.305 0-4.18 1.975-4.18 4.403 0 2.428 1.875 4.403 4.18 4.403h37.67c-.935-1.217-1.479-2.758-1.479-4.403 0-1.645.544-3.186 1.48-4.403H9.644zM52 50H9.645C5.98 50 3 46.86 3 43s2.98-7 6.645-7H52v2.53l-.842.297c-1.708.601-2.856 2.278-2.856 4.173s1.148 3.572 2.856 4.173l.842.296V50z" mask="url(#ttd6juh0kd)"/>
                                <path fill="#000" d="M10 43L48 43 48 40 10 40z" mask="url(#ttd6juh0kd)"/>
                                <path fill="#F8B422" d="M19 53L14.999 50.32 11 53 11 43 14.999 43 19 43zM32.984 14.028c-.145-.009-.29-.028-.434-.028-2.088.001-3.904.95-5.55 2.571-1.645-1.622-3.462-2.57-5.55-2.571-.144 0-.288.02-.434.028-3.663.415-7.212 2.999-7.008 6.257.17 3.112.87 6.278 1.899 9.39 1.355 3.565 4.955 6.328 7.503 6.325h2.658c.317-.26.628-.546.932-.859.304.313.616.6.933.859h2.657c2.549.003 6.149-2.76 7.503-6.325 1.03-3.112 1.73-6.278 1.899-9.39.204-3.259-3.346-5.842-7.008-6.257" mask="url(#ttd6juh0kd)"/>
                                <path fill="#FFF" d="M17.35 22c-.179-.442-.55-1.355-.215-2.758.395-1.662 2.186-2.935 4.563-3.242L22 18.58c-1.703.221-2.406 1.025-2.47 1.294-.133.555-.02.83.07 1.052.05.123.084.222.105.298l-1.188.355L17.35 22z" mask="url(#ttd6juh0kd)"/>
                                <path fill="#000" d="M50.507 34L48 33.089c.159-.359.306-.722.444-1.089l2.556.79c-.153.408-.317.812-.493 1.21M28.245 2.586c-.808-.045-1.632-.045-2.44-.002l-.13-2.55c.896-.047 1.81-.045 2.706.004l-.136 2.548zm-7.243.79l-.668-2.46c.865-.245 1.757-.442 2.648-.59l.399 2.52c-.801.132-1.602.31-2.38.53zm12.045.013c-.78-.221-1.58-.401-2.379-.535l.405-2.518c.889.148 1.78.349 2.646.594l-.672 2.459zm-16.57 1.819l-1.173-2.255c.797-.43 1.625-.82 2.46-1.159l.926 2.372c-.752.304-1.496.655-2.212 1.042zm21.088.023c-.716-.388-1.46-.741-2.21-1.047l.93-2.369c.835.34 1.662.732 2.459 1.164l-1.18 2.252zM12.448 7.992l-1.621-1.946c.687-.594 1.412-1.156 2.156-1.67l1.407 2.112c-.67.463-1.323.969-1.942 1.504zm29.14.03c-.617-.534-1.269-1.042-1.938-1.506l1.41-2.109c.744.516 1.468 1.079 2.153 1.674l-1.625 1.942zM9.097 11.59l-1.992-1.546c.546-.73 1.136-1.437 1.755-2.102L10.677 9.7c-.557.598-1.089 1.235-1.58 1.891zm35.834.039c-.489-.656-1.02-1.294-1.577-1.895l1.822-1.753c.619.668 1.207 1.376 1.75 2.105l-1.995 1.543zM6.583 15.835L4.31 14.762c.377-.83.805-1.65 1.271-2.437l2.145 1.319c-.419.708-.803 1.445-1.143 2.191zm40.855.047c-.339-.748-.722-1.488-1.14-2.197l2.148-1.313c.464.788.89 1.609 1.267 2.44l-2.275 1.07zm-42.41 4.65l-2.447-.547c.192-.895.436-1.79.724-2.66l2.374.815c-.259.783-.478 1.588-.65 2.392zm43.954.051c-.171-.805-.388-1.61-.645-2.394l2.376-.81c.286.872.527 1.767.718 2.663l-2.449.541zm-44.477 4.88H2c0-.918.049-1.845.145-2.754l2.49.273c-.086.819-.13 1.654-.13 2.48zm44.99.055v-.074c0-.79-.043-1.608-.125-2.41l2.491-.267c.092.89.139 1.798.139 2.701l-2.506.05zM2.582 30.943c-.193-.894-.341-1.811-.438-2.725l2.49-.274c.088.822.22 1.646.394 2.45l-2.446.55zM51.404 31l-2.445-.555c.176-.805.31-1.63.4-2.449l2.49.28c-.1.912-.25 1.828-.445 2.724zM4.493 34c-.176-.398-.34-.802-.493-1.21L6.556 32c.138.367.285.73.444 1.089L4.493 34z" mask="url(#ttd6juh0kd)"/>
                            </g>
                        </g>
                    </g>
                </g>
            </g>
        </g>
    </g>
</svg>
