<svg xmlns="http://www.w3.org/2000/svg" xmlns:xlink="http://www.w3.org/1999/xlink" width="30" height="30" viewBox="0 0 30 30">
    <defs>
        <path id="7um2g5sfba" d="M11.651 23.528L24.565 10.55l-7.638-7.676L4.013 15.852c-.18.181-.3.415-.342.667l-2.094 9.458 9.41-2.105c.252-.042.484-.162.664-.344zm-6.847-.794l1.194-5.396L16.927 6.355 21.1 10.55 10.173 21.533l-5.37 1.2zM26.248 8.859c1.566-1.575 1.566-4.137 0-5.712l-1.955-1.964C23.534.42 22.525 0 21.451 0c-1.073 0-2.082.42-2.842 1.183l-1.295 1.302 7.638 7.676 1.296-1.302zm-5.382-6.285c.186-.075.385-.113.585-.113.42 0 .814.164 1.11.462l1.955 1.964c.457.46.573 1.135.347 1.703l-3.997-4.016zm7.778 24.701H1.356c-.748 0-1.356.611-1.356 1.363C0 29.388.608 30 1.356 30h27.288c.748 0 1.356-.611 1.356-1.362 0-.752-.608-1.363-1.356-1.363z"/>
    </defs>
    <g fill="none" fill-rule="evenodd">
        <g>
            <g>
                <g transform="translate(-208 -167) translate(188 158) translate(20 9)">
                    <mask id="yiajzt72jb" fill="#fff">
                        <use xlink:href="#7um2g5sfba"/>
                    </mask>
                    <use fill="#005378" fill-rule="nonzero" xlink:href="#7um2g5sfba"/>
                    <path fill="#0BAE92" d="M0 0H30V30H0z" mask="url(#yiajzt72jb)"/>
                </g>
            </g>
        </g>
    </g>
</svg>
