<svg xmlns="http://www.w3.org/2000/svg" width="30" height="30" viewBox="0 0 30 30">
    <g fill="none" fill-rule="evenodd">
        <g fill="#0BAE92">
            <g>
                <g>
                    <g>
                        <path d="M20.429 7.429C20.429 3.326 17.103 0 13 0S5.571 3.326 5.571 7.429c.005 1.831.692 3.596 1.926 4.949C2.925 14.51.001 19.098 0 24.143c0 .663.354 1.276.929 1.608.574.332 1.282.332 1.857 0 .574-.332.928-.945.928-1.608 0-.816.106-1.607.303-2.361 1.045-3.985 4.67-6.925 8.983-6.925 1.97 0 3.86-.783 5.253-2.176 1.393-1.393 2.176-3.282 2.176-5.252zM13 11.143c-2.051 0-3.714-1.663-3.714-3.714 0-2.052 1.663-3.715 3.714-3.715s3.714 1.663 3.714 3.715c0 2.05-1.663 3.714-3.714 3.714zM22.679 24.5V28h-16v-3.5h16zm-1.238-12l3.988 3.987-6.742 6.741c-.094.095-.215.157-.346.18L13.429 24.5l1.093-4.912c.021-.132.084-.253.178-.347l6.741-6.741zm3.034-2c.53 0 1.03.207 1.406.582l.966.967c.775.775.775 2.035 0 2.81l-.64.641-3.778-3.777.64-.64c.376-.376.875-.583 1.406-.583z" transform="translate(-34 -167) translate(14 158) translate(20 9) translate(1.571 1.5)"/>
                    </g>
                </g>
            </g>
        </g>
    </g>
</svg>
