<svg xmlns="http://www.w3.org/2000/svg" xmlns:xlink="http://www.w3.org/1999/xlink" width="90" height="90" viewBox="0 0 90 90">
    <defs>
        <path id="84ggtd62ba" d="M0 0.002L58.982 0.002 58.982 79.859 0 79.859z"/>
        <path id="w9mk07acbc" d="M0.033 0.004L8.668 0.004 8.668 7.707 0.033 7.707z"/>
        <path id="ufj8m43mae" d="M0 79.998L66.478 79.998 66.478 0.141 0 0.141z"/>
    </defs>
    <g fill="none" fill-rule="evenodd">
        <g>
            <g>
                <g>
                    <g transform="translate(-335 -842) translate(287 747) translate(48 90) translate(0 5)">
                        <circle cx="45" cy="45" r="45" fill="#0BAE92"/>
                        <g transform="translate(15 5)">
                            <path fill="#FFF" d="M57.852 4.337c0-1.691-1.345-3.062-3.006-3.062-6.07.001-19.69.004-25.355 0-5.43-.004-19.228-.003-25.353-.001-1.66 0-3.007 1.371-3.007 3.062v63.936c0 1.694 1.35 3.066 3.015 3.062l14.19-.032c.657.032.862 1.001.444 1.52-3.413 4.234-5.954 6.045-5.954 6.045s9.777-.382 17.679-6.512c.742-.575 1.342-1.118 2.49-1.136l21.842.046c1.664.004 3.015-1.369 3.015-3.063V4.337z"/>
                            <g transform="translate(0 .139)">
                                <mask id="r5s7pwrh0b" fill="#fff">
                                    <use xlink:href="#84ggtd62ba"/>
                                </mask>
                                <path fill="#00DBB6" d="M18.335 70.033l.054.001c.68.033 1.258.439 1.548 1.086.333.741.222 1.654-.277 2.273-1.25 1.55-2.388 2.786-3.336 3.736 3.45-.655 8.838-2.2 13.488-5.806l.163-.127c.732-.574 1.561-1.224 3.003-1.246h.02l21.841.045h.004c.491 0 .955-.193 1.307-.545.368-.367.57-.86.57-1.387V4.198c0-.52-.197-1.008-.555-1.374-.353-.36-.822-.557-1.32-.557-5.705.001-19.599.004-25.355 0-5.522-.005-19.569-.003-25.351-.002-1.035 0-1.878.867-1.878 1.932v63.936c0 .527.203 1.02.571 1.387.353.351.816.545 1.307.545h.004l14.19-.032h.002zm-5.509 9.826c-.482 0-.913-.307-1.07-.766-.161-.473.007-.996.414-1.286.022-.016 2.344-1.702 5.467-5.511l-13.489.03H4.14c-1.094 0-2.125-.428-2.904-1.205C.439 70.326 0 69.265 0 68.133V4.197C0 1.885 1.856.004 4.138.004 9.921.002 23.968 0 29.492.004c5.755.005 19.647.002 25.353.001h.001c1.11 0 2.151.439 2.933 1.236.776.79 1.203 1.841 1.203 2.957v63.865c0 1.132-.438 2.194-1.234 2.988-.78.778-1.81 1.206-2.905 1.206h-.008l-21.83-.046c-.648.012-.971.244-1.636.765l-.171.134c-8.096 6.28-17.913 6.732-18.328 6.748h-.044z" mask="url(#r5s7pwrh0b)"/>
                            </g>
                            <path fill="#00DBB6" d="M43.79 43.359H21.94c-.625 0-1.13-.506-1.13-1.13 0-.625.505-1.132 1.13-1.132h21.85c.625 0 1.132.507 1.132 1.131 0 .625-.507 1.13-1.131 1.13M47.72 49.89H21.94c-.625 0-1.13-.505-1.13-1.13 0-.624.505-1.13 1.13-1.13h25.78c.625 0 1.131.506 1.131 1.13 0 .625-.506 1.13-1.13 1.13M45.77 56.423H21.94c-.625 0-1.13-.507-1.13-1.131s.505-1.13 1.13-1.13h23.83c.625 0 1.131.506 1.131 1.13 0 .624-.506 1.13-1.13 1.13M34.348 62.955H21.94c-.624 0-1.13-.507-1.13-1.131 0-.625.506-1.13 1.13-1.13h12.408c.624 0 1.13.505 1.13 1.13 0 .624-.506 1.13-1.13 1.13"/>
                            <path fill="#005378" d="M41.084 51.376c-.083.175-.149.358-.194.541L39.05 62.65c-.052.208.07.265.197.093l7.143-8.228c.112-.152.212-.319.295-.495l16.009-33.878-5.583-2.68-16.027 33.914z"/>
                            <path fill="#00DBB6" d="M41.996 52.156l-1.217 7.097 4.725-5.442c.059-.084.112-.176.158-.274l15.53-32.862-3.545-1.701-15.54 32.885c-.047.097-.083.197-.11.297zm-2.884 11.82c-.184 0-.36-.042-.514-.115-.442-.209-.81-.73-.657-1.433l1.834-10.702c.005-.028.01-.056.018-.083.064-.256.154-.508.27-.75l16.025-33.914c.129-.272.361-.482.645-.583.283-.1.596-.084.867.047l5.583 2.68c.56.27.799.94.533 1.503L47.707 54.503c-.114.243-.252.473-.408.684-.017.024-.036.047-.055.069l-7.123 8.205c-.291.367-.663.514-1.01.514z"/>
                            <path fill="#FFF" d="M40.038 56.885L43.093 58.312"/>
                            <path fill="#F8B422" d="M65.046 15.167c.734-1.554.071-3.414-1.472-4.135-1.543-.72-3.406-.039-4.14 1.515l-.461.975 5.591 2.663.482-1.018z"/>
                            <g transform="translate(57.81 9.609)">
                                <mask id="22rwxn93zd" fill="#fff">
                                    <use xlink:href="#w9mk07acbc"/>
                                </mask>
                                <path fill="#00DBB6" d="M2.668 3.378l3.55 1.69c.224-.48.249-1.02.069-1.519-.178-.492-.533-.883-1-1.102-.97-.452-2.135-.035-2.62.93m4.088 4.33c-.167 0-.333-.037-.486-.11L.677 4.934c-.562-.268-.802-.94-.536-1.503l.461-.976C1.603.336 4.134-.586 6.243.398 7.26.873 8.031 1.72 8.413 2.782c.387 1.072.332 2.229-.154 3.259L7.777 7.06c-.128.271-.36.48-.642.582-.123.043-.252.065-.38.065" mask="url(#22rwxn93zd)"/>
                            </g>
                            <path fill="#F8B422" d="M58.973 13.522L57.111 17.462 62.694 20.142 64.564 16.185z"/>
                            <path fill="#00DBB6" d="M58.613 16.93l3.545 1.7.902-1.909-3.55-1.69-.897 1.898zm4.081 4.343c-.168 0-.335-.037-.49-.111l-5.583-2.68c-.56-.27-.798-.94-.533-1.503l1.862-3.94c.129-.271.36-.48.643-.582.283-.1.595-.085.866.044l5.591 2.664c.563.267.803.94.536 1.503l-1.87 3.958c-.128.272-.36.482-.644.582-.122.044-.25.065-.378.065zM46.593 55.329c-.16 0-.323-.034-.478-.107l-5.605-2.617c-.566-.264-.81-.937-.546-1.503.264-.565.937-.81 1.503-.546l5.605 2.617c.566.264.81.937.546 1.503-.192.411-.6.653-1.025.653"/>
                            <mask id="cblu4sjhif" fill="#fff">
                                <use xlink:href="#ufj8m43mae"/>
                            </mask>
                            <path fill="#FFF" d="M11.808 44.83L17.012 44.83 17.012 39.626 11.808 39.626z" mask="url(#cblu4sjhif)"/>
                            <path fill="#00DBB6" d="M12.938 43.7h2.943v-2.943h-2.943V43.7zm4.074 2.261h-5.204c-.625 0-1.131-.506-1.131-1.13v-5.205c0-.625.506-1.13 1.13-1.13h5.205c.624 0 1.13.505 1.13 1.13v5.204c0 .625-.506 1.131-1.13 1.131z" mask="url(#cblu4sjhif)"/>
                            <path fill="#FFF" d="M11.808 54.628L17.012 54.628 17.012 49.424 11.808 49.424z" mask="url(#cblu4sjhif)"/>
                            <path fill="#00DBB6" d="M12.938 53.498h2.943v-2.943h-2.943v2.943zm4.074 2.261h-5.204c-.625 0-1.131-.506-1.131-1.13v-5.205c0-.625.506-1.13 1.13-1.13h5.205c.624 0 1.13.505 1.13 1.13v5.204c0 .625-.506 1.131-1.13 1.131z" mask="url(#cblu4sjhif)"/>
                            <path fill="#FFF" d="M11.808 64.426L17.012 64.426 17.012 59.222 11.808 59.222z" mask="url(#cblu4sjhif)"/>
                            <path fill="#00DBB6" d="M12.938 63.295h2.943v-2.942h-2.943v2.942zm4.074 2.262h-5.204c-.625 0-1.131-.506-1.131-1.13v-5.205c0-.625.506-1.131 1.13-1.131h5.205c.624 0 1.13.506 1.13 1.13v5.205c0 .625-.506 1.13-1.13 1.13z" mask="url(#cblu4sjhif)"/>
                            <path fill="#F8B422" d="M34.612 15.466c-.015 2.884-2.309 5.209-5.123 5.194-2.814-.015-5.083-2.364-5.067-5.248.015-2.883 2.308-5.208 5.122-5.193 2.814.015 5.083 2.364 5.068 5.247" mask="url(#cblu4sjhif)"/>
                            <path fill="#00DBB6" d="M29.518 11.35c-2.177 0-3.954 1.82-3.966 4.069-.005 1.097.405 2.13 1.156 2.908.744.77 1.734 1.197 2.787 1.202h.02c2.178 0 3.954-1.82 3.966-4.069l1.131.006-1.13-.006c.011-2.255-1.757-4.099-3.943-4.11h-.021m-.002 10.441h-.033c-1.668-.009-3.231-.681-4.402-1.894-1.163-1.204-1.799-2.8-1.79-4.49.018-3.491 2.809-6.32 6.227-6.32h.032c3.433.02 6.211 2.883 6.193 6.385-.019 3.491-2.81 6.319-6.227 6.319" mask="url(#cblu4sjhif)"/>
                            <path fill="#F8B422" d="M32.604 23.793c-2.474-.1-4.618-.028-6.415-.047-4.692-.047-5.754 6.042-6.325 9.418-.098.584.354 1.115.952 1.118l17.341.08c.594.002 1.05-.518.964-1.099-.494-3.324-1.319-9.263-6.517-9.47" mask="url(#cblu4sjhif)"/>
                            <path fill="#00DBB6" d="M21.013 33.152l16.96.078c-.619-4.133-1.561-8.154-5.414-8.307-1.618-.065-3.115-.056-4.436-.048-.686.004-1.333.008-1.945.002-1.592-.013-2.765.867-3.676 2.78-.832 1.746-1.228 3.957-1.489 5.495m17.149 2.34h-.01l-17.341-.08c-.62-.002-1.203-.275-1.601-.748-.395-.469-.563-1.084-.46-1.688.568-3.368 1.75-10.36 7.381-10.36h.07c.594.006 1.232.002 1.908-.002 1.345-.009 2.87-.018 4.54.049 2.676.107 4.683 1.5 5.964 4.14.996 2.052 1.351 4.44 1.61 6.184l.017.11c.089.601-.088 1.21-.487 1.67-.4.461-.979.725-1.591.725" mask="url(#cblu4sjhif)"/>
                        </g>
                    </g>
                </g>
            </g>
        </g>
    </g>
</svg>
