<svg xmlns="http://www.w3.org/2000/svg" xmlns:xlink="http://www.w3.org/1999/xlink" width="90" height="90" viewBox="0 0 90 90">
    <defs>
        <path id="bgddr2utja" d="M0.117 0.135L58.381 0.135 58.381 49.432 0.117 49.432z"/>
        <path id="cief8s2jdc" d="M0 0.09L26.038 0.09 26.038 32.389 0 32.389z"/>
    </defs>
    <g fill="none" fill-rule="evenodd">
        <g>
            <g>
                <g>
                    <g transform="translate(-859 -842) translate(287 747) translate(572 90) translate(0 5)">
                        <circle cx="45" cy="45" r="45" fill="#0BAE92"/>
                        <g>
                            <path fill="#FFF" d="M63.778 52.302c-1.152 1.944-3.433 2.452-5.095 1.133 1.662 1.319 2.076 3.964.924 5.908-1.151 1.944-3.433 2.45-5.095 1.132l-1.71-1.358c.916.728 1.454 1.859 1.558 3.053.084.971-.118 1.984-.634 2.855-1.152 1.944-3.433 2.45-5.096 1.132l-3.104-2.464c.916.728 1.454 1.858 1.558 3.053.085.971-.05 1.604-.564 2.454-.697 1.15-2.4 2.66-4.46 1.237L8.379 44.85c.295-.173 11.555-18.999 11.555-18.999.632-1.066 1.302-1.847 1.302-1.847.534-.135 1.458.365 2.93.252 4.182-.323 13.478-.917 16.905 1.073 1.15.669 19.41 19.21 19.41 19.21l2.373 1.854c1.663 1.319 2.077 3.964.925 5.908" transform="translate(6 9)"/>
                            <g transform="translate(6 9) translate(7.16 22.684)">
                                <mask id="fofpmbkgwb" fill="#fff">
                                    <use xlink:href="#bgddr2utja"/>
                                </mask>
                                <path fill="#00DBB6" d="M35.546 46.86c.469.318.903.43 1.327.339.665-.143 1.248-.765 1.545-1.254.383-.632.474-1.033.409-1.788-.082-.939-.5-1.772-1.147-2.285-.476-.379-.555-1.071-.177-1.548.378-.476 1.07-.556 1.547-.178l3.105 2.464c.516.41 1.133.573 1.74.46.694-.127 1.306-.586 1.723-1.29.38-.642.552-1.423.484-2.199-.082-.938-.499-1.771-1.145-2.285h-.001c-.476-.378-.556-1.071-.178-1.548.378-.476 1.071-.556 1.548-.178l1.71 1.358c.516.409 1.134.572 1.741.46.694-.128 1.305-.586 1.723-1.29.864-1.46.562-3.513-.662-4.484-.274-.218-.417-.54-.417-.864 0-.24.078-.481.239-.684.378-.476 1.07-.556 1.547-.178.516.409 1.133.572 1.74.46.694-.128 1.306-.587 1.723-1.291.865-1.46.562-3.513-.661-4.484l-2.367-1.849c-.037-.03-.073-.06-.106-.095-6.85-6.955-18.09-18.246-19.2-19.042-2.76-1.58-10.354-1.371-16.246-.916-.984.076-1.746-.077-2.302-.188l-.198-.04c-.232.305-.557.76-.869 1.287-.03.05-2.851 4.766-5.672 9.442-1.657 2.747-2.99 4.944-3.962 6.53-.632 1.03-1.066 1.733-1.373 2.218l32.832 24.94zm1.044 2.572c-.787 0-1.575-.261-2.315-.773l-.04-.03L.551 23.045c-.293-.222-.455-.575-.433-.942.015-.256.118-.495.287-.68.685-.943 7.177-11.723 11.422-18.82.67-1.131 1.381-1.964 1.411-1.998.148-.173.346-.295.567-.351.473-.12.931-.028 1.416.07.477.095 1.018.204 1.699.151 9.172-.708 14.91-.31 17.542 1.22 1.182.686 15.226 14.905 19.592 19.338l2.317 1.81c2.116 1.68 2.638 4.9 1.194 7.338-.736 1.242-1.91 2.093-3.22 2.335-.123.023-.247.04-.37.052.439 1.505.271 3.215-.58 4.654-.736 1.241-1.91 2.092-3.219 2.334-.633.117-1.267.09-1.873-.07.086 1.2-.194 2.41-.79 3.417-.736 1.242-1.91 2.093-3.218 2.335-1.137.21-2.279-.04-3.248-.707.003.939-.223 1.693-.746 2.557-.267.44-1.269 1.903-2.969 2.266-.246.053-.495.079-.743.079z" mask="url(#fofpmbkgwb)"/>
                            </g>
                            <path fill="#FFF" d="M58.683 53.435L52.066 48.448" transform="translate(6 9)"/>
                            <path fill="#00DBB6" d="M58.682 54.537c-.23 0-.464-.073-.662-.222l-6.617-4.987c-.485-.367-.583-1.057-.216-1.543.366-.486 1.057-.583 1.542-.217l6.617 4.987c.486.367.583 1.057.217 1.543-.217.287-.547.439-.88.439" transform="translate(6 9)"/>
                            <path fill="#FFF" d="M52.801 59.117L47.709 55.088" transform="translate(6 9)"/>
                            <path fill="#00DBB6" d="M52.8 60.219c-.24 0-.48-.078-.682-.238l-5.093-4.03c-.477-.377-.558-1.07-.18-1.547.377-.477 1.07-.558 1.547-.18l5.093 4.03c.477.377.558 1.07.18 1.547-.217.275-.54.418-.865.418" transform="translate(6 9)"/>
                            <path fill="#FFF" d="M45.526 63.693L44.374 62.646" transform="translate(6 9)"/>
                            <path fill="#00DBB6" d="M45.525 64.795c-.264 0-.53-.095-.74-.287l-1.152-1.047c-.45-.41-.483-1.106-.074-1.556.41-.45 1.106-.484 1.556-.074l1.152 1.047c.45.41.483 1.106.073 1.556-.217.24-.515.36-.815.36" transform="translate(6 9)"/>
                            <path fill="#F8B422" d="M13.823 16.44l10.048 6.286c1.07.713 1.392 2.207.717 3.338L13.042 45.405c-.675 1.13-2.09 1.47-3.16.757l-8.78-5.843 12.72-23.879z" transform="translate(6 9)"/>
                            <g transform="translate(6 9) translate(0 15.249)">
                                <mask id="3aim2cqq9d" fill="#fff">
                                    <use xlink:href="#cief8s2jdc"/>
                                </mask>
                                <path fill="#00DBB6" d="M2.543 24.707l7.948 5.29c.256.17.558.227.85.16.31-.07.58-.27.755-.565l11.546-19.341c.369-.618.199-1.461-.37-1.849l-9.032-5.65L2.543 24.707zm8.553 7.682c-.642 0-1.272-.19-1.825-.559L.49 25.987c-.471-.314-.628-.934-.362-1.435L12.851.674c.143-.27.392-.468.687-.546.296-.08.61-.032.869.13l10.048 6.286c.009.005.018.01.026.017 1.55 1.032 2.023 3.193 1.053 4.819L13.988 30.72c-.488.818-1.256 1.38-2.161 1.586-.243.055-.488.082-.73.082z" mask="url(#3aim2cqq9d)"/>
                            </g>
                            <path fill="#FFF" d="M53.526 23.34c-.64-.119-3.41-.42-5.174-.47-4.636-.13-7.934.9-11.599 2.906l-10.866 6.4c-1.997 1.435-2.514 4.309-1.154 6.418l.002.005c1.36 2.109 4.082 2.655 6.08 1.219l12.906-7.864 21.524 16.04 4.288-2.652" transform="translate(6 9)"/>
                            <path fill="#00DBB6" d="M65.246 49.096c-.233 0-.464-.073-.659-.218L43.66 33.281l-12.237 7.457c-1.194.844-2.63 1.16-4.05.89-1.465-.278-2.73-1.142-3.563-2.433l-.014-.023c-1.656-2.59-1.008-6.125 1.45-7.891.027-.02.055-.038.083-.055l10.866-6.399.03-.017c4.175-2.286 7.697-3.168 12.159-3.04 1.815.05 4.628.354 5.344.487.598.111.993.686.882 1.284-.111.598-.686.993-1.284.882-.574-.106-3.287-.404-5.004-.452-4.086-.115-7.178.66-11.024 2.763l-10.804 6.363c-1.495 1.106-1.87 3.293-.835 4.9l.013.02c.501.77 1.251 1.283 2.113 1.447.834.158 1.683-.034 2.39-.54.022-.017.045-.032.068-.047l12.905-7.864c.384-.234.872-.211 1.232.057l20.924 15.594 3.65-2.259c.518-.32 1.196-.16 1.517.358.32.517.16 1.196-.358 1.516l-4.287 2.653c-.178.11-.379.164-.58.164" transform="translate(6 9)"/>
                            <path fill="#FFF" d="M35.68 61.085c1.36-1.428 3.525-1.374 4.84.12 1.312 1.494 1.274 3.86-.085 5.288l-3.188 3.042c-1.34.901-3.122.688-4.262-.609-.571-.65-.888-1.465-.95-2.297-.08-1.078.266-2.185 1.035-2.99l2.61-2.554z" transform="translate(6 9)"/>
                            <path fill="#00DBB6" d="M33.855 64.412c-.519.55-.782 1.328-.721 2.135.046.62.287 1.207.678 1.652.735.836 1.854 1.022 2.75.468l3.092-2.951c.957-1.025.976-2.716.038-3.783-.433-.493-1.006-.77-1.613-.783-.598-.013-1.164.235-1.6.694l-.028.028-2.596 2.54zm1.616 6.772c-1.22 0-2.429-.524-3.313-1.53-.706-.803-1.14-1.848-1.221-2.943-.107-1.434.38-2.83 1.336-3.832.008-.01.017-.019.026-.027l2.598-2.542c.867-.903 2.011-1.386 3.225-1.362 1.233.024 2.378.568 3.224 1.53 1.678 1.908 1.626 4.947-.113 6.774l-.038.038-3.187 3.042c-.046.043-.094.082-.146.117-.736.495-1.566.735-2.391.735z" transform="translate(6 9)"/>
                            <path fill="#FFF" d="M23.518 53.11c.768-.805 1.115-1.912 1.034-2.99-.062-.832-.378-1.647-.95-2.297-1.14-1.298-2.923-1.509-4.263-.607l-4.472 4.33c-1.359 1.428-1.396 3.795-.084 5.29 1.313 1.492 3.48 1.546 4.839.12l3.896-3.846z" transform="translate(6 9)"/>
                            <path fill="#00DBB6" d="M15.651 52.321c-.96 1.024-.98 2.718-.04 3.787.432.492 1.004.77 1.612.781.597.012 1.164-.234 1.601-.693l.024-.024 3.883-3.833c.52-.551.783-1.329.723-2.137-.047-.62-.288-1.207-.68-1.652-.733-.835-1.85-1.02-2.746-.468l-4.377 4.239zm1.615 6.772h-.088c-1.232-.026-2.377-.569-3.222-1.53-1.677-1.91-1.626-4.949.113-6.776l.032-.032 4.472-4.33c.047-.046.097-.087.151-.123 1.824-1.228 4.224-.894 5.706.794.705.802 1.139 1.847 1.22 2.942.108 1.434-.38 2.83-1.335 3.833l-.023.023-3.885 3.835c-.847.882-1.959 1.364-3.141 1.364z" transform="translate(6 9)"/>
                            <path fill="#FFF" d="M30.811 55.854l1.4-1.47c1.36-1.426 3.525-1.371 4.839.122 1.313 1.494 1.275 3.86-.084 5.288l-3.897 3.845-2.54 2.665c-1.359 1.426-3.525 1.373-4.838-.12-.572-.65-.887-1.467-.95-2.298-.08-1.079.267-2.185 1.034-2.99l5.036-5.042z" transform="translate(6 9)"/>
                            <path fill="#00DBB6" d="M26.564 61.664c-.52.552-.784 1.33-.724 2.14.047.621.287 1.207.678 1.652.433.492 1.005.77 1.612.782.592.012 1.164-.235 1.602-.694l2.54-2.665.024-.024 3.883-3.832c.962-1.023.983-2.72.043-3.79-.432-.492-1.005-.77-1.612-.782-.594-.01-1.165.235-1.602.694l-1.4 1.468c-.005.007-.011.013-.018.019l-5.026 5.032zm1.61 6.777h-.088c-1.232-.025-2.377-.569-3.223-1.53-.705-.802-1.138-1.847-1.22-2.942-.107-1.434.38-2.831 1.335-3.833l.018-.019 5.026-5.033 1.39-1.459c.87-.912 2.023-1.4 3.242-1.376 1.232.025 2.377.568 3.223 1.529 1.677 1.91 1.626 4.949-.113 6.776l-.025.024-3.884 3.833-2.528 2.653c-.849.89-1.965 1.377-3.154 1.377z" transform="translate(6 9)"/>
                            <path fill="#FFF" d="M23.518 53.11l2.539-2.665c1.36-1.426 3.526-1.372 4.839.121.57.65.888 1.466.95 2.298.08 1.078-.266 2.184-1.035 2.99l-5.036 5.042-1.4 1.468c-1.358 1.427-3.524 1.372-4.838-.12-1.312-1.495-1.274-3.862.085-5.288l3.896-3.846z" transform="translate(6 9)"/>
                            <path fill="#00DBB6" d="M20.408 57.727c-.962 1.023-.983 2.72-.043 3.79.432.491 1.005.769 1.613.78.594.011 1.163-.234 1.6-.692l1.4-1.47.018-.018 5.026-5.032c.521-.551.785-1.33.725-2.14-.046-.62-.287-1.206-.679-1.651-.432-.492-1.004-.77-1.611-.782-.597-.01-1.165.234-1.603.693l-2.539 2.665-.023.024-3.884 3.833zm1.612 6.774h-.086c-1.233-.025-2.378-.568-3.224-1.53-1.677-1.91-1.626-4.949.114-6.775l.024-.024 3.884-3.834 2.527-2.653c.87-.912 2.024-1.4 3.242-1.376 1.232.025 2.377.568 3.222 1.53.706.802 1.14 1.848 1.221 2.943.107 1.434-.38 2.83-1.336 3.832l-.018.018-5.026 5.033-1.39 1.46c-.849.89-1.965 1.376-3.154 1.376z" transform="translate(6 9)"/>
                            <path fill="#FFF" d="M23.518 53.11L19.622 56.956" transform="translate(6 9)"/>
                            <path fill="#00DBB6" d="M19.622 58.058c-.285 0-.569-.11-.784-.328-.428-.433-.423-1.13.01-1.558l3.896-3.846c.433-.427 1.13-.423 1.558.01.427.433.423 1.13-.01 1.558l-3.896 3.846c-.215.212-.495.318-.774.318" transform="translate(6 9)"/>
                            <path fill="#005378" d="M78.884 38.867l-9.04 6.372c-1.103.777-2.593.463-3.33-.7L53.924 24.62c-.736-1.164-.439-2.738.664-3.515l9.293-6.279 15.003 24.04z" transform="translate(6 9)"/>
                            <path fill="#00DBB6" d="M55.215 22.012c-.612.438-.777 1.36-.36 2.02l12.59 19.917c.199.314.496.524.836.592.322.064.652-.008.928-.202l8.19-5.772L63.55 16.379l-8.336 5.633zm13.303 24.756c-.221 0-.444-.022-.667-.066-.938-.187-1.744-.746-2.268-1.575L52.993 25.21c-1.044-1.65-.613-3.895.96-5.004l.018-.012 9.293-6.28c.248-.167.553-.227.846-.165.293.063.547.241.705.495l15.003 24.04c.31.496.178 1.147-.3 1.484l-9.04 6.371c-.587.414-1.265.63-1.96.63z" transform="translate(6 9)"/>
                            <path fill="#00CDAB" d="M25.714 11.394L31.37 16.44" transform="translate(6 9)"/>
                            <path fill="#00DBB6" d="M31.37 17.542c-.261 0-.523-.092-.733-.28l-5.656-5.046c-.454-.405-.494-1.102-.089-1.556.405-.453 1.101-.493 1.556-.088l5.656 5.046c.453.405.493 1.102.088 1.556-.217.244-.52.368-.822.368" transform="translate(6 9)"/>
                            <path fill="#00CDAB" d="M35.074 1.102L37.735 10.98" transform="translate(6 9)"/>
                            <path fill="#00DBB6" d="M37.734 12.082c-.486 0-.93-.324-1.063-.815l-2.66-9.879c-.16-.587.189-1.192.776-1.35.588-.158 1.192.19 1.35.777l2.661 9.878c.159.588-.19 1.192-.777 1.35-.096.026-.192.039-.287.039" transform="translate(6 9)"/>
                            <path fill="#00CDAB" d="M48.821 2.205L45.728 10.266" transform="translate(6 9)"/>
                            <path fill="#00DBB6" d="M45.728 11.368c-.132 0-.265-.024-.395-.073-.568-.218-.852-.855-.634-1.423l3.094-8.061c.218-.568.855-.852 1.423-.634.568.218.851.855.633 1.423l-3.093 8.06c-.168.439-.586.708-1.028.708" transform="translate(6 9)"/>
                            <path fill="#00CDAB" d="M55.375 10.799L50.902 14.993" transform="translate(6 9)"/>
                            <path fill="#00DBB6" d="M50.902 16.095c-.294 0-.587-.117-.804-.348-.416-.444-.393-1.141.05-1.557l4.473-4.194c.444-.417 1.14-.394 1.557.05.416.443.394 1.14-.05 1.557l-4.472 4.194c-.213.2-.484.298-.754.298" transform="translate(6 9)"/>
                        </g>
                    </g>
                </g>
            </g>
        </g>
    </g>
</svg>
