<svg xmlns="http://www.w3.org/2000/svg" xmlns:xlink="http://www.w3.org/1999/xlink" width="90" height="90" viewBox="0 0 90 90">
    <defs>
        <circle id="wn0g96bkja" cx="45" cy="45" r="45"/>
        <path id="2w7btf4puc" d="M0 0.099L87 0.099 87 32.824 0 32.824z"/>
    </defs>
    <g fill="none" fill-rule="evenodd">
        <g>
            <g>
                <g>
                    <g transform="translate(-597 -842) translate(287 747) translate(310 90) translate(0 5)">
                        <mask id="ihbfnjxvyb" fill="#fff">
                            <use xlink:href="#wn0g96bkja"/>
                        </mask>
                        <use fill="#0BAE92" xlink:href="#wn0g96bkja"/>
                        <g mask="url(#ihbfnjxvyb)">
                            <g>
                                <g transform="translate(3 16) translate(0 42.069)">
                                    <mask id="gx2q399p4d" fill="#fff">
                                        <use xlink:href="#2w7btf4puc"/>
                                    </mask>
                                    <path fill="#00DBB6" d="M75.107 16.461c-1.068 1.366-2.22 2.666-3.445 3.89-7.704 7.707-18.35 12.473-30.108 12.473h-.001c-13.627 0-25.76-6.402-33.553-16.363 1.068-1.366 2.22-2.666 3.445-3.89C19.149 4.865 29.795.099 41.553.099h.001c13.627 0 25.76 6.401 33.553 16.362" mask="url(#gx2q399p4d)"/>
                                </g>
                                <path fill="#FFF" d="M54.268 19.115L50.941 26.407 59.862 24.801" transform="translate(3 16)"/>
                                <path fill="#00DBB6" d="M50.941 27.349c-.287 0-.563-.132-.743-.364-.215-.277-.258-.65-.113-.968l3.326-7.293c.216-.473.774-.681 1.247-.466.473.216.682.774.466 1.247l-2.58 5.658 7.151-1.288c.512-.092 1.001.248 1.093.76.092.511-.248 1-.76 1.093l-8.92 1.606c-.056.01-.111.015-.167.015" transform="translate(3 16)"/>
                                <path fill="#005378" d="M41.116 29.454c-6.088 0-11.353-.109-15.771-.109-8.877 0-14.117 17.922-15.51 24.702-.04.195-.068.461-.073.782-.058 3.75 3.048 6.783 6.798 6.712l35.016-.663c3.347-.063 5.964-2.953 5.64-6.285-.01-.117-.024-.218-.04-.302-1.223-6.678-6.36-24.837-16.06-24.837" transform="translate(3 16)"/>
                                <path fill="#00DBB6" d="M25.345 30.286c-7.644 0-12.885 15.667-14.589 23.95-.018.087-.048.28-.053.607-.024 1.537.567 2.986 1.664 4.079 1.117 1.112 2.598 1.707 4.175 1.678l35.017-.663c1.347-.025 2.634-.617 3.53-1.624.898-1.007 1.32-2.296 1.19-3.63-.01-.112-.021-.183-.028-.222-.244-1.33-1.618-8.283-4.77-14.677-2.112-4.283-5.624-9.39-10.365-9.39-3.292 0-6.403-.031-9.148-.06-2.363-.024-4.596-.048-6.623-.048m-8.917 32.198c-2.035 0-3.943-.788-5.39-2.229-1.461-1.456-2.249-3.389-2.217-5.44.005-.362.037-.693.091-.958.825-4.012 2.579-10.09 5.025-15.115 3.34-6.86 7.178-10.338 11.408-10.338 2.037 0 4.274.023 6.642.048 2.74.028 5.847.06 9.13.06 2.504 0 4.888 1.08 7.084 3.207 1.782 1.727 3.454 4.16 4.968 7.233 2.528 5.126 4.206 11.197 4.933 15.17.02.11.037.237.051.38.181 1.862-.408 3.66-1.658 5.063-1.244 1.397-3.03 2.219-4.9 2.254l-35.018.663-.149.002" transform="translate(3 16)"/>
                                <path fill="#FFF" d="M45.327 12.6c1.332 6.478-2.713 12.783-9.036 14.083-6.322 1.3-12.528-2.897-13.86-9.376C21.1 10.83 25.145 4.524 31.467 3.224c6.322-1.3 12.528 2.897 13.86 9.375" transform="translate(3 16)"/>
                                <path fill="#00DBB6" d="M33.77 3.93c-.698 0-1.405.07-2.113.215-2.808.578-5.218 2.242-6.786 4.687-1.573 2.452-2.112 5.395-1.518 8.286 1.076 5.231 5.616 8.859 10.635 8.86.698 0 1.405-.07 2.114-.217 2.807-.577 5.217-2.241 6.785-4.686 1.574-2.452 2.112-5.395 1.518-8.286-1.076-5.232-5.616-8.86-10.635-8.86m.218 23.93c-5.895 0-11.22-4.24-12.479-10.362-.694-3.375-.062-6.813 1.778-9.682 1.844-2.875 4.682-4.833 7.99-5.513C38.1.899 44.814 5.434 46.25 12.41c.694 3.375.063 6.813-1.777 9.681-1.845 2.876-4.683 4.834-7.991 5.514-.836.172-1.67.255-2.493.255" transform="translate(3 16)"/>
                                <path fill="#FFF" d="M24.988 30.507L28.941 55.303 38.285 55.303 41.878 30.507z" transform="translate(3 16)"/>
                                <path fill="#00DBB6" d="M29.744 54.362h7.726l3.32-22.914H26.092l3.653 22.914zm9.355 1.882H28.14l-4.254-26.678h19.08L39.1 56.244z" transform="translate(3 16)"/>
                                <path fill="#F8B422" d="M30.594 31.429L32.345 36.191 28.249 45.059 29.744 54.375 37.479 54.401 38.905 44.399 34.93 36.137 36.801 31.429z" transform="translate(3 16)"/>
                                <path fill="#00DBB6" d="M30.362 1.776s1.952 9.244 14.727 5.82c-.067-6.216-8.556-10.03-14.727-5.82" transform="translate(3 16)"/>
                                <path fill="#00DBB6" d="M30.362 1.776s-7.487-.02-7.26 8.416c3.48-2.15 7.4-4.538 8.352-5.968 1.235-1.855-1.092-2.448-1.092-2.448M29.587 10.746c-.125 0-.25.013-.376.04-.47.099-.873.375-1.136.778-.262.403-.352.884-.253 1.354.205.97 1.162 1.594 2.133 1.389.47-.1.874-.376 1.136-.779.262-.402.352-.883.253-1.353-.1-.47-.376-.874-.779-1.137-.295-.192-.633-.292-.978-.292m-.005 5.483c-1.702 0-3.236-1.191-3.601-2.922-.203-.962-.02-1.946.517-2.77.537-.824 1.362-1.39 2.325-1.593 1.986-.42 3.943.855 4.363 2.842.419 1.986-.856 3.943-2.842 4.363-.256.054-.51.08-.762.08M39.488 10.902c-.125 0-.25.013-.375.04-.971.204-1.594 1.16-1.39 2.132.1.47.377.873.78 1.136.402.262.883.352 1.353.253.971-.205 1.594-1.162 1.39-2.133-.1-.47-.376-.874-.78-1.136-.295-.193-.633-.292-.978-.292m-.004 5.482c-1.703 0-3.236-1.19-3.602-2.921-.42-1.987.856-3.944 2.842-4.364.963-.203 1.946-.019 2.77.518.824.536 1.39 1.362 1.593 2.324.42 1.987-.855 3.944-2.842 4.363-.255.054-.51.08-.761.08" transform="translate(3 16)"/>
                                <path fill="#00DBB6" d="M37.144 13.922L31.344 13.545 31.466 11.667 37.266 12.044zM26.796 12.336L22.82 11.09 23.383 9.294 27.359 10.54zM42.651 12.942L41.681 11.329 44.249 9.786 45.218 11.399z" transform="translate(3 16)"/>
                                <path fill="#FFF" d="M79.474 14.649c0 7.57-6.137 13.708-13.708 13.708-7.57 0-13.707-6.137-13.707-13.708 0-7.57 6.137-13.708 13.707-13.708 7.57 0 13.708 6.137 13.708 13.708" transform="translate(3 16)"/>
                                <path fill="#00DBB6" d="M65.766 1.882C58.726 1.882 53 7.61 53 14.65c0 7.04 5.727 12.767 12.766 12.767 7.04 0 12.767-5.728 12.767-12.767 0-7.04-5.727-12.767-12.767-12.767m0 27.416c-8.077 0-14.649-6.572-14.649-14.65C51.117 6.573 57.69 0 65.767 0c8.077 0 14.648 6.572 14.648 14.649 0 8.077-6.571 14.649-14.649 14.649" transform="translate(3 16)"/>
                                <path fill="#F8B422" d="M60.608 14.649c0-.961-.779-1.74-1.74-1.74s-1.74.779-1.74 1.74.779 1.74 1.74 1.74 1.74-.779 1.74-1.74M67.586 14.649c0-.961-.779-1.74-1.74-1.74s-1.74.779-1.74 1.74.779 1.74 1.74 1.74 1.74-.779 1.74-1.74M74.405 14.649c0-.961-.78-1.74-1.74-1.74-.961 0-1.74.779-1.74 1.74s.779 1.74 1.74 1.74c.96 0 1.74-.779 1.74-1.74" transform="translate(3 16)"/>
                            </g>
                        </g>
                    </g>
                </g>
            </g>
        </g>
    </g>
</svg>
