<?xml version="1.0" encoding="UTF-8"?>
<svg width="428px" height="132px" viewBox="0 0 428 132" version="1.1" xmlns="http://www.w3.org/2000/svg" xmlns:xlink="http://www.w3.org/1999/xlink">
    <title>樣式-交談室_428</title>
    <defs>
        <polygon id="path-1" points="0 0 585 0 585 235 0 235"></polygon>
    </defs>
    <g id="Style" stroke="none" stroke-width="1" fill="none" fill-rule="evenodd">
        <g id="樣式-交談室_428" transform="translate(-79.000000, 0.000000)">
            <mask id="mask-2" fill="white">
                <use xlink:href="#path-1"></use>
            </mask>
            <g id="Clip-2"></g>
            <path d="M-240,19.4183966 C-240.44457,65.4312777 -199.982944,109.105341 -144.148116,130.337186 C-88.3132874,151.569961 -19.7973504,151.548546 38.9524264,135.047407 C78.2653921,124.005061 113.248596,106.260028 149.934415,91.1377861 C186.61896,76.0146127 226.830988,63.1781176 268.943018,63.5151605 C303.689358,63.7935468 336.943203,72.9914678 370.363872,79.9474013 C403.784541,86.9042659 440.073041,91.6107635 472.806042,83.0841353 C509.807679,73.4448929 535.922511,48.019564 548,20.6930148 L-240,19.4183966 Z" id="Fill-1" fill="#FFF1CF" mask="url(#mask-2)"></path>
            <path d="M618.445153,-29.0726496 L67.5548465,-29.0726496 C34.6630157,-29.0726496 8,-2.35245481 8,30.6099128 L8,155.066121 C43.586139,117.27202 137.00064,48.1427092 337.184194,61.1706249 C519.709394,73.0474513 594.455175,156.483666 678,240.07265 L678,30.6099128 C678,-2.35245481 651.336984,-29.0726496 618.445153,-29.0726496" id="Fill-1" fill="#FFB400" mask="url(#mask-2)"></path>
        </g>
    </g>
</svg>