<?xml version="1.0" encoding="UTF-8"?>
<svg width="24px" height="24px" viewBox="0 0 24 24" version="1.1" xmlns="http://www.w3.org/2000/svg" xmlns:xlink="http://www.w3.org/1999/xlink">
    <title>file</title>
    <g id="Guideline" stroke="none" stroke-width="1" fill="none" fill-rule="evenodd">
        <g id="icon" transform="translate(-30.000000, -138.000000)" fill-rule="nonzero">
            <g id="file" transform="translate(30.000000, 138.000000)">
                <rect id="Rectangle" fill="#000000" opacity="0" x="0" y="0" width="24" height="24"></rect>
                <path d="M20.78025,7.09873077 L16.281,2.71484615 C16.212,2.64761538 16.13025,2.59353846 16.03875,2.557 C15.94875,2.51973077 15.8505,2.5 15.75,2.5 L5.25,2.5 C4.0095,2.5 3,3.48361538 3,4.69230769 L3,19.3076923 C3,20.5163846 4.0095,21.5 5.25,21.5 L18.75,21.5 C19.9905,21.5 21,20.5163846 21,19.3076923 L21,7.61538462 C21,7.42173077 20.92125,7.23538462 20.78025,7.09873077 Z M16.5,4.99484615 L19.1895,7.61538462 L16.5,7.61538462 L16.5,4.99484615 Z M18.75,20.0384615 L5.25,20.0384615 C4.83675,20.0384615 4.5,19.7110769 4.5,19.3076923 L4.5,4.69230769 C4.5,4.28965385 4.83675,3.96153846 5.25,3.96153846 L15,3.96153846 L15,8.34615385 C15,8.74953846 15.33525,9.07692308 15.75,9.07692308 L19.5,9.07692308 L19.5,19.3076923 C19.5,19.7110769 19.164,20.0384615 18.75,20.0384615 Z M6.75,8.34615385 L11.25,8.34615385 C11.664,8.34615385 12,8.01876923 12,7.61538462 C12,7.212 11.664,6.88461538 11.25,6.88461538 L6.75,6.88461538 C6.336,6.88461538 6,7.212 6,7.61538462 C6,8.01876923 6.336,8.34615385 6.75,8.34615385 Z M14.25,11.2692308 L6.75,11.2692308 C6.336,11.2692308 6,11.5966154 6,12 C6,12.4033846 6.336,12.7307692 6.75,12.7307692 L14.25,12.7307692 C14.66475,12.7307692 15,12.4033846 15,12 C15,11.5966154 14.66475,11.2692308 14.25,11.2692308 Z M14.25,15.6538462 L6.75,15.6538462 C6.336,15.6538462 6,15.9805 6,16.3846154 C6,16.7887308 6.336,17.1153846 6.75,17.1153846 L14.25,17.1153846 C14.66475,17.1153846 15,16.7887308 15,16.3846154 C15,15.9805 14.66475,15.6538462 14.25,15.6538462 Z" id="Shape" fill="#3E3E3E"></path>
            </g>
        </g>
    </g>
</svg>