<svg xmlns="http://www.w3.org/2000/svg" xmlns:xlink="http://www.w3.org/1999/xlink" width="154" height="68" viewBox="0 0 154 68">
    <defs>
        <path id="vmo3rxz6qa" d="M0 0H154V68H0z"/>
    </defs>
    <g fill="none" fill-rule="evenodd">
        <g>
            <g>
                <g transform="translate(-884 -629) translate(0 629) translate(884)">
                    <mask id="xmil6jj2ob" fill="#fff">
                        <use xlink:href="#vmo3rxz6qa"/>
                    </mask>
                    <g mask="url(#xmil6jj2ob)">
                        <g>
                            <path fill="#0080A9" d="M62.831 221.976L66.279 221.976 66.279 0 62.831 0z" transform="translate(11 -202)"/>
                            <g>
                                <path fill="#003149" d="M67.427 86.606l-.802-.41 15.357-29.79c2.164-4.194 2.167-9.008.007-13.202-2.156-4.194-6.07-6.99-10.738-7.675-4.63-.673-8.64-3.377-11.002-7.416-2.365-4.04-2.758-8.86-1.08-13.23L64.652.598l.839.324-5.483 14.285c-1.58 4.115-1.206 8.647 1.015 12.453 2.225 3.801 6.001 6.346 10.36 6.98 4.958.727 9.116 3.697 11.41 8.154 2.289 4.457 2.285 9.569-.008 14.026L67.427 86.606z" transform="translate(11 -202) translate(0 134.976)"/>
                                <path fill="#F8B422" d="M45.166 112.797c0 .116-.014.224-.014.339 0 11.08 8.982 20.063 20.063 20.063 11.08 0 20.063-8.982 20.063-20.063 0-.115-.015-.223-.018-.339H45.166z" transform="translate(11 -202) translate(0 134.976)"/>
                                <path fill="#003149" d="M130.053 112.9L74.89 86.998c-.839-.396-1.753-.598-2.678-.598H58.838c-.925 0-1.836.202-2.675.598L1 112.9c-.824.385-.547 1.62.36 1.62h128.33c.91 0 1.184-1.235.363-1.62" transform="translate(11 -202) translate(0 134.976)"/>
                                <path fill="#0080A9" d="M112.176 114.524L.81 114.506c-.864.003-1.127-1.174-.342-1.541l31.759-14.793c5.386-.381 11.948 1.613 15.7 4.738 5.684 4.738 12.466 7.97 19.85 8.413l44.399 3.2z" transform="translate(11 -202) translate(0 134.976)"/>
                            </g>
                        </g>
                    </g>
                </g>
            </g>
        </g>
    </g>
</svg>
