<?xml version="1.0" encoding="UTF-8"?>
<svg width="32px" height="32px" viewBox="0 0 32 32" version="1.1" xmlns="http://www.w3.org/2000/svg" xmlns:xlink="http://www.w3.org/1999/xlink">
    <title>close-round</title>
    <g id="Guideline" stroke="none" stroke-width="1" fill="none" fill-rule="evenodd">
        <g id="icon" transform="translate(-156.000000, -182.000000)" fill-rule="nonzero">
            <g id="close-round" transform="translate(156.000000, 182.000000)">
                <rect id="Rectangle" fill="#000000" opacity="0" x="0" y="0" width="32" height="32"></rect>
                <path d="M16,30 C8.28,30 2,23.72 2,16 C2,8.28 8.28,2 16,2 C23.72,2 30,8.28 30,16 C30,23.72 23.72,30 16,30 Z M16,4.009 C9.388,4.009 4.009,9.388 4.009,16 C4.009,22.611 9.388,27.991 16,27.991 C22.611,27.991 27.991,22.611 27.991,16 C27.991,9.388 22.611,4.009 16,4.009 Z M17.408,16.043 L21.732,11.766 C22.125,11.378 22.128,10.745 21.74,10.352 C21.352,9.959 20.718,9.956 20.326,10.344 L15.996,14.626 L11.732,10.349 C11.341,9.958 10.709,9.956 10.318,10.347 C9.927,10.737 9.926,11.37 10.316,11.761 L14.574,16.032 L10.281,20.279 C9.888,20.668 9.885,21.3 10.273,21.693 C10.469,21.891 10.726,21.99 10.984,21.99 C11.238,21.99 11.492,21.893 11.687,21.701 L15.986,17.449 L20.32,21.797 C20.515,21.993 20.771,22.091 21.028,22.091 C21.284,22.091 21.539,21.993 21.734,21.799 C22.125,21.409 22.126,20.777 21.736,20.385 L17.408,16.043 Z" id="Shape" fill="#3E3E3E"></path>
            </g>
        </g>
    </g>
</svg>