<?xml version="1.0" encoding="UTF-8"?>
<svg width="24px" height="24px" viewBox="0 0 24 24" version="1.1" xmlns="http://www.w3.org/2000/svg" xmlns:xlink="http://www.w3.org/1999/xlink">
    <title>close_o</title>
    <g id="Guideline" stroke="none" stroke-width="1" fill="none" fill-rule="evenodd">
        <g id="icon" transform="translate(-215.000000, -636.000000)" fill-rule="nonzero">
            <g id="close_o" transform="translate(215.000000, 636.000000)">
                <rect id="Rectangle" fill="#000000" opacity="0" x="0" y="0" width="24" height="24"></rect>
                <path d="M13.3962896,11.9702159 L17.7042142,7.70609781 C18.0957532,7.31926642 18.098742,6.68817295 17.7121845,6.29635663 C17.325627,5.9045403 16.693984,5.90154934 16.3034413,6.28838072 L11.989539,10.5574838 L7.74139137,6.29336566 C7.351845,5.90354331 6.72219459,5.90154934 6.33264822,6.29137169 C5.94310185,6.68019705 5.94210556,7.31129052 6.33065565,7.70111287 L10.5728256,11.9592491 L6.29578577,16.1934576 C5.90424684,16.5812859 5.90125799,17.2113824 6.28781552,17.6031987 C6.48308684,17.8006024 6.73913139,17.8993042 6.99617222,17.8993042 C7.24922792,17.8993042 7.50228362,17.8025964 7.69655867,17.6111746 L11.9795762,13.3719812 L16.2974636,17.7068855 C16.4917387,17.9022952 16.7467869,18 17.0028315,18 C17.2578798,18 17.5119317,17.9022952 17.7062068,17.7088795 C18.0957532,17.3200541 18.0967494,16.6899576 17.7081994,16.2991383 L13.3962896,11.9702159 Z" id="Shape" fill="#F9935C"></path>
            </g>
        </g>
    </g>
</svg>