<?xml version="1.0" encoding="UTF-8"?>
<svg width="20px" height="20px" viewBox="0 0 20 20" version="1.1" xmlns="http://www.w3.org/2000/svg" xmlns:xlink="http://www.w3.org/1999/xlink">
    <title>department</title>
    <g id="Guideline" stroke="none" stroke-width="1" fill="none" fill-rule="evenodd">
        <g id="icon" transform="translate(-151.000000, -638.000000)" fill-rule="nonzero">
            <g id="department" transform="translate(151.000000, 638.000000)">
                <rect id="Rectangle" fill="#000000" opacity="0" x="0" y="0" width="20" height="20"></rect>
                <path d="M18.125,6.25 L13.75,6.25 L13.75,1.875 C13.75,1.54166666 13.4583333,1.25 13.125,1.25 L1.875,1.25 C1.54166666,1.25 1.25,1.54166666 1.25,1.875 L1.25,18.125 C1.25,18.4583333 1.54166666,18.75 1.875,18.75 L18.125,18.75 C18.4583333,18.75 18.75,18.4583333 18.75,18.125 L18.75,6.875 C18.75,6.54166666 18.4583333,6.25 18.125,6.25 Z M2.5,2.5 L12.5,2.5 L12.5,17.5 L2.5,17.5 L2.5,2.5 Z M17.5,17.5 L13.75,17.5 L13.75,7.5 L17.5,7.5 L17.5,17.5 Z" id="Shape" fill="#3E3E3E"></path>
                <path d="M6.25,5 L4.375,5 C4.04166666,5 3.75,5.29166666 3.75,5.625 C3.75,5.95833334 4.04166666,6.25 4.375,6.25 L6.25,6.25 C6.58333334,6.25 6.875,5.95833334 6.875,5.625 C6.875,5.29166666 6.58333334,5 6.25,5 Z M10.625,5 L8.75,5 C8.41666666,5 8.125,5.29166666 8.125,5.625 C8.125,5.95833334 8.41666666,6.25 8.75,6.25 L10.625,6.25 C10.9583333,6.25 11.25,5.95833334 11.25,5.625 C11.25,5.29166666 10.9583333,5 10.625,5 Z M6.25,8.75 L4.375,8.75 C4.04166666,8.75 3.75,9.04166666 3.75,9.375 C3.75,9.70833334 4.04166666,10 4.375,10 L6.25,10 C6.58333334,10 6.875,9.70833334 6.875,9.375 C6.875,9.04166666 6.58333334,8.75 6.25,8.75 Z M10.625,8.75 L8.75,8.75 C8.41666666,8.75 8.125,9.04166666 8.125,9.375 C8.125,9.70833334 8.41666666,10 8.75,10 L10.625,10 C10.9583333,10 11.25,9.70833334 11.25,9.375 C11.25,9.04166666 10.9583333,8.75 10.625,8.75 Z M6.25,12.5 L4.375,12.5 C4.04166666,12.5 3.75,12.7916667 3.75,13.125 C3.75,13.4583333 4.04166666,13.75 4.375,13.75 L6.25,13.75 C6.58333334,13.75 6.875,13.4583333 6.875,13.125 C6.875,12.7916667 6.58333334,12.5 6.25,12.5 Z M10.625,12.5 L8.75,12.5 C8.41666666,12.5 8.125,12.7916667 8.125,13.125 C8.125,13.4583333 8.41666666,13.75 8.75,13.75 L10.625,13.75 C10.9583333,13.75 11.25,13.4583333 11.25,13.125 C11.25,12.7916667 10.9583333,12.5 10.625,12.5 Z M15.625,11.875 C15.9583333,11.875 16.25,11.5833333 16.25,11.25 L16.25,9.375 C16.25,9.04166666 15.9583333,8.75 15.625,8.75 C15.2916667,8.75 15,9.04166666 15,9.375 L15,11.25 C15,11.5833333 15.2916667,11.875 15.625,11.875 Z M15.625,16.25 C15.9583333,16.25 16.25,15.9583333 16.25,15.625 L16.25,13.75 C16.25,13.4166667 15.9583333,13.125 15.625,13.125 C15.2916667,13.125 15,13.4166667 15,13.75 L15,15.625 C15,15.9583333 15.2916667,16.25 15.625,16.25 Z" id="Shape" fill="#3E3E3E"></path>
            </g>
        </g>
    </g>
</svg>