<?xml version="1.0" encoding="UTF-8"?>
<svg width="16px" height="16px" viewBox="0 0 16 16" version="1.1" xmlns="http://www.w3.org/2000/svg" xmlns:xlink="http://www.w3.org/1999/xlink">
    <title>plus_y</title>
    <g id="Guideline" stroke="none" stroke-width="1" fill="none" fill-rule="evenodd">
        <g id="icon" transform="translate(-125.000000, -640.000000)" fill-rule="nonzero">
            <g id="plus_y" transform="translate(125.000000, 640.000000)">
                <rect id="Rectangle" fill="#000000" opacity="0" x="0" y="0" width="16" height="16"></rect>
                <path d="M14.7368421,6.73684211 L9.26315789,6.73684211 L9.26315789,1.26315789 C9.26315789,0.58947367 8.67368422,0 8,0 C7.32631578,0 6.73684211,0.58947367 6.73684211,1.26315789 L6.73684211,6.73684211 L1.26315789,6.73684211 C0.58947367,6.73684211 0,7.32631578 0,8 C0,8.67368422 0.58947367,9.26315789 1.26315789,9.26315789 L6.73684211,9.26315789 L6.73684211,14.7368421 C6.73684211,15.4105263 7.32631578,16 8,16 C8.67368422,16 9.26315789,15.4105263 9.26315789,14.7368421 L9.26315789,9.26315789 L14.7368421,9.26315789 C15.4105263,9.26315789 16,8.67368422 16,8 C16,7.32631578 15.4105263,6.73684211 14.7368421,6.73684211 Z" fill="#FFB400"></path>
            </g>
        </g>
    </g>
</svg>