<svg xmlns="http://www.w3.org/2000/svg" xmlns:xlink="http://www.w3.org/1999/xlink" width="62" height="56" viewBox="0 0 62 56">
    <defs>
        <path id="5plmelg2ka" d="M0.354 0.119L22.867 0.119 22.867 21.712 0.354 21.712z"/>
        <path id="02lae309vc" d="M0.001 0L39.042 0 39.042 26.981 0.001 26.981z"/>
    </defs>
    <g fill="none" fill-rule="evenodd">
        <g>
            <g>
                <g>
                    <g>
                        <path fill="#FFE9C3" d="M29.018 9.844l.831 9.032-1.766.416-1.447 5.606-3.847-.415v5.978h-8.41s3.855-6.644 1.305-10.308C13.238 16.385 14.38 8.91 14.38 8.91l7.602-3.945 3.61 1.037 3.426 3.842z" transform="translate(-881 -761) translate(688 761) translate(193) translate(11 10)"/>
                        <g transform="translate(-881 -761) translate(688 761) translate(193) translate(11 10) translate(8.841 .295)">
                            <mask id="68ehthgxdb" fill="#fff">
                                <use xlink:href="#5plmelg2ka"/>
                            </mask>
                            <path fill="#000" d="M14.715 6.299s.842 3.718-.468 4.84c-1.31 1.123-3.837 2.9-3.556 3.836-1.123-.093-2.433-1.029-2.713-2.713-.28-1.684-2.808 3.274.28 4.96-.654 1.777-2.698 4.49-2.698 4.49s.078-3.198-2.916-4.92C-.35 15.07-1.566 6.556 6.387 4.778 9.756.566 11.627-.744 16.96.66c5.334 1.404 6.27 8.908 5.801 10.256h-6.83s.749-3.47-1.216-4.617" mask="url(#68ehthgxdb)"/>
                        </g>
                        <path fill="#FFE9C3" d="M15.025 29.42l-3.863 2.227s7.578 5.106 8.097 12.675c6.956-11.637 7.164-12.78 7.164-12.78l-3.67-1.262-7.728-.86z" transform="translate(-881 -761) translate(688 761) translate(193) translate(11 10)"/>
                        <g transform="translate(-881 -761) translate(688 761) translate(193) translate(11 10) translate(0 28.036)">
                            <mask id="blwicxw1vd" fill="#fff">
                                <use xlink:href="#02lae309vc"/>
                            </mask>
                            <path fill="#005378" d="M12.906 2.403s6.845 6.23 11.517.38c.497.018 2.845 1.114 4.823 1.78 1.553.523 2.767 1.714 3.297 3.228l6.5 9.912H0l3.593-7.549c.554-2.5 2.358-4.562 4.804-5.492l4.508-2.259z" mask="url(#blwicxw1vd)"/>
                        </g>
                        <path fill="#FFC06F" d="M22.789 24.483L18.1 22.008 19.522 30.035 22.789 30.461z" opacity=".5" transform="translate(-881 -761) translate(688 761) translate(193) translate(11 10)"/>
                    </g>
                </g>
            </g>
        </g>
    </g>
</svg>
