<svg width="19" height="19" fill="none" xmlns="http://www.w3.org/2000/svg">
    <path d="m17.707 17.596-3.601-3.39c1.278-1.402 1.975-3.272 1.975-5.258C15.849 4.507 12.363.884 8.064 1 3.766.884.28 4.507.164 8.948c.116 4.44 3.602 8.063 7.9 7.947 1.743 0 3.37-.585 4.764-1.637l3.834 3.506a.884.884 0 0 0 .58.234.874.874 0 0 0 .814-.584c0-.234 0-.585-.349-.818 0 0 0-.117 0 0zM1.791 8.948c.116-3.506 2.904-6.311 6.273-6.194 3.37-.117 6.158 2.688 6.274 6.194-.116 3.506-2.904 6.31-6.274 6.194-3.369.116-6.157-2.688-6.273-6.194z" fill="#FF7800"/>
</svg>
