<svg width="16" height="13" viewBox="0 0 16 13" fill="none" xmlns="http://www.w3.org/2000/svg">
<path d="M2.52632 0.615234H13.4737C14.1437 0.615234 14.7863 0.864053 15.2601 1.30695C15.7338 1.74985 16 2.35055 16 2.9769V10.0619C16 10.6883 15.7338 11.289 15.2601 11.7319C14.7863 12.1748 14.1437 12.4236 13.4737 12.4236H2.52632C1.8563 12.4236 1.21372 12.1748 0.739941 11.7319C0.266165 11.289 0 10.6883 0 10.0619V2.9769C0 2.35055 0.266165 1.74985 0.739941 1.30695C1.21372 0.864053 1.8563 0.615234 2.52632 0.615234V0.615234ZM2.52632 1.40246C2.11537 1.40246 1.73811 1.54022 1.44589 1.7693L8 5.74793L14.5541 1.7693C14.2514 1.53189 13.8688 1.40197 13.4737 1.40246H2.52632ZM8 6.6863L0.954947 2.4101C0.880241 2.59091 0.841983 2.78308 0.842105 2.9769V10.0619C0.842105 10.4795 1.01955 10.8799 1.3354 11.1752C1.65125 11.4705 2.07964 11.6364 2.52632 11.6364H13.4737C13.9204 11.6364 14.3487 11.4705 14.6646 11.1752C14.9805 10.8799 15.1579 10.4795 15.1579 10.0619V2.9769C15.1579 2.77695 15.1183 2.58565 15.0451 2.4101L8 6.68551V6.6863Z" fill="#292929"/>
</svg>
