<svg width="99" height="104" fill="none" xmlns="http://www.w3.org/2000/svg">
    <rect y="9.184" width="92" height="92" rx="46" fill="#DFE9FF"/>
    <path d="M24.868 47.174a5.41 5.41 0 0 0 1.565 6.024c3.298 3.3 10.081 15.215 13.439 23.61 2.291 5.727 7.322 11.347 11.139 15.055a8.577 8.577 0 0 1 2.56 6.132v.631a5.183 5.183 0 0 0 5.184 5.184h27.644a5.183 5.183 0 0 0 5.183-5.184V93.32a1.585 1.585 0 0 1 .462-1.176c6.377-5.832 6.45-15.566 6.45-15.978V48.813a7.095 7.095 0 0 0-6.409-7.185 6.906 6.906 0 0 0-3.958.941v-2.687a6.87 6.87 0 0 0-10.44-5.91 6.83 6.83 0 0 0-10.294-5.224v-2.861a13.649 13.649 0 0 0 6.912-11.921c0-7.634-6.189-13.822-13.823-13.822S46.66 6.332 46.66 13.966a13.65 13.65 0 0 0 6.911 11.921v27.817c.05 2.04-.228 4.073-.822 6.025a1.747 1.747 0 0 1-1.246 1.162 1.665 1.665 0 0 1-1.555-.409 24.56 24.56 0 0 1-3.573-4.28c-2.998-4.486-10.542-12.864-15.265-12.864a6.768 6.768 0 0 0-6.242 3.836zm25.248-33.208c0-5.726 4.64-10.367 10.366-10.367S70.85 8.24 70.85 13.966a10.261 10.261 0 0 1-3.456 7.737v-7.737a6.91 6.91 0 1 0-13.822 0v7.737a10.265 10.265 0 0 1-3.455-7.737zm-6.621 44.153A28.068 28.068 0 0 0 47.578 63a5.112 5.112 0 0 0 4.765 1.243 5.208 5.208 0 0 0 3.68-3.407 22.5 22.5 0 0 0 1.004-7.13v-39.74a3.455 3.455 0 1 1 6.91 0V50.25a1.728 1.728 0 1 0 3.456 0v-15.55a3.456 3.456 0 0 1 6.912 0v15.55a1.728 1.728 0 1 0 3.455 0V39.882a3.455 3.455 0 1 1 6.911 0v12.095a1.728 1.728 0 0 0 3.456 0V48.52a3.426 3.426 0 0 1 1.014-2.441 3.496 3.496 0 0 1 2.695-1.005 3.68 3.68 0 0 1 3.202 3.738v27.352c0 .085-.088 8.64-5.328 13.43a5.041 5.041 0 0 0-1.583 3.724v5.307c0 .955-.774 1.729-1.728 1.729H58.755a1.728 1.728 0 0 1-1.728-1.729v-.631a12.059 12.059 0 0 0-3.61-8.612c-2.927-2.842-8.162-8.425-10.335-13.86-3.556-8.884-10.591-21.154-14.206-24.768-.822-.822-1.097-1.583-.817-2.26a3.407 3.407 0 0 1 3.051-1.702c2.348 0 8.715 5.821 12.385 11.326z" fill="#5C5C5C"/>
    <path d="M89.856 74.437c.955 0 1.728-.773 1.728-1.728V62.343a1.728 1.728 0 0 0-3.455 0v10.366c0 .955.773 1.728 1.727 1.728zM88.128 84.803c.458 0 .898-.182 1.221-.506a7.015 7.015 0 0 0 2.234-4.678 1.706 1.706 0 0 0-1.686-1.703 1.738 1.738 0 0 0-1.769 1.664 3.802 3.802 0 0 1-1.222 2.273 1.728 1.728 0 0 0 1.222 2.95zM62.207 96.898h1.727a1.728 1.728 0 1 0 0-3.456h-1.727a1.728 1.728 0 1 0 0 3.456zM70.848 96.898h12.095a1.728 1.728 0 1 0 0-3.456H70.848a1.728 1.728 0 0 0 0 3.456zM46.659 28.718a1.728 1.728 0 0 0 1.26-2.912C41.932 19.48 41.607 9.68 47.162 2.97A1.73 1.73 0 0 0 46.13.132c-.62-.1-1.244.144-1.632.637-6.663 8.052-6.277 19.808.9 27.404.327.348.783.545 1.26.545zM76.612 24.14a1.726 1.726 0 0 0 2.325-.75A20.662 20.662 0 0 0 76.467.77a1.727 1.727 0 1 0-2.661 2.201 17.21 17.21 0 0 1 2.058 18.845c-.436.849-.1 1.89.748 2.325z" fill="#5C5C5C"/>
</svg>
