<svg width="25" height="25" fill="none" xmlns="http://www.w3.org/2000/svg">
    <path fill-rule="evenodd" clip-rule="evenodd" d="M2.916 12.613c0 5.423 4.396 9.819 9.818 9.819 5.423 0 9.819-4.396 9.819-9.819 0-5.422-4.396-9.818-9.819-9.818-5.422 0-9.818 4.396-9.818 9.818zm9.818 12c-6.627 0-12-5.372-12-12 0-6.627 5.373-12 12-12 6.628 0 12 5.373 12 12 0 6.628-5.372 12-12 12z" fill="#000000"/>
    <path fill-rule="evenodd" clip-rule="evenodd" d="M11.963 17.748a1.091 1.091 0 0 1 0-1.543l3.592-3.592-3.592-3.592a1.09 1.09 0 0 1 1.543-1.543l4.363 4.364a1.091 1.091 0 0 1 0 1.543l-4.363 4.363a1.091 1.091 0 0 1-1.543 0z" fill="#000000"/>
    <path fill-rule="evenodd" clip-rule="evenodd" d="M7.28 12.613c0-.602.488-1.09 1.09-1.09h8.728a1.09 1.09 0 1 1 0 2.181H8.371a1.09 1.09 0 0 1-1.091-1.09z" fill="#000000"/>
</svg>
