<svg width="121" height="109" fill="none" xmlns="http://www.w3.org/2000/svg">
    <rect y=".125" width="96.064" height="96.064" rx="48.032" fill="#EAE8D4"/>
    <path d="M58.445 35.669V13.979a4.603 4.603 0 0 1 4.602-4.603h50.891a4.604 4.604 0 0 1 4.602 4.603v46.138c0 2.54-2.06 4.602-4.602 4.602H99.523l7.983 36.249a4.704 4.704 0 0 1-3.583 5.614v.001a4.77 4.77 0 0 1-1.014.109h-.002v-1.54a3.167 3.167 0 0 1-3.092-2.485l-41.37-66.998zm0 0 2.71-3.168 2.214-2.589c.814-.953 1.893-1.55 3.064-1.802l1.216-.262v-9.266m-9.204 17.087 9.204-17.087m0 0h41.687v36.932H67.649v-8.2l-2.71 3.169-1.377 1.611-.001.001a5.574 5.574 0 0 1-3.72 1.92l-1.396.13v5.972a4.601 4.601 0 0 0 4.602 4.602h14.612l-7.985 36.251v.001a4.71 4.71 0 0 0 3.588 5.611v.001c2.52.553 5.051-1.04 5.608-3.586v-.002l8.43-38.276h2.581L67.65 18.582z" stroke="#5C5C5C" stroke-width="3.079"/>
    <path d="M87.53 29.202a1.181 1.181 0 0 0-1.534-.667l-18.043 6.369a3.962 3.962 0 0 0-5.427.553l-5.725 6.686-5.076-4.352c.033.36.11.709.11 1.078v9.447l2.824 2.42a3.963 3.963 0 0 0 5.584-.43l6.816-7.97 5.497-3.216 14.467-8.464c.5-.289.722-.905.506-1.454zM42.772 30.501h-3.4c-2.603 0-4.892 1.265-6.348 3.194l-10.437 9.609a3.96 3.96 0 0 0-.309 5.594l8.515 9.504a3.96 3.96 0 0 0 5.898-5.284l-5.87-6.554 8.338-7.46-4.856 6.597 4.75 5.303a7.131 7.131 0 0 1-.555 10.065c-2.001 1.794-4.732 2.215-7.1 1.388 0 0 .037 18.322.037 37.943a4.751 4.751 0 1 0 9.503 0V72.08h3.17v28.32c0 1.37-.382 2.639-.991 3.762.797.614 1.79.99 2.87.99a4.752 4.752 0 0 0 4.754-4.752c0-19.615.006-11.392.006-61.926a7.973 7.973 0 0 0-7.975-7.973zM36.84 27.65c1.27.66 2.696 1.07 4.229 1.07 1.536 0 2.962-.41 4.237-1.072 2.974-1.54 5.024-4.608 5.024-8.189 0-5.115-4.146-9.26-9.262-9.26a9.26 9.26 0 0 0-9.26 9.26c0 3.582 2.053 6.651 5.031 8.19z" fill="#5C5C5C"/>
</svg>
